<svg width="115" height="87" viewBox="0 0 115 87" fill="none" xmlns="http://www.w3.org/2000/svg">
<path d="M113.822 35.111C116.882 62.601 105.222 83.081 76.3719 85.561C39.6319 88.721 -3.13813 87.3709 0.181875 38.9809C1.77187 15.841 16.2219 2.91095 38.9119 1.01095C68.1019 -1.42905 109.642 -2.46906 113.822 35.1009V35.111Z" fill="#008BF8"/>
<path d="M80.233 34.8721C80.1562 34.7829 80.0666 34.6809 79.977 34.6043L60.3288 21.1764C58.7544 19.6079 56.2072 19.6079 54.6327 21.1764L34.9846 34.6681C34.895 34.7574 34.8054 34.8594 34.7286 34.9486C32.9494 37.091 34.6518 40.3428 37.4294 40.33H38.5814V61.9831C38.5814 64.202 40.3862 66 42.6134 66H48.3607C49.3719 66 50.1655 65.1839 50.1527 64.1764C50.1527 64.0999 50.1527 64.0234 50.1527 63.9469C50.1527 58.2085 53.1607 54.3446 57.4616 54.3446C61.7624 54.3446 64.86 58.1957 64.86 63.9469C64.86 64.0234 64.86 64.0999 64.86 64.1764C64.8472 65.1711 65.6408 66 66.652 66H72.3865C74.6137 66 76.4185 64.202 76.4185 61.9831V40.279H77.5833C80.3738 40.279 82.0506 37.0145 80.2586 34.8721H80.233Z" fill="#FFF600"/>
</svg>
