<svg width="297" height="117" viewBox="0 0 297 117" fill="none" xmlns="http://www.w3.org/2000/svg">
<path d="M162.076 67.7466C162.408 68.1638 162.596 67.7527 163.128 67.7527C163.66 67.7527 163.66 67.801 164.192 67.801C164.724 67.801 164.724 67.801 165.256 67.801C165.788 67.801 165.788 67.7466 166.32 67.7466C166.852 67.7466 166.852 67.795 167.384 67.795C167.916 67.795 167.916 67.7648 168.448 67.7648C168.98 67.7648 168.98 67.7104 169.512 67.7104C170.044 67.7104 170.044 67.7527 170.576 67.7527C171.108 67.7527 171.108 67.7285 171.64 67.7285C172.172 67.7285 172.172 67.801 172.71 67.801C173.248 67.801 173.242 67.7829 173.78 67.7829C174.318 67.7829 174.445 68.1094 174.874 67.789C175.303 67.4686 174.953 67.2509 175.086 66.7491C175.219 66.2473 175.267 66.2655 175.4 65.7697C175.533 65.274 175.473 65.2559 175.606 64.7602C175.739 64.2644 175.757 64.2644 175.89 63.7687C176.023 63.2729 176.029 63.2729 176.162 62.7772C176.295 62.2815 176.283 62.2754 176.416 61.7797C176.549 61.2839 176.531 61.2779 176.664 60.7821C176.797 60.2864 176.851 60.2985 176.984 59.7967C177.117 59.2949 177.153 59.307 177.286 58.8113C177.419 58.3155 177.383 58.3035 177.516 57.8078C177.649 57.312 177.667 57.312 177.8 56.8163C177.933 56.3205 177.963 56.3266 178.096 55.8248C178.229 55.323 178.163 55.3109 178.302 54.8091C178.441 54.3073 178.411 54.3013 178.544 53.8056C178.677 53.3099 178.689 53.3099 178.822 52.8081C178.955 52.3063 179.003 52.3244 179.136 51.8226C179.269 51.3209 179.245 51.3148 179.378 50.8191C179.511 50.3233 179.499 50.3173 179.638 49.8215C179.777 49.3258 179.832 49.3379 179.965 48.8361C180.098 48.3343 180.104 48.3404 180.237 47.8386C180.37 47.3369 180.345 47.3308 180.478 46.8351C180.611 46.3393 180.636 46.3393 180.769 45.8436C180.902 45.3478 180.871 45.3357 181.004 44.8339C181.137 44.3322 181.101 44.3262 181.234 43.8244C181.367 43.3226 181.409 43.3347 181.549 42.8329C181.688 42.3311 182.147 42.2223 181.827 41.8172C181.506 41.4122 181.283 41.8354 180.744 41.8354C180.206 41.8354 180.212 41.8354 179.68 41.8354C179.148 41.8354 179.148 41.8475 178.616 41.8475C178.084 41.8475 178.084 41.8172 177.552 41.8172C177.02 41.8172 177.02 41.8414 176.488 41.8414C175.956 41.8414 175.956 41.787 175.424 41.787C174.892 41.787 174.892 41.8475 174.36 41.8475C173.828 41.8475 173.828 41.799 173.296 41.799C172.764 41.799 172.764 41.8535 172.232 41.8535C171.7 41.8535 171.7 41.8656 171.162 41.8656C170.624 41.8656 170.63 41.8112 170.092 41.8112C169.554 41.8112 169.463 41.527 169.034 41.8475C168.605 42.1679 168.871 42.3251 168.738 42.8208C168.605 43.3165 168.617 43.3226 168.484 43.8183C168.351 44.3141 168.399 44.3321 168.266 44.8279C168.133 45.3236 168.043 45.3055 167.91 45.8012C167.777 46.2969 167.795 46.303 167.662 46.8048C167.529 47.3066 167.577 47.3126 167.444 47.8144C167.311 48.3162 167.263 48.2981 167.13 48.7999C166.997 49.3016 166.973 49.2896 166.84 49.7913C166.707 50.2931 166.803 50.3173 166.664 50.813C166.525 51.3087 166.531 51.3088 166.398 51.8105C166.265 52.3123 166.229 52.3002 166.096 52.796C165.963 53.2917 165.903 53.2796 165.77 53.7814C165.637 54.2832 165.667 54.2892 165.534 54.785C165.401 55.2807 165.419 55.2867 165.286 55.7885C165.153 56.2903 165.147 56.2842 165.014 56.786C164.881 57.2878 164.881 57.2878 164.748 57.7836C164.615 58.2793 164.615 58.2793 164.482 58.7811C164.349 59.2829 164.373 59.2889 164.24 59.7846C164.107 60.2803 164.077 60.2743 163.938 60.7761C163.799 61.2779 163.775 61.2658 163.642 61.7676C163.509 62.2693 163.551 62.2754 163.412 62.7772C163.273 63.279 163.273 63.2729 163.134 63.7747C162.995 64.2765 163.007 64.2765 162.874 64.7782C162.741 65.28 162.704 65.2679 162.571 65.7697C162.438 66.2715 162.571 66.3259 162.336 66.7854C162.076 67.2751 161.743 67.3597 162.064 67.7648L162.076 67.7466Z" fill="#008BF8"/>
<path d="M125.694 66.8217C126.008 67.2328 126.238 66.7976 126.758 66.7976C127.278 66.7976 127.278 66.8217 127.797 66.8217C128.317 66.8217 128.317 66.8459 128.843 66.8459C129.369 66.8459 129.363 66.8459 129.883 66.8459C130.403 66.8459 130.403 66.8338 130.923 66.8338C131.443 66.8338 131.443 66.8217 131.969 66.8217C132.495 66.8217 132.489 66.7915 133.009 66.7915C133.529 66.7915 133.529 66.7673 134.049 66.7673C134.568 66.7673 134.568 66.8459 135.094 66.8459C135.62 66.8459 135.614 66.7976 136.134 66.7976C136.654 66.7976 136.654 66.8096 137.18 66.8096C137.706 66.8096 137.706 66.8338 138.226 66.8338C138.746 66.8338 138.843 67.1059 139.26 66.7855C139.677 66.465 139.447 66.3079 139.58 65.8121C139.713 65.3164 139.665 65.2982 139.798 64.7964C139.931 64.2947 139.919 64.2946 140.058 63.7929C140.197 63.2911 140.233 63.3032 140.366 62.8074C140.499 62.3117 140.475 62.2997 140.608 61.8039C140.741 61.3082 140.783 61.3142 140.916 60.8124C141.049 60.3107 140.983 60.2925 141.116 59.7907C141.249 59.2889 141.273 59.295 141.406 58.7992C141.539 58.3035 141.563 58.3035 141.696 57.8018C141.829 57.3 141.787 57.2879 141.92 56.7861C142.053 56.2843 142.119 56.3024 142.252 55.8006C142.385 55.2989 142.397 55.3049 142.53 54.8031C142.663 54.3013 142.597 54.2832 142.73 53.7815C142.863 53.2797 142.863 53.2796 143.002 52.7779C143.141 52.2761 143.117 52.2761 143.25 51.7743C143.383 51.2725 143.407 51.2847 143.54 50.7829C143.673 50.2811 143.703 50.2871 143.836 49.7853C143.969 49.2836 143.969 49.2835 144.102 48.7818C144.235 48.28 144.181 48.2679 144.314 47.7661C144.447 47.2643 144.447 47.2643 144.58 46.7626C144.713 46.2608 144.798 46.285 144.931 45.7832C145.064 45.2814 145.033 45.2693 145.166 44.7675C145.299 44.2657 145.269 44.2597 145.408 43.7519C145.547 43.2441 146.013 43.1715 145.692 42.7604C145.372 42.3493 145.184 42.7725 144.665 42.7725C144.145 42.7725 144.145 42.7725 143.625 42.7725C143.105 42.7725 143.105 42.7483 142.585 42.7483C142.065 42.7483 142.065 42.7241 141.545 42.7241C141.025 42.7241 141.025 42.7241 140.511 42.7241C139.997 42.7241 139.991 42.7301 139.471 42.7301C138.951 42.7301 138.951 42.7604 138.432 42.7604C137.912 42.7604 137.912 42.7725 137.392 42.7725C136.872 42.7725 136.872 42.7423 136.352 42.7423C135.832 42.7423 135.832 42.7483 135.312 42.7483C134.792 42.7483 134.792 42.7544 134.272 42.7544C133.752 42.7544 133.752 42.7059 133.232 42.7059C132.712 42.7059 132.592 42.4158 132.18 42.7301C131.769 43.0445 132.078 43.2501 131.945 43.7519C131.812 44.2537 131.751 44.2355 131.618 44.7373C131.485 45.2391 131.564 45.2572 131.425 45.759C131.286 46.2608 131.231 46.2426 131.092 46.7444C130.953 47.2462 130.971 47.2462 130.838 47.748C130.705 48.2498 130.742 48.2558 130.609 48.7576C130.476 49.2593 130.439 49.2473 130.306 49.749C130.173 50.2508 130.143 50.2387 130.004 50.7405C129.865 51.2423 129.938 51.2605 129.805 51.7623C129.672 52.264 129.629 52.2519 129.496 52.7537C129.363 53.2554 129.387 53.2615 129.254 53.7633C129.121 54.2651 129.079 54.253 128.946 54.7548C128.813 55.2566 128.849 55.2626 128.71 55.7644C128.571 56.2662 128.535 56.2541 128.402 56.7559C128.269 57.2577 128.311 57.2637 128.172 57.7655C128.033 58.2672 128.021 58.2612 127.882 58.7569C127.743 59.2527 127.743 59.2587 127.604 59.7605C127.465 60.2623 127.471 60.2623 127.338 60.764C127.205 61.2658 127.157 61.2537 127.024 61.7555C126.891 62.2573 126.963 62.2755 126.824 62.7773C126.685 63.279 126.637 63.2609 126.498 63.7627C126.359 64.2645 126.395 64.2765 126.262 64.7783C126.129 65.2801 126.25 65.3345 126.002 65.794C125.724 66.3018 125.367 66.3865 125.681 66.8036L125.694 66.8217Z" fill="#008BF8"/>
<path d="M295.247 47.0587C295.175 46.7202 294.147 46.5992 294.068 46.2667C293.99 45.9342 294.304 45.499 294.213 45.1665C294.123 44.834 294.062 44.4894 293.959 44.1629C293.857 43.8364 293.367 43.6309 293.258 43.3045C293.149 42.978 293.881 42.3552 293.76 42.0288C293.639 41.7023 293.101 41.5331 292.974 41.2127C292.847 40.8922 292.865 40.5054 292.726 40.191C292.587 39.8766 292.775 39.399 292.623 39.0907C292.472 38.7823 292.152 38.5345 292.001 38.2262C291.85 37.9179 291.747 37.5672 291.584 37.2589C291.42 36.9506 290.919 36.8296 290.749 36.5334C290.58 36.2372 290.501 35.8745 290.314 35.5782C290.127 35.282 290.181 34.8346 289.994 34.5444C289.806 34.2542 289.347 34.1394 289.147 33.8553C288.948 33.5711 288.488 33.4804 288.283 33.1962C288.077 32.9121 288.071 32.495 287.853 32.2229C287.636 31.9509 287.642 31.5035 287.424 31.2315C287.207 30.9594 286.342 31.2435 286.112 30.9836C285.883 30.7236 285.852 30.3065 285.617 30.0526C285.381 29.7987 285.26 29.448 285.024 29.1941C284.788 28.9402 284.54 28.7104 284.293 28.4626C284.045 28.2147 284.28 27.4771 284.033 27.2414C283.785 27.0056 283.168 27.1447 282.908 26.9149C282.648 26.6852 282.66 26.1532 282.394 25.9234C282.128 25.6937 281.935 25.3793 281.675 25.1556C281.415 24.932 281.149 24.6901 280.877 24.4725C280.605 24.2548 279.71 24.8352 279.432 24.6236C279.154 24.412 278.924 24.1702 278.646 23.9586C278.368 23.747 278.126 23.5173 277.842 23.3118C277.558 23.1062 277.703 22.3143 277.419 22.1208C277.135 21.9273 276.947 21.5706 276.663 21.3772C276.379 21.1837 276.077 20.9963 275.786 20.8089C275.496 20.6215 274.656 21.3046 274.36 21.1233C274.064 20.9419 273.87 20.6154 273.568 20.4401C273.265 20.2648 273.259 19.6058 272.963 19.4305C272.667 19.2552 272.117 19.5212 271.815 19.3519C271.512 19.1826 271.5 18.4934 271.198 18.3242C270.896 18.1549 270.714 17.7499 270.412 17.5866C270.11 17.4234 269.372 18.0884 269.064 17.9312C268.755 17.774 268.604 17.3146 268.29 17.1634C267.976 17.0123 267.613 16.9821 267.299 16.8309C266.984 16.6798 266.537 16.8309 266.222 16.6858C265.908 16.5407 265.896 15.7488 265.582 15.6037C265.267 15.4586 264.826 15.6037 264.505 15.4646C264.185 15.3256 263.72 15.5492 263.399 15.4162C263.079 15.2832 262.909 14.8057 262.589 14.6727C262.269 14.5397 261.827 14.715 261.507 14.588C261.186 14.4611 260.975 14.056 260.654 13.929C260.334 13.8021 260.02 13.657 259.699 13.53C259.379 13.4031 258.931 13.6147 258.605 13.4938C258.279 13.3729 258.279 12.3753 257.952 12.2544C257.626 12.1335 257.003 12.865 256.676 12.7502C256.35 12.6353 256.241 11.9098 255.909 11.801C255.576 11.6922 255.34 11.3294 255.008 11.2206C254.675 11.1118 254.234 11.3536 253.908 11.2508C253.581 11.1481 253.067 11.6196 252.741 11.5169C252.414 11.4141 252.154 11.0997 251.822 10.9969C251.489 10.8942 251.248 10.5254 250.915 10.4226C250.583 10.3198 250.292 10.0901 249.96 9.99339C249.627 9.89667 249.095 10.5193 248.763 10.4226C248.43 10.3259 248.098 10.2533 247.765 10.1627C247.433 10.072 247.209 9.6004 246.871 9.50972C246.532 9.41904 246.314 8.91124 245.982 8.82661C245.649 8.74197 245.111 9.44322 244.773 9.35858C244.434 9.27394 244.198 8.83265 243.86 8.74801C243.521 8.66337 243.31 8.08902 242.977 8.00438C242.645 7.91974 242.288 7.92578 241.949 7.84719C241.611 7.7686 241.109 8.40341 240.777 8.32481C240.444 8.24622 240.16 7.92579 239.821 7.85324C239.483 7.7807 239.156 7.67188 238.818 7.59329C238.479 7.5147 238.129 7.52075 237.79 7.4482C237.452 7.37565 237.21 6.86176 236.871 6.78922C236.533 6.71667 236.067 7.28496 235.729 7.21241C235.39 7.13987 235.191 6.40233 234.852 6.32979C234.513 6.25724 234.127 6.45068 233.788 6.38417C233.449 6.31767 233.196 5.80985 232.857 5.74335C232.518 5.67685 232.162 5.68288 231.823 5.61638C231.485 5.54988 230.983 6.37814 230.644 6.31768C230.306 6.25723 230.112 5.36854 229.774 5.30808C229.435 5.24763 229.066 5.33224 228.728 5.27783C228.389 5.22342 228.069 5.01789 227.73 4.96348C227.392 4.90907 227.047 4.8607 226.703 4.80629C226.358 4.75188 226.007 4.78816 225.663 4.73375C225.318 4.67934 224.931 4.92719 224.593 4.87278C224.254 4.81837 223.903 4.83653 223.559 4.78212C223.214 4.72771 222.954 4.16545 222.61 4.11709C222.265 4.06872 221.896 4.19567 221.558 4.14731C221.219 4.09894 220.887 3.96594 220.542 3.91758C220.198 3.86921 219.871 3.69993 219.533 3.65157C219.194 3.6032 218.88 3.32512 218.535 3.2828C218.19 3.24048 217.731 4.11103 217.386 4.06871C217.042 4.0264 216.697 4.01432 216.353 3.972C216.008 3.92968 215.681 3.76042 215.337 3.7181C214.992 3.67578 214.678 3.42789 214.333 3.39161C213.989 3.35534 213.723 2.68429 213.378 2.64197C213.034 2.59965 212.628 3.10144 212.29 3.06517C211.951 3.02889 211.577 3.22236 211.238 3.18609C210.899 3.14981 210.525 3.40372 210.18 3.36744C209.835 3.33117 209.569 2.58153 209.225 2.54526C208.88 2.50898 208.548 2.35785 208.203 2.32763C207.859 2.2974 207.52 2.21276 207.175 2.17649C206.831 2.14021 206.492 2.02532 206.148 1.99509C205.803 1.96486 205.428 2.2611 205.084 2.23088C204.739 2.20065 204.37 2.44246 204.026 2.41224C203.681 2.38201 203.342 2.29738 202.998 2.26715C202.653 2.23692 202.357 1.63843 202.012 1.6082C201.668 1.57797 201.239 2.62383 200.894 2.59965C200.549 2.57546 200.259 1.85001 199.915 1.81978C199.57 1.78955 199.238 1.60817 198.893 1.57795C198.548 1.54772 198.149 2.29133 197.805 2.26715C197.46 2.24297 197.14 1.88629 196.795 1.86211C196.451 1.83792 196.13 1.48125 195.786 1.45706C195.441 1.43288 195.054 2.07975 194.703 2.05557C194.353 2.03139 194.032 1.69888 193.688 1.6747C193.343 1.65051 193.005 1.49331 192.66 1.46913C192.315 1.44495 191.953 1.75932 191.602 1.74119C191.251 1.72305 190.925 1.51749 190.574 1.49935C190.224 1.48121 189.873 1.63235 189.528 1.61422C189.184 1.59608 188.888 0.677182 188.537 0.659045C188.186 0.640908 187.805 1.42683 187.461 1.40869C187.116 1.39055 186.778 1.19709 186.433 1.17895C186.088 1.16082 185.756 0.816218 185.411 0.798081C185.067 0.779944 184.698 1.23336 184.353 1.21523C184.009 1.19709 183.682 0.646924 183.338 0.628788C182.993 0.610651 182.612 1.43288 182.268 1.42079C181.923 1.4087 181.603 0.74368 181.258 0.731589C180.913 0.719498 180.545 1.23336 180.2 1.21523C179.855 1.19709 179.505 1.24544 179.16 1.23334C178.816 1.22125 178.483 0.840393 178.132 0.828302C177.782 0.81621 177.431 1.05802 177.087 1.04593C176.742 1.03384 176.41 0.598561 176.059 0.592516C175.708 0.58647 175.364 0.713428 175.019 0.707383C174.674 0.701337 174.318 0.949214 173.973 0.943169C173.629 0.937123 173.296 0.27816 172.951 0.266069C172.607 0.253978 172.25 0.713428 171.9 0.707383C171.549 0.701337 171.198 1.02176 170.854 1.01571C170.509 1.00967 170.183 0.0847032 169.832 0.0786577C169.481 0.0726121 169.125 0.804127 168.78 0.798081C168.435 0.792036 168.091 0.761803 167.74 0.755758C167.39 0.749712 167.051 0.695311 166.7 0.689265C166.35 0.68322 166.005 0.749706 165.661 0.749706C165.316 0.749706 164.977 0.00610796 164.633 6.23946e-05C164.288 -0.00598317 163.938 0.429311 163.587 0.429311C163.236 0.429311 162.892 0.671142 162.547 0.665096C162.202 0.659051 161.858 0.0968121 161.513 0.0968121C161.169 0.0968121 160.818 0.374884 160.473 0.374884C160.129 0.374884 159.778 0.919 159.434 0.919C159.089 0.919 158.744 0.471634 158.394 0.471634C158.043 0.471634 157.698 0.73764 157.354 0.73764C157.009 0.73764 156.659 0.471634 156.314 0.471634C155.969 0.471634 155.619 0.71344 155.274 0.719486C154.93 0.725531 154.579 0.0302828 154.234 0.0302828C153.89 0.0302828 153.545 0.919 153.195 0.919C152.844 0.919 152.499 0.919 152.155 0.919C151.81 0.919 151.459 0.798081 151.115 0.798081C150.77 0.798081 150.42 0.127032 150.069 0.127032C149.718 0.127032 149.374 0.0847091 149.029 0.0847091C148.685 0.0847091 148.334 0.0967811 147.989 0.102827C147.645 0.108872 147.294 0.181428 146.949 0.187473C146.605 0.193519 146.254 0.284192 145.91 0.290238C145.565 0.296283 145.214 0.0907665 144.864 0.0968121C144.513 0.102858 144.181 0.900851 143.836 0.906897C143.491 0.912942 143.129 0.157259 142.784 0.163304C142.439 0.16935 142.089 0.181428 141.744 0.187473C141.4 0.193519 141.055 0.393045 140.704 0.39909C140.354 0.405136 140.015 0.677168 139.671 0.683214C139.326 0.68926 138.969 0.37489 138.625 0.380936C138.28 0.386981 137.936 0.792036 137.591 0.798081C137.246 0.804127 136.89 0.362787 136.539 0.368833C136.188 0.374878 135.862 1.16081 135.517 1.1729C135.173 1.18499 134.804 0.362793 134.459 0.374884C134.115 0.386975 133.776 0.931078 133.432 0.943169C133.087 0.95526 132.718 0.169331 132.374 0.181422C132.029 0.193513 131.709 1.20314 131.358 1.21523C131.007 1.22732 130.645 0.544153 130.3 0.556244C129.955 0.568335 129.611 0.749718 129.266 0.761809C128.922 0.7739 128.559 0.314418 128.214 0.32651C127.87 0.338601 127.525 0.550198 127.18 0.556244C126.836 0.562289 126.491 0.628799 126.141 0.640891C125.79 0.652982 125.445 0.604631 125.101 0.616722C124.756 0.628813 124.406 0.604631 124.061 0.616722C123.716 0.628813 123.39 1.32405 123.045 1.33615C122.701 1.34824 122.356 1.45704 122.012 1.46913C121.667 1.48122 121.304 1.08827 120.96 1.10036C120.615 1.11245 120.27 1.17897 119.926 1.19106C119.581 1.20315 119.231 1.20314 118.886 1.21523C118.541 1.22732 118.185 1.0641 117.84 1.07619C117.496 1.08828 117.139 0.876688 116.794 0.888779C116.45 0.90087 116.123 1.52353 115.779 1.53562C115.434 1.54771 115.077 1.3724 114.733 1.39053C114.388 1.40867 114.05 1.62634 113.699 1.64447C113.348 1.66261 113.01 1.71699 112.665 1.72908C112.321 1.74118 111.958 1.34823 111.613 1.36637C111.269 1.3845 110.906 1.03989 110.561 1.05198C110.217 1.06408 109.89 1.61423 109.546 1.63237C109.201 1.65051 108.862 1.84396 108.518 1.85605C108.173 1.86815 107.817 1.59006 107.472 1.60215C107.127 1.61424 106.771 1.40266 106.426 1.42079C106.081 1.43893 105.737 1.43892 105.392 1.45101C105.048 1.4631 104.697 1.31801 104.352 1.33615C104.008 1.35428 103.7 2.27923 103.355 2.29737C103.01 2.31551 102.636 1.64445 102.291 1.65654C101.946 1.66863 101.614 1.83792 101.269 1.85605C100.925 1.87419 100.574 1.86209 100.229 1.88022C99.8848 1.89836 99.5221 1.60213 99.1714 1.62027C98.8208 1.63841 98.4641 1.48121 98.1195 1.49935C97.7749 1.51749 97.4545 2.02533 97.1038 2.04347C96.7532 2.0616 96.4086 2.0495 96.064 2.07369C95.7194 2.09787 95.3748 2.16436 95.0302 2.1825C94.6856 2.20064 94.341 2.26714 93.9964 2.29132C93.6518 2.3155 93.3254 2.59968 92.9747 2.6299C92.6241 2.66013 92.2613 2.43643 91.9167 2.46061C91.5721 2.48479 91.2457 2.78709 90.9011 2.81732C90.5565 2.84754 90.1635 2.34574 89.8189 2.37596C89.4743 2.40619 89.1539 2.73266 88.8093 2.76289C88.4647 2.79312 88.0959 2.59362 87.7514 2.62385C87.4068 2.65408 87.1226 3.34932 86.778 3.37955C86.4334 3.40978 86.0828 3.36744 85.7382 3.40372C85.3936 3.43999 84.9522 2.53315 84.6077 2.56943C84.2631 2.6057 84.0031 3.46416 83.6585 3.50043C83.3139 3.5367 82.9209 3.13166 82.5763 3.16793C82.2317 3.2042 81.9113 3.44604 81.5667 3.48231C81.2221 3.51859 80.8836 3.59718 80.539 3.6395C80.1944 3.68182 79.8921 4.06872 79.5475 4.11104C79.2029 4.15336 78.7979 3.7181 78.4593 3.76042C78.1208 3.80274 77.8064 4.14126 77.4678 4.18358C77.1293 4.2259 76.8149 4.51609 76.4703 4.56445C76.1257 4.61282 75.7932 4.7035 75.4486 4.75187C75.104 4.80023 74.6506 4.05061 74.306 4.09897C73.9614 4.14734 73.7317 4.94534 73.3871 4.9937C73.0425 5.04207 72.5709 4.23802 72.2324 4.29243C71.8938 4.34684 71.5795 4.63096 71.2409 4.68537C70.9024 4.73978 70.4973 4.44355 70.1588 4.49796C69.8202 4.55237 69.5844 5.28389 69.2459 5.3383C68.9073 5.39271 68.5809 5.55592 68.2423 5.61638C67.9038 5.67683 67.4503 5.11461 67.1118 5.17506C66.7732 5.23552 66.5798 6.11819 66.2412 6.17865C65.9027 6.2391 65.5702 6.34188 65.2316 6.40838C64.8931 6.47488 64.3913 5.70101 64.0527 5.76752C63.7142 5.83402 63.3635 5.87031 63.025 5.94286C62.6864 6.01541 62.4446 6.57763 62.1061 6.64413C61.7675 6.71063 61.4834 7.04315 61.1448 7.1157C60.8063 7.18825 60.4617 7.22451 60.1231 7.29706C59.7846 7.36961 59.3372 6.9464 58.9986 7.01895C58.6601 7.0915 58.4666 7.7928 58.1281 7.8714C57.7895 7.94999 57.3361 7.53285 57.0036 7.61144C56.6711 7.69003 56.4656 8.34293 56.1331 8.42153C55.8005 8.50012 55.2141 7.58724 54.8816 7.67188C54.5491 7.75652 54.3496 8.40943 54.0171 8.49407C53.6846 8.57871 53.3279 8.59685 52.9954 8.68753C52.6629 8.77822 52.409 9.17119 52.0765 9.26187C51.744 9.35255 51.4054 9.43114 51.0729 9.52182C50.7404 9.61251 50.3777 9.59439 50.0452 9.69112C49.7127 9.78785 49.4104 9.98128 49.0779 10.0841C48.7454 10.1868 48.1529 9.413 47.8264 9.51577C47.5 9.61855 47.1917 9.82409 46.8652 9.92687C46.5387 10.0296 46.3574 10.6221 46.0309 10.7249C45.7045 10.8277 45.4264 11.0997 45.0999 11.2085C44.7734 11.3173 44.5498 11.7406 44.2233 11.8494C43.8968 11.9582 43.5825 12.0972 43.256 12.2061C42.9295 12.3149 42.4398 11.9703 42.1194 12.0851C41.799 12.2 41.4786 12.3511 41.1582 12.4721C40.8378 12.593 40.5113 12.7199 40.1909 12.8408C39.8705 12.9617 39.3506 12.593 39.0302 12.7139C38.7097 12.8348 38.7218 13.8202 38.4014 13.9472C38.081 14.0741 37.6155 13.8444 37.3011 13.9774C36.9868 14.1104 36.7449 14.4429 36.4306 14.5759C36.1162 14.7089 35.6688 14.5578 35.3544 14.6908C35.0401 14.8238 34.7378 15.0112 34.4234 15.1502C34.1091 15.2893 33.7584 15.3558 33.4441 15.4948C33.1297 15.6339 32.9725 16.1236 32.6642 16.2687C32.3558 16.4138 31.7029 15.8636 31.3946 16.0148C31.0863 16.1659 31.1649 17.1211 30.8566 17.2722C30.5482 17.4234 30.246 17.5866 29.9376 17.7438C29.6293 17.901 29.1215 17.6712 28.8192 17.8284C28.5169 17.9856 27.9607 17.6954 27.6584 17.8586C27.3562 18.0219 27.5013 19.0073 27.205 19.1766C26.9088 19.3459 26.2377 18.8804 25.9415 19.0557C25.6453 19.231 25.3067 19.3519 25.0105 19.5272C24.7143 19.7025 24.279 19.6663 23.9827 19.8477C23.6865 20.029 23.6502 20.6336 23.3601 20.8149C23.0699 20.9963 22.7676 21.1777 22.4774 21.3651C22.1872 21.5525 21.7278 21.4981 21.4436 21.6915C21.1595 21.885 21.1474 22.4896 20.8693 22.6891C20.5912 22.8886 20.5428 23.4206 20.2647 23.6201C19.9866 23.8196 19.4002 23.608 19.1282 23.8196C18.8561 24.0312 18.4087 24.0251 18.1427 24.2367C17.8767 24.4483 17.9976 25.1677 17.7316 25.3793C17.4656 25.5909 16.6918 25.2101 16.4318 25.4277C16.1719 25.6453 15.9663 25.9597 15.7124 26.1894C15.4585 26.4192 15.7487 27.2716 15.4948 27.5013C15.2409 27.7311 14.4368 27.3744 14.1889 27.6101C13.9411 27.8459 14.2071 28.6318 13.9653 28.8676C13.7234 29.1034 12.7803 28.656 12.5385 28.9039C12.2967 29.1518 12.0911 29.448 11.8553 29.6959C11.6196 29.9437 11.3838 30.2158 11.148 30.4697C10.9122 30.7236 11.3778 31.5942 11.148 31.8541C10.9183 32.1141 9.91472 31.7211 9.69708 31.9872C9.47944 32.2532 9.99331 33.1177 9.78172 33.3837C9.57013 33.6497 8.86884 33.5529 8.66329 33.831C8.45774 34.1091 8.18569 34.3449 7.98619 34.629C7.78668 34.9132 7.52068 35.1611 7.32722 35.4452C7.13377 35.7294 7.13377 36.1525 6.94635 36.4427C6.75894 36.7329 6.69848 37.1078 6.51712 37.3979C6.33575 37.6881 6.5413 38.208 6.37202 38.5103C6.20275 38.8126 5.53169 38.8307 5.36846 39.133C5.20523 39.4353 4.96341 39.7073 4.80622 40.0096C4.64904 40.3119 4.42535 40.6021 4.27421 40.9104C4.12307 41.2187 4.26212 41.6661 4.12307 41.9865C3.98403 42.3069 3.42179 42.446 3.28879 42.7664C3.15579 43.0868 3.16183 43.4737 3.04092 43.7941C2.92001 44.1145 3.66361 44.7554 3.54875 45.0818C3.43388 45.4083 2.51496 45.4567 2.40614 45.7831C2.29732 46.1096 2.122 46.424 2.02527 46.7565C1.92854 47.089 2.61169 47.6331 2.521 47.9656C2.43032 48.2981 1.91644 48.5157 1.83785 48.8543C1.75926 49.1928 2.06154 49.6039 1.98899 49.9425C1.91644 50.281 1.19098 50.4866 1.13052 50.8251C1.07007 51.1637 1.0217 51.5143 0.967294 51.8528C0.912884 52.1914 1.60812 52.6388 1.55976 52.9833C1.51139 53.3279 1.29375 53.6423 1.25143 53.9809C1.20911 54.3194 0.785926 54.6278 0.749653 54.9663C0.71338 55.3049 0.562237 55.6495 0.538055 55.988C0.513872 56.3266 0.525965 56.6833 0.501783 57.0279C0.477601 57.3725 0.392965 57.7231 0.380873 58.0616C0.368782 58.4002 0.495739 58.7629 0.489694 59.1075C0.483648 59.4521 0 59.8028 0 60.1474C0 60.492 0.622693 60.8366 0.628739 61.1812C0.634785 61.5258 0.45342 61.8824 0.465511 62.227C0.477602 62.5716 0.804061 62.8981 0.828244 63.2427C0.852426 63.5873 0.501785 63.9682 0.532012 64.3067C0.56224 64.6453 0.931017 64.9596 0.973336 65.3042C1.01565 65.6488 0.991473 65.9995 1.03984 66.3381C1.0882 66.6766 1.54767 66.9547 1.60812 67.2932C1.66858 67.6318 1.69881 67.9704 1.76531 68.3089C1.83181 68.6475 1.03984 69.1734 1.11843 69.512C1.19703 69.8505 1.29375 70.1951 1.37839 70.5276C1.46303 70.8601 2.43032 70.9568 2.521 71.2893C2.61169 71.6218 2.66005 71.9604 2.76282 72.2869C2.8656 72.6133 2.67214 73.0426 2.787 73.369C2.90187 73.6955 2.58146 74.1852 2.70237 74.5056C2.82328 74.826 3.78452 74.8199 3.91753 75.1404C4.05053 75.4608 4.10494 75.7993 4.24399 76.1137C4.38304 76.428 4.54627 76.7243 4.6974 77.0326C4.84854 77.3409 4.35885 77.9697 4.51604 78.278C4.67322 78.5864 5.37451 78.6044 5.54378 78.9067C5.71306 79.209 5.39869 79.7834 5.57401 80.0796C5.74933 80.3758 6.04557 80.6055 6.23298 80.8957C6.42039 81.1859 7.18213 81.0953 7.37559 81.3855C7.56905 81.6756 7.18817 82.3406 7.38768 82.6248C7.58718 82.9089 7.49045 83.4107 7.696 83.6888C7.90155 83.9669 8.34892 84.0696 8.56052 84.3417C8.77211 84.6137 8.88698 84.9705 9.10462 85.2425C9.32226 85.5146 9.83613 85.5327 10.0659 85.7926C10.2956 86.0526 10.1928 86.6027 10.4286 86.8627C10.6644 87.1227 11.0211 87.2677 11.2568 87.5156C11.4926 87.7635 12.0186 87.7393 12.2604 87.9872C12.5022 88.235 12.5869 88.634 12.8347 88.8758C13.0826 89.1177 13.5118 89.1601 13.7657 89.3958C14.0197 89.6316 14.2192 89.9157 14.4791 90.1455C14.7391 90.3752 14.5698 91.1006 14.8358 91.3243C15.1018 91.548 15.525 91.5904 15.791 91.808C16.057 92.0256 16.2928 92.2916 16.5648 92.5092C16.8369 92.7269 17.514 92.4065 17.7921 92.612C18.0702 92.8176 18.3301 93.0292 18.6143 93.2347C18.8984 93.4403 18.6989 94.3048 18.9831 94.5043C19.2672 94.7038 19.6058 94.8308 19.8899 95.0242C20.174 95.2177 20.8088 94.8912 21.099 95.0786C21.3892 95.266 21.5343 95.6771 21.8245 95.8646C22.1147 96.052 22.1933 96.584 22.4895 96.7653C22.7857 96.9467 23.1968 96.9406 23.4931 97.116C23.7893 97.2913 24.0069 97.6118 24.3092 97.781C24.6115 97.9503 25.3974 97.243 25.6997 97.4123C26.002 97.5815 25.8508 98.579 26.1592 98.7422C26.4675 98.9055 27.1144 98.4097 27.4166 98.573C27.7189 98.7362 27.6464 99.6491 27.9547 99.8063C28.263 99.9635 28.8252 99.6128 29.1336 99.7639C29.4419 99.9151 29.9255 99.6974 30.2399 99.8425C30.5543 99.9876 30.911 100.024 31.2253 100.169C31.5397 100.314 31.4974 101.233 31.8178 101.372C32.1382 101.511 32.5675 101.372 32.8879 101.517C33.2083 101.662 33.571 101.668 33.8914 101.801C34.2118 101.934 34.4839 102.17 34.8043 102.297C35.1247 102.424 35.4875 102.436 35.8139 102.569C36.1404 102.702 36.3459 103.107 36.6663 103.228C36.9868 103.349 37.4704 103.053 37.7908 103.174C38.1112 103.295 38.4619 103.331 38.7883 103.452C39.1148 103.573 39.2297 104.256 39.5561 104.371C39.8826 104.485 40.2151 104.57 40.5415 104.685C40.868 104.8 41.2126 104.848 41.5391 104.963C41.8655 105.078 42.1497 105.308 42.4822 105.411C42.8147 105.513 43.1169 105.683 43.4495 105.785C43.782 105.888 44.2837 105.417 44.6163 105.519C44.9488 105.622 45.2813 105.695 45.6138 105.791C45.9463 105.888 46.309 105.852 46.6415 105.955C46.974 106.057 47.1856 106.529 47.5181 106.626C47.8506 106.722 48.304 106.372 48.6366 106.462C48.9691 106.553 49.2472 106.813 49.5857 106.904C49.9243 106.994 50.0331 107.895 50.3656 107.986C50.6981 108.077 51.218 107.448 51.5566 107.533C51.8951 107.617 52.2639 107.545 52.5964 107.629C52.9289 107.714 53.2433 107.871 53.5758 107.956C53.9083 108.04 54.0957 108.73 54.4282 108.814C54.7607 108.899 55.1295 108.85 55.468 108.929C55.8066 109.008 56.2419 108.639 56.5804 108.711C56.919 108.784 57.2938 108.663 57.6324 108.742C57.9709 108.82 58.2671 109.062 58.5996 109.135C58.9321 109.207 59.3191 109.05 59.6576 109.116C59.9962 109.183 60.2319 109.733 60.5705 109.806C60.909 109.878 61.2174 110.066 61.5559 110.132C61.8945 110.199 62.1363 110.743 62.4748 110.809C62.8134 110.876 63.2366 110.519 63.5751 110.585C63.9137 110.652 64.2099 110.936 64.5485 110.997C64.887 111.057 65.2256 111.142 65.5641 111.208C65.9027 111.275 66.2775 111.142 66.6161 111.208C66.9546 111.275 67.2629 111.517 67.6015 111.577C67.94 111.637 68.2967 111.595 68.6413 111.656C68.9859 111.716 69.3305 111.71 69.6751 111.77C70.0197 111.831 70.3099 112.169 70.6484 112.224C70.987 112.278 71.4767 111.396 71.8213 111.444C72.1659 111.492 72.4319 112.006 72.7704 112.055C73.109 112.103 73.3689 112.695 73.7135 112.744C74.0581 112.792 74.5539 111.752 74.8985 111.801C75.2431 111.849 75.4365 112.883 75.7811 112.931C76.1257 112.98 76.5126 112.695 76.8512 112.744C77.1897 112.792 77.4799 113.252 77.8185 113.3C78.157 113.348 78.5137 113.312 78.8583 113.36C79.2029 113.409 79.6563 112.55 80.0009 112.593C80.3455 112.635 80.6599 112.883 80.9984 112.925C81.337 112.967 81.6635 113.143 82.0081 113.185C82.3527 113.227 82.667 113.499 83.0056 113.542C83.3441 113.584 83.7069 113.493 84.0515 113.536C84.396 113.578 84.7346 113.657 85.0732 113.693C85.4117 113.729 85.7926 113.463 86.1311 113.499C86.4697 113.536 86.8203 113.542 87.1589 113.578C87.4974 113.614 87.8602 113.481 88.2048 113.512C88.5494 113.542 88.8879 113.572 89.2325 113.602C89.5771 113.632 89.8975 113.886 90.2361 113.923C90.5746 113.959 90.8829 114.418 91.2215 114.449C91.56 114.479 91.9409 114.146 92.2855 114.177C92.6301 114.207 92.9928 114.019 93.3314 114.05C93.6699 114.08 93.9662 114.66 94.3108 114.69C94.6554 114.721 95.0544 114.092 95.399 114.116C95.7436 114.14 96.0398 114.757 96.3784 114.787C96.7169 114.817 97.0797 114.678 97.4242 114.709C97.7688 114.739 98.1437 114.322 98.4883 114.346C98.8329 114.37 99.117 115.198 99.4616 115.229C99.8062 115.259 100.145 115.362 100.489 115.386C100.834 115.41 101.172 115.494 101.517 115.513C101.862 115.531 102.237 115.083 102.581 115.108C102.926 115.132 103.24 115.646 103.585 115.664C103.929 115.682 104.322 114.89 104.667 114.914C105.011 114.938 105.356 114.896 105.701 114.914C106.045 114.932 106.378 115.15 106.722 115.168C107.067 115.186 107.412 115.144 107.756 115.168C108.101 115.192 108.445 115.186 108.79 115.204C109.134 115.222 109.443 115.942 109.787 115.96C110.132 115.978 110.471 116.166 110.815 116.178C111.16 116.19 111.51 116.159 111.855 116.178C112.2 116.196 112.544 116.274 112.889 116.286C113.233 116.299 113.596 115.9 113.941 115.912C114.285 115.924 114.642 115.718 114.987 115.736C115.331 115.754 115.682 115.573 116.026 115.591C116.371 115.609 116.691 116.329 117.036 116.341C117.381 116.353 117.749 115.803 118.094 115.815C118.439 115.827 118.789 115.682 119.134 115.694C119.478 115.706 119.805 116.365 120.15 116.377C120.494 116.389 120.857 115.803 121.201 115.815C121.546 115.827 121.885 116.008 122.229 116.014C122.574 116.02 122.924 115.894 123.269 115.906C123.614 115.918 123.94 116.673 124.285 116.685C124.629 116.698 124.974 116.698 125.318 116.704C125.663 116.71 126.014 116.619 126.358 116.631C126.703 116.643 127.06 116.075 127.404 116.081C127.749 116.087 128.093 116.153 128.438 116.159C128.783 116.166 129.121 116.516 129.466 116.522C129.81 116.528 130.167 115.972 130.512 115.978C130.856 115.984 131.195 116.583 131.539 116.583C131.884 116.583 132.241 115.875 132.585 115.875C132.93 115.875 133.274 116.184 133.619 116.19C133.964 116.196 134.308 116.48 134.653 116.48C134.997 116.48 135.348 116.014 135.693 116.02C136.037 116.026 136.382 116.208 136.726 116.208C137.071 116.208 137.416 116.655 137.76 116.655C138.105 116.655 138.455 115.851 138.8 115.851C139.145 115.851 139.489 116.601 139.834 116.601C140.178 116.601 140.523 116.208 140.874 116.208C141.224 116.208 141.563 116.365 141.908 116.365C142.252 116.365 142.597 116.504 142.947 116.504C143.298 116.504 143.637 116.111 143.981 116.111C144.326 116.111 144.67 116.492 145.021 116.492C145.372 116.492 145.71 116.317 146.055 116.317C146.399 116.317 146.744 115.833 147.089 115.827C147.433 115.821 147.784 116.516 148.128 116.516C148.473 116.516 148.818 116.172 149.162 116.172C149.507 116.172 149.857 116.395 150.202 116.395C150.547 116.395 150.891 116.051 151.236 116.045C151.58 116.039 151.925 116.093 152.276 116.093C152.626 116.093 152.971 116.419 153.315 116.413C153.66 116.407 154.011 116.879 154.361 116.873C154.712 116.867 155.045 116.323 155.389 116.323C155.734 116.323 156.084 116.359 156.429 116.353C156.774 116.347 157.124 116.565 157.469 116.559C157.813 116.552 158.152 115.887 158.497 115.881C158.841 115.875 159.198 116.48 159.542 116.474C159.887 116.468 160.238 116.619 160.582 116.613C160.927 116.607 161.271 116.51 161.616 116.504C161.961 116.498 162.311 116.661 162.656 116.649C163 116.637 163.339 116.105 163.684 116.099C164.028 116.093 164.361 115.543 164.711 115.537C165.062 115.531 165.413 115.936 165.757 115.93C166.102 115.924 166.465 116.468 166.809 116.456C167.154 116.444 167.492 116.069 167.837 116.063C168.182 116.057 168.532 116.214 168.877 116.202C169.221 116.19 169.56 115.942 169.911 115.93C170.261 115.918 170.606 115.966 170.95 115.954C171.295 115.942 171.634 115.664 171.978 115.658C172.323 115.652 172.691 116.28 173.036 116.274C173.381 116.268 173.719 115.984 174.064 115.972C174.408 115.96 174.759 116.057 175.104 116.045C175.448 116.033 175.793 115.906 176.137 115.894C176.482 115.881 176.845 116.329 177.189 116.317C177.534 116.305 177.842 115.15 178.187 115.138C178.532 115.126 178.912 116.081 179.257 116.069C179.602 116.057 179.916 115.108 180.261 115.096C180.605 115.083 180.992 116.141 181.337 116.129C181.681 116.117 182.008 115.537 182.352 115.519C182.697 115.501 183.066 116.081 183.41 116.069C183.755 116.057 184.087 115.609 184.432 115.597C184.777 115.585 185.127 115.597 185.472 115.585C185.816 115.573 186.155 115.355 186.5 115.343C186.844 115.331 187.207 115.652 187.551 115.634C187.896 115.615 188.21 114.763 188.555 114.751C188.9 114.739 189.293 115.803 189.637 115.785C189.982 115.767 190.32 115.621 190.671 115.603C191.022 115.585 191.354 115.44 191.705 115.422C192.055 115.404 192.4 115.434 192.745 115.422C193.089 115.41 193.404 114.618 193.748 114.6C194.093 114.582 194.456 115.011 194.806 114.993C195.157 114.975 195.513 115.307 195.858 115.289C196.203 115.271 196.547 115.204 196.892 115.192C197.236 115.18 197.569 114.914 197.914 114.896C198.258 114.878 198.585 114.37 198.929 114.352C199.274 114.334 199.661 115.023 200.005 115.005C200.35 114.987 200.713 115.253 201.063 115.229C201.414 115.204 201.722 114.618 202.067 114.6C202.411 114.582 202.78 114.926 203.131 114.902C203.482 114.878 203.832 114.975 204.177 114.95C204.521 114.926 204.806 114.001 205.15 113.977C205.495 113.953 205.906 114.781 206.25 114.757C206.595 114.733 206.891 114.031 207.236 114.001C207.58 113.971 207.907 113.669 208.251 113.645C208.596 113.62 208.959 113.796 209.303 113.765C209.648 113.735 209.981 113.554 210.325 113.524C210.67 113.493 211.093 114.291 211.438 114.255C211.782 114.219 212.157 114.479 212.502 114.449C212.846 114.418 213.112 113.566 213.457 113.53C213.801 113.493 214.194 113.892 214.533 113.856C214.871 113.82 215.168 113.288 215.512 113.252C215.857 113.215 216.262 113.711 216.606 113.675C216.951 113.638 217.29 113.512 217.628 113.469C217.967 113.427 218.269 112.98 218.614 112.937C218.958 112.895 219.369 113.397 219.714 113.354C220.058 113.312 220.403 113.24 220.742 113.197C221.08 113.155 221.449 113.221 221.788 113.179C222.126 113.137 222.459 112.937 222.797 112.895C223.136 112.853 223.523 113.034 223.861 112.986C224.2 112.937 224.429 112.073 224.768 112.018C225.107 111.964 225.548 112.544 225.892 112.49C226.237 112.435 226.449 111.547 226.787 111.492C227.126 111.438 227.531 111.764 227.875 111.704C228.22 111.643 228.583 111.716 228.921 111.662C229.26 111.607 229.677 111.964 230.022 111.903C230.366 111.843 230.578 111.081 230.916 111.015C231.255 110.948 231.751 111.716 232.089 111.65C232.428 111.583 232.694 111.118 233.032 111.051C233.371 110.985 233.794 111.317 234.133 111.25C234.471 111.184 234.616 110.126 234.949 110.06C235.281 109.993 235.698 110.259 236.031 110.186C236.363 110.114 236.817 110.537 237.149 110.459C237.482 110.38 237.633 109.425 237.965 109.352C238.298 109.28 238.667 109.316 238.999 109.237C239.332 109.159 239.791 109.582 240.124 109.503C240.456 109.425 240.855 109.576 241.188 109.491C241.52 109.407 241.81 109.116 242.143 109.032C242.475 108.947 242.766 108.675 243.098 108.584C243.431 108.494 243.945 109.074 244.277 108.989C244.61 108.905 244.821 108.324 245.154 108.234C245.486 108.143 245.933 108.427 246.266 108.337C246.598 108.246 246.84 107.792 247.173 107.702C247.505 107.611 247.789 107.333 248.122 107.23C248.454 107.127 248.835 107.194 249.168 107.091C249.5 106.988 249.785 106.735 250.117 106.632C250.45 106.529 250.752 106.329 251.078 106.227C251.405 106.124 251.773 106.118 252.1 106.009C252.426 105.9 252.928 106.287 253.255 106.178C253.581 106.07 253.654 105.205 253.98 105.09C254.307 104.975 254.808 105.338 255.129 105.223C255.449 105.108 255.884 105.265 256.211 105.144C256.537 105.024 256.779 104.673 257.106 104.552C257.432 104.431 257.62 103.96 257.946 103.833C258.272 103.706 258.69 103.827 259.01 103.694C259.33 103.561 259.814 103.815 260.128 103.682C260.443 103.549 260.352 102.418 260.667 102.285C260.981 102.152 261.313 102.043 261.628 101.904C261.942 101.765 262.571 102.321 262.885 102.176C263.2 102.031 263.52 101.892 263.834 101.747C264.149 101.602 264.348 101.203 264.657 101.052C264.965 100.9 265.328 100.846 265.636 100.689C265.944 100.532 266.035 99.9393 266.343 99.7821C266.652 99.6249 266.93 99.4193 267.238 99.2561C267.546 99.0929 267.879 98.9962 268.181 98.8329C268.483 98.6697 268.749 98.4339 269.052 98.2707C269.354 98.1074 270.086 98.6878 270.382 98.5186C270.678 98.3493 270.509 97.3578 270.805 97.1825C271.101 97.0072 271.736 97.3941 272.032 97.2188C272.328 97.0434 272.818 97.1583 273.108 96.9769C273.398 96.7956 273.12 95.7074 273.405 95.52C273.689 95.3326 274.336 95.6771 274.62 95.4837C274.904 95.2902 275.43 95.4353 275.714 95.2418C275.998 95.0484 275.841 94.2201 276.119 94.0146C276.397 93.809 277.183 94.2927 277.461 94.0872C277.739 93.8816 277.945 93.5612 278.217 93.3496C278.489 93.138 278.586 92.6846 278.852 92.473C279.118 92.2614 279.65 92.346 279.916 92.1284C280.182 91.9107 280.405 91.6206 280.665 91.3969C280.925 91.1732 280.599 90.2724 280.859 90.0427C281.119 89.8129 281.995 90.2603 282.243 90.0245C282.491 89.7887 282.715 89.4985 282.963 89.2628C283.21 89.027 282.799 88.1081 283.041 87.8602C283.283 87.6124 284.166 87.9932 284.407 87.7453C284.649 87.4975 284.534 86.9111 284.764 86.6572C284.994 86.4033 285.042 85.9861 285.272 85.7261C285.502 85.4662 286.221 85.6294 286.445 85.3634C286.668 85.0974 286.542 84.5472 286.759 84.2752C286.977 84.0031 287.037 83.6163 287.249 83.3442C287.46 83.0722 287.497 82.6792 287.696 82.4011C287.896 82.123 289.008 82.4797 289.202 82.1955C289.395 81.9114 288.96 81.192 289.153 80.9078C289.347 80.6237 289.722 80.4544 289.903 80.1582C290.084 79.862 290.447 79.6745 290.622 79.3783C290.798 79.0821 290.447 78.4836 290.61 78.1813C290.773 77.879 291.076 77.6553 291.239 77.347C291.402 77.0387 291.704 76.8089 291.856 76.5006C292.007 76.1923 292.285 75.9384 292.43 75.624C292.575 75.3097 292.527 74.9106 292.666 74.5962C292.805 74.2819 292.696 73.8647 292.829 73.5443C292.962 73.2239 293.222 72.9639 293.343 72.6375C293.464 72.311 293.307 71.8999 293.415 71.5735C293.524 71.247 294.334 71.1442 294.437 70.8178C294.54 70.4913 294.733 70.1769 294.824 69.8444C294.915 69.5119 294.171 68.9558 294.256 68.6172C294.34 68.2787 294.491 67.9764 294.564 67.6379C294.637 67.2993 295.193 67.0696 295.265 66.731C295.338 66.3925 295.302 66.0357 295.362 65.6911C295.422 65.3465 295.005 64.9415 295.054 64.5969C295.102 64.2523 296.178 64.0528 296.22 63.7082C296.263 63.3636 296.227 63.0008 296.263 62.6562C296.299 62.3116 296.414 61.9671 296.438 61.6164C296.462 61.2658 295.519 60.8668 295.543 60.5162C295.568 60.1655 296.233 59.8572 296.245 59.5126C296.257 59.168 296.19 58.8174 296.196 58.4728C296.202 58.1282 296.293 57.7775 296.287 57.4329C296.281 57.0883 296.323 56.7376 296.311 56.387C296.299 56.0364 296.021 55.7039 296.003 55.3593C295.985 55.0147 295.713 54.6882 295.682 54.3436C295.652 53.999 295.574 53.6665 295.543 53.3219C295.513 52.9773 295.61 52.6267 295.568 52.2821C295.525 51.9375 295.797 51.5566 295.755 51.212C295.713 50.8674 295.447 50.5591 295.392 50.2145C295.338 49.8699 295.598 49.4769 295.537 49.1384C295.477 48.7998 294.63 48.6064 294.564 48.2679C294.497 47.9293 295.338 47.4033 295.265 47.0648L295.247 47.0587ZM78.5984 51.7622C78.4714 52.2459 79.4145 52.4997 79.2815 52.9833C79.1485 53.467 78.7495 53.3643 78.6225 53.8479C78.4956 54.3315 78.4593 54.3255 78.3324 54.8091C78.2054 55.2928 78.5984 55.4016 78.4714 55.8852C78.3444 56.3689 77.4739 56.1391 77.3469 56.6288C77.22 57.1185 77.6492 57.2274 77.5162 57.7171C77.4255 58.0556 77.1716 58.3518 77.0749 58.6783C76.9782 59.0048 76.5308 59.2405 76.428 59.573C76.3252 59.9055 76.3917 60.2924 76.2829 60.6189C76.1741 60.9454 75.9806 61.2477 75.8597 61.5741C75.7388 61.9006 75.9625 62.36 75.8355 62.6805C75.7086 63.0009 75.4607 63.285 75.3217 63.5994C75.1826 63.9138 74.7776 64.1133 74.6325 64.4276C74.4874 64.742 74.6083 65.1894 74.4451 65.4977C74.2818 65.806 74.3907 66.2716 74.2153 66.5738C74.04 66.8761 73.641 67.0514 73.4596 67.3416C73.2783 67.6317 72.849 67.7648 72.6495 68.0489C72.45 68.3331 72.9095 69.125 72.6979 69.3971C72.4863 69.6691 72.051 69.8021 71.8213 70.0621C71.5916 70.322 71.2349 70.4914 70.993 70.7332C70.7512 70.975 70.4973 71.241 70.2374 71.4707C69.9774 71.7005 69.2761 71.3861 68.998 71.6037C68.7199 71.8213 68.7683 72.438 68.4781 72.6375C68.1879 72.837 67.6982 72.6798 67.3959 72.8551C67.0936 73.0304 66.7611 73.0849 66.4528 73.242C66.1445 73.3992 65.8483 73.5141 65.5279 73.6471C65.2074 73.7801 65.2498 74.8501 64.9173 74.9711C64.5847 75.092 64.216 75.1525 63.8774 75.2492C63.5389 75.3459 63.1761 75.3943 62.8315 75.4668C62.4869 75.5394 62.0093 74.8986 61.6647 74.959C61.3201 75.0195 60.9755 74.8804 60.6249 74.9227C60.2743 74.965 59.9599 75.0074 59.6093 75.0316C59.2586 75.0558 58.9745 76.1076 58.6238 76.1197C58.2732 76.1318 57.9104 75.9686 57.5538 75.9686C57.0278 75.9686 57.0278 75.4064 56.5018 75.4064C55.9759 75.4064 55.9759 75.9081 55.4499 75.9081C54.9239 75.9081 54.9239 75.3096 54.398 75.3096C53.872 75.3096 53.872 75.0316 53.346 75.0316C52.8201 75.0316 52.8201 75.9565 52.2941 75.9565C51.7682 75.9565 51.7682 75.618 51.2422 75.618C50.7162 75.618 50.7162 75.757 50.1903 75.757C49.6643 75.757 49.6643 76.0895 49.1444 76.0895C48.6245 76.0895 48.6184 75.3761 48.0925 75.3761C47.5665 75.3761 47.5665 75.6845 47.0405 75.6845C46.5146 75.6845 46.5146 76.0774 45.9886 76.0774C45.4626 76.0774 45.4626 75.7026 44.9367 75.7026C44.4107 75.7026 44.4107 76.0351 43.8847 76.0351C43.3588 76.0351 43.3588 75.7389 42.8328 75.7389C42.3068 75.7389 42.3069 75.7147 41.7748 75.7147C41.2428 75.7147 40.6927 76.3071 40.3662 75.896C40.0398 75.4849 41.3214 75.2431 41.4544 74.7474C41.5874 74.2516 40.7229 74.022 40.8559 73.5262C40.9889 73.0305 41.6116 73.1997 41.7446 72.704C41.8776 72.2082 42.1315 72.2748 42.2645 71.7791C42.3975 71.2833 42.0408 71.1866 42.1739 70.6908C42.3069 70.1951 41.7204 70.0379 41.8534 69.5422C41.9864 69.0464 42.198 69.1069 42.331 68.6112C42.464 68.1154 42.7361 68.188 42.8691 67.6922C43.0021 67.1965 43.1411 67.2327 43.2741 66.737C43.4071 66.2413 42.6877 66.0478 42.8207 65.5521C42.9537 65.0564 42.9356 65.0503 43.0686 64.5546C43.2016 64.0588 43.5825 64.1616 43.7155 63.6659C43.8485 63.1701 44.2656 63.279 44.3986 62.7833C44.5316 62.2875 43.7397 62.0759 43.8727 61.5802C44.0057 61.0845 44.3623 61.1812 44.4893 60.6855C44.6162 60.1897 45.112 60.3227 45.245 59.827C45.378 59.3312 45.2934 59.3131 45.4264 58.8173C45.5594 58.3216 44.852 58.1342 44.985 57.6385C45.118 57.1427 45.3599 57.2092 45.4929 56.7135C45.6259 56.2177 45.6561 56.2238 45.7891 55.7281C45.9221 55.2323 45.8495 55.2142 45.9825 54.7184C46.1156 54.2227 46.5569 54.3436 46.6838 53.8479C46.8108 53.3522 46.1941 53.1889 46.3211 52.6932C46.4481 52.1974 47.1191 52.3728 47.2521 51.877C47.3851 51.3813 47.1373 51.3148 47.2703 50.8191C47.4033 50.3233 47.8385 50.4382 47.9715 49.9425C48.1045 49.4467 48.038 49.4286 48.171 48.9328C48.304 48.4371 47.4335 48.2013 47.5665 47.7056C47.6995 47.2098 48.5096 47.4275 48.6426 46.9318C48.7756 46.4361 48.6305 46.3998 48.7635 45.904C48.8965 45.4083 49.0356 45.4446 49.1686 44.9488C49.3016 44.4531 49.2955 44.4531 49.4285 43.9513C49.5615 43.4495 49.4708 43.4314 49.6038 42.9356C49.7368 42.4399 49.4467 42.3614 49.5736 41.8656C49.7006 41.3699 49.6401 41.3517 49.7731 40.856C49.9061 40.3603 50.4079 40.4932 50.5409 39.9975C50.6739 39.5018 50.4986 39.4534 50.6316 38.9577C50.7646 38.4619 50.8492 38.4801 50.9822 37.9843C51.1152 37.4886 51.2361 37.5189 51.3691 37.0231C51.5022 36.5274 51.7319 36.5878 51.8649 36.086C51.9979 35.5842 51.1031 35.3484 51.2361 34.8527C51.3691 34.357 51.1999 33.9399 51.611 33.6316C52.0221 33.3232 52.3788 33.6799 52.9047 33.6799C53.4307 33.6799 53.4307 33.8854 53.9566 33.8854C54.4826 33.8854 54.4826 34.5202 55.0086 34.5202C55.5345 34.5202 55.5345 33.9761 56.0605 33.9761C56.5865 33.9761 56.5865 33.7464 57.1124 33.7464C57.6384 33.7464 57.6384 33.4562 58.1644 33.4562C58.6903 33.4562 58.6903 34.1756 59.2163 34.1756C59.7422 34.1756 59.7423 34.2905 60.2622 34.2905C60.7821 34.2905 60.7881 34.3389 61.3141 34.3389C61.8401 34.3389 61.8401 34.4235 62.366 34.4235C62.892 34.4235 62.892 34.091 63.418 34.091C63.9439 34.091 63.9439 33.8129 64.4699 33.8129C64.9958 33.8129 64.9958 33.8673 65.5218 33.8673C66.0478 33.8673 66.0478 34.4417 66.5737 34.4417C67.0997 34.4417 67.0997 33.3655 67.6317 33.3655C68.1637 33.3655 68.1577 34.0608 68.6897 34.0608C69.0403 34.0608 69.3728 34.23 69.7053 34.2421C70.056 34.2542 70.4489 33.5106 70.7814 33.5348C71.1321 33.565 71.4525 33.9338 71.785 33.9761C72.1357 34.0245 72.4198 34.4053 72.7463 34.4718C73.0909 34.5383 73.5926 33.964 73.9131 34.0547C74.2516 34.1454 74.5116 34.5565 74.8259 34.6714C75.1584 34.7923 75.4305 35.0583 75.7328 35.2034C76.0471 35.3545 76.5308 35.2457 76.8149 35.421C77.0991 35.5963 77.3107 35.9772 77.5646 36.1949C77.8185 36.4125 78.2235 36.5636 78.4472 36.8175C78.6709 37.0714 78.1631 37.8815 78.3565 38.1717C78.55 38.4619 79.3964 38.341 79.5475 38.6493C79.6987 38.9577 79.6684 39.3567 79.7773 39.6892C79.8861 40.0217 79.6563 40.4146 79.7349 40.7592C79.8075 41.0857 80.3274 41.3336 80.3758 41.6842C80.4241 42.0167 79.9163 42.4037 79.9405 42.7543C79.9647 43.0868 80.811 43.4072 80.811 43.7579C80.811 44.0904 80.1521 44.4289 80.1339 44.7796C80.1158 45.1121 80.6176 45.499 80.5813 45.8436C80.545 46.1882 80.5632 46.5388 80.5209 46.8834C80.4785 47.228 80.0553 47.5061 80.0009 47.8507C79.9465 48.1953 80.1339 48.5701 80.0674 48.9147C80.0009 49.2593 79.5173 49.4951 79.4387 49.8336C79.3601 50.1722 79.4266 50.5288 79.342 50.8674C79.2573 51.206 78.7072 51.4055 78.6165 51.7441L78.5984 51.7622ZM92.9384 76.1258C92.5757 76.1258 92.2069 77.0931 91.8623 77.081C91.4996 77.0689 91.161 76.6336 90.8164 76.6034C90.4537 76.5732 90.1031 76.5006 89.7645 76.4523C89.4018 76.4039 88.9725 76.7485 88.634 76.682C88.2773 76.6095 88.1383 75.6603 87.8058 75.5696C87.4551 75.4729 87.0017 75.7933 86.6813 75.6724C86.3427 75.5454 86.0888 75.2552 85.7805 75.1041C85.454 74.9409 85.3633 74.4754 85.0792 74.2819C84.7951 74.0885 84.4323 74.0522 84.1724 73.8225C83.9124 73.5927 83.7492 73.3207 83.5255 73.0486C83.3018 72.7766 82.8061 72.7342 82.6247 72.438C82.4433 72.1418 82.3889 71.7851 82.2499 71.4586C82.1108 71.1322 82.2741 70.7452 82.1713 70.4007C82.0685 70.0561 81.6997 69.8263 81.6393 69.4696C81.5788 69.1311 81.2221 68.8228 81.1919 68.46C81.1617 68.1215 81.3975 67.7527 81.3914 67.39C81.3914 67.0514 81.6755 66.7189 81.6997 66.3561C81.7239 65.9934 80.9078 65.5884 80.9501 65.2317C80.9924 64.875 81.2826 64.5546 81.337 64.1979C81.3914 63.8412 81.597 63.5329 81.6635 63.1762C81.73 62.8195 81.7904 62.487 81.8751 62.1363C81.9597 61.7857 82.7094 61.6286 82.8 61.284C82.933 60.7822 82.4252 60.6431 82.5582 60.1413C82.6912 59.6396 83.0721 59.7423 83.2111 59.2406C83.3502 58.7388 83.453 58.769 83.586 58.2672C83.719 57.7655 83.7371 57.7715 83.8761 57.2637C84.0152 56.7558 83.0298 56.4959 83.1688 55.9941C83.3079 55.4923 83.3502 55.5044 83.4892 55.0026C83.6283 54.5008 83.6706 54.5129 83.8036 54.0111C83.9366 53.5094 84.6439 53.6968 84.7769 53.195C84.9099 52.6932 85.0913 52.7415 85.2303 52.2398C85.3694 51.738 85.3573 51.732 85.4903 51.2302C85.6233 50.7284 84.6318 50.4624 84.7648 49.9546C84.8978 49.4468 85.0671 49.4951 85.2001 48.9933C85.3331 48.4915 85.8772 48.6366 86.0102 48.1288C86.1432 47.621 85.6596 47.494 85.7926 46.9922C85.9256 46.4905 86.506 46.6416 86.639 46.1398C86.772 45.638 87.044 45.7105 87.177 45.2027C87.31 44.6949 86.4153 44.4591 86.5543 43.9513C86.6934 43.4435 87.0198 43.5342 87.1528 43.0324C87.2858 42.5306 87.1528 42.4943 87.2919 41.9926C87.4309 41.4908 87.1105 41.4001 87.2435 40.8983C87.3765 40.3965 88.0718 40.5779 88.2048 40.0761C88.3378 39.5743 88.0415 39.4897 88.1745 38.9879C88.3075 38.4861 87.9327 38.3833 88.0657 37.8755C88.1987 37.3677 88.5614 37.4704 88.6945 36.9626C88.8275 36.4548 88.507 36.3702 88.6461 35.8684C88.7851 35.3666 89.0693 35.4391 89.2023 34.9313C89.3353 34.4235 89.1237 34.1937 89.5348 33.8733C89.9459 33.5529 90.1091 33.4985 90.6169 33.4985C91.1248 33.4985 91.1308 34.4356 91.6386 34.4356C92.1465 34.4356 92.1525 33.5409 92.6603 33.5409C93.1682 33.5409 93.1742 34.1877 93.682 34.1877C94.1899 34.1877 94.1959 34.4538 94.7098 34.4538C95.2237 34.4538 95.2237 34.085 95.7315 34.085C96.2393 34.085 96.2454 33.4744 96.7592 33.4744C97.2731 33.4744 97.2731 33.6981 97.787 33.6981C98.3008 33.6981 98.4822 33.565 98.7905 33.9701C99.0989 34.3751 98.5124 34.4054 98.3794 34.9072C98.2464 35.409 98.9659 35.5963 98.8268 36.0981C98.6878 36.5999 98.7119 36.5999 98.5789 37.1017C98.4459 37.6035 98.0651 37.5007 97.9321 37.9964C97.7991 38.4922 97.3819 38.3833 97.2489 38.8791C97.1159 39.3748 97.9079 39.5864 97.7688 40.0882C97.6298 40.59 97.2792 40.4872 97.1461 40.989C97.0131 41.4908 96.5235 41.3517 96.3904 41.8535C96.2574 42.3553 96.336 42.3734 96.203 42.8691C96.07 43.3649 96.7774 43.5584 96.6444 44.0541C96.5114 44.5498 96.2695 44.4893 96.1365 44.9851C96.0035 45.4808 95.9673 45.4748 95.8343 45.9766C95.7013 46.4783 95.7738 46.4965 95.6408 46.9922C95.5078 47.488 95.0665 47.3731 94.9335 47.8688C94.8005 48.3646 95.4232 48.5339 95.2902 49.0296C95.1572 49.5253 94.4921 49.35 94.3591 49.8457C94.2261 50.3415 94.474 50.414 94.341 50.9098C94.208 51.4055 93.7727 51.2906 93.6337 51.7863C93.4946 52.2821 93.5611 52.3002 93.4281 52.802C93.2951 53.3038 94.1657 53.5336 94.0266 54.0353C93.8876 54.5371 93.0835 54.3134 92.9445 54.8152C92.8054 55.317 92.9505 55.3533 92.8175 55.849C92.6845 56.3447 92.5455 56.3085 92.4125 56.8102C92.2795 57.312 92.2855 57.312 92.1525 57.8138C92.0195 58.3156 92.1102 58.3337 91.9772 58.8355C91.8442 59.3373 92.1344 59.4098 92.0014 59.9116C91.8684 60.4134 91.9288 60.4254 91.7958 60.9272C91.6628 61.429 91.161 61.29 91.028 61.7918C90.895 62.2936 91.0704 62.3359 90.9374 62.8376C90.8044 63.3394 90.7197 63.3152 90.5867 63.817C90.4537 64.3188 90.3328 64.2825 90.1998 64.7843C90.0668 65.2861 89.8371 65.2257 89.7041 65.7214C89.5711 66.2171 90.4658 66.465 90.3328 66.9667C90.1998 67.4685 89.7041 67.2207 90.0245 67.6258C90.3449 68.0308 90.2421 67.6015 90.7741 67.6015C91.3061 67.6015 91.3061 67.8071 91.8321 67.8071C92.3581 67.8071 92.3641 68.4419 92.8961 68.4419C93.4281 68.4419 93.4281 67.8978 93.9601 67.8978C94.4921 67.8978 94.4921 67.668 95.0242 67.668C95.5562 67.668 95.5562 67.3779 96.0882 67.3779C96.6202 67.3779 96.6202 68.0973 97.1522 68.0973C97.6842 68.0973 97.6842 68.2122 98.2162 68.2122C98.7482 68.2122 98.7482 68.2605 99.2863 68.2605C99.8243 68.2605 100.211 68.5688 100.634 68.2484C101.058 67.928 100.622 67.4081 100.755 66.9123C100.888 66.4166 100.622 66.3441 100.755 65.8423C100.888 65.3405 100.943 65.3586 101.076 64.8629C101.209 64.3672 101.765 64.5122 101.898 64.0165C102.031 63.5208 100.991 63.2366 101.124 62.7409C101.257 62.2452 101.934 62.4265 102.067 61.9248C102.2 61.423 102.357 61.4714 102.49 60.9696C102.623 60.4678 101.886 60.2744 102.019 59.7786C102.152 59.2829 102.472 59.3675 102.605 58.8718C102.738 58.3761 103.059 58.4607 103.192 57.965C103.325 57.4692 102.678 57.2939 102.811 56.7921C102.944 56.2903 103.246 56.3749 103.385 55.8792C103.524 55.3835 103.651 55.4198 103.784 54.918C103.917 54.4162 103.597 54.3315 103.73 53.8358C103.863 53.3401 104.038 53.3824 104.171 52.8867C104.304 52.3909 104.141 52.3425 104.274 51.8468C104.407 51.351 105.277 51.5808 105.41 51.0851C105.543 50.5894 104.77 50.3777 104.903 49.882C105.036 49.3862 105.211 49.4286 105.344 48.9328C105.477 48.4371 105.797 48.5217 105.93 48.02C106.063 47.5182 105.616 47.4033 105.749 46.9016C105.882 46.3998 106.402 46.5448 106.541 46.0431C106.68 45.5413 105.87 45.3297 106.003 44.8279C106.136 44.3261 106.765 44.4954 106.898 43.9996C107.031 43.5039 106.523 43.3649 106.656 42.8691C106.789 42.3734 106.734 42.3553 106.867 41.8596C107 41.3638 107.357 41.4545 107.49 40.9588C107.623 40.4631 107.381 40.3965 107.514 39.8948C107.647 39.393 108.058 39.5078 108.191 39.006C108.324 38.5042 108.191 38.468 108.324 37.9722C108.457 37.4765 108.21 37.404 108.343 36.9082C108.476 36.4125 109.104 36.5757 109.237 36.0739C109.37 35.5721 108.923 35.4512 109.056 34.9495C109.189 34.4477 108.76 33.9399 109.165 33.6195C109.57 33.2991 109.957 34.4417 110.465 34.4417C110.972 34.4417 110.978 33.7041 111.486 33.7041C111.994 33.7041 112 33.7282 112.508 33.7282C113.016 33.7282 113.022 33.7767 113.53 33.7767C114.037 33.7767 114.043 33.7041 114.557 33.7041C115.071 33.7041 115.071 34.4417 115.579 34.4417C116.087 34.4417 116.093 34.0064 116.607 34.0064C117.121 34.0064 117.121 33.7585 117.635 33.7585C118.148 33.7585 118.082 33.7766 118.39 34.1877C118.699 34.5988 118.475 34.4719 118.342 34.9737C118.209 35.4754 118.735 35.6206 118.602 36.1223C118.469 36.6241 118.04 36.5092 117.907 37.011C117.774 37.5128 118.028 37.5854 117.895 38.0871C117.762 38.5889 117.502 38.5224 117.369 39.0242C117.236 39.5259 117.471 39.5925 117.332 40.0942C117.193 40.596 116.528 40.4146 116.395 40.9164C116.262 41.4182 117.115 41.648 116.982 42.1497C116.849 42.6515 116.843 42.6516 116.704 43.1533C116.564 43.6551 116.444 43.6249 116.311 44.1267C116.178 44.6284 115.519 44.4531 115.386 44.9549C115.253 45.4567 115.204 45.4446 115.065 45.9464C114.926 46.4482 114.938 46.4542 114.799 46.9559C114.66 47.4577 114.733 47.4759 114.6 47.9837C114.467 48.4916 114.551 48.5097 114.418 49.0175C114.285 49.5253 114.086 49.4648 113.947 49.9727C113.808 50.4805 114.582 50.6861 114.442 51.1878C114.303 51.6896 113.578 51.4961 113.439 51.9979C113.3 52.4997 113.306 52.4997 113.173 53.0015C113.04 53.5033 113.221 53.5577 113.088 54.0595C112.955 54.5613 113.209 54.6338 113.07 55.1356C112.931 55.6374 112.623 55.5528 112.484 56.0606C112.345 56.5684 112.732 56.6712 112.593 57.173C112.454 57.6747 112.024 57.5599 111.885 58.0616C111.746 58.5634 112.502 58.769 112.363 59.2768C112.224 59.7846 111.432 59.567 111.293 60.0749C111.154 60.5827 111.68 60.7217 111.547 61.2295C111.456 61.5741 110.604 61.689 110.501 62.0215C110.398 62.354 111.256 62.9949 111.148 63.3274C111.039 63.6599 110.271 63.7747 110.15 64.1011C110.029 64.4276 110.072 64.8206 109.939 65.141C109.806 65.4615 109.243 65.6004 109.104 65.9148C108.965 66.2292 108.995 66.6282 108.844 66.9366C108.693 67.2449 108.572 67.5773 108.403 67.8796C108.234 68.1819 108.01 68.4479 107.823 68.7381C107.635 69.0283 107.424 69.2943 107.224 69.5785C107.025 69.8626 107.351 70.5578 107.133 70.8299C106.916 71.1019 106.74 71.4526 106.505 71.7065C106.269 71.9604 105.725 71.9422 105.471 72.1841C105.217 72.4259 104.987 72.704 104.721 72.9277C104.455 73.1514 104.165 73.3569 103.881 73.5625C103.597 73.768 103.21 73.8103 102.908 73.9917C102.605 74.173 102.212 74.1428 101.898 74.3C101.584 74.4572 101.535 75.1585 101.209 75.2975C100.882 75.4366 100.489 75.3943 100.151 75.5091C99.8122 75.624 99.5462 75.9384 99.2077 76.0351C98.8691 76.1318 98.5306 76.2648 98.186 76.3434C97.8414 76.422 97.4182 76.0895 97.0676 76.15C96.7169 76.2104 96.3421 75.9082 95.9854 75.9505C95.6287 75.9928 95.3567 76.5611 95 76.5853C94.6433 76.6094 94.3108 76.815 93.9481 76.8271C93.5853 76.8392 93.2407 76.1439 92.884 76.1439L92.9384 76.1258ZM152.064 51.7622C151.937 52.2459 152.88 52.4997 152.747 52.9833C152.614 53.467 152.215 53.3643 152.088 53.8479C151.961 54.3315 151.925 54.3255 151.798 54.8091C151.671 55.2928 152.064 55.4016 151.937 55.8852C151.81 56.3689 150.94 56.1452 150.813 56.6288C150.686 57.1125 151.115 57.2274 150.982 57.7171C150.891 58.0556 150.637 58.3518 150.541 58.6783C150.444 59.0048 149.996 59.2405 149.894 59.573C149.791 59.9055 149.857 60.2924 149.749 60.6189C149.64 60.9454 149.446 61.2477 149.325 61.5741C149.204 61.9006 149.428 62.36 149.301 62.6805C149.174 63.0009 148.926 63.285 148.787 63.5994C148.648 63.9138 148.243 64.1133 148.098 64.4276C147.953 64.742 148.074 65.1894 147.911 65.4977C147.748 65.806 147.856 66.2716 147.681 66.5738C147.506 66.8761 147.107 67.0514 146.925 67.3416C146.744 67.6317 146.315 67.7648 146.115 68.0489C145.916 68.3331 146.375 69.125 146.164 69.3971C145.952 69.6691 145.517 69.8021 145.287 70.0621C145.057 70.322 144.701 70.4914 144.459 70.7332C144.217 70.975 143.963 71.241 143.703 71.4707C143.443 71.7005 142.742 71.3861 142.464 71.6037C142.186 71.8213 142.234 72.438 141.944 72.6375C141.654 72.837 141.164 72.6798 140.862 72.8551C140.559 73.0304 140.227 73.0849 139.919 73.242C139.61 73.3992 139.314 73.5141 138.994 73.6471C138.673 73.7801 138.715 74.8501 138.383 74.9711C138.05 75.092 137.682 75.1525 137.343 75.2492C137.005 75.3459 136.642 75.3943 136.297 75.4668C135.953 75.5394 135.475 74.8986 135.13 74.959C134.786 75.0195 134.441 74.8804 134.091 74.9227C133.74 74.965 133.426 75.0074 133.075 75.0316C132.724 75.0558 132.44 76.1076 132.089 76.1197C131.739 76.1318 131.376 75.9686 131.019 75.9686C130.493 75.9686 130.493 75.4064 129.968 75.4064C129.442 75.4064 129.442 75.9081 128.916 75.9081C128.39 75.9081 128.39 75.3096 127.864 75.3096C127.338 75.3096 127.338 75.0316 126.812 75.0316C126.286 75.0316 126.286 75.9565 125.76 75.9565C125.234 75.9565 125.234 75.618 124.708 75.618C124.182 75.618 124.182 75.757 123.656 75.757C123.13 75.757 123.13 76.0895 122.61 76.0895C122.09 76.0895 122.084 75.3761 121.558 75.3761C121.032 75.3761 121.032 75.6845 120.506 75.6845C119.98 75.6845 119.98 76.0774 119.454 76.0774C118.928 76.0774 118.928 75.7026 118.402 75.7026C117.876 75.7026 117.876 76.0351 117.35 76.0351C116.824 76.0351 116.824 75.7389 116.298 75.7389C115.773 75.7389 115.773 75.7147 115.241 75.7147C114.708 75.7147 114.158 76.3071 113.832 75.896C113.505 75.4849 114.787 75.2431 114.92 74.7474C115.053 74.2516 114.189 74.022 114.322 73.5262C114.455 73.0305 115.077 73.1997 115.21 72.704C115.343 72.2082 115.597 72.2748 115.73 71.7791C115.863 71.2833 115.507 71.1866 115.64 70.6908C115.773 70.1951 115.186 70.0379 115.319 69.5422C115.452 69.0464 115.664 69.1069 115.797 68.6112C115.93 68.1154 116.202 68.188 116.335 67.6922C116.468 67.1965 116.607 67.2327 116.74 66.737C116.873 66.2413 116.153 66.0478 116.286 65.5521C116.419 65.0564 116.401 65.0503 116.534 64.5546C116.667 64.0588 117.048 64.1616 117.181 63.6659C117.314 63.1701 117.731 63.279 117.864 62.7833C117.997 62.2875 117.205 62.0759 117.338 61.5802C117.471 61.0845 117.828 61.1812 117.955 60.6855C118.082 60.1897 118.578 60.3227 118.711 59.827C118.844 59.3312 118.759 59.3131 118.892 58.8173C119.025 58.3216 118.318 58.1342 118.451 57.6385C118.584 57.1427 118.826 57.2092 118.959 56.7135C119.092 56.2177 119.122 56.2238 119.255 55.7281C119.388 55.2323 119.315 55.2142 119.448 54.7184C119.581 54.2227 120.023 54.3436 120.15 53.8479C120.276 53.3522 119.66 53.1889 119.787 52.6932C119.914 52.1974 120.585 52.3728 120.718 51.877C120.851 51.3813 120.603 51.3148 120.736 50.8191C120.869 50.3233 121.304 50.4382 121.437 49.9425C121.57 49.4467 121.504 49.4286 121.637 48.9328C121.77 48.4371 120.899 48.2013 121.032 47.7056C121.165 47.2098 121.975 47.4275 122.108 46.9318C122.241 46.4361 122.096 46.3998 122.229 45.904C122.362 45.4083 122.501 45.4446 122.634 44.9488C122.767 44.4531 122.761 44.4531 122.894 43.9513C123.027 43.4495 122.937 43.4314 123.07 42.9356C123.203 42.4399 122.912 42.3614 123.039 41.8656C123.166 41.3699 123.106 41.3517 123.239 40.856C123.372 40.3603 123.874 40.4932 124.007 39.9975C124.14 39.5018 123.964 39.4534 124.097 38.9577C124.23 38.4619 124.315 38.4801 124.448 37.9843C124.581 37.4886 124.702 37.5189 124.835 37.0231C124.968 36.5274 125.198 36.5878 125.331 36.086C125.464 35.5842 124.569 35.3484 124.702 34.8527C124.835 34.357 124.666 33.9399 125.077 33.6316C125.488 33.3232 125.844 33.6799 126.37 33.6799C126.896 33.6799 126.896 33.8854 127.422 33.8854C127.948 33.8854 127.948 34.5202 128.474 34.5202C129 34.5202 129 33.9761 129.526 33.9761C130.052 33.9761 130.052 33.7464 130.578 33.7464C131.104 33.7464 131.104 33.4562 131.63 33.4562C132.156 33.4562 132.156 34.1756 132.682 34.1756C133.208 34.1756 133.208 34.2905 133.728 34.2905C134.248 34.2905 134.254 34.3389 134.78 34.3389C135.306 34.3389 135.306 34.4235 135.832 34.4235C136.358 34.4235 136.358 34.091 136.884 34.091C137.41 34.091 137.41 33.8129 137.936 33.8129C138.462 33.8129 138.462 33.8673 138.987 33.8673C139.513 33.8673 139.513 34.4417 140.039 34.4417C140.565 34.4417 140.565 33.3655 141.097 33.3655C141.629 33.3655 141.623 34.0608 142.155 34.0608C142.506 34.0608 142.839 34.23 143.171 34.2421C143.522 34.2542 143.915 33.5106 144.247 33.5348C144.598 33.565 144.918 33.9338 145.251 33.9761C145.601 34.0245 145.885 34.4053 146.212 34.4718C146.557 34.5383 147.058 33.964 147.379 34.0547C147.717 34.1454 147.977 34.5565 148.292 34.6714C148.624 34.7923 148.896 35.0583 149.198 35.2034C149.513 35.3545 149.996 35.2457 150.281 35.421C150.565 35.5963 150.776 35.9772 151.03 36.1949C151.284 36.4125 151.689 36.5636 151.913 36.8175C152.137 37.0714 151.629 37.8815 151.822 38.1717C152.016 38.4619 152.862 38.341 153.013 38.6493C153.164 38.9577 153.134 39.3567 153.243 39.6892C153.352 40.0217 153.122 40.4146 153.201 40.7592C153.273 41.0857 153.793 41.3336 153.841 41.6842C153.89 42.0167 153.382 42.4037 153.406 42.7543C153.43 43.0868 154.277 43.4072 154.277 43.7579C154.277 44.0904 153.618 44.4289 153.6 44.7796C153.581 45.1121 154.083 45.499 154.047 45.8436C154.011 46.1882 154.029 46.5388 153.987 46.8834C153.944 47.228 153.521 47.5061 153.467 47.8507C153.412 48.1953 153.6 48.5701 153.527 48.9147C153.455 49.2593 152.977 49.4951 152.898 49.8336C152.82 50.1722 152.886 50.5288 152.802 50.8674C152.717 51.206 152.167 51.4055 152.076 51.7441L152.064 51.7622ZM166.102 76.1258C165.757 76.1258 165.395 77.0931 165.062 77.081C164.729 77.0689 164.385 76.6336 164.052 76.6034C163.702 76.5732 163.363 76.5006 163.037 76.4583C162.692 76.4099 162.269 76.7606 161.942 76.6941C161.598 76.6276 161.465 75.6784 161.144 75.5938C160.806 75.5031 160.365 75.8296 160.05 75.7208C159.724 75.6059 159.476 75.3218 159.174 75.1827C158.871 75.0437 158.756 74.5721 158.472 74.4028C158.188 74.2335 157.832 74.2093 157.566 74.0038C157.3 73.7982 157.124 73.5383 156.888 73.2965C156.653 73.0547 156.163 73.0607 155.957 72.7886C155.752 72.5166 155.667 72.178 155.498 71.8818C155.329 71.5855 155.45 71.1926 155.317 70.8722C155.184 70.5518 154.791 70.3765 154.688 70.044C154.585 69.7115 154.198 69.4696 154.132 69.125C154.065 68.7804 154.259 68.4177 154.216 68.0731C154.18 67.7467 154.434 67.396 154.416 67.0453C154.398 66.6947 153.551 66.3804 153.557 66.0358C153.563 65.6912 153.823 65.3526 153.847 65.008C153.872 64.6634 154.047 64.343 154.083 63.9984C154.12 63.6538 154.15 63.3213 154.204 62.9827C154.259 62.6442 154.99 62.4386 155.051 62.0941C155.111 61.7495 154.658 61.3383 154.73 60.9998C154.803 60.6612 155.262 60.4375 155.341 60.099C155.419 59.7604 155.607 59.4824 155.697 59.1438C155.836 58.6179 155.855 58.6239 156 58.0919C156.145 57.5599 155.159 57.3059 155.304 56.7739C155.45 56.2419 155.492 56.2601 155.637 55.7341C155.782 55.2081 155.824 55.2202 155.963 54.6882C156.102 54.1562 156.81 54.3497 156.949 53.8237C157.088 53.2977 157.269 53.3461 157.414 52.8141C157.559 52.2821 157.547 52.2821 157.686 51.7562C157.825 51.2302 156.834 50.9581 156.973 50.4321C157.064 50.0936 157.33 49.7913 157.426 49.4649C157.523 49.1384 158.164 48.957 158.273 48.6306C158.382 48.3041 158.013 47.8023 158.134 47.4758C158.255 47.1494 158.932 47.0225 159.059 46.7021C159.186 46.3817 159.567 46.17 159.706 45.8496C159.845 45.5292 159.137 44.8339 159.282 44.5196C159.428 44.2052 159.893 44.0299 160.05 43.7216C160.207 43.4133 160.256 43.0324 160.425 42.7301C160.594 42.4278 160.498 41.9442 160.679 41.6479C160.86 41.3517 161.658 41.4424 161.852 41.1583C162.045 40.8741 162.003 40.4086 162.208 40.1365C162.414 39.8645 162.341 39.3265 162.565 39.0665C162.789 38.8066 163.315 38.7763 163.551 38.5285C163.786 38.2806 163.817 37.7849 164.064 37.543C164.312 37.3012 164.79 37.283 165.056 37.0594C165.322 36.8357 165.618 36.6361 165.902 36.4306C166.186 36.225 166.283 35.7293 166.579 35.5419C166.876 35.3545 167.656 35.9772 167.958 35.808C168.26 35.6387 168.157 34.6835 168.472 34.5323C168.786 34.3812 169.366 34.8285 169.693 34.6955C170.019 34.5625 170.412 34.6956 170.745 34.5867C171.077 34.4779 171.277 34.0245 171.615 33.9278C171.954 33.8311 172.147 33.16 172.486 33.0814C172.824 33.0028 173.224 33.154 173.568 33.0935C173.913 33.033 174.3 33.2628 174.65 33.2204C175.001 33.1781 175.345 33.2869 175.696 33.2567C176.047 33.2264 176.349 32.4647 176.706 32.4526C177.062 32.4405 177.419 32.4103 177.776 32.4103C178.133 32.4103 178.471 32.8093 178.804 32.8214C179.136 32.8335 179.463 33.287 179.795 33.3111C180.146 33.3414 180.581 32.5675 180.907 32.6098C181.252 32.6582 181.554 33.0753 181.881 33.1418C182.225 33.2083 182.437 33.7826 182.757 33.8673C183.096 33.958 183.428 33.9701 183.737 34.085C184.063 34.1998 184.668 33.6557 184.97 33.7947C185.272 33.9338 185.508 34.3389 185.792 34.5142C186.076 34.6895 186.373 34.9314 186.639 35.1369C186.905 35.3425 187.243 35.5419 187.479 35.7777C187.715 36.0135 187.606 36.5818 187.811 36.8538C188.017 37.1259 188.755 37.0715 188.924 37.3677C189.093 37.6639 188.634 38.2866 188.767 38.601C188.9 38.9154 189.25 39.133 189.347 39.4655C189.444 39.798 189.081 40.2091 189.148 40.5477C189.214 40.8862 189.323 41.1703 189.365 41.5149C189.401 41.8414 190.326 42.1195 190.345 42.4702C190.363 42.8208 189.522 43.1654 189.522 43.51C189.522 43.8546 189.649 44.175 189.631 44.5196C189.613 44.8642 189.438 45.1664 189.401 45.511C189.365 45.8556 189.329 46.17 189.281 46.5146C189.232 46.8592 189.268 47.1857 189.202 47.5303C189.135 47.8749 189.371 48.2497 189.299 48.5883C189.226 48.9268 189.214 49.2653 189.135 49.6039C189.057 49.9424 188.47 50.1299 188.38 50.4624C188.241 50.9884 188.416 51.0367 188.271 51.5627C188.126 52.0886 188.047 52.0645 187.908 52.5965C187.769 53.1285 187.648 53.0922 187.503 53.6182C187.358 54.1441 187.134 54.0837 186.995 54.6157C186.856 55.1477 187.751 55.3835 187.612 55.9095C187.473 56.4354 187.503 56.4475 187.364 56.9735C187.225 57.4994 187.098 57.4692 186.959 58.0012C186.82 58.5332 186.62 58.4788 186.475 59.0048C186.385 59.3433 185.683 59.5005 185.587 59.833C185.49 60.1655 185.901 60.6552 185.798 60.9817C185.696 61.3081 185.798 61.7253 185.683 62.0457C185.569 62.3661 185.714 62.8135 185.593 63.1399C185.472 63.4664 184.662 63.5269 184.529 63.8412C184.396 64.1556 184.148 64.4276 183.997 64.742C183.846 65.0564 183.658 65.3405 183.501 65.6488C183.344 65.9572 183.108 66.2171 182.939 66.5133C182.769 66.8096 182.878 67.2811 182.697 67.5713C182.516 67.8615 182.552 68.3149 182.358 68.5991C182.165 68.8832 181.905 69.1432 181.699 69.4152C181.494 69.6873 180.829 69.5966 180.605 69.8626C180.381 70.1286 180.944 71.114 180.708 71.3619C180.472 71.6097 179.716 71.38 179.469 71.6158C179.221 71.8516 178.852 71.9604 178.586 72.178C178.32 72.3956 178.513 73.2239 178.229 73.4295C177.945 73.635 177.455 73.5685 177.165 73.7619C176.875 73.9554 176.403 73.8406 176.101 74.0159C175.799 74.1912 175.787 74.9469 175.472 75.0981C175.158 75.2492 174.693 75.1101 174.372 75.2431C174.052 75.3762 173.671 75.3701 173.338 75.4789C173.006 75.5878 172.77 76.0169 172.432 76.1076C172.093 76.1983 171.706 76.1137 171.361 76.1923C171.017 76.2709 170.703 76.5066 170.358 76.5671C170.013 76.6275 169.548 75.7812 169.197 75.8296C168.847 75.8779 168.599 76.7061 168.248 76.7303C167.897 76.7545 167.541 76.5974 167.184 76.6155C166.827 76.6336 166.489 76.1137 166.138 76.1137L166.102 76.1258ZM212.381 50.1662C212.731 50.1662 213.094 49.1988 213.426 49.217C213.777 49.2351 214.104 49.6765 214.43 49.7127C214.781 49.749 215.119 49.8397 215.44 49.9001C215.784 49.9666 216.244 49.6583 216.558 49.749C216.897 49.8518 216.909 50.8069 217.205 50.9399C217.525 51.085 218.009 50.8493 218.287 51.0306C218.565 51.212 218.722 51.5627 218.958 51.8045C219.194 52.0463 219.079 52.4816 219.26 52.7718C219.442 53.062 219.714 53.2071 219.835 53.5335C219.95 53.8358 219.95 54.1321 220.016 54.4827C220.077 54.7971 220.488 55.063 220.512 55.4197C220.536 55.7401 220.421 56.0787 220.409 56.4294C220.397 56.7558 220.095 57.052 220.058 57.4027C220.022 57.7231 220.288 58.0858 220.228 58.4365C220.173 58.7569 220.421 59.1559 220.343 59.5005C220.27 59.8209 219.95 60.099 219.859 60.4376C219.738 60.8849 219.46 60.8063 219.339 61.2537C219.218 61.7011 220.022 61.9308 219.895 62.3782C219.768 62.8255 219.533 62.759 219.406 63.2064C219.279 63.6538 219.133 63.6115 219.013 64.0589C218.922 64.3974 218.843 64.736 218.747 65.0564C218.65 65.3768 217.882 65.4977 217.773 65.8121C217.664 66.1265 218.039 66.6403 217.912 66.9487C217.785 67.257 217.29 67.4202 217.145 67.7285C216.999 68.0368 216.758 68.2847 216.6 68.5809C216.443 68.8772 216.268 69.1492 216.087 69.4334C215.905 69.7175 216.558 70.576 216.365 70.848C216.171 71.1201 215.893 71.3981 215.682 71.6581C215.47 71.9181 215.18 72.172 214.944 72.4198C214.708 72.6677 213.952 72.3836 213.699 72.6073C213.445 72.831 213.082 72.8853 212.81 73.0909C212.538 73.2964 212.296 73.4779 212.006 73.6592C211.716 73.8406 211.945 74.9046 211.643 75.0678C211.341 75.231 210.936 75.2371 210.621 75.3822C210.307 75.5273 209.781 75.1343 209.455 75.2553C209.128 75.3762 208.971 75.9626 208.644 76.0653C208.318 76.1681 207.834 75.6784 207.496 75.7631C207.157 75.8477 206.795 75.6422 206.456 75.7087C206.117 75.7752 205.954 76.7424 205.61 76.7968C205.265 76.8512 204.884 76.5611 204.54 76.5974C204.195 76.6336 203.875 76.809 203.53 76.8331C203.185 76.8573 202.865 77.214 202.52 77.2322C202.176 77.2503 201.807 76.549 201.462 76.5551C201.118 76.5611 200.785 76.8754 200.441 76.8754C200.096 76.8754 199.709 77.2623 199.352 77.2502C198.996 77.2382 198.645 76.8513 198.288 76.8331C197.932 76.815 197.539 77.1173 197.182 77.081C196.825 77.0448 196.493 76.7122 196.136 76.6699C195.779 76.6276 195.423 76.549 195.072 76.4885C194.722 76.428 194.292 76.7061 193.942 76.6336C193.591 76.561 193.452 75.5636 193.107 75.4789C192.763 75.3943 192.176 76.1621 191.838 76.0593C191.499 75.9565 191.354 75.225 191.016 75.1102C190.677 74.9953 190.459 74.6205 190.133 74.4814C189.806 74.3424 189.341 74.5358 189.021 74.3786C188.7 74.2214 188.084 74.5781 187.781 74.4028C187.479 74.2275 187.152 73.629 186.856 73.4234C186.844 72.9216 187.273 72.9398 187.4 72.4501C187.527 71.9604 187.672 72.0027 187.799 71.513C187.926 71.0233 187.213 70.8299 187.346 70.3463C187.479 69.8626 187.455 69.8566 187.588 69.3669C187.721 68.8772 188.096 68.9799 188.229 68.4963C188.362 68.0126 188.779 68.1215 188.906 67.6318C189.033 67.1421 188.247 66.9305 188.38 66.4468C188.513 65.9632 188.863 66.0539 188.996 65.5642C189.129 65.0745 189.619 65.2075 189.752 64.7178C189.885 64.2281 189.607 64.1979 189.903 63.7868C190.193 63.9984 190.604 63.6417 190.901 63.8352C191.197 64.0286 191.36 64.4156 191.669 64.5909C191.977 64.7662 192.267 64.9597 192.587 65.1168C192.908 65.274 193.252 65.3526 193.579 65.4917C193.905 65.6307 194.069 66.1869 194.401 66.3078C194.734 66.4287 195.272 65.933 195.616 66.0358C195.961 66.1385 196.106 66.9003 196.451 66.9909C196.795 67.0816 197.206 66.9123 197.557 66.9849C197.908 67.0574 198.18 67.5713 198.536 67.6258C198.893 67.6802 199.268 67.6681 199.624 67.7104C199.981 67.7527 200.416 66.8882 200.773 66.9184C201.13 66.9486 201.432 67.8071 201.789 67.8192C202.145 67.8313 202.514 67.6922 202.871 67.6922C203.203 67.6922 203.548 67.8313 203.887 67.8131C204.225 67.795 204.564 67.7708 204.902 67.7466C205.241 67.7225 205.567 67.6015 205.906 67.5652C206.244 67.529 206.535 67.1905 206.873 67.1481C207.212 67.1058 207.526 66.991 207.859 66.9426C208.191 66.8942 208.814 67.2025 209.146 67.1481C209.394 66.7249 209.128 66.5557 209.261 66.0841C209.394 65.6126 209.473 65.6367 209.6 65.1591C209.727 64.6815 209.848 64.7178 209.981 64.2462C210.114 63.7747 210.337 63.8352 210.464 63.3636C210.591 62.8921 209.696 62.6442 209.829 62.1726C209.962 61.7011 209.926 61.689 210.053 61.2174C210.18 60.7458 210.307 60.7761 210.434 60.3046C210.561 59.833 210.76 59.8874 210.893 59.4098C211.026 58.9322 211.963 58.509 211.661 58.1281C211.359 57.7473 210.712 58.4546 210.204 58.4546C209.696 58.4546 209.702 58.6843 209.195 58.6843C208.687 58.6843 208.693 58.9745 208.185 58.9745C207.677 58.9745 207.677 58.2551 207.175 58.2551C206.674 58.2551 206.674 58.1402 206.166 58.1402C205.658 58.1402 205.658 58.0919 205.156 58.0919C204.654 58.0919 204.648 58.0072 204.147 58.0072C203.645 58.0072 203.639 58.3398 203.137 58.3398C202.635 58.3398 202.629 58.6179 202.121 58.6179C201.613 58.6179 201.613 58.5635 201.106 58.5635C200.598 58.5635 200.598 57.9891 200.09 57.9891C199.733 57.9891 199.34 59.0531 199.008 59.0289C198.651 58.9987 198.373 58.2611 198.047 58.2067C197.696 58.1463 197.418 57.9105 197.097 57.8138C196.759 57.711 196.142 58.2914 195.84 58.1523C195.52 58.0012 195.338 57.5115 195.066 57.318C194.794 57.1246 194.74 56.6409 194.504 56.3931C194.268 56.1452 193.512 56.2601 193.325 55.9638C193.138 55.6676 193.234 55.1779 193.101 54.8515C192.974 54.5432 192.992 54.1562 192.908 53.8116C192.829 53.4912 192.436 53.1828 192.394 52.8322C192.352 52.5057 192.509 52.1189 192.503 51.7622C192.497 51.4297 192.334 51.0609 192.352 50.7042C192.37 50.3717 193.301 50.1178 193.343 49.7611C193.385 49.4286 192.642 48.9752 192.702 48.6306C192.763 48.2981 193.005 47.9897 193.089 47.6391C193.162 47.3126 193.567 47.0587 193.664 46.7141C193.815 46.1519 193.361 46.031 193.512 45.4627C193.603 45.1181 194.22 44.9367 194.323 44.6042C194.425 44.2717 193.748 43.6611 193.863 43.3407C193.978 43.0203 194.722 42.9054 194.855 42.5911C194.988 42.2767 194.655 41.7205 194.806 41.4122C194.957 41.1039 195.078 40.7351 195.247 40.4328C195.417 40.1305 195.925 39.9915 196.106 39.7073C196.287 39.4232 196.293 38.9637 196.499 38.6856C196.704 38.4076 197.267 38.3833 197.49 38.1234C197.714 37.8634 197.859 37.5067 198.101 37.2649C198.343 37.0231 198.452 36.5817 198.718 36.3641C198.984 36.1465 199.655 36.4548 199.945 36.2614C200.235 36.0679 200.283 35.4936 200.592 35.3243C200.9 35.155 201.094 34.6955 201.414 34.5565C201.734 34.4174 202.381 35.155 202.714 35.0462C203.046 34.9374 203.173 34.1394 203.518 34.0608C203.862 33.9822 204.225 33.9338 204.57 33.8854C204.914 33.8371 205.283 33.8431 205.634 33.8189C205.984 33.7948 206.341 33.7101 206.692 33.7101C207.206 33.7101 207.206 34.4477 207.719 34.4477C208.233 34.4477 208.233 34.0124 208.747 34.0124C209.261 34.0124 209.261 33.7646 209.775 33.7646C210.289 33.7646 210.289 34.3267 210.803 34.3267C211.317 34.3267 211.317 34.0426 211.83 34.0426C212.344 34.0426 212.344 33.4925 212.858 33.4925C213.372 33.4925 213.372 33.9338 213.886 33.9338C214.4 33.9338 214.4 33.6678 214.914 33.6678C215.428 33.6678 215.428 33.9338 215.941 33.9338C216.455 33.9338 216.455 33.692 216.969 33.692C217.483 33.692 217.483 34.3812 217.997 34.3812C218.511 34.3812 218.511 33.4925 219.025 33.4925C219.539 33.4925 219.539 33.4925 220.052 33.4925C220.566 33.4925 220.566 33.6195 221.08 33.6195C221.594 33.6195 221.594 34.2966 222.108 34.2966C222.622 34.2966 222.622 34.3449 223.136 34.3449C223.65 34.3449 223.65 34.3389 224.169 34.3389C224.689 34.3389 224.659 33.7525 224.98 34.1575C225.3 34.5626 224.889 34.4175 224.756 34.9072C224.623 35.3969 224.429 35.3424 224.296 35.8321C224.163 36.3218 224.937 36.5213 224.81 37.011C224.683 37.5007 223.952 37.3072 223.819 37.7969C223.686 38.2866 223.692 38.2866 223.565 38.7763C223.438 39.266 223.619 39.3144 223.492 39.8041C223.365 40.2938 223.619 40.3602 223.492 40.8499C223.365 41.3396 223.051 41.255 222.918 41.7507C222.785 42.2465 223.384 42.6153 222.985 42.9236C222.586 43.2319 222.374 42.5064 221.866 42.5064C221.358 42.5064 221.358 43.2863 220.856 43.2863C220.355 43.2863 220.355 42.4641 219.847 42.4641C219.339 42.4641 219.339 43.0082 218.837 43.0082C218.335 43.0082 218.329 42.2223 217.828 42.2223C217.326 42.2223 217.32 43.2259 216.818 43.2259C216.316 43.2259 216.31 42.5367 215.808 42.5367C215.307 42.5367 215.301 42.7119 214.799 42.7119C214.297 42.7119 214.291 42.2465 213.789 42.2465C213.287 42.2465 213.287 42.446 212.78 42.446C212.272 42.446 212.278 42.5004 211.77 42.5004C211.262 42.5004 211.262 42.4399 210.76 42.4399C210.259 42.4399 210.253 42.4097 209.751 42.4097C209.249 42.4097 209.243 43.0928 208.741 43.0928C208.239 43.0928 208.233 43.1896 207.726 43.1896C207.218 43.1896 207.218 42.7845 206.716 42.7845C206.214 42.7845 206.208 42.839 205.7 42.839C205.192 42.839 205.192 42.8268 204.685 42.8268C204.177 42.8268 203.983 42.3674 203.584 42.6757C203.185 42.984 203.185 43.1895 203.058 43.6853C202.931 44.181 203.518 44.3382 203.385 44.8339C203.252 45.3297 203.07 45.2814 202.943 45.7831C202.817 46.2849 203.016 46.3333 202.883 46.829C202.75 47.3247 202.792 47.3369 202.659 47.8326C202.526 48.3283 202.133 48.2255 202 48.7273C201.867 49.2291 201.154 49.6221 201.474 50.0271C201.795 50.4322 202.351 49.6583 202.883 49.6583C203.415 49.6583 203.409 49.477 203.941 49.477C204.473 49.477 204.473 49.7732 204.999 49.7732C205.525 49.7732 205.525 50.0029 206.057 50.0029C206.589 50.0029 206.589 50.015 207.115 50.015C207.641 50.015 207.647 50.1783 208.173 50.1783C208.699 50.1783 208.699 49.2654 209.231 49.2654C209.763 49.2654 209.763 49.9485 210.289 49.9485C210.815 49.9485 210.827 49.6523 211.341 49.7913C211.903 49.9425 211.885 50.1783 212.417 50.1783L212.381 50.1662ZM257.051 50.4563C256.912 50.9823 257.849 51.2362 257.71 51.7622C257.571 52.2882 257.166 52.1793 257.027 52.7053C256.888 53.2312 256.852 53.2252 256.713 53.7511C256.574 54.2771 256.967 54.386 256.828 54.9119C256.689 55.4379 255.818 55.2081 255.679 55.7341C255.54 56.2601 255.969 56.375 255.824 56.907C255.679 57.439 255.522 57.3906 255.383 57.9226C255.244 58.4546 254.893 58.3579 254.748 58.8899C254.657 59.2284 254.742 59.6032 254.645 59.9357C254.548 60.2683 254.367 60.5766 254.264 60.9031C254.162 61.2296 254.397 61.6829 254.282 62.0094C254.168 62.3359 253.932 62.6261 253.811 62.9465C253.69 63.2669 253.291 63.4845 253.158 63.7989C253.025 64.1132 253.164 64.5606 253.019 64.875C252.874 65.1894 253.001 65.6489 252.844 65.9572C252.686 66.2655 252.299 66.465 252.13 66.7612C251.961 67.0574 251.544 67.2207 251.356 67.5108C251.169 67.801 251.683 68.5688 251.483 68.853C251.284 69.1371 250.867 69.2943 250.661 69.5724C250.456 69.8505 250.111 70.0379 249.887 70.3039C249.664 70.5699 249.434 70.848 249.192 71.0959C248.95 71.3438 248.225 71.0959 247.971 71.3377C247.717 71.5796 247.82 72.1962 247.554 72.4138C247.288 72.6314 246.78 72.5347 246.496 72.7403C246.212 72.9458 245.891 73.0365 245.595 73.224C245.299 73.4114 245.021 73.5564 244.718 73.7257C244.416 73.895 244.573 74.953 244.259 75.1041C243.944 75.2552 243.582 75.3641 243.261 75.4971C242.941 75.6301 242.578 75.7147 242.246 75.8296C241.913 75.9444 241.369 75.3519 241.031 75.4426C240.692 75.5333 240.335 75.4366 239.997 75.5091C239.658 75.5817 239.344 75.6543 238.999 75.7147C238.655 75.7752 238.467 76.8392 238.117 76.8875C237.766 76.9359 237.391 76.7968 237.04 76.821C236.69 76.8452 236.315 76.3072 235.958 76.3253C235.602 76.3435 235.275 76.8513 234.918 76.8513C234.562 76.8513 234.241 76.2467 233.909 76.2346C233.576 76.2225 233.256 75.9263 232.923 75.896C232.573 75.8658 232.144 76.7546 231.811 76.7062C231.466 76.6578 231.17 76.2709 230.844 76.2044C230.499 76.1379 230.13 76.1983 229.81 76.1076C229.471 76.0169 229.024 76.2225 228.716 76.1076C228.389 75.9928 228.335 75.2008 228.033 75.0557C227.73 74.9106 227.283 75.0255 226.993 74.8562C226.703 74.6869 226.171 74.7898 225.905 74.5842C225.639 74.3787 225.602 73.8467 225.36 73.6048C225.119 73.363 224.629 73.2964 224.423 73.0244C224.218 72.7523 224.26 72.2808 224.091 71.9846C223.922 71.6883 223.795 71.3679 223.656 71.0475C223.517 70.7271 223.075 70.5095 222.972 70.177C222.87 69.8445 223.71 69.3064 223.637 68.9618C223.565 68.6172 222.634 68.4418 222.598 68.0973C222.561 67.7708 223.178 67.3718 223.16 67.0212C223.142 66.6706 223.408 66.3683 223.408 66.0237C223.408 65.6791 223.057 65.3586 223.075 65.008C223.093 64.6573 222.519 64.2765 222.561 63.9319C222.604 63.5873 222.864 63.279 222.912 62.9344C222.96 62.5898 223.299 62.3116 223.359 61.9731C223.42 61.6345 223.625 61.3444 223.698 61.0058C223.77 60.6673 223.124 60.1776 223.202 59.8391C223.281 59.5005 223.353 59.168 223.444 58.8294C223.583 58.3035 223.964 58.4063 224.103 57.8743C224.242 57.3423 224.659 57.4571 224.804 56.9311C224.949 56.4052 224.157 56.1936 224.296 55.6676C224.435 55.1417 224.792 55.2324 224.937 54.7064C225.082 54.1804 225.572 54.3134 225.711 53.7814C225.85 53.2494 225.772 53.2312 225.911 52.7053C226.05 52.1793 225.342 51.9859 225.487 51.4599C225.632 50.934 225.868 50.9944 226.013 50.4684C226.104 50.1299 226.237 49.7974 226.334 49.4649C226.43 49.1324 226.467 48.7636 226.57 48.4371C226.672 48.1107 227.222 47.9172 227.337 47.5908C227.452 47.2643 226.975 46.7021 227.096 46.3816C227.216 46.0612 227.996 45.9826 228.129 45.6682C228.262 45.3539 228.172 44.9246 228.317 44.6103C228.462 44.2959 229.024 44.181 229.181 43.8727C229.338 43.5644 229.441 43.2319 229.61 42.9296C229.78 42.6273 229.193 41.8596 229.375 41.5633C229.556 41.2671 230.457 41.4243 230.656 41.1401C230.856 40.856 230.934 40.4872 231.146 40.2151C231.358 39.9431 231.684 39.7617 231.908 39.4957C232.131 39.2297 232.355 38.9758 232.591 38.7219C232.827 38.468 233.008 38.1657 233.256 37.93C233.504 37.6942 233.57 37.2347 233.836 37.011C234.102 36.7873 234.344 36.5153 234.628 36.3097C234.912 36.1042 235.487 36.3339 235.783 36.1465C236.079 35.9591 236.267 35.6326 236.575 35.4573C236.883 35.2819 237.216 35.2095 237.53 35.0583C237.845 34.9072 238.195 34.889 238.522 34.756C238.848 34.623 239.229 34.7318 239.555 34.6169C239.882 34.5021 239.936 33.5166 240.269 33.426C240.601 33.3353 240.952 33.2083 241.29 33.1297C241.629 33.0511 242.01 33.1116 242.355 33.0511C242.699 32.9907 243.074 33.1479 243.425 33.0996C243.775 33.0512 244.162 33.6557 244.513 33.6255C244.863 33.5953 245.16 33.0391 245.51 33.027C245.861 33.0149 246.2 32.7731 246.556 32.7731C246.913 32.7731 247.264 32.4889 247.596 32.501C247.929 32.5131 248.249 33.2567 248.575 33.2809C248.926 33.3111 249.234 33.4622 249.567 33.5046C249.911 33.5529 250.22 33.6496 250.546 33.7161C250.891 33.7826 251.175 33.9338 251.495 34.0184C251.834 34.1091 252.233 33.8855 252.547 33.9943C252.874 34.1092 253.297 33.9822 253.593 34.1212C253.889 34.2603 254.192 34.4779 254.476 34.6532C254.76 34.8286 254.712 35.4815 254.972 35.687C255.232 35.8925 256.217 35.3243 256.453 35.5601C256.689 35.7958 256.41 36.5394 256.616 36.8115C256.822 37.0835 256.858 37.4342 257.027 37.7304C257.196 38.0266 258.037 37.9965 258.17 38.3169C258.303 38.6373 258.109 39.0846 258.212 39.4171C258.315 39.7496 258.067 40.1426 258.133 40.4872C258.2 40.8318 258.913 41.0555 258.956 41.4062C258.992 41.7326 258.708 42.1195 258.726 42.4702C258.744 42.8208 258.605 43.1473 258.605 43.4979C258.605 43.8485 258.919 44.1931 258.895 44.5377C258.871 44.8823 258.659 45.2028 258.623 45.5473C258.587 45.8919 258.708 46.2486 258.659 46.5932C258.611 46.9378 257.668 47.1071 257.601 47.4457C257.535 47.7842 258.26 48.2618 258.188 48.6003C258.115 48.9389 257.867 49.2231 257.783 49.5616C257.698 49.9002 257.112 50.0815 257.021 50.42L257.051 50.4563Z" fill="#008BF8"/>
<path d="M52.258 66.7975C52.5724 67.2086 52.7719 66.7975 53.2918 66.7975C53.8117 66.7975 53.8117 66.7854 54.3316 66.7854C54.8516 66.7854 54.8516 66.8216 55.3775 66.8216C55.9035 66.8216 55.8974 66.8095 56.4174 66.8095C56.9373 66.8095 56.9373 66.8156 57.4572 66.8156C57.9771 66.8156 57.9771 66.8035 58.5031 66.8035C59.029 66.8035 59.023 66.7793 59.5429 66.7793C60.0628 66.7793 60.0628 66.8156 60.5828 66.8156C61.1027 66.8156 61.1027 66.7672 61.6286 66.7672C62.1546 66.7672 62.1486 66.7914 62.6685 66.7914C63.1884 66.7914 63.1884 66.8337 63.7144 66.8337C64.2403 66.8337 64.2403 66.8337 64.7602 66.8337C65.2802 66.8337 65.3648 67.0816 65.7819 66.7672C66.1991 66.4528 65.9149 66.2957 66.0479 65.7939C66.1809 65.2921 66.2051 65.2981 66.3381 64.8024C66.4711 64.3067 66.4953 64.3067 66.6283 63.8109C66.7613 63.3152 66.713 63.2971 66.846 62.8014C66.979 62.3056 67.0031 62.3056 67.1361 61.8099C67.2691 61.3141 67.2812 61.3141 67.4142 60.8124C67.5472 60.3106 67.5472 60.3106 67.6802 59.8148C67.8132 59.3191 67.7891 59.307 67.9281 58.8112C68.0672 58.3155 68.0369 58.3035 68.176 57.8077C68.315 57.312 68.3755 57.3241 68.5085 56.8223C68.6415 56.3205 68.581 56.3084 68.714 55.8066C68.847 55.3048 68.9196 55.323 69.0526 54.8212C69.1856 54.3194 69.1312 54.3073 69.2642 53.8056C69.3972 53.3038 69.4637 53.3219 69.5967 52.8201C69.7297 52.3184 69.6753 52.3062 69.8083 51.8045C69.9413 51.3027 69.9111 51.2966 70.0501 50.7948C70.1892 50.293 70.2012 50.2991 70.3342 49.7974C70.4672 49.2956 70.4612 49.2956 70.6003 48.7938C70.7393 48.292 70.7635 48.298 70.8965 47.8023C71.0295 47.3066 71.0476 47.3065 71.1806 46.8048C71.3136 46.303 71.3197 46.303 71.4527 45.8012C71.5857 45.2994 71.5615 45.2934 71.6945 44.7916C71.8275 44.2898 71.8154 44.2838 71.9484 43.782C72.0814 43.2802 72.553 43.1895 72.2326 42.7784C71.9121 42.3673 71.7066 42.8087 71.1927 42.8087C70.6789 42.8087 70.6728 42.7905 70.1529 42.7905C69.633 42.7905 69.633 42.8329 69.113 42.8329C68.5931 42.8329 68.5931 42.8208 68.0732 42.8208C67.5533 42.8208 67.5533 42.7543 67.0394 42.7543C66.5255 42.7543 66.5195 42.7664 65.9996 42.7664C65.4797 42.7664 65.4797 42.7844 64.9597 42.7844C64.4398 42.7844 64.4398 42.7724 63.9199 42.7724C63.4 42.7724 63.4 42.7905 62.8801 42.7905C62.3602 42.7905 62.3602 42.8087 61.8402 42.8087C61.3203 42.8087 61.3203 42.8329 60.8004 42.8329C60.2805 42.8329 60.2805 42.7422 59.7606 42.7422C59.2406 42.7422 59.162 42.5124 58.7449 42.8268C58.3278 43.1412 58.5938 43.2923 58.4608 43.7941C58.3278 44.2959 58.2975 44.2898 58.1645 44.7856C58.0315 45.2813 58.0376 45.2874 57.9046 45.7891C57.7716 46.2909 57.8018 46.2969 57.6628 46.7987C57.5237 47.3005 57.5418 47.3005 57.4088 47.8023C57.2758 48.3041 57.2577 48.298 57.1247 48.7998C56.9917 49.3016 56.9796 49.2956 56.8466 49.7974C56.7136 50.2991 56.7076 50.293 56.5745 50.7948C56.4415 51.2966 56.4113 51.2845 56.2723 51.7863C56.1332 52.2881 56.1816 52.3002 56.0486 52.802C55.9156 53.3038 55.9277 53.3038 55.7947 53.8056C55.6617 54.3073 55.6435 54.3012 55.5045 54.803C55.3654 55.3048 55.3594 55.2988 55.2264 55.8006C55.0934 56.3023 55.0511 56.2903 54.9181 56.792C54.7851 57.2938 54.779 57.2878 54.646 57.7896C54.513 58.2914 54.507 58.2914 54.374 58.7871C54.241 59.2828 54.2772 59.3009 54.1382 59.7967C53.9991 60.2924 54.0354 60.3045 53.9024 60.8063C53.7694 61.3081 53.7573 61.3081 53.6243 61.8038C53.4913 62.2996 53.449 62.2935 53.316 62.7953C53.183 63.2971 53.2132 63.3031 53.0802 63.8049C52.9472 64.3067 52.9049 64.2946 52.7658 64.7964C52.6268 65.2981 52.7356 65.3344 52.4878 65.7939C52.2217 66.2896 51.9316 66.3924 52.252 66.8035L52.258 66.7975Z" fill="#008BF8"/>
<path d="M230.88 67.7588C231.213 68.1759 231.412 67.7769 231.944 67.7769C232.476 67.7769 232.476 67.7346 233.008 67.7346C233.54 67.7346 233.54 67.7709 234.072 67.7709C234.604 67.7709 234.604 67.783 235.136 67.783C235.668 67.783 235.668 67.783 236.2 67.783C236.732 67.783 236.732 67.7406 237.264 67.7406C237.796 67.7406 237.796 67.8132 238.328 67.8132C238.86 67.8132 238.86 67.7769 239.392 67.7769C239.924 67.7769 239.924 67.7164 240.456 67.7164C240.988 67.7164 240.988 67.7648 241.526 67.7648C242.065 67.7648 242.059 67.7467 242.597 67.7467C243.135 67.7467 243.231 68.0792 243.661 67.7588C244.09 67.4384 243.83 67.2751 243.963 66.7794C244.096 66.2837 244.102 66.2837 244.235 65.7879C244.368 65.2922 244.344 65.2801 244.477 64.7843C244.61 64.2886 244.598 64.2826 244.731 63.7808C244.864 63.279 244.882 63.2851 245.015 62.7893C245.148 62.2936 245.142 62.2875 245.275 61.7918C245.408 61.2961 245.378 61.284 245.511 60.7882C245.644 60.2925 245.692 60.3046 245.825 59.8028C245.958 59.301 245.885 59.2829 246.024 58.7872C246.163 58.2914 246.176 58.2914 246.309 57.7957C246.442 57.3 246.478 57.306 246.611 56.8103C246.744 56.3145 246.774 56.3206 246.907 55.8188C247.04 55.317 247.01 55.3109 247.143 54.8152C247.276 54.3195 247.282 54.3195 247.415 53.8177C247.548 53.3159 247.554 53.322 247.687 52.8202C247.82 52.3184 247.838 52.3245 247.971 51.8287C248.104 51.333 248.074 51.3209 248.213 50.8251C248.352 50.3294 248.304 50.3173 248.437 49.8155C248.57 49.3137 248.612 49.3258 248.745 48.824C248.878 48.3222 248.866 48.3223 248.999 47.8205C249.132 47.3187 249.114 47.3187 249.247 46.8169C249.38 46.3152 249.422 46.3272 249.555 45.8255C249.688 45.3237 249.64 45.3116 249.773 44.8159C249.906 44.3202 249.942 44.3262 250.075 43.8244C250.208 43.3226 250.238 43.3287 250.371 42.8269C250.504 42.3251 250.97 42.2102 250.649 41.7991C250.329 41.388 250.093 41.7991 249.561 41.7991C249.029 41.7991 249.029 41.8293 248.497 41.8293C247.965 41.8293 247.965 41.8293 247.433 41.8293C246.901 41.8293 246.901 41.8596 246.369 41.8596C245.837 41.8596 245.837 41.8293 245.305 41.8293C244.773 41.8293 244.773 41.8172 244.241 41.8172C243.709 41.8172 243.709 41.781 243.177 41.781C242.645 41.781 242.645 41.8233 242.113 41.8233C241.581 41.8233 241.581 41.7568 241.049 41.7568C240.517 41.7568 240.517 41.8475 239.979 41.8475C239.441 41.8475 239.447 41.781 238.909 41.781C238.371 41.781 238.292 41.5271 237.863 41.8414C237.434 42.1558 237.736 42.313 237.603 42.8087C237.47 43.3045 237.391 43.2863 237.258 43.7821C237.125 44.2778 237.143 44.2839 237.01 44.7856C236.877 45.2874 236.938 45.2995 236.805 45.8012C236.672 46.303 236.678 46.303 236.545 46.7988C236.412 47.2945 236.37 47.2824 236.237 47.7842C236.104 48.286 236.152 48.2921 236.019 48.7938C235.886 49.2956 235.832 49.2775 235.699 49.7793C235.566 50.2811 235.584 50.2811 235.451 50.7829C235.318 51.2846 235.342 51.2846 235.209 51.7864C235.076 52.2882 235.034 52.2761 234.901 52.7718C234.768 53.2675 234.749 53.2675 234.616 53.7633C234.483 54.259 234.471 54.259 234.332 54.7548C234.193 55.2505 234.223 55.2626 234.09 55.7583C233.957 56.2541 233.976 56.2601 233.837 56.7619C233.697 57.2636 233.685 57.2576 233.552 57.7533C233.419 58.2491 233.456 58.2612 233.323 58.7569C233.19 59.2527 233.202 59.2587 233.069 59.7545C232.936 60.2502 232.881 60.2381 232.748 60.7399C232.615 61.2417 232.64 61.2417 232.507 61.7435C232.374 62.2453 232.349 62.2391 232.216 62.7349C232.083 63.2306 232.101 63.2427 231.968 63.7385C231.835 64.2342 231.781 64.2221 231.648 64.7239C231.515 65.2257 231.515 65.2257 231.382 65.7275C231.249 66.2293 231.376 66.2655 231.128 66.725C230.862 67.2207 230.566 67.3416 230.886 67.7467L230.88 67.7588Z" fill="#008BF8"/>
</svg>
