<svg width="115" height="87" viewBox="0 0 115 87" fill="none" xmlns="http://www.w3.org/2000/svg">
<path d="M113.822 35.111C116.882 62.601 105.222 83.081 76.3719 85.561C39.6319 88.721 -3.13813 87.3709 0.181875 38.9809C1.77187 15.841 16.2219 2.91095 38.9119 1.01095C68.1019 -1.42905 109.642 -2.46906 113.822 35.1009V35.111Z" fill="#FFF600"/>
<path d="M37.2618 28.291L36.5718 57.361C36.5218 59.341 37.1718 61.151 38.2718 62.591C40.6518 65.691 45.0718 66.391 48.5518 64.591L73.6118 51.631C83.8518 47.061 84.2118 36.971 73.6618 32.801L48.9918 21.241C46.1818 19.921 42.7918 20.101 40.3618 22.031C38.5318 23.491 37.3118 25.731 37.2518 28.301L37.2618 28.291Z" fill="#434106"/>
</svg>
