<svg width="296" height="117" viewBox="0 0 296 117" fill="none" xmlns="http://www.w3.org/2000/svg">
<path d="M220.053 33.8701C220.566 33.8702 220.566 33.997 221.08 33.9971C221.594 33.9971 221.595 34.6738 222.108 34.6738C222.622 34.6739 222.622 34.7217 223.136 34.7217C223.65 34.7217 223.65 34.7158 224.17 34.7158C224.689 34.7155 224.659 34.1302 224.98 34.5352C225.3 34.9399 224.889 34.7948 224.756 35.2842C224.623 35.7737 224.43 35.7197 224.297 36.209C224.164 36.6987 224.938 36.899 224.811 37.3887C224.683 37.8778 223.951 37.6844 223.818 38.1738C223.685 38.6635 223.691 38.6637 223.564 39.1533C223.438 39.643 223.619 39.6919 223.492 40.1816C223.365 40.671 223.619 40.738 223.492 41.2275C223.365 41.7168 223.051 41.6323 222.918 42.1279C222.785 42.6236 223.383 42.9925 222.984 43.3008C222.585 43.6089 222.374 42.8839 221.866 42.8838C221.358 42.8838 221.358 43.6631 220.856 43.6631C220.355 43.663 220.355 42.8418 219.847 42.8418C219.339 42.8419 219.339 43.3857 218.837 43.3857C218.336 43.3854 218.329 42.6001 217.828 42.5996C217.326 42.5996 217.32 43.6031 216.818 43.6035C216.317 43.6035 216.31 42.9142 215.809 42.9141C215.307 42.9141 215.301 43.0889 214.799 43.0889C214.297 43.0889 214.291 42.624 213.789 42.624C213.287 42.6241 213.287 42.8232 212.779 42.8232C212.272 42.8233 212.278 42.8779 211.771 42.8779C211.263 42.8779 211.262 42.8174 210.761 42.8174C210.259 42.8174 210.253 42.7871 209.751 42.7871C209.249 42.7871 209.243 43.4697 208.741 43.4697C208.239 43.4697 208.233 43.5664 207.726 43.5664C207.218 43.5664 207.218 43.1621 206.716 43.1621C206.214 43.1621 206.208 43.2158 205.7 43.2158C205.192 43.2158 205.192 43.2041 204.685 43.2041C204.177 43.2041 203.983 42.7444 203.584 43.0527C203.185 43.361 203.186 43.5668 203.059 44.0625C202.932 44.5582 203.518 44.7153 203.385 45.2109C203.252 45.7066 203.07 45.6585 202.943 46.1601C202.816 46.6619 203.016 46.7104 202.883 47.206C202.75 47.7018 202.792 47.7142 202.659 48.21C202.526 48.7055 202.133 48.6028 202 49.1045C201.867 49.6062 201.154 49.9993 201.475 50.4043C201.795 50.8091 202.351 50.0354 202.883 50.0352C203.415 50.0352 203.409 49.8545 203.941 49.8545C204.473 49.8546 204.473 50.1504 204.999 50.1504C205.525 50.1504 205.525 50.3798 206.057 50.3799C206.589 50.3799 206.589 50.3926 207.115 50.3926C207.641 50.3926 207.647 50.5557 208.173 50.5557C208.699 50.5557 208.699 49.643 209.23 49.6426C209.762 49.6426 209.763 50.3262 210.289 50.3262C210.815 50.3261 210.827 50.0299 211.341 50.1689C211.903 50.3201 211.885 50.5557 212.417 50.5557L212.381 50.543C212.731 50.5425 213.094 49.5756 213.427 49.5937C213.777 49.6121 214.103 50.0533 214.43 50.0898C214.78 50.1261 215.119 50.2169 215.439 50.2773C215.784 50.3438 216.243 50.0358 216.558 50.126C216.896 50.2287 216.909 51.1844 217.205 51.3174C217.526 51.4623 218.009 51.2269 218.287 51.4082C218.565 51.5896 218.722 51.9399 218.958 52.1816C219.194 52.4235 219.079 52.8592 219.261 53.1494C219.442 53.4393 219.714 53.5848 219.835 53.9111C219.95 54.2133 219.95 54.5099 220.017 54.8603C220.077 55.1745 220.488 55.4404 220.512 55.7969C220.536 56.1173 220.421 56.456 220.409 56.8066C220.397 57.1331 220.095 57.4297 220.059 57.7803C220.023 58.1006 220.288 58.463 220.228 58.8135C220.173 59.1339 220.421 59.5333 220.343 59.8779C220.27 60.1981 219.95 60.4762 219.859 60.8145C219.738 61.2618 219.46 61.1835 219.339 61.6309C219.218 62.0782 220.022 62.3085 219.896 62.7559C219.769 63.2028 219.532 63.1367 219.405 63.584C219.278 64.0309 219.134 63.9893 219.013 64.4365C218.922 64.7749 218.844 65.1133 218.747 65.4336C218.65 65.754 217.882 65.8751 217.773 66.1894C217.665 66.5038 218.039 67.0179 217.912 67.3262C217.785 67.6342 217.29 67.7974 217.145 68.1055C216.999 68.4137 216.758 68.6618 216.601 68.958C216.443 69.2542 216.268 69.5265 216.087 69.8105C215.906 70.0947 216.558 70.9535 216.364 71.2256C216.171 71.4974 215.893 71.7754 215.682 72.0351C215.47 72.295 215.18 72.5491 214.944 72.7969C214.709 73.0447 213.952 72.7607 213.698 72.9844C213.444 73.208 213.082 73.2622 212.81 73.4678C212.538 73.6733 212.296 73.8548 212.006 74.0361C211.716 74.2174 211.945 75.2816 211.644 75.4453C211.341 75.6085 210.935 75.6147 210.621 75.7598C210.307 75.9044 209.78 75.5119 209.454 75.6328C209.128 75.7541 208.971 76.3396 208.645 76.4424C208.318 76.5451 207.835 76.0562 207.496 76.1406C207.158 76.2252 206.795 76.0195 206.456 76.0859C206.118 76.1524 205.954 77.1194 205.609 77.1738C205.265 77.2281 204.884 76.9383 204.539 76.9746C204.195 77.011 203.875 77.1857 203.53 77.21C203.186 77.2341 202.865 77.5911 202.521 77.6094C202.176 77.6275 201.807 76.9266 201.462 76.9326C201.117 76.9389 200.785 77.2529 200.44 77.2529C200.096 77.2531 199.709 77.6399 199.353 77.6279C198.996 77.6158 198.645 77.2281 198.288 77.21C197.932 77.192 197.538 77.4943 197.182 77.458C196.825 77.4215 196.492 77.0892 196.136 77.0469C195.779 77.0045 195.423 76.9257 195.072 76.8652C194.722 76.8048 194.292 77.0833 193.941 77.0107C193.591 76.9378 193.452 75.9413 193.107 75.8564C192.763 75.7718 192.176 76.5391 191.838 76.4365C191.499 76.3337 191.354 75.6022 191.016 75.4873C190.677 75.3724 190.459 74.9974 190.133 74.8584C189.806 74.7195 189.341 74.913 189.021 74.7559C188.7 74.5987 188.084 74.9554 187.781 74.7803C187.479 74.605 187.153 74.0065 186.856 73.8008C186.844 73.299 187.273 73.3168 187.4 72.8271C187.527 72.3377 187.673 72.38 187.8 71.8906C187.927 71.401 187.213 71.2071 187.346 70.7236C187.479 70.24 187.455 70.2338 187.588 69.7441C187.721 69.2544 188.096 69.3567 188.229 68.873C188.362 68.3898 188.778 68.4983 188.905 68.0088C189.032 67.5192 188.247 67.3077 188.38 66.8242C188.513 66.3406 188.863 66.431 188.996 65.9414C189.129 65.4517 189.619 65.5844 189.752 65.0947C189.885 64.6052 189.607 64.5751 189.903 64.1641C190.193 64.3754 190.604 64.0191 190.9 64.2119C191.197 64.4054 191.361 64.7924 191.669 64.9678C191.977 65.1431 192.268 65.337 192.588 65.4941C192.908 65.6512 193.253 65.7301 193.579 65.8691C193.905 66.0084 194.069 66.5637 194.401 66.6846C194.734 66.8053 195.272 66.3103 195.616 66.4131C195.961 66.5158 196.106 67.2771 196.45 67.3682C196.795 67.4588 197.206 67.2899 197.557 67.3623C197.907 67.4348 198.18 67.9484 198.536 68.0029C198.893 68.0573 199.267 68.0456 199.624 68.0879C199.981 68.1302 200.417 67.2657 200.773 67.2959C201.13 67.3266 201.432 68.1842 201.789 68.1963C202.146 68.2083 202.515 68.0693 202.871 68.0693C203.204 68.0694 203.548 68.2086 203.887 68.1904C204.225 68.1723 204.564 68.1482 204.902 68.124C205.241 68.0998 205.568 67.9786 205.906 67.9424C206.245 67.9059 206.535 67.5677 206.873 67.5254C207.212 67.4831 207.526 67.3677 207.858 67.3193C208.191 67.271 208.814 67.5798 209.146 67.5254C209.394 67.1022 209.128 66.9325 209.261 66.4609C209.394 65.9896 209.473 66.0136 209.6 65.5361C209.727 65.0587 209.847 65.0945 209.98 64.623C210.113 64.152 210.337 64.2122 210.464 63.7412C210.591 63.2697 209.696 63.0213 209.829 62.5498C209.962 62.0783 209.926 62.0661 210.053 61.5947C210.18 61.1232 210.307 61.1532 210.434 60.6816C210.561 60.2102 210.761 60.2646 210.894 59.7871C211.027 59.3095 211.963 58.8858 211.661 58.5049C211.359 58.1247 210.712 58.832 210.204 58.832C209.696 58.8321 209.702 59.0615 209.194 59.0615C208.687 59.0616 208.692 59.3516 208.185 59.3516C207.677 59.3512 207.677 58.6332 207.176 58.6328C206.674 58.6328 206.674 58.5176 206.166 58.5176C205.658 58.5176 205.658 58.4688 205.156 58.4688C204.654 58.4688 204.648 58.3848 204.146 58.3848C203.645 58.3848 203.638 58.7168 203.137 58.7168C202.635 58.7169 202.629 58.9951 202.121 58.9951C201.613 58.9951 201.613 58.9404 201.105 58.9404C200.598 58.9403 200.598 58.3662 200.09 58.3662C199.733 58.3665 199.34 59.4304 199.008 59.4062C198.651 59.376 198.373 58.6388 198.047 58.584C197.696 58.5235 197.418 58.2882 197.098 58.1914C196.759 58.0886 196.142 58.6683 195.84 58.5293C195.52 58.3781 195.338 57.8888 195.066 57.6953C194.794 57.5019 194.74 57.0184 194.504 56.7705C194.268 56.5226 193.513 56.637 193.325 56.3408C193.138 56.0446 193.235 55.5549 193.102 55.2285C192.975 54.9202 192.993 54.5331 192.908 54.1885C192.83 53.8681 192.436 53.5595 192.394 53.209C192.351 52.8827 192.509 52.4961 192.503 52.1396C192.497 51.8071 192.333 51.4377 192.352 51.0811C192.37 50.7489 193.3 50.495 193.343 50.1387C193.385 49.8062 192.642 49.3524 192.702 49.0078C192.763 48.6754 193.004 48.3671 193.089 48.0166C193.161 47.6901 193.566 47.4354 193.663 47.0908C193.814 46.5289 193.362 46.408 193.513 45.8398C193.604 45.4954 194.219 45.3138 194.322 44.9814C194.425 44.6489 193.748 44.0382 193.863 43.7178C193.978 43.3975 194.722 43.2821 194.855 42.9678C194.987 42.6533 194.656 42.0972 194.807 41.7891C194.958 41.4808 195.078 41.1117 195.247 40.8096C195.416 40.5074 195.925 40.369 196.106 40.085C196.288 39.8008 196.293 39.3406 196.499 39.0625C196.705 38.7848 197.266 38.7605 197.49 38.501C197.714 38.241 197.859 37.8834 198.101 37.6416C198.342 37.3998 198.452 36.9588 198.718 36.7412C198.984 36.5237 199.655 36.8321 199.945 36.6387C200.235 36.4451 200.284 35.8704 200.592 35.7012C200.9 35.5318 201.094 35.0726 201.414 34.9336C201.735 34.7948 202.381 35.5326 202.714 35.4238C203.046 35.315 203.173 34.5163 203.518 34.4375C203.862 34.3589 204.225 34.311 204.569 34.2627C204.914 34.2143 205.283 34.2205 205.634 34.1963C205.984 34.1721 206.341 34.087 206.691 34.0869C207.205 34.0869 207.206 34.8252 207.72 34.8252C208.233 34.8251 208.233 34.3897 208.747 34.3896C209.261 34.3896 209.262 34.1416 209.775 34.1416C210.289 34.1419 210.289 34.7041 210.803 34.7041C211.316 34.7041 211.317 34.4201 211.83 34.4199C212.344 34.4199 212.345 33.8701 212.858 33.8701C213.372 33.8702 213.372 34.3114 213.886 34.3115C214.4 34.3115 214.4 34.0449 214.914 34.0449C215.428 34.045 215.428 34.3115 215.941 34.3115C216.455 34.3115 216.455 34.0695 216.969 34.0693C217.483 34.0693 217.483 34.7588 217.997 34.7588C218.511 34.7586 218.511 33.8704 219.024 33.8701H220.053Z" fill="#FFFCD7"/>
<path d="M96.7588 33.8516C97.2727 33.8516 97.2733 34.0752 97.7871 34.0752C98.3009 34.0752 98.4827 33.9426 98.791 34.3477C99.0985 34.7522 98.513 34.7829 98.3799 35.2842C98.2469 35.786 98.9662 35.9738 98.8272 36.4756C98.6882 36.9771 98.712 36.9772 98.5791 37.4785C98.4461 37.9803 98.0647 37.8783 97.9317 38.374C97.7986 38.8691 97.3821 38.7607 97.249 39.2559C97.116 39.7516 97.9076 39.964 97.7686 40.4658C97.6294 40.967 97.2795 40.8646 97.1465 41.3662C97.0135 41.8679 96.5237 41.729 96.3906 42.2305C96.2577 42.7322 96.3361 42.7506 96.2031 43.2461C96.0701 43.7418 96.7775 43.9359 96.6445 44.4316C96.5115 44.9271 96.2697 44.8667 96.1367 45.3623C96.0037 45.858 95.967 45.8519 95.834 46.3535C95.701 46.8552 95.7736 46.8736 95.6406 47.3691C95.5076 47.8649 95.0666 47.7504 94.9336 48.2461C94.8006 48.7418 95.4231 48.9115 95.2901 49.4072C95.1568 49.9023 94.4926 49.7275 94.3594 50.2227C94.2264 50.7184 94.4738 50.7914 94.3408 51.2871C94.2078 51.7825 93.773 51.6679 93.6338 52.1631C93.4948 52.6588 93.5608 52.6779 93.4277 53.1797C93.2955 53.681 94.1649 53.9107 94.0264 54.4121C93.8873 54.9139 93.0834 54.6906 92.9444 55.1924C92.8053 55.6941 92.9504 55.7308 92.8174 56.2266C92.6844 56.7219 92.5451 56.6858 92.4121 57.1875C92.2792 57.6891 92.2853 57.6897 92.1524 58.1914C92.0195 58.6928 92.1105 58.7112 91.9776 59.2129C91.8446 59.7146 92.134 59.7873 92.001 60.2891C91.8681 60.7905 91.9289 60.803 91.7959 61.3047C91.6628 61.8062 91.1614 61.6674 91.0283 62.1689C90.8953 62.6707 91.0705 62.7131 90.9375 63.2148C90.8045 63.7166 90.7199 63.6926 90.5869 64.1943C90.454 64.6959 90.3332 64.6598 90.2002 65.1611C90.0672 65.6629 89.8371 65.6029 89.7041 66.0986C89.5712 66.5943 90.4657 66.8421 90.333 67.3437C90.2 67.8455 89.7041 67.5979 90.0244 68.0029C90.3448 68.408 90.2424 67.9785 90.7744 67.9785C91.3061 67.9786 91.3062 68.1845 91.832 68.1846C92.358 68.1846 92.3645 68.8193 92.8965 68.8193C93.4281 68.8191 93.4283 68.2755 93.96 68.2754C94.492 68.2754 94.4924 68.0449 95.0244 68.0449C95.5561 68.0448 95.5563 67.755 96.0879 67.7549C96.6199 67.7549 96.6203 68.4746 97.1524 68.4746C97.6841 68.4746 97.6843 68.5898 98.2158 68.5898C98.7478 68.5898 98.7482 68.6377 99.2861 68.6377C99.8242 68.6377 100.212 68.9464 100.635 68.626C101.058 68.3056 100.622 67.7848 100.755 67.2891C100.888 66.7937 100.622 66.7211 100.755 66.2197C100.888 65.7179 100.943 65.7359 101.076 65.2402C101.209 64.7445 101.765 64.8893 101.898 64.3936C102.031 63.898 100.991 63.6138 101.124 63.1182C101.257 62.6224 101.934 62.8035 102.067 62.3018C102.2 61.8002 102.357 61.8484 102.49 61.3467C102.623 60.8451 101.886 60.6516 102.019 60.1562C102.152 59.6605 102.472 59.7448 102.605 59.249C102.738 58.7533 103.058 58.8375 103.191 58.3418C103.324 57.8463 102.678 57.6706 102.811 57.1689C102.944 56.6676 103.246 56.7519 103.385 56.2568C103.524 55.7611 103.651 55.7967 103.784 55.2949C103.917 54.7933 103.597 54.7085 103.73 54.2129C103.863 53.7172 104.038 53.7594 104.171 53.2637C104.304 52.7681 104.14 52.7193 104.273 52.2236C104.407 51.7282 105.277 51.9576 105.41 51.4619C105.543 50.9664 104.769 50.7544 104.902 50.2588C105.035 49.7634 105.211 49.8052 105.344 49.3096C105.477 48.8143 105.798 48.8989 105.931 48.3975C106.064 47.8957 105.616 47.7801 105.749 47.2783C105.882 46.777 106.402 46.9216 106.541 46.4199C106.68 45.9184 105.87 45.7067 106.003 45.2051C106.136 44.7034 106.764 44.8725 106.897 44.3769C107.03 43.8812 106.523 43.7418 106.656 43.2461C106.789 42.7507 106.734 42.7319 106.867 42.2363C107 41.741 107.357 41.8316 107.49 41.3359C107.623 40.8403 107.382 40.7732 107.515 40.2715C107.648 39.7703 108.058 39.8844 108.191 39.3828C108.324 38.8814 108.191 38.845 108.324 38.3496C108.457 37.8539 108.21 37.7809 108.343 37.2852C108.476 36.7898 109.104 36.9528 109.237 36.4512C109.37 35.9494 108.923 35.8279 109.056 35.3262C109.188 34.8245 108.76 34.3174 109.165 33.9971C109.57 33.6766 109.957 34.8193 110.465 34.8193C110.972 34.819 110.979 34.081 111.486 34.081C111.994 34.0811 112 34.1055 112.508 34.1055C113.016 34.1055 113.022 34.1543 113.529 34.1543C114.037 34.1543 114.044 34.081 114.558 34.081C115.071 34.0813 115.071 34.8193 115.579 34.8193C116.087 34.8193 116.093 34.384 116.606 34.3838C117.12 34.3838 117.121 34.1357 117.635 34.1357C118.148 34.1357 118.082 34.1535 118.391 34.5644C118.699 34.9755 118.475 34.8491 118.342 35.3506C118.209 35.8524 118.735 35.9982 118.602 36.5C118.468 37.0012 118.039 36.8871 117.906 37.3887C117.774 37.8898 118.027 37.9627 117.895 38.4639C117.762 38.9656 117.501 38.8996 117.368 39.4014C117.235 39.903 117.471 39.9699 117.332 40.4717C117.193 40.9731 116.528 40.7923 116.396 41.2939C116.263 41.7956 117.114 42.0256 116.981 42.5273C116.849 43.0287 116.842 43.0288 116.703 43.5303C116.564 44.032 116.444 44.0021 116.311 44.5039C116.178 45.0056 115.519 44.8304 115.386 45.332C115.253 45.8337 115.204 45.8218 115.065 46.3232C114.926 46.825 114.938 46.8312 114.799 47.333C114.66 47.8348 114.733 47.8535 114.6 48.3613C114.467 48.8687 114.551 48.8869 114.418 49.3945C114.285 49.9023 114.085 49.8419 113.946 50.3496C113.807 50.8574 114.581 51.0636 114.442 51.5654C114.303 52.0667 113.578 51.8733 113.438 52.375C113.299 52.8768 113.306 52.8771 113.173 53.3789C113.04 53.8805 113.221 53.9348 113.088 54.4365C112.955 54.9383 113.209 55.011 113.07 55.5127C112.931 56.0144 112.622 55.9299 112.483 56.4375C112.344 56.9452 112.732 57.0483 112.593 57.5498C112.454 58.0515 112.024 57.9369 111.885 58.4385C111.746 58.9403 112.502 59.1465 112.363 59.6543C112.224 60.1619 111.432 59.9444 111.293 60.4521C111.154 60.9599 111.68 61.0989 111.547 61.6064C111.456 61.9509 110.604 62.0662 110.501 62.3984C110.398 62.7308 111.256 63.3715 111.147 63.7041C111.039 64.0366 110.271 64.1521 110.15 64.4785C110.03 64.805 110.071 65.1982 109.938 65.5185C109.805 65.8387 109.244 65.9778 109.105 66.292C108.966 66.6062 108.996 67.0052 108.845 67.3135C108.694 67.6217 108.573 67.9546 108.403 68.2568C108.234 68.5591 108.01 68.825 107.822 69.1152C107.635 69.4054 107.423 69.6719 107.224 69.956C107.025 70.2404 107.351 70.935 107.134 71.207C106.916 71.4791 106.741 71.8301 106.505 72.084C106.269 72.3378 105.725 72.3197 105.471 72.5615C105.217 72.8032 104.987 73.0811 104.722 73.3047C104.456 73.5283 104.165 73.7339 103.881 73.9394C103.597 74.145 103.21 74.1878 102.907 74.3691C102.605 74.5501 102.213 74.5199 101.898 74.6768C101.584 74.8339 101.535 75.5356 101.209 75.6748C100.883 75.8138 100.489 75.7718 100.15 75.8867C99.8122 76.0017 99.5463 76.3153 99.208 76.4121C98.8695 76.5088 98.5302 76.6421 98.1856 76.7207C97.841 76.7989 97.4179 76.4669 97.0674 76.5273C96.7168 76.5877 96.342 76.2858 95.9854 76.3281C95.6287 76.3705 95.3567 76.9387 95 76.9629C94.6434 76.9871 94.3109 77.1919 93.9483 77.2041C93.5855 77.2162 93.2405 76.5215 92.8838 76.5215L92.9385 76.5029C92.5758 76.5029 92.2069 77.4701 91.8623 77.458C91.4996 77.4459 91.161 77.0107 90.8164 76.9805C90.4537 76.9502 90.1032 76.8775 89.7647 76.8291C89.4019 76.7807 88.9724 77.1261 88.6338 77.0596C88.2772 76.9868 88.1381 76.038 87.8057 75.9473C87.4552 75.8506 87.002 76.1703 86.6817 76.0498C86.3431 75.9228 86.0886 75.6326 85.7803 75.4814C85.4539 75.3182 85.3632 74.8526 85.0791 74.6592C84.795 74.4658 84.4328 74.4289 84.1729 74.1992C83.9129 73.9695 83.7491 73.6978 83.5254 73.4258C83.3018 73.1539 82.8065 73.1114 82.625 72.8154C82.4437 72.5192 82.389 72.1624 82.25 71.8359C82.111 71.5096 82.2735 71.1228 82.1709 70.7783C82.0681 70.4337 81.7001 70.2034 81.6397 69.8467C81.5792 69.5081 81.2226 69.1996 81.1924 68.8369C81.1623 68.4986 81.3975 68.1301 81.3916 67.7676C81.3916 67.429 81.676 67.0961 81.7002 66.7334C81.7244 66.3707 80.9079 65.9651 80.9502 65.6084C80.9927 65.2519 81.2825 64.9317 81.3369 64.5752C81.3913 64.2186 81.5965 63.9103 81.6631 63.5537C81.7296 63.1971 81.7904 62.8643 81.875 62.5137C81.9597 62.163 82.7091 62.0057 82.7998 61.6611C82.9328 61.1594 82.4256 61.0203 82.5586 60.5186C82.6916 60.017 83.0718 60.1194 83.211 59.6182C83.35 59.1164 83.453 59.1462 83.586 58.6445C83.719 58.1427 83.7369 58.1484 83.876 57.6406C84.0148 57.1329 83.0299 56.8728 83.169 56.3711C83.2732 55.9948 83.3233 55.9077 83.4004 55.6758L83.5781 55.084C83.655 54.852 83.704 54.7649 83.8037 54.3887C83.9367 53.8869 84.6444 54.074 84.7774 53.5723C84.9103 53.0706 85.0914 53.1188 85.2305 52.6172C85.3695 52.1154 85.3573 52.1092 85.4902 51.6074C85.6232 51.1057 84.6321 50.8397 84.7647 50.332C84.8977 49.8242 85.0672 49.8719 85.2002 49.3701C85.3334 48.8688 85.8768 49.0136 86.0098 48.5059C86.1428 47.9981 85.66 47.8709 85.793 47.3691C85.9262 46.8678 86.5057 47.0182 86.6387 46.5166C86.7717 46.0152 87.0438 46.0876 87.1768 45.5801C87.3098 45.0722 86.4157 44.8359 86.5547 44.3281C86.6938 43.8208 87.0204 43.9108 87.1533 43.4092C87.2861 42.908 87.1531 42.8714 87.292 42.3701C87.4311 41.8683 87.1102 41.7772 87.2432 41.2754C87.3762 40.7736 88.0721 40.9549 88.2051 40.4531C88.3379 39.9515 88.0419 39.8669 88.1748 39.3652C88.3078 38.8635 87.9327 38.7605 88.0654 38.2529C88.1984 37.7451 88.5613 37.8476 88.6944 37.3398C88.8274 36.832 88.5075 36.7469 88.6465 36.2451C88.7856 35.744 89.0692 35.8161 89.2022 35.3086C89.3352 34.8008 89.1241 34.5714 89.5352 34.251C89.9463 33.9306 90.1094 33.876 90.6172 33.876C91.1248 33.8763 91.1309 34.8125 91.6387 34.8125C92.1464 34.8125 92.1525 33.9182 92.6602 33.918C93.1679 33.918 93.1742 34.5641 93.6817 34.5644C94.1895 34.5644 94.1961 34.831 94.71 34.831C95.2237 34.831 95.2237 34.4619 95.7315 34.4619C96.2391 34.4619 96.2454 33.8519 96.7588 33.8516Z" fill="#FFFCD7"/>
<path fill-rule="evenodd" clip-rule="evenodd" d="M177.775 32.7871C178.132 32.7871 178.471 33.1861 178.804 33.1982C179.136 33.2104 179.463 33.6642 179.795 33.6885C180.146 33.7187 180.581 32.9452 180.907 32.9873C181.252 33.0357 181.554 33.4521 181.881 33.5186C182.225 33.5851 182.437 34.1595 182.758 34.2441C183.096 34.3347 183.428 34.3472 183.736 34.4619C184.063 34.5767 184.667 34.0333 184.97 34.1719C185.272 34.3109 185.508 34.7162 185.792 34.8916C186.076 35.0669 186.373 35.3081 186.639 35.5137C186.905 35.7192 187.243 35.9195 187.479 36.1553C187.714 36.391 187.606 36.9594 187.812 37.2314C188.017 37.5031 188.755 37.449 188.924 37.7451C189.093 38.0414 188.634 38.6642 188.767 38.9785C188.9 39.2927 189.25 39.5104 189.347 39.8428C189.443 40.1753 189.081 40.5863 189.147 40.9248C189.214 41.2634 189.323 41.548 189.365 41.8926C189.402 42.2188 190.327 42.4972 190.345 42.8477C190.362 43.198 189.523 43.5424 189.522 43.8867C189.522 44.2312 189.649 44.552 189.631 44.8965C189.613 45.2411 189.438 45.5441 189.401 45.8887C189.365 46.233 189.329 46.5472 189.28 46.8916C189.232 47.2361 189.269 47.5627 189.202 47.9072C189.136 48.2518 189.371 48.6273 189.299 48.9658C189.226 49.3043 189.214 49.643 189.136 49.9814C189.057 50.3198 188.471 50.5074 188.38 50.8398C188.241 51.3655 188.415 51.4138 188.271 51.9394C188.125 52.4654 188.047 52.4417 187.908 52.9736C187.769 53.5056 187.648 53.4693 187.503 53.9951C187.358 54.5211 187.134 54.4612 186.995 54.9932C186.857 55.525 187.751 55.7612 187.612 56.2871C187.473 56.8127 187.503 56.8249 187.364 57.3506C187.225 57.8764 187.098 57.8464 186.959 58.3779C186.82 58.9099 186.621 58.8561 186.476 59.3818C186.385 59.7203 185.684 59.8777 185.587 60.21C185.49 60.5425 185.901 61.0329 185.798 61.3594C185.695 61.6857 185.798 62.1026 185.684 62.4229C185.569 62.7433 185.714 63.1911 185.593 63.5176C185.471 63.8437 184.661 63.9045 184.528 64.2188C184.395 64.5329 184.148 64.805 183.997 65.1191C183.846 65.4335 183.658 65.718 183.501 66.0264C183.344 66.3346 183.108 66.5945 182.938 66.8906C182.769 67.1867 182.878 67.6581 182.697 67.9482C182.516 68.2384 182.552 68.6924 182.358 68.9766C182.165 69.2606 181.905 69.5201 181.699 69.792C181.494 70.064 180.829 69.9742 180.605 70.2402C180.382 70.5064 180.944 71.4914 180.708 71.7393C180.472 71.987 179.717 71.7574 179.469 71.9932C179.221 72.2289 178.852 72.338 178.586 72.5557C178.32 72.7735 178.513 73.6009 178.23 73.8066C177.945 74.0122 177.455 73.9453 177.165 74.1387C176.875 74.3321 176.404 74.2183 176.102 74.3935C175.799 74.5689 175.787 75.3244 175.473 75.4756C175.158 75.6267 174.693 75.4871 174.372 75.6201C174.052 75.7531 173.671 75.7477 173.339 75.8564C173.006 75.9652 172.77 76.3936 172.432 76.4844C172.093 76.5751 171.706 76.4907 171.361 76.5693C171.017 76.6479 170.703 76.8837 170.358 76.9443C170.014 77.0048 169.548 76.1588 169.197 76.207C168.847 76.2554 168.599 77.0832 168.248 77.1074C167.897 77.1316 167.54 76.975 167.184 76.9932C166.827 77.0109 166.488 76.4912 166.138 76.4912L166.102 76.5029C165.757 76.5034 165.394 77.4701 165.062 77.458C164.729 77.4455 164.385 77.0109 164.053 76.9805C163.702 76.9502 163.363 76.8783 163.037 76.8359C162.693 76.7876 162.269 77.1378 161.942 77.0713C161.598 77.0046 161.465 76.0553 161.145 75.9707C160.806 75.88 160.364 76.2065 160.05 76.0976C159.724 75.9827 159.476 75.6986 159.174 75.5596C158.872 75.4206 158.757 74.9497 158.473 74.7803C158.189 74.611 157.831 74.5864 157.565 74.3809C157.3 74.1754 157.124 73.9156 156.889 73.6738C156.653 73.432 156.163 73.4381 155.957 73.166C155.752 72.894 155.667 72.555 155.498 72.2588C155.329 71.9626 155.449 71.5694 155.316 71.249C155.183 70.9289 154.79 70.7533 154.688 70.4209C154.585 70.0886 154.198 69.8464 154.132 69.5019C154.065 69.1574 154.258 68.7947 154.216 68.4502C154.18 68.1239 154.434 67.7733 154.416 67.4228C154.398 67.0722 153.552 66.7576 153.558 66.4131C153.564 66.0685 153.823 65.7294 153.848 65.3848C153.872 65.0404 154.047 64.7203 154.083 64.376C154.119 64.0315 154.15 63.6988 154.204 63.3604C154.259 63.0219 154.99 62.816 155.051 62.4717C155.111 62.1271 154.658 61.7155 154.73 61.377C154.803 61.0386 155.262 60.8149 155.341 60.4766C155.419 60.1382 155.607 59.8598 155.697 59.5215C155.836 58.9955 155.855 59.0008 156 58.4688C156.145 57.9371 155.16 57.6831 155.305 57.1514C155.45 56.6194 155.492 56.6372 155.637 56.1113C155.782 55.5854 155.825 55.5974 155.964 55.0654C156.103 54.5336 156.81 54.7269 156.949 54.2012C157.088 53.6753 157.269 53.7233 157.414 53.1914C157.559 52.6595 157.548 52.6594 157.687 52.1338C157.826 51.6079 156.834 51.3353 156.973 50.8096C157.063 50.471 157.33 50.1683 157.427 49.8418C157.524 49.5156 158.164 49.3341 158.272 49.0078C158.381 48.6815 158.013 48.18 158.134 47.8535C158.255 47.527 158.932 47.3995 159.059 47.0791C159.186 46.7587 159.567 46.5469 159.706 46.2266C159.844 45.906 159.137 45.2107 159.282 44.8965C159.427 44.5822 159.893 44.4069 160.05 44.0986C160.207 43.7904 160.256 43.4097 160.425 43.1074C160.594 42.8052 160.498 42.3216 160.679 42.0254C160.86 41.7292 161.658 41.8193 161.852 41.5352C162.045 41.251 162.003 40.7857 162.209 40.5137C162.414 40.2415 162.342 39.7032 162.565 39.4434C162.789 39.1837 163.315 39.153 163.551 38.9053C163.786 38.6573 163.817 38.1616 164.064 37.9199C164.312 37.6783 164.79 37.66 165.056 37.4365C165.322 37.2128 165.618 37.0132 165.902 36.8076C166.186 36.6021 166.283 36.1064 166.579 35.9189C166.875 35.7315 167.656 36.3548 167.958 36.1855C168.26 36.0163 168.157 35.0603 168.472 34.9092C168.786 34.7582 169.367 35.2052 169.693 35.0723C170.02 34.9396 170.413 35.0726 170.745 34.9639C171.077 34.8549 171.277 34.4014 171.615 34.3047C171.954 34.208 172.148 33.5376 172.486 33.459C172.825 33.3805 173.224 33.5311 173.568 33.4707C173.913 33.4104 174.3 33.64 174.65 33.5977C175.001 33.5554 175.346 33.664 175.696 33.6338C176.047 33.6033 176.349 32.8422 176.706 32.8301C177.063 32.818 177.419 32.7871 177.775 32.7871ZM181.826 42.1943C181.506 41.7897 181.282 42.2129 180.744 42.2129H179.681C179.149 42.2129 179.148 42.2246 178.616 42.2246C178.085 42.2246 178.084 42.1943 177.553 42.1943C177.021 42.1943 177.02 42.2187 176.488 42.2187C175.957 42.2187 175.956 42.1641 175.425 42.1641C174.893 42.1641 174.892 42.2246 174.36 42.2246C173.828 42.2246 173.828 42.1758 173.296 42.1758C172.764 42.1758 172.764 42.2305 172.232 42.2305C171.7 42.2305 171.7 42.2432 171.162 42.2432C170.624 42.2432 170.63 42.1885 170.092 42.1885C169.554 42.1883 169.463 41.9043 169.034 42.2246C168.605 42.545 168.871 42.7025 168.738 43.1982C168.605 43.6937 168.617 43.6999 168.484 44.1953C168.351 44.691 168.4 44.7094 168.267 45.2051C168.134 45.7008 168.043 45.683 167.91 46.1787C167.777 46.6741 167.795 46.6803 167.662 47.1816C167.529 47.6833 167.577 47.6898 167.444 48.1914C167.311 48.6931 167.263 48.6753 167.13 49.1768C166.997 49.6785 166.973 49.6672 166.84 50.1689C166.707 50.6704 166.803 50.6948 166.664 51.1904C166.525 51.6858 166.531 51.6861 166.398 52.1875C166.265 52.6892 166.229 52.6773 166.096 53.1728C165.963 53.6685 165.902 53.6568 165.77 54.1582C165.637 54.6599 165.667 54.6665 165.534 55.1621C165.401 55.6578 165.419 55.6642 165.286 56.166C165.153 56.6675 165.147 56.6615 165.014 57.1631C164.881 57.6649 164.881 57.6654 164.748 58.1611C164.615 58.6565 164.614 58.6565 164.481 59.1582C164.348 59.6599 164.373 59.6664 164.24 60.1621C164.107 60.6576 164.077 60.6516 163.938 61.1533C163.799 61.6549 163.775 61.643 163.642 62.1445C163.509 62.6463 163.551 62.6527 163.412 63.1543C163.273 63.6561 163.273 63.6506 163.134 64.1523C162.995 64.6537 163.007 64.6538 162.874 65.1553C162.741 65.6569 162.704 65.6451 162.571 66.1465C162.438 66.6483 162.572 66.7036 162.336 67.1631C162.076 67.6524 161.744 67.7369 162.063 68.1416L162.076 68.124C162.409 68.5406 162.596 68.1299 163.128 68.1299C163.66 68.1299 163.66 68.1777 164.191 68.1777H165.256C165.788 68.1777 165.788 68.124 166.319 68.124C166.851 68.124 166.852 68.1719 167.384 68.1719C167.916 68.1719 167.916 68.1416 168.448 68.1416C168.98 68.1416 168.98 68.0879 169.512 68.0879C170.044 68.0879 170.044 68.1299 170.576 68.1299C171.108 68.1299 171.108 68.1055 171.64 68.1055C172.172 68.1055 172.172 68.1777 172.71 68.1777C173.248 68.1777 173.242 68.1601 173.78 68.1601C174.318 68.1603 174.445 68.4863 174.874 68.166C175.303 67.8456 174.953 67.6278 175.086 67.126C175.219 66.6245 175.267 66.6421 175.4 66.1465C175.533 65.6513 175.473 65.6329 175.605 65.1377C175.738 64.642 175.757 64.6412 175.89 64.1455C176.023 63.6501 176.029 63.6499 176.162 63.1543C176.295 62.6588 176.283 62.6526 176.416 62.1572C176.549 61.6615 176.531 61.6549 176.664 61.1592C176.797 60.6637 176.851 60.6755 176.984 60.1738C177.117 59.6722 177.153 59.6841 177.286 59.1885C177.419 58.6927 177.384 58.6803 177.517 58.1846C177.65 57.6893 177.667 57.6889 177.8 57.1934C177.933 56.6977 177.964 56.7038 178.097 56.2021C178.23 55.7005 178.163 55.688 178.302 55.1865C178.441 54.6847 178.411 54.6783 178.544 54.1826C178.677 53.6871 178.689 53.6871 178.822 53.1855C178.955 52.6838 179.004 52.7017 179.137 52.2002C179.27 51.6984 179.245 51.6919 179.378 51.1963C179.511 50.7005 179.499 50.694 179.638 50.1982C179.777 49.7028 179.832 49.7146 179.965 49.2129C180.098 48.7116 180.103 48.7174 180.236 48.2158C180.369 47.714 180.346 47.7076 180.479 47.2119C180.611 46.7165 180.636 46.7163 180.769 46.2207C180.902 45.725 180.872 45.7127 181.005 45.2109C181.138 44.7094 181.101 44.7029 181.234 44.2012C181.367 43.6998 181.41 43.7116 181.549 43.21C181.688 42.7083 182.147 42.5993 181.826 42.1943Z" fill="#FFFCD7"/>
<path fill-rule="evenodd" clip-rule="evenodd" d="M247.596 32.8779C247.928 32.89 248.249 33.6337 248.575 33.6582C248.926 33.6884 249.234 33.8394 249.566 33.8818C249.911 33.9302 250.22 34.0272 250.546 34.0937C250.89 34.1602 251.175 34.3108 251.495 34.3955C251.833 34.4861 252.233 34.2627 252.547 34.3711C252.873 34.4859 253.297 34.3594 253.593 34.498C253.889 34.637 254.192 34.855 254.476 35.0303C254.76 35.2056 254.712 35.8589 254.972 36.0644C255.232 36.2696 256.217 35.7018 256.453 35.9375C256.688 36.1736 256.411 36.9165 256.616 37.1885C256.822 37.4605 256.858 37.8112 257.027 38.1074C257.197 38.4036 258.037 38.3739 258.17 38.6943C258.303 39.0146 258.109 39.4616 258.212 39.7939C258.315 40.1264 258.067 40.5197 258.134 40.8643C258.2 41.2088 258.914 41.4326 258.956 41.7832C258.992 42.1097 258.707 42.497 258.726 42.8477C258.744 43.1982 258.606 43.5245 258.605 43.875C258.605 44.2256 258.92 44.5704 258.896 44.915C258.871 45.2596 258.659 45.5802 258.623 45.9248C258.587 46.2693 258.708 46.6262 258.659 46.9707C258.61 47.3151 257.668 47.4848 257.602 47.8232C257.536 48.1618 258.26 48.6391 258.188 48.9775C258.115 49.3159 257.868 49.6001 257.783 49.9385C257.699 50.2769 257.113 50.4586 257.021 50.7969L257.052 50.834C256.913 51.3597 257.849 51.6138 257.71 52.1396C257.571 52.6651 257.166 52.5567 257.027 53.082C256.888 53.6079 256.852 53.6024 256.713 54.1279C256.574 54.6539 256.966 54.7631 256.827 55.2891C256.688 55.8149 255.818 55.5854 255.679 56.1113C255.54 56.6372 255.969 56.7522 255.824 57.2842C255.679 57.8162 255.522 57.7678 255.383 58.2998C255.244 58.8317 254.893 58.7351 254.748 59.2666C254.657 59.605 254.742 59.9801 254.646 60.3125C254.549 60.645 254.367 60.9539 254.265 61.2803C254.162 61.6067 254.397 62.0603 254.282 62.3867C254.167 62.713 253.931 63.003 253.811 63.3232C253.69 63.6435 253.291 63.8616 253.158 64.1758C253.025 64.4901 253.164 64.9376 253.019 65.2519C252.874 65.5662 253.001 66.0257 252.844 66.334C252.687 66.6423 252.299 66.8424 252.13 67.1387C251.961 67.4346 251.544 67.5978 251.356 67.8877C251.169 68.1779 251.683 68.9463 251.483 69.2305C251.284 69.5144 250.867 69.6713 250.661 69.9492C250.456 70.2271 250.111 70.4149 249.888 70.6807C249.664 70.9465 249.434 71.2249 249.192 71.4726C248.951 71.7205 248.225 71.473 247.971 71.7148C247.717 71.9567 247.82 72.5734 247.554 72.791C247.288 73.0085 246.78 72.912 246.496 73.1172C246.212 73.3227 245.891 73.4141 245.595 73.6016C245.299 73.7888 245.021 73.9334 244.719 74.1025C244.416 74.2718 244.573 75.3303 244.259 75.4814C243.945 75.6325 243.582 75.7411 243.262 75.874C242.941 76.007 242.579 76.0922 242.246 76.207C241.914 76.3219 241.369 75.7296 241.03 75.8203C240.692 75.9108 240.335 75.8143 239.997 75.8867C239.659 75.9593 239.344 76.0313 238.999 76.0918C238.655 76.1526 238.467 77.2163 238.116 77.2646C237.766 77.3129 237.391 77.1741 237.04 77.1982C236.69 77.222 236.315 76.684 235.958 76.7021C235.602 76.7205 235.275 77.2281 234.919 77.2285C234.562 77.2285 234.242 76.6248 233.909 76.6123C233.577 76.6002 233.256 76.3039 232.924 76.2734C232.573 76.2432 232.144 77.1306 231.812 77.083C231.467 77.0346 231.17 76.6486 230.844 76.582C230.499 76.5155 230.13 76.5751 229.81 76.4844C229.471 76.394 229.024 76.5992 228.716 76.4844C228.389 76.3694 228.335 75.5777 228.032 75.4326C227.73 75.2879 227.283 75.4023 226.993 75.2334C226.703 75.0641 226.17 75.1665 225.904 74.9609C225.639 74.7552 225.602 74.2242 225.36 73.9824C225.119 73.7406 224.629 73.6733 224.424 73.4014C224.218 73.1293 224.26 72.6576 224.091 72.3613C223.922 72.0652 223.794 71.7451 223.655 71.4248C223.516 71.1044 223.075 70.8862 222.973 70.5537C222.871 70.2212 223.71 69.6833 223.638 69.3389C223.565 68.9944 222.634 68.8191 222.598 68.4746C222.561 68.1482 223.178 67.7491 223.16 67.3984C223.142 67.0478 223.408 66.745 223.408 66.4004C223.408 66.056 223.057 65.7352 223.075 65.3848C223.093 65.0344 222.52 64.6539 222.562 64.3096C222.604 63.965 222.864 63.6561 222.912 63.3115C222.961 62.9671 223.299 62.689 223.359 62.3506C223.42 62.012 223.626 61.7214 223.698 61.3828C223.77 61.0443 223.124 60.5543 223.202 60.2158C223.281 59.8775 223.354 59.5453 223.444 59.207C223.583 58.6811 223.964 58.783 224.103 58.251C224.242 57.7194 224.66 57.8343 224.805 57.3086C224.95 56.7826 224.158 56.5709 224.297 56.0449C224.436 55.5191 224.792 55.6096 224.938 55.084C225.083 54.558 225.572 54.6902 225.711 54.1582C225.85 53.6265 225.771 53.6079 225.91 53.082C226.049 52.5563 225.342 52.3628 225.487 51.8369C225.632 51.3111 225.869 51.3716 226.014 50.8457C226.104 50.5072 226.237 50.1743 226.334 49.8418C226.431 49.5094 226.467 49.1408 226.569 48.8144C226.672 48.488 227.222 48.2942 227.337 47.9678C227.452 47.6413 226.975 47.0792 227.096 46.7588C227.217 46.4386 227.995 46.3598 228.129 46.0459C228.262 45.7315 228.171 45.3017 228.316 44.9873C228.462 44.6729 229.024 44.5583 229.182 44.25C229.339 43.9417 229.441 43.6089 229.61 43.3066C229.78 43.0043 229.194 42.2366 229.375 41.9404C229.557 41.6446 230.456 41.8013 230.656 41.5176C230.856 41.2335 230.935 40.8648 231.146 40.5928C231.358 40.3207 231.685 40.139 231.908 39.873C232.132 39.6071 232.355 39.3525 232.591 39.0986C232.826 38.8448 233.008 38.5433 233.256 38.3076C233.504 38.072 233.57 37.6125 233.836 37.3887C234.102 37.165 234.344 36.8921 234.628 36.6865C234.912 36.481 235.487 36.7108 235.783 36.5234C236.079 36.336 236.267 36.0092 236.575 35.834C236.806 35.7026 237.051 35.6295 237.292 35.5371L237.649 35.3848C237.932 35.2781 238.236 35.2492 238.521 35.1328C238.848 34.9998 239.229 35.109 239.556 34.9941C239.882 34.8789 239.936 33.8936 240.269 33.8027C240.601 33.7121 240.952 33.5854 241.29 33.5068C241.629 33.4282 242.01 33.4891 242.355 33.4287C242.699 33.3683 243.074 33.5249 243.425 33.4766C243.775 33.4285 244.162 34.033 244.513 34.0029C244.863 33.9727 245.16 33.4164 245.511 33.4043C245.861 33.392 246.2 33.1504 246.557 33.1504C246.913 33.1502 247.263 32.866 247.596 32.8779ZM250.649 42.1768C250.329 41.7658 250.093 42.1765 249.562 42.1768C249.03 42.1768 249.029 42.207 248.497 42.207H247.433C246.901 42.207 246.901 42.2363 246.369 42.2363C245.837 42.2363 245.837 42.207 245.305 42.207C244.773 42.207 244.773 42.1943 244.241 42.1943C243.709 42.1943 243.709 42.1582 243.177 42.1582C242.645 42.1582 242.645 42.2002 242.113 42.2002C241.581 42.2002 241.581 42.1338 241.049 42.1338C240.517 42.1338 240.517 42.2246 239.979 42.2246C239.441 42.2246 239.447 42.1582 238.909 42.1582C238.371 42.1582 238.292 41.9046 237.863 42.2187C237.434 42.5331 237.735 42.69 237.603 43.1855C237.47 43.6812 237.392 43.6636 237.259 44.1592C237.126 44.6549 237.144 44.6613 237.011 45.1631C236.878 45.6647 236.938 45.677 236.805 46.1787C236.672 46.6801 236.678 46.6803 236.545 47.1758C236.412 47.6715 236.369 47.6595 236.236 48.1611C236.103 48.6629 236.152 48.6691 236.019 49.1709C235.886 49.6726 235.831 49.6546 235.698 50.1562C235.565 50.658 235.584 50.6584 235.451 51.1602C235.318 51.6618 235.342 51.6618 235.209 52.1631C235.076 52.6649 235.033 52.6537 234.9 53.1494C234.768 53.6447 234.749 53.645 234.616 54.1406C234.483 54.6361 234.471 54.6362 234.332 55.1318C234.193 55.6276 234.224 55.64 234.091 56.1357C233.958 56.6312 233.976 56.6374 233.837 57.1387C233.698 57.6404 233.686 57.6351 233.553 58.1309C233.42 58.6263 233.455 58.6383 233.322 59.1338C233.189 59.6295 233.201 59.6361 233.068 60.1318C232.935 60.6273 232.881 60.6155 232.748 61.1172C232.615 61.6188 232.64 61.6194 232.507 62.1211C232.374 62.6225 232.35 62.6167 232.217 63.1123C232.084 63.6078 232.102 63.62 231.969 64.1152C231.836 64.611 231.781 64.5998 231.648 65.1016C231.516 65.6029 231.515 65.6029 231.382 66.1045C231.249 66.6063 231.376 66.6431 231.128 67.1025C230.862 67.598 230.566 67.7191 230.887 68.124L230.88 68.1357C231.212 68.5529 231.412 68.1543 231.944 68.1543C232.476 68.1543 232.477 68.1113 233.009 68.1113C233.54 68.1113 233.54 68.1484 234.072 68.1484C234.604 68.1484 234.605 68.1601 235.137 68.1601H236.2C236.732 68.1601 236.733 68.1182 237.265 68.1182C237.796 68.1182 237.796 68.1904 238.328 68.1904C238.86 68.1904 238.861 68.1543 239.393 68.1543C239.924 68.1543 239.924 68.0938 240.456 68.0937C240.988 68.0937 240.988 68.1416 241.526 68.1416C242.064 68.1416 242.059 68.124 242.597 68.124C243.135 68.1241 243.231 68.4559 243.66 68.1357C244.089 67.8153 243.83 67.652 243.963 67.1562C244.096 66.6608 244.102 66.6607 244.235 66.165C244.368 65.6695 244.344 65.6568 244.477 65.1611C244.609 64.6658 244.598 64.6597 244.73 64.1582C244.863 63.6566 244.882 63.6623 245.015 63.167C245.148 62.6713 245.141 62.6647 245.274 62.1689C245.407 61.6732 245.378 61.6608 245.511 61.165C245.644 60.6697 245.692 60.6813 245.825 60.1797C245.958 59.6783 245.885 59.6597 246.024 59.1641C246.163 58.6686 246.176 58.6685 246.309 58.1729C246.442 57.6772 246.478 57.6832 246.611 57.1875C246.744 56.6919 246.774 56.6978 246.907 56.1963C247.04 55.6945 247.01 55.6881 247.143 55.1924C247.276 54.6968 247.282 54.6967 247.415 54.1953C247.548 53.6935 247.554 53.699 247.687 53.1973C247.82 52.6956 247.838 52.7016 247.971 52.2061C248.104 51.7103 248.074 51.6979 248.213 51.2021C248.352 50.7066 248.304 50.6941 248.437 50.1924C248.569 49.6909 248.612 49.7028 248.745 49.2012C248.878 48.6995 248.866 48.699 248.999 48.1973C249.132 47.696 249.114 47.6959 249.247 47.1943C249.38 46.6927 249.422 46.7044 249.555 46.2031C249.688 45.7014 249.64 45.6888 249.772 45.1934C249.905 44.6976 249.942 44.7029 250.075 44.2012C250.208 43.6999 250.238 43.7057 250.371 43.2041C250.504 42.7025 250.969 42.5876 250.649 42.1768Z" fill="#FFFCD7"/>
<path fill-rule="evenodd" clip-rule="evenodd" d="M67.6318 33.7432C68.1637 33.7433 68.1577 34.4373 68.6895 34.4375C69.04 34.4375 69.3727 34.607 69.7051 34.6191C70.0557 34.6312 70.4488 33.8882 70.7813 33.9121C71.1319 33.9423 71.4527 34.3112 71.7852 34.3535C72.1357 34.402 72.4198 34.782 72.7461 34.8486C73.0907 34.9151 73.5927 34.341 73.9131 34.4316C74.2517 34.5223 74.5118 34.934 74.8262 35.0488C75.1585 35.1698 75.4303 35.436 75.7324 35.581C76.0466 35.7321 76.5303 35.623 76.8145 35.7978C77.0986 35.9732 77.3106 36.3546 77.5645 36.5723C77.8183 36.7898 78.2236 36.9405 78.4473 37.1943C78.6709 37.4482 78.1632 38.2585 78.3565 38.5488C78.5499 38.839 79.3967 38.718 79.5479 39.0264C79.699 39.3347 79.6685 39.7339 79.7774 40.0664C79.8861 40.3989 79.6568 40.7921 79.7354 41.1367C79.8082 41.463 80.3276 41.711 80.376 42.0615C80.4242 42.394 79.9163 42.7812 79.9404 43.1318C79.9652 43.4641 80.811 43.7844 80.8115 44.1348C80.8115 44.4673 80.1519 44.8066 80.1338 45.1572C80.1162 45.4896 80.6173 45.8763 80.5811 46.2207C80.5448 46.5653 80.5628 46.9161 80.5205 47.2607C80.4781 47.6051 80.0556 47.8831 80.001 48.2275C79.9466 48.5721 80.1339 48.9474 80.0674 49.292C80.0008 49.6365 79.5171 49.8724 79.4385 50.2109C79.36 50.5493 79.4263 50.9058 79.3418 51.2441C79.2572 51.5827 78.707 51.7826 78.6162 52.1211L78.5986 52.1396C78.472 52.6231 79.4141 52.8768 79.2813 53.3603C79.1483 53.8439 78.7491 53.7413 78.6221 54.2246C78.4951 54.7083 78.459 54.7029 78.332 55.1865C78.2053 55.6699 78.5986 55.7791 78.4717 56.2627C78.3446 56.7461 77.4737 56.5164 77.3467 57.0059C77.2197 57.4955 77.6496 57.605 77.5166 58.0947C77.4259 58.4331 77.1719 58.7293 77.0752 59.0557C76.9784 59.3821 76.5305 59.6177 76.4277 59.9502C76.325 60.2827 76.392 60.6697 76.2832 60.9961C76.1744 61.3225 75.9803 61.6247 75.8594 61.9512C75.7385 62.2776 75.9628 62.7372 75.836 63.0576C75.709 63.378 75.4604 63.6622 75.3213 63.9766C75.1822 64.2908 74.778 64.4905 74.6328 64.8047C74.4877 65.119 74.6085 65.5667 74.4453 65.875C74.2821 66.1833 74.3911 66.6489 74.2158 66.9512C74.0405 67.2534 73.6414 67.4286 73.46 67.7187C73.2786 68.0089 72.849 68.1417 72.6494 68.4258C72.4499 68.7099 72.9097 69.5023 72.6983 69.7744C72.4867 70.0465 72.051 70.1795 71.8213 70.4394C71.5916 70.6993 71.235 70.8686 70.9932 71.1103C70.7514 71.3521 70.4972 71.6179 70.2373 71.8476C69.9774 72.0773 69.2763 71.7632 68.9981 71.9805C68.7201 72.198 68.7684 72.8149 68.4785 73.0146C68.1883 73.2141 67.6978 73.0571 67.3955 73.2324C67.0934 73.4075 66.7613 73.4621 66.4531 73.6191C66.1449 73.7763 65.8486 73.8915 65.5283 74.0244C65.2079 74.1574 65.2495 75.2277 64.917 75.3486C64.5846 75.4695 64.2154 75.5293 63.877 75.626C63.5385 75.7226 63.1756 75.7712 62.8311 75.8437C62.4866 75.9157 62.0095 75.276 61.6651 75.3359C61.3205 75.3964 60.9756 75.2575 60.625 75.2998C60.2744 75.3421 59.96 75.385 59.6094 75.4092C59.2588 75.4333 58.9746 76.4846 58.624 76.4971C58.2734 76.5092 57.9104 76.3457 57.5537 76.3457C57.0278 76.3457 57.0278 75.7833 56.502 75.7832C55.9761 75.7832 55.9759 76.285 55.4502 76.2851C54.9244 76.2851 54.9239 75.6869 54.3985 75.6865C53.8725 75.6865 53.8717 75.4092 53.3457 75.4092C52.8201 75.4096 52.8198 76.334 52.294 76.334C51.7682 76.3339 51.7681 75.9951 51.2422 75.9951C50.7163 75.9951 50.7162 76.1338 50.1904 76.1338C49.6645 76.1338 49.6643 76.4667 49.1445 76.4668C48.6247 76.4668 48.6184 75.7532 48.0928 75.7529C47.5668 75.7529 47.566 76.0615 47.0401 76.0615C46.5146 76.0618 46.5141 76.4551 45.9883 76.4551C45.4626 76.4549 45.4624 76.0801 44.9365 76.0801C44.4107 76.0801 44.4107 76.4121 43.8848 76.4121C43.3589 76.4121 43.3588 76.1163 42.833 76.1162C42.3071 76.1162 42.3064 76.0918 41.7744 76.0918C41.2426 76.0921 40.6926 76.6842 40.3662 76.2734C40.0399 75.8625 41.3204 75.6204 41.4541 75.125C41.5871 74.6293 40.7225 74.399 40.8555 73.9033C40.9885 73.4076 41.6111 73.5768 41.7442 73.081C41.8772 72.5853 42.1317 72.652 42.2647 72.1562C42.3976 71.6606 42.0411 71.5638 42.1738 71.0684C42.3068 70.5726 41.7205 70.4147 41.8535 69.9189C41.9865 69.4236 42.1981 69.4839 42.3311 68.9883C42.4641 68.4926 42.7362 68.565 42.8692 68.0693C43.0021 67.5737 43.1414 67.6099 43.2744 67.1143C43.4074 66.6187 42.6879 66.4251 42.8203 65.9297C42.9533 65.4339 42.9354 65.4274 43.0684 64.9316C43.2014 64.436 43.5828 64.5387 43.7158 64.043C43.8489 63.5475 44.2655 63.6558 44.3985 63.1602C44.5311 62.6646 43.7401 62.4527 43.8731 61.957C44.0062 61.4618 44.3624 61.5581 44.4893 61.0625C44.6163 60.5669 45.1121 60.6998 45.2451 60.2041C45.3781 59.7085 45.2938 59.69 45.4268 59.1943C45.5594 58.6988 44.8524 58.5113 44.9854 58.0156C45.1184 57.52 45.3602 57.5865 45.4932 57.0908C45.6262 56.5951 45.6561 56.601 45.7891 56.1055C45.9221 55.6098 45.8495 55.5913 45.9824 55.0957C46.1154 54.6 46.5567 54.7203 46.6836 54.2246C46.8101 53.7292 46.1944 53.5659 46.3213 53.0703C46.4483 52.5747 47.119 52.7496 47.252 52.2539C47.3848 51.7584 47.1375 51.6919 47.2705 51.1963C47.4035 50.7006 47.8387 50.8151 47.9717 50.3193C48.1046 49.8239 48.0379 49.8052 48.1709 49.3096C48.3033 48.8142 47.4338 48.5784 47.5664 48.083C47.6994 47.5873 48.5096 47.8043 48.6426 47.3086C48.7754 46.8132 48.6307 46.7769 48.7637 46.2812C48.8967 45.7855 49.036 45.8219 49.169 45.3262C49.302 44.8304 49.2957 44.8299 49.4287 44.3281C49.5616 43.8267 49.4706 43.8081 49.6035 43.3125C49.7364 42.8171 49.4466 42.7385 49.5733 42.2432C49.7002 41.7475 49.6405 41.729 49.7735 41.2334C49.9064 40.7377 50.4079 40.8704 50.541 40.375C50.674 39.8793 50.4989 39.8307 50.6319 39.335C50.7649 38.8392 50.8494 38.8571 50.9824 38.3613C51.1154 37.8659 51.2362 37.896 51.3692 37.4004C51.5022 36.9046 51.7322 36.9647 51.8652 36.4629C51.9977 35.9614 51.1034 35.7251 51.2363 35.2295C51.3691 34.7339 51.2004 34.317 51.6113 34.0088C52.0222 33.7008 52.3787 34.0564 52.9043 34.0566C53.4303 34.0566 53.4311 34.2627 53.957 34.2627C54.4826 34.263 54.483 34.8975 55.0088 34.8975C55.5346 34.8973 55.5347 34.3535 56.0606 34.3535C56.5864 34.3535 56.5865 34.1241 57.1123 34.124C57.6382 34.124 57.6384 33.8331 58.1641 33.833C58.6899 33.833 58.6903 34.5523 59.2158 34.5527C59.7416 34.5527 59.7423 34.6679 60.2617 34.668C60.7817 34.668 60.7885 34.7158 61.3145 34.7158C61.8401 34.7159 61.8404 34.8008 62.3662 34.8008C62.892 34.8007 62.8921 34.4678 63.418 34.4678C63.9439 34.4678 63.9439 34.1905 64.4697 34.1904C64.9956 34.1904 64.9959 34.2441 65.5215 34.2441C66.0475 34.2441 66.0483 34.8193 66.5742 34.8193C67.0997 34.8187 67.1 33.7432 67.6318 33.7432ZM72.2324 43.1553C71.9121 42.7446 71.7062 43.1855 71.1924 43.1855C70.679 43.1855 70.6727 43.168 70.1533 43.168C69.6335 43.168 69.633 43.2099 69.1133 43.21C68.5934 43.21 68.5931 43.1982 68.0733 43.1982C67.5533 43.1982 67.5529 43.1318 67.0391 43.1318C66.5257 43.1318 66.5194 43.1435 66 43.1435C65.4802 43.1435 65.4797 43.1621 64.96 43.1621C64.4401 43.1621 64.4398 43.1494 63.9199 43.1494C63.4 43.1494 63.3998 43.168 62.8799 43.168C62.3602 43.168 62.3597 43.1855 61.8399 43.1855C61.3205 43.1856 61.3202 43.2099 60.8008 43.21C60.2809 43.21 60.2805 43.1192 59.7608 43.1191C59.2409 43.1191 59.1622 42.8898 58.7451 43.2041C58.3281 43.5184 58.5937 43.6694 58.461 44.1709C58.3279 44.6727 58.2971 44.6673 58.1641 45.1631C58.0312 45.6583 58.0372 45.6646 57.9043 46.166C57.7713 46.6677 57.8021 46.6742 57.6631 47.1758C57.5241 47.6776 57.5422 47.6779 57.4092 48.1797C57.2762 48.6813 57.2579 48.6753 57.125 49.1768C56.992 49.6785 56.9797 49.673 56.8467 50.1748C56.7137 50.6764 56.7072 50.6702 56.5742 51.1719C56.4413 51.6735 56.4114 51.6617 56.2725 52.1631C56.1335 52.6647 56.1817 52.6774 56.0488 53.1787C55.9159 53.6804 55.9279 53.681 55.7949 54.1826C55.6619 54.6844 55.6439 54.6789 55.5049 55.1807C55.3659 55.6821 55.3595 55.6761 55.2266 56.1777C55.0936 56.6794 55.0509 56.6674 54.918 57.1689C54.785 57.6707 54.7795 57.6652 54.6465 58.167C54.5135 58.6686 54.507 58.6686 54.374 59.1641C54.241 59.6597 54.2777 59.6782 54.1387 60.1738C53.9996 60.6696 54.0354 60.6818 53.9024 61.1836C53.7694 61.6852 53.757 61.6852 53.624 62.1807C53.491 62.6764 53.4494 62.6711 53.3164 63.1729C53.1835 63.6743 53.213 63.6803 53.0801 64.1816C52.9471 64.6834 52.9047 64.672 52.7656 65.1738C52.6267 65.6753 52.7351 65.7115 52.4873 66.1709C52.2213 66.6666 51.9316 66.7696 52.252 67.1807L52.2578 67.1748C52.5722 67.5859 52.7721 67.1748 53.292 67.1748C53.8117 67.1748 53.8122 67.1621 54.332 67.1621C54.8516 67.1621 54.8521 67.1992 55.3779 67.1992C55.9034 67.1992 55.8976 67.1865 56.417 67.1865C56.9369 67.1865 56.9373 67.1924 57.457 67.1924C57.9769 67.1924 57.9771 67.1807 58.5029 67.1807C59.0289 67.1807 59.0231 67.1562 59.543 67.1562C60.0628 67.1562 60.0631 67.1924 60.583 67.1924C61.1027 67.1924 61.103 67.1445 61.6289 67.1445C62.1546 67.1445 62.1491 67.1689 62.669 67.1689C63.1882 67.169 63.1886 67.2109 63.7139 67.2109H64.7598C65.2797 67.2109 65.3651 67.4589 65.7822 67.1445C66.1992 66.8302 65.9149 66.6726 66.0479 66.1709C66.1808 65.6693 66.2049 65.6752 66.3379 65.1797C66.4709 64.6841 66.495 64.6838 66.6279 64.1885C66.7609 63.6928 66.7128 63.6743 66.8457 63.1787C66.9787 62.6831 67.0029 62.6827 67.1358 62.1875C67.2688 61.6918 67.2811 61.6912 67.4141 61.1895C67.547 60.6878 67.5477 60.6879 67.6807 60.1924C67.7805 59.8204 67.7915 59.7204 67.8496 59.4844L68.0059 58.8926C68.0626 58.6566 68.0715 58.5566 68.1758 58.1846C68.3148 57.6891 68.3758 57.7009 68.5088 57.1992C68.6417 56.6978 68.5809 56.6853 68.7139 56.1836C68.8469 55.682 68.9198 55.7 69.0527 55.1982C69.1857 54.6966 69.1317 54.6843 69.2647 54.1826C69.3976 53.6811 69.4637 53.699 69.5967 53.1973C69.7297 52.6955 69.6756 52.6834 69.8086 52.1816C69.9416 51.6799 69.9108 51.6736 70.0498 51.1719C70.1888 50.6702 70.2011 50.6763 70.334 50.1748C70.467 49.673 70.4616 49.6727 70.6006 49.1709C70.7396 48.6693 70.7636 48.6752 70.8965 48.1797C71.0295 47.6839 71.0477 47.6834 71.1807 47.1816C71.3136 46.6802 71.3202 46.6802 71.4531 46.1787C71.5861 45.677 71.5614 45.6706 71.6943 45.1689C71.8273 44.6672 71.8153 44.6609 71.9483 44.1592C72.0813 43.6574 72.5529 43.5664 72.2324 43.1553Z" fill="#FFFCD7"/>
<path fill-rule="evenodd" clip-rule="evenodd" d="M141.098 33.7432C141.629 33.7434 141.623 34.4374 142.155 34.4375C142.506 34.4375 142.838 34.607 143.171 34.6191C143.522 34.6312 143.915 33.888 144.247 33.9121C144.598 33.9423 144.918 34.3112 145.251 34.3535C145.601 34.4021 145.886 34.7821 146.212 34.8486C146.557 34.9151 147.059 34.341 147.379 34.4316C147.717 34.5224 147.978 34.934 148.292 35.0488C148.624 35.1698 148.896 35.436 149.198 35.581C149.512 35.7321 149.996 35.6229 150.28 35.7978C150.564 35.9732 150.776 36.3546 151.03 36.5723C151.284 36.7898 151.689 36.9405 151.913 37.1943C152.137 37.4482 151.629 38.2586 151.822 38.5488C152.016 38.839 152.863 38.718 153.014 39.0264C153.165 39.3347 153.134 39.7339 153.243 40.0664C153.352 40.3989 153.122 40.7922 153.2 41.1367C153.273 41.4631 153.793 41.7109 153.842 42.0615C153.89 42.394 153.382 42.7812 153.406 43.1318C153.431 43.4641 154.276 43.7844 154.276 44.1348C154.276 44.4673 153.618 44.8066 153.6 45.1572C153.582 45.4896 154.083 45.8763 154.047 46.2207C154.011 46.5653 154.029 46.9161 153.986 47.2607C153.944 47.6051 153.521 47.8832 153.467 48.2275C153.412 48.5721 153.6 48.9474 153.527 49.292C153.455 49.6366 152.977 49.8724 152.898 50.2109C152.82 50.5493 152.886 50.9058 152.802 51.2441C152.717 51.5826 152.167 51.7826 152.076 52.1211L152.064 52.1396C151.938 52.6232 152.88 52.8768 152.747 53.3603C152.614 53.8439 152.215 53.7414 152.088 54.2246C151.961 54.7083 151.925 54.7029 151.798 55.1865C151.671 55.67 152.064 55.7791 151.938 56.2627C151.81 56.7461 150.94 56.5224 150.813 57.0059C150.686 57.4895 151.114 57.605 150.981 58.0947C150.891 58.4331 150.638 58.7294 150.541 59.0557C150.444 59.3821 149.996 59.6177 149.894 59.9502C149.791 60.2827 149.858 60.6697 149.749 60.9961C149.64 61.3225 149.446 61.6247 149.325 61.9512C149.204 62.2776 149.428 62.7372 149.301 63.0576C149.174 63.378 148.926 63.6622 148.787 63.9766C148.648 64.2908 148.244 64.4905 148.099 64.8047C147.954 65.119 148.074 65.5667 147.911 65.875C147.748 66.1833 147.856 66.6489 147.681 66.9512C147.505 67.2532 147.107 67.4288 146.926 67.7187C146.744 68.0088 146.315 68.1418 146.115 68.4258C145.916 68.7099 146.375 69.5024 146.163 69.7744C145.951 70.0462 145.517 70.1796 145.287 70.4394C145.057 70.6993 144.701 70.8686 144.459 71.1103C144.217 71.3521 143.963 71.618 143.703 71.8476C143.443 72.0773 142.742 71.7633 142.464 71.9805C142.186 72.1981 142.234 72.8151 141.943 73.0146C141.653 73.2139 141.164 73.0571 140.861 73.2324C140.559 73.4075 140.227 73.4621 139.919 73.6191C139.611 73.7763 139.314 73.8914 138.993 74.0244C138.673 74.158 138.715 75.2278 138.383 75.3486C138.05 75.4695 137.681 75.5293 137.343 75.626C137.004 75.7227 136.641 75.7712 136.297 75.8437C135.952 75.9159 135.475 75.2762 135.131 75.3359C134.786 75.3964 134.441 75.2576 134.091 75.2998C133.74 75.3421 133.426 75.385 133.075 75.4092C132.725 75.4333 132.44 76.4843 132.09 76.4971C131.739 76.5092 131.376 76.3457 131.02 76.3457C130.494 76.3457 130.493 75.7834 129.968 75.7832C129.442 75.7832 129.442 76.2849 128.916 76.2851C128.39 76.2851 128.389 75.6865 127.863 75.6865C127.338 75.6864 127.337 75.4092 126.812 75.4092C126.286 75.4094 126.286 76.334 125.76 76.334C125.234 76.334 125.234 75.9952 124.708 75.9951C124.182 75.9951 124.182 76.1337 123.656 76.1338C123.13 76.1338 123.13 76.4667 122.61 76.4668C122.091 76.4668 122.084 75.7533 121.559 75.7529C121.033 75.7529 121.032 76.0615 120.506 76.0615C119.98 76.0617 119.98 76.4551 119.454 76.4551C118.928 76.455 118.928 76.0801 118.402 76.0801C117.876 76.0801 117.876 76.412 117.351 76.4121C116.825 76.4121 116.824 76.1163 116.299 76.1162C115.773 76.1162 115.772 76.0918 115.24 76.0918C114.708 76.092 114.158 76.6841 113.832 76.2734C113.506 75.8625 114.786 75.6204 114.92 75.125C115.053 74.6293 114.188 74.399 114.321 73.9033C114.454 73.4076 115.077 73.5768 115.21 73.081C115.343 72.5853 115.597 72.652 115.73 72.1562C115.863 71.6607 115.507 71.5638 115.64 71.0684C115.773 70.5726 115.186 70.4147 115.319 69.9189C115.452 69.4237 115.664 69.4839 115.797 68.9883C115.93 68.4927 116.202 68.565 116.335 68.0693C116.468 67.5738 116.607 67.6099 116.74 67.1143C116.873 66.6187 116.154 66.4251 116.286 65.9297C116.419 65.4339 116.401 65.4274 116.534 64.9316C116.667 64.436 117.049 64.5387 117.182 64.043C117.315 63.5475 117.731 63.6558 117.864 63.1602C117.997 62.6646 117.205 62.4527 117.338 61.957C117.471 61.4616 117.828 61.5582 117.955 61.0625C118.082 60.567 118.578 60.6998 118.711 60.2041C118.844 59.7085 118.759 59.69 118.892 59.1943C119.025 58.6987 118.318 58.5113 118.451 58.0156C118.584 57.5201 118.826 57.5865 118.959 57.0908C119.092 56.5951 119.122 56.601 119.255 56.1055C119.388 55.6098 119.315 55.5914 119.448 55.0957C119.581 54.6 120.022 54.7203 120.149 54.2246C120.276 53.7292 119.66 53.5659 119.787 53.0703C119.914 52.5747 120.585 52.7496 120.718 52.2539C120.851 51.7584 120.603 51.6919 120.736 51.1963C120.869 50.7006 121.305 50.815 121.438 50.3193C121.57 49.824 121.504 49.8052 121.637 49.3096C121.769 48.8142 120.9 48.5785 121.032 48.083C121.165 47.5873 121.975 47.8043 122.108 47.3086C122.241 46.8132 122.097 46.7768 122.23 46.2812C122.362 45.7856 122.501 45.8216 122.634 45.3262C122.767 44.8304 122.762 44.8299 122.895 44.3281C123.027 43.8268 122.936 43.8081 123.069 43.3125C123.202 42.8171 122.912 42.7385 123.039 42.2432C123.166 41.7475 123.106 41.729 123.239 41.2334C123.372 40.7377 123.874 40.8705 124.007 40.375C124.14 39.8793 123.965 39.8307 124.098 39.335C124.231 38.8392 124.315 38.8571 124.448 38.3613C124.581 37.8659 124.702 37.896 124.835 37.4004C124.968 36.9046 125.197 36.9647 125.33 36.4629C125.463 35.9612 124.569 35.7252 124.702 35.2295C124.835 34.7341 124.666 34.317 125.076 34.0088C125.487 33.7005 125.844 34.0565 126.37 34.0566C126.896 34.0566 126.896 34.2626 127.422 34.2627C127.948 34.2627 127.949 34.8975 128.475 34.8975C129 34.8972 129.001 34.3535 129.526 34.3535C130.052 34.3535 130.052 34.124 130.578 34.124C131.104 34.124 131.104 33.8331 131.63 33.833C132.156 33.833 132.156 34.5524 132.682 34.5527C133.208 34.5527 133.208 34.6679 133.728 34.668C134.247 34.668 134.254 34.7158 134.779 34.7158C135.305 34.7158 135.306 34.8008 135.832 34.8008C136.358 34.8006 136.358 34.4678 136.884 34.4678C137.41 34.4677 137.41 34.1904 137.936 34.1904C138.461 34.1904 138.462 34.2441 138.987 34.2441C139.513 34.2441 139.513 34.8191 140.039 34.8193C140.565 34.8193 140.566 33.7432 141.098 33.7432ZM145.692 43.1377C145.372 42.7266 145.184 43.1494 144.664 43.1494H143.625C143.105 43.1494 143.105 43.126 142.585 43.126C142.065 43.126 142.065 43.1016 141.545 43.1016H140.512C139.998 43.1016 139.991 43.1074 139.472 43.1074C138.952 43.1074 138.951 43.1377 138.432 43.1377C137.912 43.1377 137.912 43.1494 137.392 43.1494C136.872 43.1494 136.871 43.1191 136.352 43.1191C135.832 43.1191 135.832 43.126 135.313 43.126C134.793 43.126 134.792 43.1318 134.272 43.1318C133.753 43.1318 133.752 43.083 133.232 43.083C132.713 43.083 132.592 42.7932 132.181 43.1074C131.77 43.4218 132.077 43.6272 131.944 44.1289C131.811 44.6306 131.751 44.6127 131.618 45.1143C131.485 45.6159 131.564 45.6344 131.425 46.1357C131.286 46.6375 131.231 46.6203 131.092 47.1221C130.953 47.6233 130.971 47.6235 130.838 48.125C130.705 48.6268 130.741 48.633 130.608 49.1348C130.509 49.511 130.463 49.5983 130.391 49.8301L130.223 50.4219C130.151 50.654 130.108 50.7416 130.004 51.1182C129.865 51.6195 129.938 51.638 129.805 52.1396C129.672 52.6413 129.629 52.6291 129.496 53.1309C129.363 53.6326 129.388 53.6389 129.255 54.1406C129.122 54.6423 129.079 54.6302 128.946 55.1318C128.813 55.6336 128.849 55.6398 128.71 56.1416C128.571 56.6432 128.535 56.6314 128.402 57.1328C128.269 57.6346 128.311 57.6408 128.172 58.1426C128.033 58.6442 128.021 58.6383 127.882 59.1338C127.743 59.6295 127.743 59.6359 127.604 60.1377C127.465 60.6394 127.471 60.6399 127.338 61.1416C127.205 61.643 127.156 61.6312 127.023 62.1328C126.891 62.6344 126.963 62.6527 126.824 63.1543C126.685 63.656 126.637 63.6382 126.498 64.1396C126.359 64.6414 126.395 64.6536 126.262 65.1553C126.129 65.657 126.25 65.7116 126.002 66.1709C125.724 66.6787 125.367 66.7635 125.682 67.1807L125.693 67.1992C126.008 67.6101 126.238 67.1748 126.758 67.1748C127.278 67.1748 127.278 67.1992 127.798 67.1992C128.317 67.1992 128.318 67.2226 128.844 67.2226H129.883C130.403 67.2226 130.403 67.2109 130.923 67.2109C131.443 67.2109 131.443 67.1992 131.969 67.1992C132.495 67.1992 132.489 67.1689 133.009 67.1689C133.529 67.1689 133.529 67.1445 134.049 67.1445C134.568 67.1446 134.569 67.2226 135.095 67.2226C135.62 67.2226 135.614 67.1748 136.134 67.1748C136.654 67.1748 136.654 67.1865 137.18 67.1865C137.706 67.1865 137.706 67.2109 138.226 67.2109C138.745 67.2109 138.843 67.4832 139.26 67.1631C139.677 66.8427 139.447 66.6851 139.58 66.1894C139.713 65.6938 139.665 65.6754 139.798 65.1738C139.931 64.672 139.919 64.6717 140.058 64.1699C140.197 63.6682 140.233 63.6803 140.366 63.1846C140.499 62.6889 140.475 62.6764 140.608 62.1807C140.741 61.6855 140.783 61.6911 140.916 61.1895C141.049 60.6878 140.983 60.6697 141.116 60.168C141.249 59.6663 141.273 59.6722 141.406 59.1768C141.539 58.681 141.563 58.6805 141.696 58.1787C141.829 57.6772 141.787 57.6648 141.92 57.1631C142.053 56.6615 142.119 56.6794 142.252 56.1777C142.385 55.6761 142.397 55.6821 142.53 55.1807C142.663 54.6789 142.597 54.66 142.73 54.1582C142.862 53.6568 142.863 53.6567 143.002 53.1553C143.141 52.6535 143.117 52.6531 143.25 52.1514C143.383 51.6497 143.407 51.6618 143.54 51.1602C143.673 50.6584 143.703 50.6639 143.836 50.1621C143.969 49.6607 143.97 49.6607 144.103 49.1592C144.236 48.6575 144.181 48.645 144.313 48.1435C144.446 47.6418 144.447 47.6414 144.58 47.1396C144.713 46.638 144.798 46.6619 144.931 46.1601C145.064 45.6586 145.033 45.6462 145.166 45.1445C145.299 44.6428 145.269 44.6367 145.408 44.1289C145.547 43.6213 146.013 43.5486 145.692 43.1377Z" fill="#FFFCD7"/>
</svg>
