<svg width="388" height="118" viewBox="0 0 388 118" fill="none" xmlns="http://www.w3.org/2000/svg">
<path d="M76.4358 33.7979C76.9493 33.7981 76.913 34.3059 77.1849 34.7471C77.4569 35.1884 77.8083 35.3277 77.5726 35.7871C77.3368 36.2465 76.6599 35.9082 76.43 36.3672C76.2002 36.8266 76.6472 37.057 76.4114 37.5225C76.1756 37.9876 75.6677 37.7281 75.4319 38.1875C75.1962 38.6466 75.0083 38.5563 74.7786 39.0156C74.5493 39.4747 74.8451 39.6259 74.6097 40.085C74.3739 40.5444 74.9783 40.853 74.7425 41.3125C74.5067 41.7719 73.5585 41.2888 73.3226 41.7539C73.0868 42.2194 72.8025 42.0747 72.5667 42.5342C72.331 42.9935 72.6452 43.1568 72.4095 43.6162C72.1738 44.0755 72.0045 43.9911 71.7688 44.4502C71.5331 44.9096 71.6051 44.946 71.3694 45.4053C71.1337 45.8647 71.9255 46.264 71.6897 46.7295C71.454 47.195 71.49 47.2075 71.2542 47.667C71.0185 48.1259 70.777 48.0054 70.5413 48.4707C70.3055 48.9362 70.8188 49.1959 70.5892 49.6553C70.3594 50.1147 70.3901 50.1392 70.1604 50.5986C69.9307 51.058 68.9336 50.5566 68.6976 51.0156C68.4618 51.4751 69.1267 51.814 68.8909 52.2734C68.6552 52.7327 68.6246 52.7206 68.389 53.1797C68.1532 53.6391 67.9654 53.5493 67.7356 54.0088C67.5062 54.4676 67.4702 54.456 67.2347 54.915C66.9989 55.3745 66.8347 55.2964 66.5989 55.7559C66.363 56.2145 65.7654 55.913 65.5296 56.3779C65.2938 56.8434 66.2672 57.3335 66.0315 57.793C65.7958 58.2524 65.3054 58.0104 65.0696 58.4697C64.8338 58.9292 65.5476 59.2923 65.3118 59.7578C65.0761 60.2231 65.0337 60.1991 64.7981 60.6641C64.5624 61.1295 63.613 60.6464 63.3831 61.1055C63.1534 61.5649 63.9938 61.9945 63.7581 62.46C63.5224 62.9254 63.5768 62.9498 63.3411 63.415C63.1053 63.8806 62.3679 63.5064 62.1321 63.9658C61.8966 64.4252 62.5368 64.7514 62.3011 65.2168C62.0653 65.6822 62.1861 65.7427 61.9505 66.208C61.7147 66.6735 61.1099 66.3656 60.8802 66.8311C60.6506 67.2964 60.8258 67.3872 60.5901 67.8525C60.3544 68.318 59.9558 68.1128 59.72 68.5781C59.4842 69.0436 59.4958 69.0501 59.2601 69.5156C59.1028 69.8237 58.7102 69.9689 58.553 70.2529C58.3959 70.5371 58.4139 70.9241 58.2386 71.2022C58.0635 71.4803 58.5342 72.2231 58.3411 72.4893C58.1477 72.7553 57.3437 72.5686 57.1321 72.8164C56.921 73.0644 57.3492 73.9397 57.1204 74.1699C56.8907 74.3997 56.4612 74.5031 56.2073 74.7207C55.9535 74.9383 55.784 75.3309 55.512 75.5244C55.24 75.7179 54.8227 75.7665 54.5325 75.9297C54.2423 76.0929 53.7764 75.9537 53.4681 76.0928C53.1597 76.2314 52.6644 75.7907 52.344 75.8994C52.0236 76.0082 51.9265 76.7701 51.594 76.8486C51.2616 76.9271 50.8991 76.7581 50.5667 76.8125C50.2343 76.8669 49.9803 77.7976 49.6419 77.8223C49.3033 77.8465 48.9218 77.1445 48.5833 77.1445H48.5716C48.1968 77.1445 47.8038 77.6043 47.4593 77.5742C47.0905 77.544 46.8 76.8849 46.4554 76.8184C46.0867 76.7457 45.8814 76.31 45.555 76.2012C45.2043 76.0803 44.5145 76.7759 44.2122 76.6006C43.9101 76.4253 43.5718 76.1232 43.306 75.8936C43.0399 75.6638 43.2091 75.0042 42.9915 74.708C42.7737 74.412 42.1516 74.3815 41.9944 74.043C41.8494 73.7346 42.0601 73.2572 41.9573 72.8945C41.8664 72.5623 41.0571 72.3325 41.0022 71.958C40.9539 71.6196 41.7034 71.1599 41.6858 70.7852C41.6677 70.4406 41.2023 70.077 41.2083 69.7022C41.2204 69.1888 41.2568 69.1886 41.2688 68.669C41.2809 68.149 42.3749 68.1848 42.387 67.6709C42.3985 67.1575 41.1243 67.115 41.1419 66.6016C41.16 66.0878 41.6489 66.0994 41.6673 65.5859C41.6854 65.0721 41.7888 65.0715 41.8069 64.5576C41.8251 64.044 42.1386 64.0499 42.1507 63.5361C42.1628 63.0224 42.2655 63.0222 42.2776 62.5088C42.2897 61.9949 41.5585 61.9699 41.5706 61.4561C41.5829 60.9426 41.9638 60.9544 41.9759 60.4346C41.9878 59.9148 41.3407 59.8966 41.3528 59.3828C41.3649 58.869 41.7703 58.881 41.7825 58.3613C41.7946 57.8416 42.1755 57.8533 42.1878 57.3398C42.1999 56.8261 42.6772 56.8377 42.6956 56.3242C42.7137 55.8105 42.2305 55.7918 42.2483 55.2783C42.2665 54.7646 41.8976 54.7519 41.9095 54.2324C41.9216 53.7125 41.8552 53.7121 41.8733 53.1982C41.8915 52.6844 41.6679 52.6721 41.68 52.1582C41.6923 51.6447 42.6701 51.6686 42.6888 51.1553C42.7069 50.6415 41.4805 50.5986 41.4983 50.085C41.5165 49.5711 41.8122 49.5766 41.8304 49.0566C41.8488 48.5372 42.5677 48.5611 42.5862 48.0479C42.6044 47.534 41.5947 47.4972 41.6067 46.9834C41.6188 46.4696 42.2058 46.4816 42.2239 45.9678C42.2421 45.4539 42.3445 45.4535 42.3626 44.9336C42.3805 44.414 41.9277 44.4015 41.9397 43.8877C41.9519 43.3742 42.0849 43.3741 42.097 42.8604C42.1091 42.3465 42.2597 42.3461 42.2718 41.8262C42.2838 41.3067 42.1395 41.3065 42.1575 40.7871C42.1757 40.2672 43.1246 40.297 43.1429 39.7832C43.161 39.2694 42.7802 39.2511 42.7923 38.7373C42.8044 38.2234 43.1181 38.2289 43.1302 37.709C43.1415 37.1897 41.8432 37.1531 41.8606 36.6338C41.8788 36.1139 42.3269 36.1254 42.345 35.6055C42.3632 35.0858 42.5379 35.2306 42.9065 34.8682C43.2752 34.5055 43.1245 35.237 43.638 35.2373C44.1519 35.2373 44.1526 34.7773 44.6604 34.7773C45.1679 34.7775 45.1742 35.0801 45.6819 35.0801C46.1896 35.0801 46.1957 34.9951 46.7034 34.9951C47.2111 34.9951 47.2173 34.9834 47.7308 34.9834C48.2446 34.9834 48.2454 34.4082 48.7532 34.4082C49.2607 34.4081 49.2669 34.1368 49.7806 34.1367C50.2943 34.1367 50.2945 34.0342 50.8079 34.0342C51.3218 34.0342 51.8116 33.883 52.1683 34.2578C52.5249 34.6326 51.2444 35.0675 51.2259 35.5752C51.2077 36.083 52.2167 36.1258 52.1985 36.6396C52.1803 37.1533 51.8846 37.1415 51.8665 37.6553C51.8482 38.1689 51.1709 38.1388 51.1526 38.6523C51.1345 39.1662 52.0839 39.2029 52.0657 39.7168C52.0477 40.2303 52.3015 40.2366 52.2835 40.75C52.2654 41.2638 51.2016 41.2159 51.177 41.7295C51.1529 42.2432 51.9566 42.2739 51.9329 42.7813C51.9087 43.289 51.5275 43.2774 51.5032 43.791C51.479 44.3049 51.8846 44.3173 51.8665 44.8311C51.8484 45.3449 51.4491 45.327 51.431 45.8408C51.4128 46.3546 51.2618 46.3486 51.2376 46.8565C51.2134 47.3642 51.6551 47.3887 51.637 47.8965C51.6188 48.4041 51.2803 48.3925 51.2561 48.9063C51.2319 49.4198 51.1044 49.414 51.0862 49.9277C51.0683 50.4414 51.8786 50.4717 51.8606 50.9854C51.8425 51.4992 51.1708 51.4695 51.1526 51.9834C51.1346 52.4969 51.2742 52.5031 51.2561 53.0166C51.238 53.5304 50.9718 53.5186 50.9476 54.0322C50.9234 54.5461 51.1288 54.5525 51.1106 55.0664C51.0926 55.5802 51.5458 55.5985 51.5276 56.1123C51.5092 56.626 50.204 56.5721 50.1858 57.0859C50.1678 57.5994 50.3973 57.6116 50.3792 58.1191C50.3611 58.6269 50.3126 58.6332 50.2884 59.1406C50.2642 59.6485 51.2557 59.6912 51.2376 60.2051C51.2195 60.7188 51.1163 60.7129 51.0921 61.2266C51.0679 61.7404 50.3126 61.7107 50.2884 62.2246C50.2643 62.7381 50.3848 62.7443 50.3606 63.2578C50.3365 63.7716 50.1855 63.7658 50.1673 64.2793C50.1491 64.7932 50.754 64.8182 50.7298 65.332C50.7052 65.8455 49.8467 65.8095 49.8226 66.3232C49.7986 66.837 50.784 66.8797 50.7659 67.3936C50.7473 67.9072 49.757 68.3603 50.095 68.7471C50.4093 69.1037 50.8261 68.3784 51.219 68.1123C51.6542 67.8222 51.4191 67.8285 51.6546 67.3633C51.8904 66.8978 52.1385 67.0184 52.3743 66.5469C52.6101 66.0753 52.2051 65.8757 52.4349 65.4102C52.6645 64.9448 52.713 64.9627 52.9427 64.4912C53.1725 64.02 54.079 64.4731 54.3089 64.002C54.5386 63.5304 53.958 63.2459 54.1936 62.7744C54.4294 62.3029 54.7139 62.448 54.9436 61.9766C55.1734 61.5051 55.331 61.5837 55.5667 61.1123C55.8025 60.6408 54.8349 60.1688 55.0706 59.6973C55.3063 59.2258 55.6446 59.3948 55.8743 58.9297C56.104 58.4643 56.5274 58.6694 56.7571 58.1982C56.9869 57.7267 57.4405 57.9499 57.6702 57.4844C57.8998 57.019 57.8329 56.9823 58.0686 56.5107C58.3043 56.0393 58.1542 55.9666 58.3899 55.4951C58.6254 55.0241 58.6192 55.0237 58.8548 54.5586C59.0906 54.0931 58.1416 53.621 58.3714 53.1494C58.6008 52.6783 58.5226 52.6419 58.7581 52.1709C58.9938 51.6995 60.1779 52.2908 60.4144 51.8203C60.6501 51.3488 60.6328 51.3424 60.8685 50.8711C61.1042 50.3995 61.0497 50.3747 61.2854 49.9092C61.5209 49.4438 61.0558 49.2078 61.2854 48.7363C61.5152 48.2652 61.9628 48.4888 62.1985 48.0176C62.4343 47.5461 62.5431 47.6002 62.7728 47.1289C63.0024 46.6574 62.0297 46.1736 62.2649 45.7022C62.5007 45.2306 62.912 45.4354 63.1478 44.9639C63.3832 44.4928 63.1897 44.4018 63.4251 43.9307C63.6609 43.4591 63.8124 43.537 64.0481 43.0654C64.2836 42.5942 63.9875 42.4489 64.2171 41.9775C64.4468 41.506 64.3446 41.4518 64.5804 40.9863C64.8161 40.5208 64.671 40.4421 64.9007 39.9766C65.1304 39.5112 65.8551 39.8614 66.0911 39.3965C66.3269 38.931 65.7958 38.6649 66.0315 38.1934C66.2673 37.7218 66.3458 37.7635 66.5755 37.292C66.8055 36.8211 67.7176 37.2739 67.9534 36.8027C68.1892 36.3312 67.6932 36.0829 67.929 35.6113C68.1646 35.1398 67.5003 34.4509 67.9476 34.1729C68.3949 33.8948 68.7152 35.3033 69.2229 35.3037C69.7308 35.3037 69.7374 34.3115 70.2513 34.3115C70.7648 34.3115 70.7649 34.1787 71.2786 34.1787C71.7923 34.1787 71.7925 34.1973 72.306 34.1973C72.8198 34.1973 72.8203 34.995 73.3401 34.9951C73.8599 34.9951 73.8541 35.1942 74.3675 35.1943C74.8813 35.1943 74.8818 35.3037 75.4017 35.3037C75.9216 35.3037 75.922 33.7979 76.4358 33.7979Z" fill="#FFFCD7"/>
<path fill-rule="evenodd" clip-rule="evenodd" d="M344.199 33C344.528 33 344.851 33.3399 345.164 33.3926L345.289 33.4062C345.6 33.4699 345.907 33.9021 346.219 33.9248C346.569 33.9552 346.829 34.4867 347.156 34.5293C347.5 34.5777 347.809 34.548 348.135 34.6084C348.48 34.6749 348.806 34.5844 349.126 34.6689C349.465 34.7596 349.749 34.8441 350.064 34.959C350.39 35.0737 351.11 34.2272 351.412 34.3662C351.715 34.5052 352.125 34.6206 352.409 34.7959C352.693 34.9717 352.234 36.2583 352.5 36.4639C352.766 36.6694 352.972 36.8266 353.207 37.0684C353.443 37.3101 353.655 37.4673 353.861 37.7393C354.066 38.0113 354.658 37.9695 354.827 38.2656C354.997 38.5619 354.677 39.046 354.81 39.3604C354.943 39.6745 354.912 39.9587 355.015 40.291C355.118 40.6234 356.242 40.6597 356.309 40.9981C356.375 41.3366 355.97 41.7423 356.006 42.0869C356.043 42.4133 356.279 42.7395 356.297 43.084C356.315 43.4285 356.146 43.761 356.14 44.1055C356.134 44.4501 356.448 44.7951 356.43 45.1397C356.414 45.4411 356.477 45.7472 356.464 46.0498L356.445 46.3096C356.439 46.6145 356.525 46.93 356.478 47.2315C356.423 47.5757 355.578 47.7692 355.511 48.1074C355.445 48.446 355.959 48.882 355.886 49.2266C355.813 49.5711 355.649 49.8734 355.565 50.2119C355.48 50.5503 355.16 50.8103 355.07 51.1426L355.033 51.1484C354.894 51.6744 355.347 51.8022 355.208 52.3281C355.069 52.8535 354.471 52.6969 354.332 53.2227C354.193 53.7485 353.83 53.6516 353.691 54.1836C353.552 54.7156 354.428 54.9456 354.289 55.4775C354.15 56.0093 354.09 55.9917 353.951 56.5176C353.812 57.0432 353.262 56.8981 353.116 57.4238C352.971 57.9498 353.486 58.0892 353.347 58.6211C353.208 59.1529 352.857 59.0565 352.718 59.5879C352.627 59.9264 353.243 60.4712 353.147 60.8037C353.05 61.136 352.186 61.245 352.077 61.5713C351.969 61.8977 352.295 62.3874 352.18 62.7139C352.065 63.0403 351.908 63.3729 351.781 63.6934C351.653 64.0136 350.518 63.9292 350.378 64.2432C350.239 64.5575 351.266 65.4046 351.121 65.7129C350.976 66.0209 350.372 66.1362 350.215 66.4443C350.058 66.7526 349.797 67.0122 349.628 67.3145C349.459 67.6167 349.012 67.7498 348.83 68.0459C348.649 68.3421 348.383 68.5665 348.19 68.8506C347.997 69.1349 348.389 69.8479 348.178 70.126C347.966 70.404 347.453 70.4403 347.229 70.7061C347.005 70.9721 347.247 71.6738 347.011 71.9277C346.79 72.1658 346.297 72.159 346.028 72.3516L345.926 72.4336C345.66 72.6232 345.199 72.5943 344.949 72.8037C344.683 73.0274 344.139 72.8521 343.861 73.0576C343.583 73.2632 343.589 73.8379 343.299 74.0254C343.009 74.2128 342.9 74.7085 342.598 74.8779C342.296 75.0472 342.011 75.2766 341.697 75.4277C341.382 75.5788 341.141 75.9294 340.821 76.0625C340.5 76.1955 339.835 75.3978 339.502 75.5127C339.17 75.6276 339.206 76.896 338.867 76.9932C338.529 77.0899 338.1 76.8845 337.755 76.9629C337.411 77.0415 336.939 76.3946 336.594 76.4551C336.25 76.5158 336.05 77.5622 335.705 77.6045C335.361 77.6466 334.944 77.1026 334.593 77.1328C334.242 77.163 333.898 77.0717 333.541 77.0899C333.185 77.108 332.852 77.5615 332.495 77.5615C332.139 77.5615 331.8 77.4292 331.468 77.417C331.136 77.4049 330.779 77.2353 330.452 77.2109C330.102 77.1807 329.739 77.2893 329.412 77.2471C329.068 77.1987 328.898 76.2081 328.572 76.1416C328.227 76.0752 327.846 76.3766 327.526 76.292C327.187 76.2012 326.988 75.8211 326.68 75.7061C326.354 75.5912 325.543 76.6614 325.241 76.5225C324.938 76.3834 324.793 75.7962 324.509 75.627C324.225 75.4575 324.31 74.7261 324.05 74.5205C323.79 74.315 323.741 73.9409 323.505 73.7051C323.269 73.4694 322.738 73.5474 322.533 73.2754C322.327 73.0033 322.418 72.5982 322.248 72.2959C322.079 71.9937 321.879 71.788 321.746 71.4736C321.613 71.1595 321.504 70.8938 321.408 70.5615C321.311 70.229 320.676 70.0653 320.61 69.7207C320.543 69.3762 320.223 69.08 320.181 68.7295C320.145 68.4031 320.012 68.034 319.993 67.6895C319.975 67.3449 320.054 66.9883 320.06 66.6377C320.066 66.2871 321.112 66.0147 321.13 65.6641C321.148 65.3135 320.175 64.908 320.211 64.5635C320.248 64.2191 320.586 63.9226 320.634 63.5781C320.683 63.2337 321.402 63.0279 321.468 62.6895C321.534 62.3509 320.658 61.8434 320.731 61.5049C320.803 61.1663 320.628 60.7731 320.712 60.4346C320.797 60.0961 321.91 60.0417 322 59.7031C322.139 59.1772 321.372 58.9714 321.511 58.4395C321.65 57.9079 322.024 58.0102 322.163 57.4844C322.302 56.9586 321.916 56.8559 322.055 56.3242C322.194 55.7922 322.581 55.9002 322.72 55.3682C322.859 54.8366 323.004 54.8784 323.149 54.3525C323.294 53.8268 322.865 53.7116 323.01 53.1797C323.155 52.6482 323.475 52.7386 323.62 52.207C323.766 51.675 323.887 51.7107 324.026 51.1787C324.116 50.8401 323.427 50.2777 323.524 49.9453C323.621 49.6131 324.37 49.462 324.473 49.1357C324.576 48.8093 324.557 48.4222 324.672 48.0957C324.787 47.7692 325.163 47.5275 325.283 47.207C325.404 46.8867 325.35 46.4754 325.489 46.1611C325.628 45.8469 325.355 45.321 325.5 45.0127C325.645 44.7044 326.976 44.9577 327.133 44.6494C327.29 44.3412 327.242 43.9428 327.411 43.6406C327.581 43.3385 327.792 43.0781 327.973 42.7881C328.154 42.4979 327.52 41.6573 327.719 41.3731C327.919 41.0889 328.215 40.8474 328.427 40.5693C328.639 40.2912 329.448 40.4963 329.672 40.2363C329.896 39.9764 330.029 39.6503 330.271 39.3965C330.513 39.1426 330.851 39.0209 331.105 38.7852C331.358 38.5493 331.214 37.8671 331.48 37.6494C331.746 37.4318 332.537 37.9027 332.822 37.6973C333.106 37.4918 332.822 36.4946 333.112 36.3008C333.402 36.1073 334.086 36.5853 334.388 36.416C334.69 36.2465 334.599 35.321 334.913 35.1699C335.228 35.0188 335.603 34.965 335.929 34.832C336.255 34.6991 336.679 34.8441 337.011 34.7295C337.344 34.6146 337.55 34.0821 337.882 33.9854C338.215 33.8887 338.583 33.852 338.928 33.7734C339.273 33.6954 339.792 34.6198 340.143 34.5596C340.493 34.4991 340.717 33.8102 341.068 33.7676C341.418 33.7253 341.781 34.0097 342.132 33.9795C342.483 33.9493 342.816 34.1058 343.172 34.0938C343.529 34.0809 343.849 33.0001 344.199 33ZM348.159 42.4434C347.839 42.0384 347.664 42.4002 347.132 42.4004C346.6 42.4004 346.6 42.3643 346.068 42.3643C345.536 42.3643 345.536 42.3887 345.004 42.3887C344.472 42.3887 344.472 42.4189 343.94 42.419C343.408 42.419 343.407 42.377 342.875 42.377C342.344 42.377 342.344 42.3887 341.812 42.3887C341.28 42.3887 341.279 42.4551 340.747 42.4551C340.216 42.4551 340.216 42.3946 339.684 42.3945C339.152 42.3945 339.151 42.3828 338.619 42.3828C338.088 42.3828 338.087 42.4375 337.549 42.4375C337.012 42.4375 337.017 42.3946 336.48 42.3945C335.942 42.3945 335.826 42.0865 335.404 42.4004C334.98 42.7148 335.264 42.9086 335.131 43.4043C334.998 43.9 335.023 43.9064 334.89 44.4082C334.757 44.9098 334.762 44.9097 334.629 45.4053C334.496 45.901 334.436 45.8891 334.303 46.3848C334.17 46.8805 334.237 46.8988 334.104 47.4004C333.971 47.9022 333.91 47.8842 333.777 48.3799C333.644 48.8755 333.674 48.8881 333.541 49.3838C333.408 49.8792 333.414 49.8854 333.282 50.3809C333.149 50.8765 333.118 50.8705 332.985 51.3721C332.852 51.8738 332.924 51.8922 332.791 52.3877C332.658 52.8834 332.647 52.8842 332.514 53.3799C332.381 53.8754 332.35 53.8694 332.217 54.3711C332.084 54.8728 332.115 54.8793 331.982 55.375C331.849 55.8704 331.842 55.8704 331.703 56.3721C331.564 56.8739 331.498 56.8498 331.359 57.3516C331.22 57.8531 331.226 57.8533 331.093 58.3486C330.96 58.8442 331.038 58.8689 330.906 59.3643C330.773 59.8599 330.73 59.8543 330.597 60.3496C330.464 60.8453 330.476 60.8519 330.337 61.3535C330.198 61.8552 330.18 61.8434 330.047 62.3447C329.914 62.8465 329.89 62.8351 329.751 63.3369C329.612 63.8385 329.714 63.8626 329.575 64.3643C329.436 64.8661 329.43 64.8605 329.297 65.3623C329.164 65.8637 329.146 65.8577 329.013 66.3594C328.88 66.861 328.965 66.8974 328.717 67.3506C328.439 67.8584 328.112 67.968 328.433 68.3731L328.427 68.3545C328.759 68.7714 328.977 68.3057 329.509 68.3057C330.041 68.3057 330.041 68.3359 330.573 68.3359C331.105 68.3359 331.105 68.294 331.637 68.294C332.169 68.294 332.169 68.3125 332.701 68.3125C333.233 68.3125 333.233 68.3848 333.765 68.3848C334.297 68.3848 334.297 68.3662 334.829 68.3662C335.361 68.3662 335.361 68.294 335.893 68.294C336.425 68.294 336.425 68.3662 336.957 68.3662C337.489 68.3662 337.489 68.294 338.021 68.294C338.553 68.294 338.553 68.3125 339.091 68.3125H340.161C340.699 68.3126 340.814 68.6749 341.243 68.3545C341.673 68.0341 341.328 67.8346 341.461 67.333C341.594 66.8312 341.594 66.8368 341.727 66.335C341.86 65.8334 341.86 65.8395 341.993 65.3379C342.126 64.8362 342.181 64.8541 342.314 64.3526C342.447 63.8508 342.41 63.8444 342.543 63.3486C342.676 62.853 342.683 62.8531 342.816 62.3574C342.949 61.8618 342.954 61.8615 343.087 61.3662C343.22 60.8705 343.238 60.8698 343.371 60.374C343.504 59.8787 343.487 59.8725 343.619 59.3711C343.752 58.8693 343.765 58.8746 343.898 58.3789C344.031 57.8837 343.989 57.8714 344.121 57.3701C344.254 56.8685 344.326 56.892 344.459 56.3906C344.592 55.8889 344.544 55.8764 344.677 55.3809C344.81 54.8852 344.853 54.891 344.986 54.3955C345.119 53.8998 345.137 53.8991 345.27 53.4033C345.403 52.908 345.343 52.8893 345.482 52.3877C345.621 51.8864 345.633 51.8921 345.766 51.3965C345.899 50.901 345.904 50.9008 346.037 50.4053C346.17 49.9097 346.189 49.9094 346.322 49.4141C346.455 48.9183 346.479 48.9176 346.612 48.4219C346.745 47.9264 346.685 47.908 346.818 47.4063C346.951 46.9048 346.999 46.9165 347.132 46.4209C347.265 45.9255 347.217 45.9068 347.356 45.4111C347.495 44.9159 347.568 44.9333 347.7 44.4316C347.833 43.9304 347.767 43.9118 347.9 43.4102C348.033 42.9087 348.48 42.8482 348.159 42.4434Z" fill="#FFFCD7"/>
<path fill-rule="evenodd" clip-rule="evenodd" d="M161.666 33.8643C162.192 33.8646 162.192 34.5352 162.718 34.5352C163.244 34.5351 163.244 34.3906 163.77 34.3906C164.296 34.3907 164.296 34.6562 164.827 34.6563C165.359 34.6563 165.354 34.4512 165.886 34.4512C166.237 34.4509 166.6 34.0035 166.932 34.0156C167.282 34.0286 167.542 35.3509 167.874 35.376C168.225 35.4062 168.558 35.2009 168.89 35.249C169.24 35.2974 169.537 35.3936 169.869 35.4541C170.214 35.5206 170.771 34.632 171.091 34.7227C171.43 34.8134 171.756 35.0248 172.071 35.1396C172.403 35.2607 172.415 36.0892 172.717 36.2344C173.031 36.3855 173.352 36.428 173.63 36.6094C173.908 36.7908 174.066 37.093 174.325 37.3105C174.586 37.528 175.239 37.3223 175.462 37.5762C175.686 37.83 175.19 38.5914 175.383 38.8818C175.576 39.1719 176.573 38.9491 176.725 39.2568C176.876 39.5652 176.303 40.146 176.411 40.4785C176.521 40.8107 177.438 40.8775 177.517 41.2217C177.589 41.548 177.554 41.929 177.602 42.2734C177.65 42.6059 177.403 42.9814 177.427 43.332C177.451 43.6645 177.91 44.003 177.91 44.3535C177.91 44.686 177.849 45.0488 177.831 45.3994C177.813 45.7319 176.786 45.9921 176.749 46.3428C176.713 46.6934 177.324 47.0743 177.276 47.4248C177.227 47.7754 176.864 48.0413 176.81 48.3857C176.755 48.7303 176.526 49.015 176.459 49.3535C176.393 49.6919 177.372 50.2416 177.3 50.5801C177.228 50.9186 176.774 51.1673 176.696 51.5059C176.617 51.8441 176.073 52.0495 175.982 52.3877C175.855 52.8713 175.372 52.7449 175.239 53.2285C175.106 53.7121 175.184 53.7363 175.057 54.2197C174.93 54.7034 175.087 54.7459 174.96 55.2295C174.833 55.7131 174.833 55.7134 174.706 56.2031C174.58 56.6927 175.601 56.9586 175.474 57.4482C175.347 57.9377 175.432 57.9562 175.299 58.4453C175.208 58.7839 173.835 58.7661 173.739 59.0986C173.642 59.4311 173.557 59.7635 173.454 60.0899C173.352 60.4163 173.298 60.7614 173.189 61.0879C173.08 61.4144 173.448 61.916 173.327 62.2363C173.206 62.5567 172.621 62.708 172.488 63.0283C172.355 63.3486 172.113 63.6145 171.98 63.9287C171.847 64.2431 172.687 65.0177 172.535 65.332C172.384 65.6461 171.81 65.7613 171.647 66.0635C171.484 66.3657 171.496 66.7828 171.326 67.085C171.157 67.3871 170.819 67.5986 170.631 67.8887C170.444 68.1789 170.516 68.6631 170.317 68.9473C170.117 69.2314 169.99 69.6002 169.773 69.8721C169.555 70.144 169.441 70.537 169.211 70.7969C168.981 71.0568 168.147 70.7728 167.899 71.0147C167.651 71.2566 167.802 71.9333 167.542 72.1631C167.282 72.3928 166.943 72.5619 166.665 72.7734C166.387 72.985 165.523 72.3623 165.239 72.5557C164.955 72.749 164.979 73.3839 164.677 73.5596C164.375 73.7348 164.392 74.5143 164.078 74.6719C163.764 74.8291 162.96 73.8799 162.633 74.0127C162.307 74.1457 162.361 75.1917 162.029 75.3066C161.696 75.4215 161.394 75.6572 161.055 75.7539C160.717 75.8506 160.36 75.9234 160.016 76.002C159.671 76.0806 159.181 75.3614 158.836 75.4219C158.492 75.4821 158.148 75.3309 157.797 75.3731C157.447 75.4154 157.125 75.337 156.775 75.3672C156.424 75.3982 156.17 76.9146 155.814 76.9268C155.457 76.9389 155.094 76.1709 154.738 76.1709L154.756 76.1895C154.23 76.1895 154.229 76.6611 153.703 76.6611C153.178 76.6608 153.177 76.044 152.652 76.044C152.126 76.0438 152.126 75.6699 151.6 75.6699C151.074 75.6701 151.074 76.582 150.548 76.582C150.022 76.582 150.022 76.5225 149.496 76.5225C148.971 76.5225 148.97 75.9544 148.445 75.9541C147.919 75.9541 147.918 76.4795 147.392 76.4795C146.866 76.4793 146.866 76.1231 146.346 76.1231C145.826 76.1235 145.82 76.8662 145.294 76.8662C144.769 76.866 144.768 76.0742 144.242 76.0742C143.717 76.0743 143.717 76.54 143.191 76.54C142.665 76.54 142.665 76.5098 142.139 76.5098C141.613 76.5098 141.613 75.4225 141.087 75.4219C140.561 75.4219 140.56 76.6973 140.034 76.6973C139.509 76.697 139.509 76.2012 138.977 76.2012C138.445 76.2012 138.324 76.5461 137.997 76.1289C137.671 75.7119 138.451 75.8023 138.584 75.3066C138.717 74.8113 138.814 74.8352 138.947 74.3399C139.08 73.8443 138.367 73.6565 138.499 73.1611C138.632 72.6654 138.995 72.7614 139.128 72.2656C139.261 71.7703 138.632 71.6008 138.765 71.1055C138.898 70.6098 139.285 70.7122 139.418 70.2168C139.551 69.7211 139.914 69.817 140.047 69.3213C140.18 68.8261 140.64 68.9468 140.773 68.4512C140.906 67.9556 140.44 67.8344 140.573 67.3389C140.706 66.8432 140.35 66.7465 140.483 66.251C140.616 65.7553 140.549 65.7368 140.676 65.2412C140.803 64.7456 140.591 64.6908 140.724 64.1953C140.857 63.6998 141.799 63.9531 141.933 63.458C142.066 62.9623 140.881 62.6471 141.014 62.1514C141.147 61.656 141.438 61.7345 141.571 61.2393C141.704 60.7435 142.399 60.9303 142.532 60.4346C142.664 59.939 141.692 59.6792 141.819 59.1836C141.946 58.6879 142.514 58.8385 142.647 58.3428C142.78 57.8474 142.882 57.8773 143.015 57.3818C143.148 56.8861 142.707 56.7711 142.84 56.2754C142.973 55.7798 143.094 55.8159 143.227 55.3203C143.36 54.8246 143.499 54.8608 143.632 54.3652C143.765 53.8695 143.62 53.8327 143.753 53.3369C143.887 52.8418 144.805 53.0892 144.938 52.5938C145.071 52.0981 144.703 52.0013 144.835 51.5059C144.968 51.0102 145.265 51.0884 145.398 50.5928C145.531 50.0971 144.273 49.7583 144.406 49.2627C144.539 48.767 144.974 48.8815 145.107 48.3857C145.24 47.8901 145.875 48.0592 146.008 47.5635C146.141 47.0681 146.383 47.1343 146.516 46.6387C146.649 46.1431 146.207 46.022 146.34 45.5264C146.473 45.0306 146.764 45.109 146.897 44.6133C147.03 44.1178 146.945 44.0931 147.078 43.6035C147.211 43.1143 147.199 43.1018 147.325 42.6123C147.452 42.1227 146.902 41.9655 147.035 41.4697C147.168 40.9742 146.909 40.9016 147.035 40.4063C147.162 39.9105 147.066 39.8795 147.199 39.3838C147.331 38.8884 147.41 38.9064 147.543 38.4111C147.676 37.9155 148.674 38.181 148.807 37.6855C148.94 37.1898 147.961 36.9235 148.094 36.4277C148.227 35.9322 148.511 36.0045 148.644 35.5088C148.777 35.0132 148.958 35.279 149.369 34.9707C149.78 34.6624 149.575 34.124 150.101 34.124C150.627 34.124 150.627 33.8643 151.153 33.8643C151.679 33.8643 151.679 34.9285 152.204 34.9287C152.73 34.9287 152.731 34.1312 153.256 34.1309C153.782 34.1309 153.783 34.5176 154.309 34.5176C154.834 34.5173 154.835 34.1123 155.361 34.1123C155.886 34.1125 155.887 34.5049 156.412 34.5049C156.938 34.5049 156.938 34.6563 157.458 34.6563C157.978 34.6562 157.984 34.2149 158.51 34.2148C159.036 34.2148 159.036 34.5536 159.562 34.5537C160.088 34.5537 160.088 34.6806 160.614 34.6807C161.14 34.6807 161.14 33.8643 161.666 33.8643ZM169.435 43.3565C169.114 42.9393 168.926 43.3262 168.407 43.3262C167.887 43.3262 167.886 43.3076 167.367 43.3076C166.847 43.3076 166.847 43.3262 166.327 43.3262C165.808 43.3262 165.807 43.3076 165.287 43.3076C164.767 43.3076 164.767 43.3623 164.253 43.3623C163.74 43.3623 163.733 43.3076 163.213 43.3076C162.694 43.3077 162.694 43.3799 162.174 43.3799C161.654 43.3799 161.654 43.3194 161.134 43.3193C160.614 43.3193 160.614 43.3076 160.094 43.3076C159.574 43.3076 159.574 43.374 159.054 43.374C158.535 43.374 158.534 43.3867 158.015 43.3867C157.495 43.3867 157.495 43.3135 156.975 43.3135C156.455 43.3135 156.376 43.0722 155.959 43.3926C155.542 43.713 155.795 43.8517 155.662 44.3535C155.529 44.8551 155.488 44.8433 155.355 45.3447C155.222 45.8465 155.263 45.8588 155.124 46.3545C154.985 46.8501 154.961 46.8443 154.828 47.3457C154.695 47.8475 154.677 47.842 154.544 48.3438C154.411 48.8452 154.411 48.8455 154.279 49.3467C154.146 49.8484 154.164 49.8551 154.025 50.3506C153.886 50.8463 153.94 50.8647 153.807 51.3662C153.674 51.8679 153.62 51.8502 153.481 52.3516C153.342 52.8534 153.353 52.8537 153.22 53.3555C153.087 53.8571 153.087 53.8577 152.954 54.3594C152.822 54.8608 152.87 54.8734 152.731 55.375C152.592 55.8765 152.591 55.8704 152.452 56.3721C152.313 56.8738 152.265 56.8618 152.132 57.3633C151.999 57.8651 151.975 57.8597 151.842 58.3555C151.709 58.8509 151.703 58.8509 151.57 59.3525C151.437 59.8543 151.461 59.8605 151.328 60.3623C151.195 60.8641 151.165 60.8579 151.032 61.3535C150.899 61.8492 150.923 61.8616 150.79 62.3633C150.657 62.865 150.712 62.8772 150.573 63.3789C150.434 63.8805 150.427 63.8747 150.294 64.376C150.161 64.8778 150.107 64.8664 149.968 65.3682C149.829 65.8696 149.956 65.9122 149.708 66.3711C149.448 66.8608 149.152 66.958 149.466 67.3691L149.478 67.375C149.792 67.7861 149.98 67.3633 150.506 67.3633C151.032 67.3633 151.026 67.3447 151.546 67.3447C152.065 67.3448 152.066 67.4238 152.591 67.4238C153.117 67.4238 153.111 67.3633 153.631 67.3633C154.151 67.3633 154.151 67.3809 154.671 67.3809C155.191 67.3809 155.191 67.417 155.717 67.417C156.243 67.417 156.237 67.3867 156.757 67.3867C157.277 67.3867 157.277 67.4111 157.797 67.4111C158.317 67.4111 158.317 67.4238 158.843 67.4238C159.369 67.4238 159.363 67.3994 159.882 67.3994C160.402 67.3994 160.402 67.4238 160.928 67.4238C161.454 67.4238 161.454 67.3809 161.974 67.3809C162.494 67.3809 162.603 67.6951 163.02 67.3809C163.437 67.0665 163.184 66.8854 163.317 66.3897C163.45 65.894 163.401 65.8758 163.534 65.374C163.667 64.8724 163.715 64.8841 163.848 64.3887C163.981 63.893 163.921 63.8746 164.06 63.3731C164.199 62.8714 164.247 62.8892 164.38 62.3877C164.513 61.8859 164.52 61.8854 164.653 61.3897C164.786 60.8942 164.737 60.8757 164.87 60.374C165.003 59.8726 165.075 59.8902 165.208 59.3945C165.341 58.899 165.276 58.8748 165.408 58.3731C165.541 57.8717 165.541 57.8714 165.674 57.3701C165.807 56.8683 165.844 56.8797 165.977 56.3779C166.11 55.8765 166.146 55.8884 166.279 55.3867C166.412 54.8849 166.375 54.8787 166.508 54.377C166.641 53.8752 166.617 53.869 166.756 53.3672C166.895 52.8656 166.92 52.8777 167.053 52.376C167.186 51.8743 167.137 51.8619 167.27 51.3662C167.403 50.8706 167.434 50.8707 167.567 50.3691C167.7 49.8674 167.724 49.8727 167.863 49.377C168.002 48.8816 168.008 48.8815 168.141 48.3799C168.274 47.8781 168.268 47.8778 168.401 47.376C168.534 46.8747 168.533 46.8744 168.666 46.3731C168.799 45.8713 168.734 45.8524 168.867 45.3506C168.999 44.8493 169.054 44.861 169.187 44.3594C169.32 43.858 169.755 43.7732 169.435 43.3565Z" fill="#FFFCD7"/>
<path fill-rule="evenodd" clip-rule="evenodd" d="M236.908 33.8643C237.434 33.8643 237.435 34.5352 237.961 34.5352C238.487 34.5351 238.487 34.3906 239.013 34.3906C239.539 34.3907 239.539 34.6562 240.071 34.6563C240.603 34.6563 240.597 34.4512 241.129 34.4512C241.48 34.4508 241.843 34.0035 242.175 34.0156C242.525 34.0288 242.785 35.3512 243.117 35.376C243.468 35.4062 243.801 35.2008 244.133 35.249C244.484 35.2974 244.78 35.3936 245.113 35.4541C245.457 35.5206 246.014 34.632 246.334 34.7227C246.673 34.8134 246.999 35.0248 247.314 35.1396C247.646 35.2608 247.658 36.0893 247.96 36.2344C248.275 36.3855 248.595 36.428 248.873 36.6094C249.151 36.7908 249.309 37.093 249.569 37.3105C249.829 37.5279 250.482 37.3223 250.705 37.5762C250.929 37.83 250.433 38.5914 250.626 38.8818C250.82 39.1719 251.816 38.9491 251.968 39.2568C252.119 39.5652 251.545 40.146 251.654 40.4785C251.762 40.8109 252.681 40.8774 252.76 41.2217C252.833 41.548 252.797 41.929 252.845 42.2734C252.893 42.6059 252.646 42.9814 252.67 43.332C252.695 43.6645 253.154 44.003 253.154 44.3535C253.154 44.686 253.093 45.0488 253.075 45.3994C253.056 45.7319 252.029 45.9921 251.992 46.3428C251.956 46.6934 252.567 47.0743 252.519 47.4248C252.47 47.7754 252.108 48.0413 252.053 48.3857C251.999 48.7303 251.769 49.015 251.702 49.3535C251.637 49.6919 252.615 50.2416 252.543 50.5801C252.471 50.9186 252.016 51.1673 251.938 51.5059C251.859 51.844 251.316 52.0495 251.225 52.3877C251.098 52.8713 250.614 52.7449 250.481 53.2285C250.348 53.7119 250.427 53.7363 250.3 54.2197C250.173 54.7033 250.33 54.7459 250.203 55.2295C250.076 55.7131 250.076 55.7134 249.95 56.2031C249.823 56.6927 250.844 56.9587 250.711 57.4482C250.578 57.9378 250.668 57.956 250.535 58.4453C250.445 58.7839 249.073 58.7662 248.976 59.0986C248.879 59.4311 248.794 59.7635 248.692 60.0899C248.589 60.4163 248.535 60.7614 248.426 61.0879C248.317 61.4144 248.686 61.9159 248.565 62.2363C248.444 62.5567 247.858 62.708 247.725 63.0283C247.592 63.3486 247.35 63.6146 247.217 63.9287C247.084 64.2431 247.924 65.0177 247.773 65.332C247.621 65.6461 247.047 65.7613 246.884 66.0635C246.721 66.3657 246.733 66.7828 246.564 67.085C246.395 67.3872 246.056 67.5986 245.868 67.8887C245.681 68.1789 245.753 68.6631 245.554 68.9473C245.355 69.2314 245.228 69.6001 245.01 69.8721C244.792 70.1441 244.677 70.537 244.448 70.7969C244.218 71.0567 243.384 70.7729 243.136 71.0147C242.888 71.2564 243.039 71.9331 242.78 72.1631C242.52 72.3928 242.181 72.5619 241.903 72.7734C241.625 72.985 240.76 72.3627 240.476 72.5557C240.192 72.7491 240.216 73.3843 239.913 73.5596C239.611 73.735 239.629 74.5147 239.315 74.6719C239 74.8285 238.197 73.8805 237.87 74.0127C237.544 74.1457 237.598 75.1913 237.266 75.3066C236.933 75.4215 236.631 75.6572 236.292 75.7539C235.954 75.8506 235.597 75.9234 235.252 76.002C234.908 76.0803 234.418 75.3614 234.074 75.4219C233.729 75.4823 233.384 75.3307 233.033 75.3731C232.683 75.4153 232.363 75.337 232.012 75.3672C231.661 75.3975 231.408 76.9139 231.051 76.9268C230.694 76.9389 230.331 76.1712 229.975 76.1709L229.999 76.1895C229.473 76.1895 229.473 76.6611 228.947 76.6611C228.421 76.6609 228.421 76.044 227.895 76.044C227.369 76.0439 227.369 75.6699 226.843 75.6699C226.317 75.6699 226.317 76.5819 225.791 76.582C225.265 76.582 225.265 76.5225 224.74 76.5225C224.214 76.5225 224.213 75.9541 223.687 75.9541C223.161 75.9544 223.161 76.4795 222.635 76.4795C222.109 76.4794 222.109 76.1231 221.589 76.1231C221.07 76.1234 221.063 76.8662 220.537 76.8662C220.012 76.8661 220.012 76.0742 219.486 76.0742C218.96 76.0742 218.96 76.5399 218.434 76.54C217.908 76.54 217.908 76.5098 217.382 76.5098C216.856 76.5098 216.855 75.4219 216.329 75.4219C215.804 75.4226 215.803 76.6973 215.278 76.6973C214.752 76.6971 214.752 76.2012 214.22 76.2012C213.688 76.2012 213.567 76.5461 213.241 76.1289C212.914 75.7119 213.694 75.8024 213.827 75.3066C213.96 74.8113 214.057 74.8352 214.19 74.3399C214.323 73.8443 213.61 73.6566 213.742 73.1611C213.875 72.6654 214.238 72.7614 214.371 72.2656C214.504 71.7703 213.876 71.6008 214.008 71.1055C214.141 70.6098 214.528 70.7122 214.661 70.2168C214.794 69.7211 215.157 69.817 215.29 69.3213C215.424 68.8261 215.883 68.9468 216.016 68.4512C216.149 67.9556 215.683 67.8344 215.816 67.3389C215.949 66.8433 215.592 66.7463 215.725 66.251C215.858 65.7553 215.792 65.7369 215.919 65.2412C216.046 64.7456 215.834 64.6908 215.967 64.1953C216.1 63.6997 217.043 63.9531 217.176 63.458C217.309 62.9623 216.124 62.6471 216.257 62.1514C216.39 61.6561 216.681 61.7345 216.814 61.2393C216.947 60.7435 217.642 60.9303 217.775 60.4346C217.907 59.939 216.935 59.6792 217.062 59.1836C217.189 58.6879 217.757 58.8385 217.89 58.3428C218.023 57.8474 218.125 57.8773 218.258 57.3818C218.391 56.8861 217.95 56.7711 218.083 56.2754C218.2 55.8418 218.306 55.8151 218.42 55.4834L218.52 55.1572C218.637 54.8252 218.759 54.7989 218.875 54.3652C219.008 53.8695 218.863 53.8327 218.996 53.3369C219.13 52.8418 220.048 53.0892 220.181 52.5938C220.314 52.0981 219.946 52.0013 220.078 51.5059C220.211 51.0102 220.507 51.0882 220.64 50.5928C220.773 50.0971 219.516 49.7584 219.649 49.2627C219.782 48.767 220.217 48.8815 220.35 48.3857C220.483 47.8902 221.118 48.0592 221.251 47.5635C221.384 47.0681 221.626 47.1343 221.759 46.6387C221.892 46.1431 221.45 46.0221 221.583 45.5264C221.716 45.0306 222.007 45.109 222.14 44.6133C222.273 44.1178 222.188 44.0931 222.321 43.6035C222.454 43.1141 222.442 43.1019 222.569 42.6123C222.696 42.1227 222.146 41.9654 222.279 41.4697C222.412 40.9742 222.152 40.9016 222.279 40.4063C222.406 39.9105 222.309 39.8795 222.442 39.3838C222.575 38.8884 222.653 38.9064 222.786 38.4111C222.919 37.9155 223.917 38.181 224.05 37.6855C224.183 37.1898 223.203 36.9234 223.336 36.4277C223.469 35.932 223.754 36.0045 223.887 35.5088C224.02 35.0133 224.202 35.279 224.613 34.9707C225.023 34.6623 224.818 34.124 225.344 34.124C225.87 34.1239 225.87 33.8643 226.396 33.8643C226.922 33.8644 226.922 34.9286 227.448 34.9287C227.973 34.9287 227.974 34.1311 228.499 34.1309C229.025 34.1309 229.026 34.5174 229.551 34.5176C230.077 34.5176 230.078 34.1123 230.604 34.1123C231.129 34.1125 231.13 34.5049 231.656 34.5049C232.181 34.5049 232.182 34.6563 232.701 34.6563C233.221 34.6561 233.227 34.2148 233.753 34.2148C234.279 34.2149 234.279 34.5537 234.805 34.5537C235.331 34.5537 235.331 34.6806 235.857 34.6807C236.383 34.6807 236.383 33.8647 236.908 33.8643ZM244.665 43.4043C244.351 42.9872 244.175 43.3565 243.656 43.3565H242.616C242.096 43.3565 242.096 43.4043 241.576 43.4043H240.536C240.016 43.4043 240.016 43.3379 239.502 43.3379H238.462C237.943 43.3379 237.942 43.4228 237.423 43.4229C236.903 43.4229 236.903 43.4102 236.383 43.4102C235.863 43.4102 235.863 43.3438 235.343 43.3438C234.823 43.3438 234.823 43.416 234.303 43.416C233.783 43.416 233.783 43.3496 233.263 43.3496C232.744 43.3496 232.743 43.3623 232.224 43.3623C231.704 43.3623 231.589 43.0541 231.178 43.3682C230.767 43.6825 231.014 43.8637 230.881 44.3652C230.748 44.867 230.748 44.8675 230.616 45.3691C230.483 45.8709 230.518 45.8771 230.379 46.3789C230.24 46.8805 230.228 46.8745 230.095 47.3701C229.962 47.8659 229.999 47.8781 229.86 48.3799C229.721 48.8817 229.733 48.882 229.594 49.3838C229.455 49.8853 229.407 49.8674 229.274 50.3691C229.141 50.8707 229.122 50.8648 228.99 51.3662C228.857 51.868 228.886 51.8742 228.747 52.376C228.608 52.8778 228.584 52.8722 228.451 53.374C228.319 53.8755 228.373 53.888 228.234 54.3897C228.095 54.8911 228.1 54.891 227.967 55.3926C227.834 55.8943 227.786 55.8823 227.653 56.3838C227.52 56.8855 227.514 56.8861 227.381 57.3877C227.248 57.8895 227.248 57.89 227.109 58.3857C226.97 58.8809 227.018 58.8993 226.879 59.3945C226.74 59.8902 226.764 59.9027 226.631 60.4043C226.498 60.9061 226.456 60.8947 226.323 61.3965C226.19 61.8977 226.202 61.9039 226.069 62.4053C225.936 62.907 225.924 62.9075 225.791 63.4092C225.658 63.9109 225.61 63.8989 225.477 64.4004C225.344 64.902 225.404 64.9205 225.265 65.4219C225.126 65.9237 225.204 65.9546 224.956 66.4141C224.69 66.9093 224.389 67.0064 224.702 67.417L224.715 67.3809C225.029 67.7919 225.229 67.3938 225.748 67.3936C226.268 67.3936 226.269 67.4238 226.788 67.4238C227.308 67.4238 227.308 67.3936 227.834 67.3936C228.36 67.3936 228.354 67.4111 228.874 67.4111C229.394 67.4111 229.394 67.3691 229.914 67.3691C230.434 67.3692 230.434 67.4111 230.96 67.4111C231.486 67.4111 231.48 67.4053 232 67.4053C232.52 67.4053 232.52 67.3633 233.039 67.3633H234.085C234.611 67.3633 234.605 67.4355 235.125 67.4356C235.645 67.4356 235.645 67.4111 236.171 67.4111C236.697 67.4111 236.697 67.3633 237.217 67.3633C237.737 67.3633 237.84 67.7011 238.257 67.3867C238.674 67.0725 238.384 66.8911 238.517 66.3955C238.65 65.9001 238.638 65.8939 238.771 65.3926C238.904 64.8908 238.934 64.9022 239.074 64.4004C239.213 63.899 239.236 63.9109 239.369 63.4092C239.502 62.9074 239.479 62.901 239.612 62.4053C239.744 61.91 239.756 61.9097 239.889 61.4082C240.022 60.9065 239.968 60.8942 240.101 60.3926C240.234 59.8909 240.258 59.8967 240.391 59.4014C240.524 58.9057 240.5 58.8932 240.633 58.3916C240.766 57.8899 240.826 57.9077 240.959 57.4063C241.092 56.9045 241.068 56.8982 241.201 56.3965C241.334 55.8947 241.298 55.8885 241.437 55.3867C241.576 54.8851 241.576 54.885 241.709 54.3897C241.842 53.8939 241.872 53.8993 242.005 53.3975C242.138 52.8959 242.156 52.9019 242.289 52.4063C242.422 51.9105 242.38 51.8922 242.513 51.3965C242.646 50.9009 242.706 50.9129 242.839 50.4111C242.972 49.9095 242.973 49.9095 243.112 49.4141C243.251 48.9184 243.202 48.8999 243.335 48.3984C243.468 47.8968 243.529 47.9144 243.661 47.4131C243.794 46.9114 243.759 46.8989 243.892 46.4033C244.025 45.9077 243.994 45.8892 244.127 45.3877C244.26 44.8859 244.32 44.8973 244.453 44.3955C244.586 43.894 244.98 43.8214 244.665 43.4043Z" fill="#FFFCD7"/>
<path fill-rule="evenodd" clip-rule="evenodd" d="M124.534 33.7559C125.066 33.7565 125.066 34.8622 125.598 34.8623C126.13 34.8623 126.13 33.8828 126.662 33.8828C127.194 33.8831 127.194 34.6385 127.726 34.6387C128.258 34.6387 128.258 34.1309 128.79 34.1309C129.322 34.131 129.323 34.6992 129.861 34.6992C130.398 34.6993 130.392 34.9042 130.93 34.9043C131.281 34.9043 131.626 34.5778 131.958 34.5898C132.309 34.6015 132.708 33.9493 133.04 33.9795C133.391 34.0101 133.621 35.104 133.953 35.1523C134.304 35.2009 134.552 35.5634 134.878 35.6299C135.223 35.6962 135.597 35.4243 135.911 35.5146C136.25 35.6114 136.474 35.884 136.777 36.0049C137.109 36.1317 137.387 36.1742 137.683 36.3252C137.997 36.4884 138.741 35.9139 139.007 36.1133C139.291 36.3188 139.618 36.5551 139.854 36.7969C140.089 37.0387 140.126 37.5157 140.313 37.7998C140.5 38.0838 141.201 38.181 141.334 38.501C141.467 38.8213 141.643 39.2387 141.722 39.5772C141.795 39.8976 140.754 40.4304 140.779 40.7871C140.803 41.1134 141.552 41.4396 141.54 41.79C141.528 42.1164 141.462 42.4913 141.419 42.8418C141.377 43.1683 141.111 43.4894 141.044 43.834C140.978 44.1603 140.863 44.4866 140.766 44.8311C140.681 45.1393 140.416 45.4115 140.307 45.75C140.204 46.0583 139.466 46.1308 139.339 46.4512C139.218 46.7595 140.096 47.4796 139.95 47.794C139.805 48.108 139.171 48.1502 139.007 48.4522C138.844 48.7544 139.352 49.45 139.17 49.7402C138.989 50.0303 138.735 50.3023 138.524 50.5742C138.312 50.8462 137.291 50.4177 137.061 50.665C136.831 50.9129 137.272 51.8142 137.024 52.044C136.776 52.2736 136.528 52.5512 136.256 52.7627C135.984 52.9743 135.247 52.4729 134.95 52.6543C134.654 52.8358 134.721 53.6213 134.412 53.7725C134.104 53.9236 133.826 54.1895 133.505 54.3164C133.185 54.4429 132.653 53.9054 132.321 53.9961C131.988 54.0868 131.734 54.3651 131.39 54.4316C131.07 54.4981 130.683 54.1055 130.338 54.1475C129.994 54.1898 129.703 54.2319 129.359 54.25C129.032 54.2681 128.717 53.9963 128.367 53.9902C127.835 53.9904 127.835 54.208 127.303 54.208C126.771 54.208 126.771 55.0171 126.245 55.0176C125.719 55.0176 125.713 54.2686 125.181 54.2686C124.649 54.2686 124.649 55.169 124.117 55.169C123.585 55.1688 123.585 54.9454 123.053 54.9453C122.521 54.9453 122.521 55.1514 121.989 55.1514C121.457 55.1513 121.457 54.9639 120.925 54.9639C120.393 54.9639 120.393 54.625 119.861 54.625C119.329 54.6249 119.328 54.0322 118.79 54.0322C118.253 54.0324 118.192 54.4374 117.751 54.7275C117.395 54.9633 117.436 55.0604 117.333 55.4775C117.231 55.8941 117.503 55.5442 117.805 55.8457C118.18 56.2145 117.836 57.1094 118.362 57.1094C118.887 57.1093 118.888 56.3665 119.419 56.3662C119.951 56.3662 119.952 56.0762 120.478 56.0762C121.003 56.0762 121.004 56.1904 121.535 56.1904C122.067 56.1904 122.067 56.3964 122.593 56.3965C123.119 56.3965 123.126 55.6289 123.652 55.6289C124.177 55.6293 124.177 56.6015 124.709 56.6016C125.241 56.6016 125.241 56.9344 125.767 56.9346C126.293 56.9346 126.299 57.1094 126.831 57.1094C127.363 57.1094 127.364 56.3604 127.896 56.3604L127.926 56.3838C128.289 56.3834 128.651 55.9186 128.984 55.9307C129.346 55.9489 129.654 56.5895 129.981 56.6201C130.343 56.6564 130.616 57.0677 130.943 57.1221C131.305 57.1819 131.825 56.3606 132.139 56.4443C132.496 56.535 132.846 56.7172 133.149 56.832C133.493 56.965 133.56 57.6297 133.838 57.793C134.153 57.9803 134.745 57.7628 134.987 57.9863C135.253 58.2282 135.223 58.7424 135.41 59.0205C135.599 59.2981 136.45 59.3527 136.565 59.6787C136.68 60.0052 136.009 60.58 136.057 60.9307C136.105 61.2812 136.589 61.5957 136.583 61.9463C136.583 62.2847 136.522 62.6593 136.48 63.0098C136.437 63.3604 135.313 63.5001 135.246 63.8447C135.181 64.1893 136.346 64.7932 136.256 65.1377C136.117 65.6455 135.639 65.5195 135.5 66.0274C135.361 66.5346 135.258 66.5051 135.119 67.0127C134.98 67.52 134.678 67.4357 134.539 67.9434C134.4 68.4511 134.303 68.4269 134.17 68.9346C134.037 69.4423 134.744 69.636 134.606 70.1436C134.467 70.6513 134.104 70.5551 133.965 71.0625C133.826 71.5703 134.455 71.74 134.316 72.2539C134.177 72.7677 133.79 72.6592 133.657 73.167C133.523 73.6745 133.155 73.5782 133.016 74.0859C132.877 74.5934 132.418 74.4727 132.279 74.9805C132.14 75.4882 132.968 75.6578 132.557 75.9902C132.176 76.2985 132.236 76.2979 131.741 76.2979C131.245 76.2979 131.251 76.3711 130.755 76.3711C130.26 76.3711 130.265 76.5946 129.77 76.5947C129.274 76.5947 129.28 75.6158 128.784 75.6152C128.289 75.6152 128.294 76.842 127.799 76.8428C127.303 76.8428 127.309 76.54 126.813 76.54C126.317 76.5396 126.317 75.8145 125.827 75.8145C125.338 75.8149 125.332 76.8242 124.842 76.8242C124.353 76.8242 124.105 76.6247 123.815 76.2197C123.512 75.8026 124.044 75.7058 124.177 75.2041C124.31 74.7024 123.869 74.5875 124.002 74.0859C124.119 73.6469 124.225 73.6193 124.339 73.2832L124.439 72.9531C124.556 72.6185 124.678 72.5961 124.794 72.1572C124.927 71.6555 124.782 71.6188 124.915 71.1231C125.049 70.6278 125.967 70.8628 126.1 70.3672C126.233 69.8719 125.865 69.7691 125.997 69.2676C126.13 68.766 126.426 68.844 126.559 68.3428C126.692 67.841 125.435 67.5077 125.568 67.0059C125.701 66.5045 126.136 66.6189 126.269 66.1172C126.402 65.6158 127.037 65.7849 127.17 65.2832C127.303 64.7816 127.545 64.8476 127.678 64.3399C127.811 63.8322 127.787 63.4391 127.46 63.0342C127.134 62.6292 126.759 62.6533 126.221 62.6533C125.683 62.6533 125.683 62.7383 125.145 62.7383C124.607 62.7383 124.607 62.75 124.075 62.75C123.543 62.75 123.536 63.3242 122.998 63.3242C122.46 63.3243 122.46 63.5967 121.922 63.5967C121.384 63.5967 121.384 63.6992 120.846 63.6992C120.308 63.6992 120.308 63.6211 119.77 63.6211C119.232 63.6207 119.232 62.5869 118.694 62.5869C118.156 62.5874 118.155 63.6025 117.617 63.6025C117.08 63.6024 117.079 63.3125 116.535 63.3125C115.992 63.3122 115.574 62.4177 115.139 62.7441C114.704 63.0706 115.731 63.7776 115.605 64.2793C115.478 64.7811 115.72 64.8481 115.593 65.3438C115.466 65.8394 114.432 65.5736 114.299 66.0752C114.166 66.577 114.94 66.7766 114.807 67.2783C114.674 67.78 114.299 67.6774 114.172 68.1787C114.045 68.6804 114.426 68.7837 114.293 69.2852C114.16 69.7869 113.779 69.6847 113.646 70.1865C113.513 70.688 113.368 70.6518 113.235 71.1475C113.102 71.6431 113.525 71.7641 113.392 72.2598C113.259 72.7555 112.932 72.6771 112.799 73.1729C112.666 73.6684 112.54 73.6448 112.407 74.1465C112.274 74.648 113.059 74.8597 112.926 75.3613C112.793 75.8627 112.419 75.8812 112.008 76.2012C111.597 76.5216 111.488 76.3467 110.98 76.3467C110.472 76.3467 110.466 76.0811 109.958 76.0811C109.451 76.0811 109.444 76.286 108.937 76.2861C108.429 76.2861 108.422 76.7393 107.914 76.7393C107.407 76.7385 107.401 75.4336 106.887 75.4336C106.373 75.4336 106.373 75.6699 105.866 75.6699C105.358 75.6699 105.351 75.6211 104.837 75.6211C104.324 75.6216 104.324 76.6123 103.81 76.6123C103.296 76.6123 102.843 76.7938 102.529 76.3828C102.214 75.9717 103.338 75.8024 103.471 75.3066C103.604 74.811 103.489 74.7808 103.622 74.2852C103.755 73.7894 103.9 73.8317 104.033 73.3359C104.166 72.8403 103.58 72.6831 103.713 72.1875C103.846 71.6919 104.681 71.9153 104.814 71.4199C104.947 70.9242 103.997 70.6696 104.124 70.1738C104.252 69.6785 104.983 69.8716 105.116 69.376C105.248 68.8804 104.414 68.6567 104.547 68.1611C104.68 67.6654 104.777 67.6891 104.91 67.1934C105.043 66.6981 105.316 66.77 105.449 66.2744C105.581 65.779 105.146 65.6636 105.279 65.168C105.411 64.6727 105.46 64.6846 105.593 64.1895C105.726 63.6939 106.699 63.953 106.832 63.458C106.965 62.9623 106.337 62.7924 106.47 62.3027C106.603 61.8133 106.911 61.8917 107.038 61.3965C107.165 60.9009 107.34 60.9485 107.467 60.4531C107.594 59.9574 106.561 59.6791 106.694 59.1895C106.827 58.6998 107.19 58.7904 107.323 58.3008C107.456 57.8111 107.908 57.9254 108.041 57.4297C108.174 56.9343 108.658 57.0611 108.791 56.5654C108.924 56.0698 108.846 56.0514 108.979 55.5557C109.112 55.0603 108.955 55.0178 109.081 54.5225C109.208 54.0267 109.215 54.026 109.348 53.5303C109.48 53.035 108.46 52.763 108.592 52.2676C108.725 51.7719 108.641 51.7474 108.774 51.252C108.907 50.7562 110.188 51.1002 110.321 50.6045C110.454 50.1089 110.436 50.1029 110.569 49.6074C110.702 49.1117 110.648 49.0994 110.781 48.5977C110.914 48.0959 110.411 47.9684 110.544 47.4727C110.677 46.9773 111.161 47.104 111.294 46.6084C111.427 46.1129 111.542 46.143 111.675 45.6475C111.808 45.1519 110.757 44.8676 110.889 44.3721C111.022 43.8763 111.47 43.9967 111.603 43.501C111.736 43.0054 111.53 42.9507 111.663 42.4551C111.796 41.9596 111.965 42.0015 112.098 41.5059C112.231 41.0102 111.911 40.9254 112.044 40.4297C112.177 39.9343 112.062 39.9038 112.195 39.4082C112.328 38.9125 112.171 38.8698 112.304 38.374C112.437 37.879 113.217 38.0842 113.35 37.5889C113.483 37.0931 112.914 36.9412 113.047 36.4395C113.18 35.9381 113.265 35.9621 113.398 35.4668C113.531 34.9711 113.948 35.4607 114.366 35.1523C114.783 34.844 114.432 34.7529 114.964 34.7529C115.496 34.7527 115.496 34.0579 116.028 34.0576C116.56 34.0576 116.56 35.2607 117.092 35.2607C117.624 35.2606 117.624 34.27 118.156 34.2695C118.688 34.2695 118.688 34.1367 119.22 34.1367C119.752 34.1367 119.752 34.1543 120.284 34.1543C120.816 34.1548 120.816 34.953 121.348 34.9531C121.88 34.9531 121.88 35.1522 122.406 35.1523C122.932 35.1523 122.938 35.2607 123.47 35.2607C124.002 35.2607 124.002 33.7559 124.534 33.7559ZM132.944 42.5098C132.617 42.0805 132.387 42.5459 131.843 42.5459C131.299 42.5459 131.305 42.54 130.761 42.54C130.217 42.54 130.223 42.5215 129.685 42.5215C129.147 42.5215 129.147 42.5459 128.603 42.5459C128.059 42.5459 128.065 42.5273 127.521 42.5273C126.977 42.5273 126.983 42.5098 126.439 42.5098C125.895 42.5098 125.901 42.5215 125.357 42.5215C124.813 42.5215 124.818 42.5039 124.275 42.5039H123.193C122.655 42.5039 122.648 42.5342 122.11 42.5342C121.572 42.534 121.469 42.2138 121.04 42.5459C120.611 42.8784 120.901 43.0541 120.768 43.5801C120.635 44.1055 120.611 44.0938 120.472 44.6191C120.333 45.145 120.332 45.1455 120.2 45.665C120.067 46.185 120.079 46.1979 119.946 46.7178C119.812 47.2373 119.342 47.3277 119.674 47.7568C120.007 48.186 120.206 47.757 120.743 47.7568C121.281 47.7568 121.282 47.7451 121.82 47.7451C122.358 47.7451 122.358 47.7813 122.89 47.7813C123.422 47.7813 123.428 47.794 123.966 47.794C124.504 47.794 124.504 47.7813 125.042 47.7813H126.118C126.656 47.7812 126.657 47.7637 127.195 47.7637C127.732 47.7637 127.733 47.7813 128.271 47.7813C128.809 47.7812 128.809 47.7393 129.347 47.7393C129.885 47.7393 129.885 47.7695 130.429 47.7695C130.973 47.7696 131.076 48.0833 131.505 47.7568C131.934 47.4306 131.662 47.2433 131.801 46.7178C131.94 46.1919 131.952 46.1974 132.091 45.6777C132.23 45.1579 132.23 45.1515 132.375 44.6318C132.52 44.1119 132.375 44.0508 132.635 43.5732C132.925 43.0474 133.276 42.9509 132.95 42.5156L132.944 42.5098Z" fill="#FFFCD7"/>
<path fill-rule="evenodd" clip-rule="evenodd" d="M304.958 33.7559C305.49 33.7565 305.49 34.8623 306.022 34.8623C306.554 34.8623 306.554 33.8828 307.086 33.8828C307.618 33.8832 307.618 34.6385 308.15 34.6387C308.682 34.6387 308.682 34.1309 309.214 34.1309C309.746 34.1311 309.746 34.699 310.278 34.6992C310.81 34.6992 310.81 34.9043 311.342 34.9043C311.693 34.9042 312.037 34.578 312.369 34.5898C312.72 34.6019 313.119 33.9498 313.451 33.9795C313.802 34.0097 314.032 35.1037 314.365 35.1523C314.715 35.2007 314.963 35.5632 315.289 35.6299C315.634 35.6964 316.009 35.424 316.324 35.5146C316.668 35.6114 316.885 35.8839 317.194 36.0049C317.526 36.1318 317.805 36.1741 318.101 36.3252C318.415 36.4883 319.159 35.9138 319.425 36.1133C319.709 36.3188 320.035 36.5551 320.271 36.7969C320.507 37.0386 320.543 37.5156 320.731 37.7998C320.918 38.0838 321.619 38.1809 321.752 38.501C321.885 38.8212 322.06 39.2387 322.139 39.5772C322.211 39.8976 321.172 40.4304 321.197 40.7871C321.221 41.1134 321.97 41.4396 321.958 41.79C321.946 42.1164 321.88 42.4913 321.837 42.8418C321.795 43.1683 321.529 43.4894 321.462 43.834C321.396 44.1603 321.281 44.4866 321.184 44.8311C321.099 45.1393 320.834 45.4115 320.725 45.75C320.622 46.0583 319.884 46.1308 319.757 46.4512C319.636 46.7595 320.514 47.4796 320.368 47.794C320.223 48.108 319.589 48.1502 319.425 48.4522C319.262 48.7544 319.77 49.45 319.588 49.7402C319.407 50.0303 319.153 50.3023 318.942 50.5742C318.73 50.8463 317.708 50.4172 317.478 50.665C317.248 50.9131 317.69 51.8143 317.442 52.044C317.194 52.2736 316.946 52.5512 316.674 52.7627C316.402 52.9743 315.665 52.473 315.368 52.6543C315.072 52.8356 315.139 53.6212 314.83 53.7725C314.522 53.9236 314.244 54.1895 313.923 54.3164C313.603 54.4431 313.071 53.9056 312.739 53.9961C312.406 54.0867 312.152 54.365 311.808 54.4316C311.487 54.4981 311.1 54.1051 310.755 54.1475C310.411 54.1898 310.12 54.2319 309.776 54.25C309.449 54.2679 309.135 53.9963 308.784 53.9902C308.253 53.9903 308.253 54.2079 307.721 54.208C307.189 54.208 307.188 55.0176 306.662 55.0176C306.137 55.0174 306.131 54.2688 305.599 54.2686C305.067 54.2686 305.066 55.169 304.534 55.169C304.003 55.1689 304.003 54.9454 303.471 54.9453C302.939 54.9453 302.939 55.1514 302.407 55.1514C301.875 55.1514 301.874 54.9639 301.342 54.9639C300.811 54.9637 300.81 54.625 300.279 54.625C299.747 54.625 299.746 54.0322 299.208 54.0322C298.67 54.0323 298.61 54.4374 298.168 54.7275C297.812 54.9632 297.854 55.0605 297.751 55.4775C297.649 55.8943 297.921 55.544 298.223 55.8457C298.598 56.2145 298.254 57.1094 298.78 57.1094C299.305 57.1091 299.305 56.3662 299.837 56.3662C300.369 56.3662 300.369 56.0763 300.895 56.0762C301.421 56.0762 301.421 56.1904 301.953 56.1904C302.485 56.1905 302.485 56.3965 303.011 56.3965C303.537 56.3965 303.543 55.6294 304.069 55.6289C304.595 55.6289 304.595 56.6016 305.127 56.6016C305.659 56.6016 305.659 56.9345 306.185 56.9346C306.711 56.9346 306.717 57.1094 307.249 57.1094C307.781 57.1092 307.781 56.3606 308.313 56.3604L308.343 56.3838C308.706 56.3838 309.069 55.9186 309.402 55.9307C309.764 55.9492 310.072 56.5898 310.399 56.6201C310.761 56.6564 311.033 57.0674 311.36 57.1221C311.722 57.1825 312.242 56.3602 312.557 56.4443C312.914 56.535 313.264 56.7172 313.567 56.832C313.911 56.9652 313.978 57.6298 314.256 57.793C314.571 57.9801 315.163 57.7627 315.405 57.9863C315.671 58.2282 315.64 58.7424 315.827 59.0205C316.015 59.2984 316.868 59.3525 316.983 59.6787C317.098 60.0052 316.427 60.58 316.475 60.9307C316.523 61.2812 317.006 61.5957 317 61.9463C317 62.2847 316.94 62.6593 316.898 63.0098C316.855 63.3604 315.731 63.5001 315.664 63.8447C315.599 64.1892 316.764 64.7931 316.674 65.1377C316.535 65.6455 316.057 65.5195 315.918 66.0274C315.779 66.5347 315.676 66.505 315.543 67.0127C315.41 67.52 315.102 67.4357 314.963 67.9434C314.824 68.4511 314.727 68.4269 314.594 68.9346C314.461 69.4423 315.168 69.636 315.03 70.1436C314.891 70.6513 314.528 70.5551 314.389 71.0625C314.25 71.5703 314.879 71.74 314.74 72.2539C314.6 72.7677 314.213 72.6592 314.08 73.167C313.947 73.6745 313.579 73.5782 313.44 74.0859C313.301 74.5935 312.841 74.4727 312.702 74.9805C312.563 75.4882 313.391 75.6578 312.981 75.9902C312.6 76.2985 312.66 76.2979 312.164 76.2979C311.669 76.2979 311.674 76.3711 311.179 76.3711C310.683 76.3711 310.689 76.5946 310.194 76.5947C309.698 76.5947 309.704 75.6158 309.208 75.6152C308.713 75.6152 308.718 76.8428 308.222 76.8428C307.727 76.8426 307.732 76.54 307.237 76.54C306.741 76.5397 306.741 75.8145 306.251 75.8145C305.762 75.8148 305.755 76.8242 305.266 76.8242C304.776 76.8242 304.529 76.6247 304.239 76.2197C303.948 75.8147 304.468 75.7058 304.601 75.2041C304.734 74.7024 304.293 74.5876 304.426 74.0859C304.542 73.6469 304.649 73.6193 304.763 73.2832L304.863 72.9531C304.98 72.6185 305.102 72.5961 305.218 72.1572C305.351 71.6555 305.206 71.6188 305.339 71.1231C305.472 70.6278 306.391 70.8628 306.524 70.3672C306.656 69.8719 306.288 69.7691 306.421 69.2676C306.554 68.766 306.85 68.844 306.983 68.3428C307.116 67.841 305.858 67.5077 305.991 67.0059C306.125 66.5045 306.56 66.6189 306.693 66.1172C306.826 65.6158 307.461 65.7849 307.594 65.2832C307.727 64.7816 307.969 64.8476 308.102 64.3399C308.235 63.8322 308.21 63.4391 307.884 63.0342C307.558 62.6292 307.183 62.6533 306.645 62.6533C306.107 62.6533 306.106 62.7383 305.569 62.7383C305.031 62.7383 305.03 62.75 304.498 62.75C303.966 62.75 303.96 63.3242 303.422 63.3242C302.884 63.3242 302.884 63.5967 302.346 63.5967C301.808 63.5967 301.808 63.6992 301.27 63.6992C300.732 63.6992 300.732 63.6211 300.194 63.6211C299.656 63.6208 299.655 62.5869 299.117 62.5869C298.58 62.5873 298.579 63.6025 298.041 63.6025C297.504 63.6024 297.503 63.3125 296.959 63.3125C296.415 63.3122 295.998 62.4177 295.563 62.7441C295.128 63.0706 296.155 63.7776 296.029 64.2793C295.902 64.7811 296.144 64.8481 296.017 65.3438C295.89 65.8394 294.856 65.5736 294.723 66.0752C294.59 66.577 295.364 66.7766 295.231 67.2783C295.098 67.78 294.723 67.6774 294.596 68.1787C294.469 68.6804 294.85 68.7837 294.717 69.2852C294.584 69.7869 294.203 69.6847 294.07 70.1865C293.937 70.688 293.791 70.6518 293.658 71.1475C293.526 71.6432 293.949 71.7641 293.816 72.2598C293.683 72.7555 293.356 72.6771 293.223 73.1729C293.09 73.6684 292.963 73.6448 292.83 74.1465C292.698 74.648 293.483 74.8597 293.35 75.3613C293.217 75.8629 292.842 75.8808 292.431 76.2012C292.02 76.5215 291.911 76.3467 291.404 76.3467C290.896 76.3467 290.89 76.0811 290.382 76.0811C289.874 76.0811 289.868 76.286 289.361 76.2861C288.853 76.2861 288.846 76.7393 288.338 76.7393C287.831 76.7386 287.825 75.4337 287.311 75.4336C286.797 75.4336 286.797 75.6699 286.289 75.6699C285.782 75.6699 285.775 75.6211 285.261 75.6211C284.748 75.6215 284.747 76.6122 284.234 76.6123C283.72 76.6123 283.267 76.7937 282.952 76.3828C282.638 75.9717 283.762 75.8024 283.895 75.3066C284.028 74.811 283.913 74.7808 284.046 74.2852C284.179 73.7894 284.324 73.8317 284.457 73.3359C284.59 72.8403 284.004 72.6831 284.137 72.1875C284.27 71.6919 285.104 71.9153 285.238 71.4199C285.371 70.9242 284.421 70.6696 284.548 70.1738C284.675 69.6785 285.406 69.8716 285.539 69.376C285.672 68.8804 284.838 68.6567 284.971 68.1611C285.104 67.6654 285.201 67.6891 285.334 67.1934C285.467 66.6981 285.739 66.77 285.872 66.2744C286.005 65.779 285.569 65.6636 285.702 65.168C285.835 64.6728 285.884 64.6847 286.017 64.1895C286.15 63.6939 287.123 63.9531 287.256 63.458C287.389 62.9623 286.761 62.7924 286.894 62.3027C287.027 61.8133 287.335 61.8918 287.462 61.3965C287.589 60.9009 287.764 60.9485 287.891 60.4531C288.018 59.9574 286.985 59.6791 287.117 59.1895C287.25 58.6998 287.613 58.7904 287.746 58.3008C287.879 57.8111 288.332 57.9254 288.465 57.4297C288.598 56.9343 289.082 57.0611 289.215 56.5654C289.348 56.0698 289.27 56.0514 289.403 55.5557C289.535 55.0603 289.378 55.0178 289.505 54.5225C289.632 54.0267 289.639 54.026 289.772 53.5303C289.904 53.035 288.883 52.763 289.016 52.2676C289.149 51.772 289.064 51.7472 289.197 51.252C289.33 50.7562 290.611 51.1002 290.744 50.6045C290.877 50.1089 290.86 50.1029 290.992 49.6074C291.126 49.1117 291.071 49.0994 291.204 48.5977C291.337 48.0959 290.835 47.9684 290.968 47.4727C291.101 46.9773 291.585 47.104 291.718 46.6084C291.851 46.1129 291.966 46.143 292.099 45.6475C292.232 45.1519 291.18 44.8676 291.313 44.3721C291.446 43.8763 291.894 43.9967 292.027 43.501C292.16 43.0054 291.954 42.9507 292.087 42.4551C292.22 41.9596 292.389 42.0015 292.522 41.5059C292.655 41.0103 292.335 40.9254 292.468 40.4297C292.601 39.9343 292.485 39.9038 292.618 39.4082C292.751 38.9125 292.595 38.8698 292.728 38.374C292.861 37.879 293.641 38.0842 293.774 37.5889C293.907 37.0931 293.338 36.9412 293.471 36.4395C293.604 35.9381 293.689 35.9621 293.822 35.4668C293.955 34.9711 294.372 35.4607 294.789 35.1523C295.206 34.8441 294.856 34.7529 295.388 34.7529C295.92 34.7527 295.92 34.0578 296.451 34.0576C296.983 34.0576 296.984 35.2607 297.516 35.2607C298.048 35.2605 298.048 34.2699 298.579 34.2695C299.111 34.2695 299.112 34.1367 299.644 34.1367C300.176 34.1367 300.176 34.1543 300.707 34.1543C301.239 34.1543 301.24 34.9531 301.772 34.9531C302.304 34.9531 302.304 35.1523 302.829 35.1523C303.355 35.1523 303.362 35.2607 303.894 35.2607C304.426 35.2606 304.426 33.7559 304.958 33.7559ZM313.349 42.5156C313.023 42.0868 312.799 42.54 312.261 42.54C311.723 42.54 311.723 42.5098 311.179 42.5098C310.635 42.5098 310.641 42.54 310.103 42.54C309.565 42.54 309.565 42.5342 309.021 42.5342C308.477 42.5342 308.483 42.54 307.939 42.54C307.395 42.54 307.4 42.5156 306.857 42.5156H304.692C304.148 42.5156 304.148 42.54 303.61 42.54C303.072 42.54 303.066 42.5273 302.528 42.5273C301.99 42.5273 301.862 42.1833 301.427 42.5098C300.992 42.836 301.313 43.0538 301.18 43.5732C301.047 44.0932 301.01 44.0875 300.877 44.6074C300.744 45.1272 300.775 45.1395 300.642 45.665C300.509 46.1909 300.466 46.1794 300.327 46.7051C300.188 47.231 299.728 47.3403 300.061 47.7695C300.393 48.1988 300.612 47.7393 301.15 47.7393H302.226C302.763 47.7393 302.764 47.7568 303.295 47.7568C303.827 47.7568 303.834 47.7334 304.371 47.7334C304.909 47.7334 304.91 47.751 305.448 47.751C305.986 47.751 305.986 47.7637 306.524 47.7637C307.062 47.7637 307.062 47.7451 307.6 47.7451C308.138 47.7451 308.138 47.7695 308.676 47.7695C309.214 47.7695 309.214 47.7637 309.752 47.7637C310.29 47.7637 310.29 47.7451 310.834 47.7451C311.378 47.7451 311.481 48.0776 311.91 47.7451C312.34 47.4126 312.038 47.2191 312.183 46.6992C312.328 46.1794 312.328 46.1793 312.473 45.6533C312.618 45.1275 312.654 45.139 312.793 44.6191C312.932 44.0996 312.812 44.0507 313.072 43.5732C313.356 43.0537 313.681 42.9449 313.349 42.5098V42.5156Z" fill="#FFFCD7"/>
<path d="M102.135 33.9736C102.622 33.9736 102.653 34.3077 103.083 34.3496L103.267 34.3594C103.697 34.4113 103.728 34.8262 104.221 34.8262C104.747 34.8262 104.741 35.3271 105.261 35.3271C105.781 35.3271 105.781 35.249 106.307 35.249C106.833 35.249 106.827 35.0859 107.353 35.0859C107.878 35.0857 107.673 34.4875 108.005 34.8984C108.338 35.3095 108.803 35.2066 108.676 35.6963C108.549 36.1858 108.634 36.2101 108.507 36.6934C108.38 37.177 107.093 36.8453 106.966 37.335C106.839 37.8245 106.851 37.8309 106.724 38.3145C106.597 38.7977 106.651 38.8161 106.518 39.3057C106.385 39.7952 106.887 39.9286 106.76 40.4121C106.633 40.8955 106.15 40.775 106.023 41.2647C105.896 41.754 105.775 41.7243 105.648 42.2139C105.522 42.7035 106.712 43.3685 106.307 43.6768C105.902 43.9851 105.557 43.2832 105.031 43.2832C104.505 43.2833 104.505 43.4951 103.979 43.4951C103.453 43.4951 103.453 43.3193 102.927 43.3193C102.401 43.3194 102.401 43.6523 101.875 43.6523C101.349 43.6523 101.349 43.7676 100.824 43.7676C100.298 43.7676 100.297 43.9306 99.7718 43.9307C99.2458 43.9307 99.245 43.1201 98.719 43.1201C98.1935 43.1204 98.1931 43.707 97.6673 43.707C97.1416 43.707 97.1414 43.6162 96.6155 43.6162C96.0897 43.6161 96.0896 42.6007 95.5638 42.6006C95.0379 42.6006 95.0377 43.1502 94.512 43.1504C93.9862 43.1504 93.9858 43.8453 93.4603 43.8457C92.9343 43.8457 92.9335 42.6426 92.4075 42.6426C91.8819 42.6431 91.8816 43.6338 91.3558 43.6338C90.8301 43.6338 90.8299 43.7676 90.2981 43.7676C89.7663 43.7676 89.772 43.749 89.2405 43.749C88.7086 43.749 88.3392 42.7093 87.9222 43.0352C87.505 43.3616 87.4382 43.7309 87.2991 44.2568C87.1601 44.7827 87.0514 44.7526 86.9124 45.2783C86.7734 45.8043 88.2243 46.1918 88.0853 46.7178C87.9458 47.2432 86.8766 46.9595 86.7376 47.4854C86.5986 48.0112 87.5415 48.2651 87.4026 48.791C87.2636 49.3169 86.5322 49.1236 86.387 49.6494C86.2419 50.1753 86.2171 50.0607 86.5374 50.5078C86.8336 50.925 86.7315 50.9131 87.2454 50.9131C87.7589 50.9132 87.759 51.1182 88.2728 51.1182C88.7865 51.1182 88.7866 50.7863 89.3001 50.7861C89.814 50.7861 89.8145 50.1152 90.3284 50.1152C90.842 50.1155 90.8422 51.1843 91.3558 51.1846C91.8696 51.1846 91.8702 51.5059 92.3841 51.5059C92.8976 51.5057 92.8977 51.1553 93.4114 51.1553C93.9252 51.1553 93.9253 51.3485 94.4388 51.3486C94.9526 51.3486 94.9532 51.2695 95.4671 51.2695C95.9807 51.2694 95.9809 50.387 96.4944 50.3867C97.0083 50.3867 97.0087 50.3506 97.5286 50.3506C98.0482 50.3506 98.0424 50.6229 98.5618 50.6231C99.0817 50.6231 99.8195 49.9036 100.14 50.3086C100.46 50.7136 100.182 51.4207 100.049 51.9043C99.9161 52.3879 98.8401 52.1099 98.7132 52.5996C98.5862 53.0893 99.3001 53.2769 99.1731 53.7666C99.0462 54.2561 99.01 54.2442 98.8831 54.7334C98.7561 55.2231 98.5501 55.1695 98.4231 55.6592C98.2963 56.1484 98.2602 56.1366 98.1272 56.626C97.9943 57.1155 97.8247 57.0674 97.6917 57.5566C97.5587 58.0463 96.9116 57.8775 96.7786 58.3672C96.6458 58.8568 97.8607 59.4916 97.4563 59.794C97.0513 60.0962 96.7485 59.3106 96.2347 59.3106C95.7209 59.3106 95.7204 60.1084 95.2005 60.1084C94.6811 60.1084 94.6869 60.0596 94.1673 60.0596C93.6474 60.0596 93.653 58.9961 93.1331 58.9961C92.6135 58.9964 92.6194 59.9452 92.1058 59.9453C91.5919 59.9453 91.5855 60.0059 91.0716 60.0059C90.5581 60.0056 90.5579 59.1781 90.0384 59.1777C89.5184 59.1777 89.5241 59.8965 89.0042 59.8965C88.4843 59.8965 88.4839 60.0293 87.97 60.0293C87.4566 60.0289 87.4565 59.3527 86.9368 59.3525C86.4169 59.3525 86.4165 59.5586 85.9026 59.5586C85.389 59.5585 85.3824 59.1104 84.8626 59.1104C84.3429 59.1102 83.9865 58.8996 83.5755 59.2139C83.1644 59.5282 83.0188 59.8609 82.8919 60.3506C82.7652 60.8397 82.9709 60.8944 82.844 61.3838C82.7171 61.8734 83.4961 62.0789 83.3636 62.5684C83.2306 63.0579 82.5055 62.8651 82.3782 63.3604C82.2513 63.8561 83.1224 64.0806 82.9954 64.5703C82.8684 65.0597 82.6499 65.0055 82.5169 65.4951C82.3841 65.9844 82.584 66.0392 82.4573 66.5283C82.3304 67.018 81.6469 66.825 81.9671 67.2178C82.2874 67.6107 82.2755 67.4542 82.7952 67.4541C83.315 67.4541 83.3214 68.0457 83.8411 68.0459C84.3609 68.0459 84.3673 67.3451 84.8929 67.3447C85.4187 67.3447 85.4192 67.5809 85.9388 67.5811C86.4587 67.5811 86.4655 66.6797 86.9915 66.6797C87.5171 66.6805 87.5176 68.1426 88.0374 68.1426C88.5569 68.1422 88.5633 67.3994 89.0892 67.3994C89.6149 67.3993 89.615 67.1094 90.1409 67.1094C90.6668 67.1094 90.6669 67.2236 91.1868 67.2236C91.7066 67.2237 91.7127 67.4297 92.2386 67.4297C92.7645 67.4297 92.7646 66.6622 93.2845 66.6621C93.8043 66.6621 93.8105 67.6345 94.3362 67.6348C94.8621 67.6348 94.8624 67.9676 95.388 67.9678C95.914 67.9678 95.9147 68.1426 96.4407 68.1426C96.9662 68.1421 96.9667 67.333 97.4925 67.333C98.0182 67.3329 97.9338 67.073 98.4476 66.9522C99.0037 66.8252 99.2694 66.9825 99.6019 67.3936L99.6077 67.3867C99.9281 67.7797 99.9409 67.9918 99.8079 68.4815C99.6749 68.9711 99.0825 68.814 98.9495 69.3037C98.8165 69.7934 98.4593 69.6969 98.3323 70.1865C98.2058 70.676 99.0823 70.9059 98.9554 71.3955C98.8284 71.885 98.7678 71.8669 98.6409 72.3565C98.514 72.846 97.9575 72.7011 97.8304 73.1904C97.7034 73.6801 98.2112 73.814 98.0843 74.3037C97.9572 74.7928 97.6067 74.7029 97.4798 75.1924C97.3534 75.6821 98.1025 76.4254 97.6976 76.7275C97.2926 77.0294 96.773 76.0746 96.2532 76.0742C95.7334 76.0742 95.733 76.54 95.2132 76.54C94.6933 76.54 94.6931 76.5098 94.1731 76.5098C93.6533 76.5097 93.6532 75.4219 93.1272 75.4219C92.6014 75.422 92.6071 76.6973 92.0872 76.6973C91.5677 76.6971 91.5675 76.2015 91.0481 76.2012C90.5283 76.2012 90.5277 76.0928 90.0081 76.0928C89.4883 76.0928 89.4879 75.7784 88.9622 75.7783C88.4363 75.7783 88.442 75.6817 87.9222 75.6816C87.4023 75.6816 87.402 76.419 86.8821 76.419C86.3624 76.4189 86.362 76.044 85.8421 76.044C85.3225 76.0442 85.322 76.6973 84.7962 76.6973C84.2707 76.6971 84.2765 76.2981 83.7571 76.2979C83.2373 76.2979 83.2368 75.924 82.7112 75.9238C82.1854 75.9238 82.1909 75.4465 81.6653 75.4463C81.1395 75.4463 81.145 75.9236 80.6194 75.9238C80.0936 75.9238 80.0991 76.2918 79.5735 76.292C79.0476 76.292 79.0533 76.3652 78.5335 76.3652C78.0136 76.3652 78.0134 76.5888 77.4876 76.5889C76.9616 76.5889 76.9675 75.6094 76.4476 75.6094C75.9277 75.6095 75.9276 76.8359 75.4017 76.8359C74.8758 76.8359 74.8817 76.5342 74.3558 76.5342C73.8299 76.5341 73.8358 75.8086 73.3099 75.8086C72.784 75.8087 72.7838 76.8184 72.264 76.8184C71.7442 76.8183 71.7379 76.2383 71.2181 76.2383C70.6984 76.2383 70.5414 76.5639 70.2151 76.1533C69.8888 75.7424 69.9182 75.591 70.0511 75.0957C70.1841 74.6 70.3058 74.6293 70.4388 74.1397C70.5717 73.6504 70.7101 73.6802 70.8431 73.1846C70.976 72.6891 70.8312 72.6528 70.9642 72.1572C71.0972 71.6615 72.0167 71.9088 72.1497 71.4131C72.2823 70.9178 71.9132 70.8208 72.0462 70.3252C72.1792 69.8295 72.4757 69.9078 72.6087 69.4121C72.7412 68.9165 71.4845 68.5777 71.6175 68.082C71.7506 67.5868 72.1856 67.7014 72.3186 67.2061C72.4516 66.7104 73.0859 66.8792 73.219 66.3838C73.352 65.8882 73.5938 65.9543 73.7269 65.459C73.8598 64.9633 73.4192 64.8481 73.552 64.3526C73.685 63.8569 73.9747 63.935 74.1077 63.4395C74.2407 62.9437 74.1563 62.9194 74.2894 62.4297C74.4223 61.9401 74.4103 61.934 74.5433 61.4385C74.6763 60.9427 74.1202 60.7975 74.2532 60.3018C74.3862 59.8061 74.1265 59.7396 74.2532 59.2441C74.3801 58.7485 74.2835 58.7239 74.4163 58.2285C74.5493 57.7328 74.628 57.7504 74.761 57.2607C74.8942 56.7712 75.8917 57.0309 76.0247 56.5352C76.1573 56.0397 75.1783 55.7796 75.3108 55.2842C75.4438 54.7884 75.7286 54.8668 75.8616 54.3711C75.9946 53.8754 76.6476 54.0504 76.7806 53.5547C76.9131 53.0592 75.9943 52.8111 76.1272 52.3154C76.2601 51.8199 76.0129 51.7534 76.1458 51.2578C76.2788 50.7621 77.3058 51.0397 77.4388 50.544C77.5715 50.0485 76.7987 49.843 76.931 49.3477C77.064 48.8519 77.4396 48.9479 77.5726 48.4522C77.7052 47.9568 77.3186 47.8539 77.4515 47.3584C77.5844 46.8627 77.9649 46.9652 78.0979 46.4697C78.2309 45.9741 78.3761 46.01 78.5091 45.5147C78.6421 45.019 78.2191 44.9037 78.3519 44.4082C78.4849 43.9125 78.8116 44.0026 78.9446 43.5068C79.0776 43.0115 79.2042 43.0474 79.3372 42.5518C79.47 42.0561 78.6847 41.8443 78.8177 41.3486C78.9508 40.8534 79.5976 41.0285 79.7308 40.5332C79.8638 40.0375 79.7308 40.0006 79.8577 39.5049C79.9847 39.0094 80.2443 39.0757 80.3772 38.5801C80.5102 38.0844 80.3107 38.0299 80.4436 37.5342C80.5767 37.0384 80.1358 36.9176 80.2688 36.4219C80.4018 35.9261 81.6651 36.2645 81.7981 35.7627C81.9309 35.2612 81.2423 35.2974 81.6526 34.9834C82.0637 34.669 81.8584 35.1337 82.3782 35.1338C82.8981 35.1338 82.8983 34.1426 83.4183 34.1426C83.9381 34.1426 83.9384 34.2451 84.4583 34.2451C84.9778 34.2454 84.978 35.0064 85.4974 35.0068C86.0172 35.0068 86.0178 34.8926 86.5374 34.8926C87.0573 34.8926 87.0576 35.043 87.5774 35.043C88.0974 35.043 88.0976 34.4385 88.6175 34.4385C89.1373 34.4386 89.1376 35.3037 89.6575 35.3037C90.177 35.3033 90.1772 34.3189 90.6966 34.3184C91.2164 34.3184 91.2169 35.073 91.7366 35.0732C92.2565 35.0732 92.2568 34.209 92.7767 34.209C93.2966 34.209 93.2968 34.3115 93.8167 34.3115C94.3364 34.3116 94.3369 34.5957 94.8567 34.5957C95.3761 34.5955 95.3764 34.1487 95.8958 34.1484C96.4156 34.1484 96.4161 34.1973 96.9358 34.1973C97.4558 34.1973 97.456 35.207 97.9759 35.207C98.4958 35.207 98.496 34.5596 99.0159 34.5596C99.5356 34.5597 99.5361 34.874 100.056 34.874C100.575 34.8741 100.576 35.0497 101.095 35.0498C101.615 35.0498 101.615 33.9739 102.135 33.9736Z" fill="#FFFCD7"/>
<path d="M282.553 33.9736C283.04 33.9737 283.071 34.3078 283.501 34.3496L283.685 34.3594C284.115 34.4114 284.146 34.8262 284.639 34.8262C285.165 34.8264 285.159 35.3271 285.679 35.3271C286.198 35.3271 286.199 35.2491 286.724 35.249C287.25 35.249 287.244 35.086 287.77 35.0859C288.296 35.0859 288.091 34.4873 288.423 34.8984C288.756 35.3095 289.221 35.2066 289.094 35.6963C288.967 36.1858 289.052 36.2102 288.925 36.6934C288.798 37.177 287.51 36.8453 287.383 37.335C287.256 37.8243 287.269 37.8309 287.142 38.3145C287.015 38.7978 287.069 38.8161 286.936 39.3057C286.803 39.7952 287.305 39.9285 287.178 40.4121C287.051 40.8955 286.568 40.775 286.441 41.2647C286.314 41.7541 286.193 41.7243 286.066 42.2139C285.939 42.7035 287.129 43.3685 286.724 43.6768C286.319 43.9842 285.974 43.2832 285.449 43.2832C284.923 43.2833 284.923 43.4951 284.397 43.4951C283.871 43.4951 283.871 43.3194 283.345 43.3193C282.819 43.3193 282.819 43.6522 282.293 43.6523C281.767 43.6523 281.767 43.7675 281.242 43.7676C280.716 43.7676 280.715 43.9307 280.189 43.9307C279.663 43.9303 279.663 43.1201 279.137 43.1201C278.611 43.1203 278.611 43.707 278.085 43.707C277.559 43.707 277.559 43.6162 277.033 43.6162C276.508 43.6162 276.507 42.601 275.982 42.6006C275.456 42.6006 275.455 43.1501 274.93 43.1504C274.404 43.1504 274.403 43.8457 273.877 43.8457C273.352 43.8452 273.351 42.6426 272.825 42.6426C272.3 42.6428 272.3 43.6338 271.774 43.6338C271.248 43.6338 271.248 43.7675 270.716 43.7676C270.184 43.7676 270.19 43.749 269.658 43.749C269.126 43.7487 268.757 42.7097 268.34 43.0352C267.923 43.3616 267.856 43.7309 267.717 44.2568C267.578 44.7827 267.469 44.7526 267.33 45.2783C267.191 45.8043 268.642 46.1918 268.503 46.7178C268.364 47.2433 267.294 46.9595 267.155 47.4854C267.016 48.0112 267.959 48.2651 267.82 48.791C267.681 49.3169 266.949 49.1235 266.804 49.6494C266.659 50.1753 266.635 50.0606 266.955 50.5078C267.252 50.9249 267.149 50.9131 267.662 50.9131C268.176 50.9131 268.177 51.1182 268.691 51.1182C269.204 51.1181 269.204 50.7862 269.718 50.7861C270.232 50.7861 270.232 50.1152 270.746 50.1152C271.26 50.1158 271.26 51.1846 271.774 51.1846C272.287 51.1846 272.288 51.5057 272.801 51.5059C273.315 51.5059 273.316 51.1553 273.829 51.1553C274.343 51.1553 274.343 51.3486 274.857 51.3486C275.371 51.3486 275.371 51.2695 275.885 51.2695C276.399 51.2691 276.399 50.3868 276.912 50.3867C277.426 50.3867 277.427 50.3506 277.947 50.3506C278.466 50.3507 278.46 50.623 278.98 50.6231C279.5 50.6231 280.238 49.9035 280.558 50.3086C280.878 50.7136 280.6 51.4207 280.467 51.9043C280.334 52.3879 279.258 52.11 279.131 52.5996C279.004 53.0893 279.718 53.2769 279.591 53.7666C279.464 54.2562 279.427 54.244 279.3 54.7334C279.173 55.2231 278.968 55.1695 278.841 55.6592C278.714 56.1484 278.678 56.1366 278.545 56.626C278.412 57.1155 278.243 57.0674 278.11 57.5566C277.977 58.0463 277.33 57.8775 277.197 58.3672C277.064 58.8569 278.278 59.4917 277.873 59.794C277.468 60.0957 277.166 59.3109 276.647 59.3106C276.127 59.3106 276.133 60.1084 275.613 60.1084C275.093 60.1084 275.098 60.0596 274.578 60.0596C274.059 60.059 274.065 58.9963 273.545 58.9961C273.025 58.9961 273.031 59.9453 272.517 59.9453C272.003 59.9454 271.997 60.0059 271.484 60.0059C270.97 60.0059 270.969 59.1777 270.45 59.1777C269.93 59.1779 269.936 59.8962 269.416 59.8965C268.896 59.8965 268.896 60.0293 268.382 60.0293C267.868 60.0293 267.868 59.3525 267.348 59.3525C266.828 59.3527 266.828 59.5586 266.315 59.5586C265.801 59.5586 265.795 59.1104 265.275 59.1104C264.755 59.1104 264.398 58.8995 263.987 59.2139C263.576 59.5282 263.431 59.8611 263.304 60.3506C263.177 60.8399 263.382 60.8943 263.255 61.3838C263.128 61.8733 263.908 62.079 263.776 62.5684C263.643 63.0579 262.918 62.8653 262.79 63.3604C262.663 63.8561 263.533 64.0806 263.407 64.5703C263.28 65.0596 263.062 65.0056 262.929 65.4951C262.796 65.9845 262.995 66.039 262.868 66.5283C262.742 67.018 262.059 66.8248 262.379 67.2178C262.7 67.6106 262.687 67.4541 263.207 67.4541C263.727 67.4542 263.733 68.0459 264.253 68.0459C264.773 68.0457 264.779 67.3447 265.305 67.3447C265.831 67.3447 265.831 67.5811 266.351 67.5811C266.871 67.581 266.877 66.6798 267.403 66.6797C267.929 66.6797 267.929 68.1424 268.449 68.1426C268.968 68.1426 268.975 67.3997 269.5 67.3994C270.026 67.3994 270.027 67.1096 270.552 67.1094C271.078 67.1094 271.078 67.2236 271.598 67.2236C272.118 67.2236 272.125 67.4297 272.651 67.4297C273.176 67.4293 273.177 66.6621 273.697 66.6621C274.216 66.6626 274.222 67.6348 274.748 67.6348C275.274 67.6349 275.274 67.9678 275.8 67.9678C276.326 67.9678 276.326 68.1426 276.852 68.1426C277.378 68.1426 277.378 67.3333 277.904 67.333C278.429 67.333 278.345 67.0731 278.859 66.9522C279.415 66.8252 279.681 66.9825 280.014 67.3936L280.026 67.3867C280.346 67.7797 280.359 67.9918 280.226 68.4815C280.093 68.9711 279.499 68.814 279.367 69.3037C279.233 69.7932 278.877 69.6969 278.75 70.1865C278.624 70.676 279.5 70.9059 279.373 71.3955C279.246 71.8851 279.186 71.867 279.059 72.3565C278.932 72.846 278.382 72.7012 278.248 73.1904C278.115 73.6801 278.629 73.814 278.502 74.3037C278.375 74.7929 278.025 74.7029 277.898 75.1924C277.771 75.6821 278.52 76.4253 278.116 76.7275C277.71 77.0298 277.19 76.0742 276.67 76.0742C276.151 76.0745 276.151 76.5398 275.631 76.54C275.111 76.54 275.111 76.5098 274.591 76.5098C274.071 76.5098 274.071 75.4221 273.545 75.4219C273.019 75.4219 273.025 76.6973 272.505 76.6973C271.985 76.6973 271.985 76.2012 271.465 76.2012C270.945 76.2011 270.945 76.0928 270.425 76.0928C269.906 76.0926 269.905 75.7783 269.379 75.7783C268.854 75.7783 268.86 75.6817 268.34 75.6816C267.82 75.6816 267.82 76.4189 267.3 76.419C266.78 76.419 266.78 76.044 266.26 76.044C265.74 76.044 265.74 76.6973 265.214 76.6973C264.688 76.6972 264.694 76.2979 264.174 76.2979C263.654 76.2977 263.654 75.9238 263.128 75.9238C262.603 75.9236 262.608 75.4463 262.082 75.4463C261.557 75.4465 261.562 75.9238 261.036 75.9238C260.511 75.924 260.516 76.292 259.991 76.292C259.465 76.292 259.471 76.3652 258.951 76.3652C258.432 76.3652 258.431 76.5888 257.906 76.5889C257.38 76.5889 257.385 75.6096 256.866 75.6094C256.346 75.6094 256.345 76.8357 255.82 76.8359C255.294 76.8359 255.3 76.5342 254.774 76.5342C254.248 76.5342 254.254 75.8087 253.728 75.8086C253.202 75.8086 253.202 76.8182 252.682 76.8184C252.162 76.8184 252.156 76.2384 251.636 76.2383C251.116 76.2383 250.959 76.5644 250.632 76.1533C250.306 75.7424 250.336 75.5911 250.469 75.0957C250.602 74.6 250.723 74.6293 250.856 74.1397C250.989 73.6503 251.128 73.6802 251.261 73.1846C251.394 72.6891 251.249 72.6528 251.382 72.1572C251.515 71.6615 252.434 71.9088 252.567 71.4131C252.699 70.9176 252.331 70.8208 252.464 70.3252C252.597 69.8296 252.894 69.9078 253.027 69.4121C253.159 68.9166 251.902 68.5777 252.034 68.082C252.168 67.5866 252.604 67.7015 252.737 67.2061C252.87 66.7104 253.504 66.8793 253.637 66.3838C253.77 65.8882 254.012 65.9543 254.145 65.459C254.278 64.9634 253.836 64.848 253.969 64.3526C254.102 63.8568 254.393 63.9351 254.526 63.4395C254.659 62.9437 254.574 62.9194 254.707 62.4297C254.84 61.9402 254.828 61.9341 254.961 61.4385C255.094 60.9427 254.538 60.7975 254.671 60.3018C254.804 59.8062 254.544 59.7396 254.671 59.2441C254.798 58.7485 254.701 58.7239 254.834 58.2285C254.967 57.7328 255.046 57.7504 255.179 57.2607C255.312 56.7713 256.309 57.0308 256.442 56.5352C256.575 56.0395 255.596 55.7797 255.729 55.2842C255.862 54.7885 256.146 54.8667 256.279 54.3711C256.412 53.8754 257.065 54.0504 257.198 53.5547C257.33 53.059 256.412 52.8111 256.545 52.3154C256.678 51.82 256.43 51.7532 256.563 51.2578C256.696 50.7621 257.724 51.0397 257.857 50.544C257.989 50.0485 257.217 49.843 257.349 49.3477C257.482 48.8519 257.857 48.9479 257.99 48.4522C258.122 47.9567 257.736 47.8538 257.868 47.3584C258.001 46.8627 258.383 46.9653 258.516 46.4697C258.649 45.9741 258.794 46.0101 258.927 45.5147C259.06 45.019 258.637 44.9038 258.77 44.4082C258.903 43.9125 259.23 44.0026 259.363 43.5068C259.496 43.0115 259.622 43.0474 259.755 42.5518C259.888 42.0562 259.103 41.8443 259.236 41.3486C259.369 40.8535 260.014 41.0282 260.148 40.5332C260.281 40.0375 260.148 40.0006 260.275 39.5049C260.402 39.0092 260.662 39.0758 260.795 38.5801C260.928 38.0844 260.729 38.0299 260.862 37.5342C260.995 37.0385 260.553 36.9175 260.686 36.4219C260.819 35.9261 262.083 36.2645 262.216 35.7627C262.349 35.2612 261.66 35.2976 262.071 34.9834C262.482 34.669 262.276 35.1338 262.796 35.1338C263.316 35.1336 263.316 34.1426 263.836 34.1426C264.356 34.1426 264.356 34.2451 264.875 34.2451C265.395 34.2451 265.396 35.0066 265.915 35.0068C266.435 35.0068 266.435 34.8926 266.955 34.8926C267.475 34.8926 267.475 35.043 267.995 35.043C268.515 35.0428 268.516 34.4385 269.035 34.4385C269.555 34.4389 269.555 35.3033 270.075 35.3037C270.594 35.3037 270.595 34.3186 271.115 34.3184C271.634 34.3184 271.635 35.0732 272.155 35.0732C272.674 35.0732 272.675 34.209 273.195 34.209C273.714 34.209 273.715 34.3115 274.235 34.3115C274.754 34.3117 274.754 34.5956 275.274 34.5957C275.794 34.5957 275.794 34.1485 276.314 34.1484C276.834 34.1484 276.834 34.1973 277.354 34.1973C277.874 34.1973 277.874 35.207 278.394 35.207C278.914 35.2068 278.914 34.5596 279.434 34.5596C279.953 34.5598 279.954 34.8739 280.473 34.874C280.993 34.874 280.993 35.0498 281.513 35.0498C282.033 35.0498 282.033 33.9736 282.553 33.9736Z" fill="#FFFCD7"/>
<path fill-rule="evenodd" clip-rule="evenodd" d="M202.878 33.29C203.235 33.3203 203.531 33.8279 203.864 33.8887C204.214 33.9552 204.608 33.8347 204.928 33.9375C205.273 34.0464 205.539 34.3305 205.847 34.4756C206.155 34.6205 206.651 34.5177 206.935 34.7051C207.219 34.8925 207.618 35.0552 207.872 35.291C208.126 35.5267 208.531 35.7386 208.742 36.0166C208.954 36.2947 208.471 37.0381 208.634 37.3525C208.797 37.6668 209.474 37.7517 209.589 38.084C209.704 38.4165 209.716 38.8037 209.783 39.1543C209.849 39.4868 208.888 39.9402 208.912 40.2969C208.937 40.6354 209.492 40.9196 209.487 41.2822C209.481 41.7961 210.169 41.8086 210.163 42.3164C210.157 42.824 208.955 42.8124 208.949 43.3262C208.943 43.8396 209.934 43.8519 209.928 44.3652C209.922 44.8791 210.054 44.8797 210.048 45.3936C210.042 45.9072 210.024 45.9073 210.018 46.4209C210.012 46.9347 209.209 46.9229 209.202 47.4365C209.196 47.9502 208.997 47.9446 208.985 48.458C208.973 48.9719 208.87 48.9666 208.864 49.4805C208.858 49.9941 210.363 50.0126 210.351 50.5264C210.338 51.0399 209.239 51.0224 209.233 51.5361C209.227 52.0494 210.199 52.0618 210.194 52.5752C210.188 53.089 209.427 53.0773 209.42 53.5908C209.414 54.1047 209.922 54.1111 209.909 54.625C209.897 55.1389 209.335 55.1268 209.329 55.6406C209.323 56.1544 209.112 56.1485 209.106 56.6621C209.1 57.176 209.432 57.1824 209.426 57.6963C209.42 58.2098 210.091 58.2161 210.085 58.7295C210.079 59.2433 209.009 59.2256 209.002 59.7393C208.996 60.253 208.676 60.2473 208.67 60.7607C208.664 61.2746 209.015 61.2811 209.009 61.7949C209.003 62.3087 208.809 62.3028 208.803 62.8164C208.797 63.3303 208.875 63.3309 208.869 63.8447C208.864 64.3583 209.747 64.371 209.741 64.8848C209.735 65.3982 209.77 65.3984 209.764 65.9121C209.758 66.4259 209.486 66.4199 209.48 66.9336C209.474 67.4475 210.048 67.4539 210.042 67.9678C210.036 68.4814 210.079 68.4815 210.073 68.9951C210.067 69.509 208.954 69.491 208.942 70.0049C208.93 70.5188 209.673 70.5311 209.667 71.0449C209.661 71.5585 209.625 71.5587 209.619 72.0723C209.613 72.5862 209.402 72.5867 209.396 73.1006C209.39 73.6141 209.353 73.6142 209.341 74.1279C209.329 74.6417 209.045 74.672 209.148 75.1797C209.257 75.7178 209.601 75.8328 209.226 76.1895H209.239C208.858 76.5582 208.713 76.6611 208.187 76.6611C207.661 76.6611 207.66 76.044 207.128 76.044C206.597 76.0438 206.602 75.67 206.071 75.6699C205.539 75.6699 205.545 76.5816 205.013 76.582C204.481 76.582 204.486 76.5225 203.954 76.5225C203.423 76.5223 203.429 75.9542 202.897 75.9541C202.365 75.9541 202.364 76.4795 201.838 76.4795C201.313 76.4793 201.306 76.1231 200.781 76.1231C200.255 76.1232 199.601 77.042 199.233 76.6611C198.864 76.2803 199.849 75.6637 199.862 75.1318C199.874 74.5999 199.414 74.5874 199.426 74.0557C199.438 73.5237 199.475 73.523 199.487 72.9971C199.499 72.4715 200.593 72.4956 200.606 71.9639C200.618 71.4319 199.342 71.3951 199.36 70.8691C199.378 70.3434 199.868 70.3552 199.886 69.8232C199.904 69.2915 200.007 69.2974 200.025 68.7656C200.043 68.2337 200.357 68.2456 200.369 67.7139C200.382 67.1819 200.484 67.1873 200.496 66.6553C200.508 66.1236 199.771 66.1051 199.789 65.5732C199.808 65.0415 200.183 65.0534 200.195 64.5215C200.207 63.9896 199.56 63.9714 199.572 63.4395C199.584 62.9075 199.989 62.9195 200.001 62.3877C200.013 61.8557 200.696 61.5227 200.327 61.1357C199.959 60.749 199.608 60.5802 199.082 60.5801C198.557 60.5801 198.556 61.0574 198.036 61.0576C197.517 61.0576 197.516 61.4256 196.991 61.4258C196.465 61.4258 196.464 61.499 195.945 61.499C195.425 61.499 195.418 61.7225 194.899 61.7227C194.379 61.7227 194.372 60.7436 193.853 60.7432C193.333 60.7432 193.326 61.9707 192.8 61.9707C192.275 61.9706 192.274 61.668 191.754 61.668C191.235 61.6676 191.228 60.9424 190.702 60.9424C190.177 60.9427 190.177 61.9522 189.651 61.9522C189.125 61.952 189.07 61.088 188.623 61.3594C188.176 61.6314 188.308 61.7585 188.073 62.2178C187.837 62.6772 188.242 62.8891 188.006 63.3545C187.77 63.82 187.656 63.7601 187.42 64.2256C187.184 64.691 187.057 64.6244 186.822 65.0899C186.586 65.5553 186.718 65.6216 186.483 66.0869C186.247 66.5524 185.394 66.1175 185.158 66.583C184.923 67.0484 185.261 67.2181 185.026 67.6836C184.79 68.1488 184.518 68.0104 184.283 68.4697C184.047 68.929 185.207 69.521 184.972 69.9863C184.736 70.4518 184.337 70.2467 184.101 70.7119C183.865 71.1773 183.279 70.8817 183.043 71.3467C182.807 71.8121 182.584 71.6977 182.348 72.1631C182.112 72.6286 182.517 72.8343 182.282 73.2998C182.046 73.7653 181.773 73.6263 181.537 74.0918C181.302 74.5571 181.381 74.6 181.139 75.0654C180.897 75.5308 181.278 75.5669 180.83 75.8389C180.383 76.1109 180.516 76.3525 179.99 76.3525C179.464 76.3527 179.464 76.625 178.932 76.625C178.4 76.625 178.406 76.7275 177.874 76.7275C177.342 76.7275 177.348 76.6494 176.816 76.6494C176.284 76.649 176.29 75.6153 175.758 75.6152C175.226 75.6152 175.232 76.6304 174.7 76.6309C174.168 76.6309 174.168 76.3408 173.642 76.3408C173.116 76.3406 173.11 75.6632 172.584 75.6631C172.058 75.6631 171.448 76.8663 171.163 76.419C170.879 75.9716 171.164 75.4154 171.4 74.9561C171.636 74.4972 172.584 74.9921 172.82 74.5332C173.055 74.0738 172.354 73.7046 172.59 73.2451C172.826 72.7858 173.171 72.9672 173.412 72.5078C173.654 72.0484 173.298 71.8608 173.539 71.4014C173.781 70.942 174.132 71.1293 174.367 70.6699C174.603 70.2105 174.742 70.2827 174.978 69.8232C175.214 69.3639 174.833 69.1584 175.069 68.7051C175.304 68.2517 175.607 68.4028 175.849 67.9434C176.091 67.4839 176.206 67.5444 176.442 67.085C176.677 66.6256 175.958 66.2505 176.2 65.791C176.441 65.3317 177.034 65.646 177.27 65.1865C177.505 64.7272 177.384 64.6604 177.626 64.207C177.868 63.7538 178.097 63.8684 178.339 63.415C178.581 62.9616 178.4 62.8589 178.642 62.3994C178.884 61.9401 178.478 61.728 178.72 61.2686C178.962 60.8096 180.117 61.4138 180.359 60.9551C180.601 60.4956 180.389 60.3862 180.631 59.9268C180.873 59.4676 180.915 59.4915 181.157 59.0322C181.398 58.5728 180.522 58.1128 180.764 57.6533C181.006 57.1943 181.096 57.2425 181.338 56.7832C181.58 56.3238 182.251 56.6741 182.492 56.2207C182.734 55.7675 182.632 55.7071 182.873 55.2481C183.115 54.7886 183.249 54.8608 183.491 54.4014C183.732 53.9419 183.194 53.6577 183.436 53.1982C183.678 52.7389 184.439 53.1374 184.681 52.6787C184.923 52.2192 184.052 51.7593 184.294 51.2998C184.536 50.8404 185.201 51.1909 185.443 50.7315C185.684 50.2721 184.923 49.8733 185.158 49.4141C185.394 48.9546 185.492 49.0024 185.734 48.543C185.975 48.0839 186.223 48.2164 186.465 47.751C186.707 47.2858 186.308 47.0801 186.549 46.6211C186.791 46.1616 186.834 46.1851 187.075 45.7256C187.318 45.2667 188.212 45.7316 188.453 45.2725C188.695 44.8131 188.122 44.5111 188.364 44.0518C188.605 43.5923 188.883 43.7368 189.131 43.2773C189.379 42.8182 189.53 42.8966 189.772 42.4375C190.014 41.9782 189.065 41.4761 189.306 41.0107C189.475 40.6965 189.995 40.5511 190.183 40.249C190.37 39.9468 190.957 39.9103 191.162 39.6201C191.368 39.3301 191.966 39.3781 192.19 39.1065C192.413 38.8344 192.565 38.55 192.807 38.29C193.049 38.0301 193.163 37.6908 193.423 37.4551C193.683 37.2194 193.931 37.0086 194.209 36.791C194.487 36.5734 194.161 35.503 194.457 35.3096C194.753 35.1161 195.049 34.8255 195.364 34.6563C195.678 34.487 196.585 35.5087 196.911 35.3643C197.238 35.2192 197.504 35.0855 197.842 34.9707C198.181 34.8559 198.447 34.7108 198.791 34.6201C199.136 34.5294 199.342 33.955 199.693 33.8945C200.043 33.8343 200.43 34.2877 200.786 34.2578C201.143 34.2276 201.445 34.3359 201.802 34.3359C202.159 34.3359 202.54 33.2604 202.878 33.29ZM200.739 42.2803C200.303 41.8752 200.14 42.3106 199.541 42.3106C198.943 42.3105 198.87 41.9893 198.344 42.2734C197.897 42.5152 198.126 42.7392 197.891 43.1924C197.655 43.6458 197.637 43.6345 197.402 44.0879C197.166 44.5411 197.177 44.5469 196.942 44.9941C196.706 45.4415 196.736 45.4599 196.5 45.9072C196.265 46.3545 196.228 46.3427 195.998 46.79C195.769 47.2371 195.781 47.2559 195.551 47.7031C195.322 48.15 195.333 48.1623 195.098 48.6152C194.862 49.0687 194.862 49.0691 194.632 49.5225C194.402 49.9757 194.379 49.9638 194.143 50.417C193.907 50.8704 193.943 50.8887 193.707 51.3359C193.472 51.7833 193.441 51.7712 193.205 52.2246C192.97 52.678 193.073 52.7451 192.735 53.126C192.36 53.5552 192.009 53.6153 192.269 54.0566L192.281 54.0684C192.54 54.5035 192.795 54.0511 193.302 54.0508H194.312C194.82 54.0508 194.82 54.0869 195.322 54.0869C195.823 54.0869 195.83 54.0566 196.331 54.0566H197.341C197.843 54.0566 197.849 54.0508 198.351 54.0508C198.852 54.0508 198.859 54.0625 199.367 54.0625C199.874 54.0627 200.038 54.4376 200.388 54.0752C200.763 53.6943 200.4 53.5302 200.418 52.9922C200.436 52.4547 200.442 52.4605 200.46 51.9229C200.478 51.3848 200.467 51.3906 200.485 50.8525C200.503 50.3145 200.509 50.3203 200.527 49.7822C200.545 49.2444 200.533 49.2499 200.551 48.7119C200.569 48.1744 200.563 48.1742 200.575 47.6426C200.588 47.1106 200.575 47.1043 200.593 46.5723C200.611 46.0403 200.636 46.04 200.648 45.502C200.66 44.9641 200.654 44.9636 200.672 44.4316C200.69 43.9003 200.672 43.8939 200.69 43.3565C200.708 42.8185 201.131 42.6429 200.739 42.2803Z" fill="#FFFCD7"/>
</svg>
