<svg width="115" height="87" viewBox="0 0 115 87" fill="none" xmlns="http://www.w3.org/2000/svg">
<path d="M113.822 35.111C116.882 62.601 105.222 83.081 76.3719 85.561C39.6319 88.721 -3.13813 87.3709 0.181875 38.9809C1.77187 15.841 16.2219 2.91095 38.9119 1.01095C68.1019 -1.42905 109.642 -2.46906 113.822 35.1009V35.111Z" fill="#008BF8"/>
<path d="M22.5095 31.9461L22.002 53.8238C21.9652 55.3139 22.4433 56.6761 23.2524 57.7598C25.003 60.0928 28.2541 60.6196 30.8138 59.2649L49.2466 49.5114C56.7785 46.0721 57.0433 38.4786 49.2833 35.3403L31.1374 26.6404C29.0706 25.647 26.5771 25.7825 24.7897 27.235C23.4436 28.3338 22.5463 30.0195 22.5021 31.9537L22.5095 31.9461Z" fill="#FFF600"/>
<path d="M60.5095 31.9461L60.002 53.8238C59.9652 55.3139 60.4433 56.6761 61.2524 57.7598C63.003 60.0928 66.2541 60.6196 68.8138 59.2649L87.2466 49.5114C94.7785 46.0721 95.0433 38.4786 87.2833 35.3403L69.1374 26.6404C67.0706 25.647 64.5771 25.7825 62.7897 27.235C61.4436 28.3338 60.5463 30.0195 60.5021 31.9537L60.5095 31.9461Z" fill="#FFF600"/>
</svg>
