<svg width="38" height="38" viewBox="0 0 38 38" fill="none" xmlns="http://www.w3.org/2000/svg">
<path d="M18.8673 0H18.4927C8.27945 0 0 8.36279 0 18.6788V18.6812C0 28.9972 8.27945 37.36 18.4927 37.36H18.8673C29.0806 37.36 37.36 28.9972 37.36 18.6812V18.6788C37.36 8.36279 29.0806 0 18.8673 0Z" fill="#434106"/>
<path d="M28.1957 9.2127L27.9175 8.93176C27.3241 8.33235 26.3619 8.33235 25.7685 8.93177L9.00508 25.8639C8.41164 26.4633 8.41164 27.4352 9.00508 28.0346L9.28322 28.3155C9.87666 28.9149 10.8388 28.9149 11.4323 28.3155L28.1957 11.3834C28.7891 10.784 28.7891 9.81211 28.1957 9.2127Z" fill="#FFFCD7"/>
<path d="M27.9186 28.2925L28.1967 28.0116C28.7902 27.4122 28.7902 26.4404 28.1967 25.8409L11.4333 8.90878C10.8399 8.30937 9.87772 8.30937 9.28428 8.90878L9.00614 9.18972C8.4127 9.78913 8.41268 10.761 9.00612 11.3604L25.7695 28.2926C26.363 28.892 27.3252 28.8919 27.9186 28.2925Z" fill="#FFFCD7"/>
</svg>
