<svg width="22" height="22" viewBox="0 0 22 22" fill="none" xmlns="http://www.w3.org/2000/svg">
<path d="M20.2652 1.38921L19.9871 1.10828C19.3937 0.508867 18.4315 0.508868 17.8381 1.10828L1.07466 18.0404C0.481223 18.6398 0.481223 19.6117 1.07466 20.2111L1.3528 20.492C1.94624 21.0914 2.90841 21.0915 3.50185 20.4921L20.2653 3.55989C20.8587 2.96048 20.8587 1.98863 20.2652 1.38921Z" fill="#FFFCD7"/>
<path d="M19.9882 20.469L20.2663 20.1881C20.8597 19.5887 20.8597 18.6169 20.2663 18.0175L3.50288 1.0853C2.90945 0.485885 1.9473 0.485885 1.35386 1.0853L1.07572 1.36623C0.482283 1.96565 0.482262 2.9375 1.0757 3.53691L17.8391 20.4691C18.4326 21.0685 19.3947 21.0685 19.9882 20.469Z" fill="#FFFCD7"/>
</svg>
