<svg width="38" height="38" viewBox="0 0 38 38" fill="none" xmlns="http://www.w3.org/2000/svg">
<g clip-path="url(#clip0_2_435)">
<path d="M18.86 0H18.5C8.28273 0 0 8.36332 0 18.68C0 28.9967 8.28273 37.36 18.5 37.36H18.86C29.0773 37.36 37.36 28.9967 37.36 18.68C37.36 8.36332 29.0773 0 18.86 0Z" fill="#434106"/>
<path d="M16.95 23.8057L16.28 21.6443C15.11 17.9477 18.66 16.1701 21.69 16.1095L22.53 16.0893L22.46 12.625L12.63 12.827L12.53 8.16078L20.27 7.99918C24.92 7.89818 27.25 10.2818 27.33 14.3117C27.41 18.3416 25.18 20.6949 20.91 20.7757H20.25L19.38 23.735L16.95 23.7855V23.8057ZM18.23 25.2298C20.29 25.1894 21.72 26.26 21.75 27.8659C21.78 29.4415 20.4 30.5727 18.34 30.6131C16.25 30.6535 14.82 29.5829 14.79 28.0073C14.76 26.4014 16.14 25.2702 18.23 25.2298Z" fill="#FFFCD7"/>
</g>
<defs>
<clipPath id="clip0_2_435">
<rect width="37.36" height="37.36" fill="white"/>
</clipPath>
</defs>
</svg>
