<svg width="46" height="46" viewBox="0 0 46 46" fill="none" xmlns="http://www.w3.org/2000/svg">
<path d="M39.7121 12.6482C38.7776 11.125 37.1423 10.1625 36.4975 10.7232C34.9743 12.1996 35.6752 18.1148 35.507 23.8245C35.6285 29.5341 34.8622 35.0381 37.0676 35.5615C41.3942 36.6641 44.4032 19.8436 39.7215 12.6388L39.7121 12.6482Z" fill="#FFFCD7"/>
<path d="M30.3582 12.1622C30.3582 10.6764 29.8349 9.34007 28.9845 8.28411C27.1342 6.01334 23.8168 5.58348 21.2564 7.00388L12.9115 12.1155C12.0144 12.7883 10.9305 13.1527 9.80908 13.1527H7.23928C5.63199 13.1527 4.32373 14.461 4.32373 16.0683V31.2067C4.32373 32.814 5.63199 34.1223 7.23928 34.1223H10.0894C11.0332 34.1223 11.9677 34.384 12.7714 34.8792L21.8171 39.4395C23.9383 40.3646 26.4801 40.1683 28.2556 38.6732C29.5919 37.5425 30.4609 35.8417 30.4516 33.9167L30.3675 12.1622H30.3582Z" fill="#FFFCD7"/>
</svg>
