<svg width="31" height="38" viewBox="0 0 31 38" fill="none" xmlns="http://www.w3.org/2000/svg">
<path d="M3.2621 32.1193C1.32108 32.6545 -0.350294 33.875 0.0634811 34.6355C2.09981 38.3816 31.4871 38.337 30.8014 34.051C30.2598 30.6711 10.3986 30.15 3.2621 32.117V32.1193Z" fill="#FFF600"/>
<path d="M3.2621 19.3154C1.32108 20.2519 -0.350294 22.3902 0.0634811 23.7234C2.09981 30.2838 31.4871 30.204 30.8014 22.7024C30.2598 16.7851 10.3986 15.8721 3.2621 19.3154Z" fill="#FFF600"/>
<path d="M3.2621 2.8287C1.32108 4.15017 -0.350294 7.16866 0.0634811 9.05111C2.09981 18.3131 31.4871 18.1981 30.8014 7.60993C30.2598 -0.743726 10.3986 -2.03468 3.2621 2.8287Z" fill="#FFF600"/>
</svg>
