<svg width="46" height="46" viewBox="0 0 46 46" fill="none" xmlns="http://www.w3.org/2000/svg">
<path d="M12.8 8V16.1C12.8 16.17 12.82 16.23 12.82 16.3H12.8V28.59C11.98 28.4 11.1 28.3 10.15 28.3C5.27999 28.3 2 30.85 2 34.56C2 38.27 5.26999 40.74 10.15 40.74C15.03 40.74 18.22 38.19 18.22 34.56C18.22 34.52 18.22 34.49 18.22 34.45C18.24 34.18 18.26 33.92 18.26 33.63V18.32L32.76 16.6V25.93C31.92 25.73 31 25.61 30.01 25.61C25.14 25.61 21.86 28.16 21.86 31.87C21.86 35.58 25.13 38.05 30.01 38.05C33.65 38.05 36.41 36.58 37.53 34.29C37.99 33.47 38.2 32.38 38.2 30.99V5L12.8 8Z" fill="#FFFCD7"/>
</svg>
