<svg width="95" height="21" viewBox="0 0 95 21" fill="none" xmlns="http://www.w3.org/2000/svg">
<path d="M3.73762 4.45312H12.773L11.9957 7.68248H6.01989L5.36388 10.3907H9.83468L9.05739 13.6201H4.57005L3.87544 16.5041H9.83468L9.05739 19.7335H0L3.73212 4.45312H3.73762Z" fill="#FFF600"/>
<path d="M10.4907 19.7336L13.451 7.59779C13.9692 5.50144 15.5569 4.10791 17.128 4.10791C18.3408 4.10791 19.5922 4.96223 19.3717 7.05252L18.6551 16.6375H19.1898L21.7918 4.45933H24.8899L21.9131 16.6618C21.3398 19.0429 19.8293 20.091 18.3794 20.091C17.0068 20.091 15.9538 19.152 16.1964 17.2737L17.0894 7.31911H16.5712L13.5723 19.7397H10.4962L10.4907 19.7336Z" fill="#FFF600"/>
<path d="M24.675 10.9785C25.6287 7.07054 27.8945 4.45312 31.3289 4.45312H35.6178L34.8239 7.68248H28.5505L26.406 16.498H31.2738L32.0069 13.505H28.4733L29.2506 10.2756H30.3642C33.9585 10.2756 35.0334 12.2205 34.0577 16.189L33.2032 19.7274H27.6023C24.1844 19.7274 23.1756 17.11 24.1293 13.202L24.6861 10.9785H24.675Z" fill="#FFF600"/>
<path d="M33.7654 19.7335L39.8845 6.91913C40.739 5.17419 42.2274 4.10181 43.8757 4.10181C45.524 4.10181 46.5549 5.17419 46.5163 6.91913L46.3564 19.7335H43.1811L43.3189 14.2745H39.4655L36.9407 19.7335H33.7654ZM42.7235 7.28871L40.7004 11.6086H43.4016L43.5229 7.28871H42.7291H42.7235Z" fill="#FFF600"/>
<path d="M47.2551 19.7335L50.2155 7.59773C50.7336 5.50138 52.3213 4.10785 53.8924 4.10785C55.1052 4.10785 56.3566 4.96217 56.1361 7.05246L55.4195 16.6375H55.9542L58.5562 4.45927H61.6543L58.6775 16.6617C58.1041 19.0428 56.5937 20.091 55.1438 20.091C53.7712 20.091 52.7182 19.1519 52.9608 17.2737L53.8538 7.31905H53.3356L50.3367 19.7396H47.2606L47.2551 19.7335ZM53.5892 1.26627C54.3059 0.50286 55.2596 0.0242219 55.9542 0.0242219C57.1835 0.0242219 57.5804 1.55105 58.6168 1.55105C59.3886 1.55105 60.5022 0.569528 61.0976 0L60.5242 2.35688C59.7469 3.07788 58.8539 3.53832 58.1813 3.53832C56.9685 3.53832 56.8307 2.01153 55.458 2.01153C54.8626 2.01153 54.2287 2.36291 53.0324 3.53832L53.5892 1.26627Z" fill="#FFF600"/>
<path d="M60.8383 13.6383L61.5936 10.5362C62.6685 6.16782 64.9122 4.0957 68.3632 4.0957C71.8141 4.0957 73.071 6.16782 71.996 10.5362L71.2408 13.6383C70.1658 18.0067 67.9222 20.0788 64.4657 20.0788C61.0092 20.0788 59.7578 18.0067 60.8328 13.6383H60.8383ZM63.1206 16.8495H67.3929L69.7138 7.33108H65.4415L63.1151 16.8495H63.1206Z" fill="#FFF600"/>
<path d="M73.2916 8.68822C74.0082 5.78606 75.5573 4.45312 77.619 4.45312H83.7933L83.016 7.68248H76.5992L75.9818 10.2332H79.5154C81.7205 10.2332 82.7128 11.2572 82.0182 14.1654L81.6819 15.4741C80.8109 19.1397 78.6444 20.1697 75.5242 20.1697C73.898 20.1697 72.2662 19.8183 71.0754 18.9276L71.9465 15.3469C73.1978 16.3526 74.7249 16.7888 76.3346 16.7888C76.9906 16.7888 77.6631 16.704 78.3412 16.5707L79.1185 13.4505H75.4029C73.3577 13.4505 72.4646 12.0327 73.1758 9.10628L73.275 8.69429L73.2916 8.68822Z" fill="#FFF600"/>
<path d="M83.0216 13.6383L83.7769 10.5362C84.8519 6.16782 87.0955 4.0957 90.5465 4.0957C93.9975 4.0957 95.2544 6.16782 94.1794 10.5362L93.4242 13.6383C92.3492 18.0067 90.1055 20.0788 86.649 20.0788C83.1925 20.0788 81.9412 18.0067 83.0162 13.6383H83.0216ZM85.3039 16.8495H89.5763L91.8971 7.33108H87.6248L85.2984 16.8495H85.3039Z" fill="#FFF600"/>
</svg>
