<svg width="118" height="17" viewBox="0 0 118 17" fill="none" xmlns="http://www.w3.org/2000/svg">
<path d="M109.969 3.404L107.278 13.432H112.223L114.914 3.404H109.969ZM108.842 16.836C104.84 16.836 103.391 14.651 104.633 10.051L105.507 6.785C106.749 2.185 109.348 0 113.35 0C117.352 0 118.801 2.185 117.559 6.785L116.685 10.051C115.443 14.651 112.844 16.836 108.842 16.836Z" fill="#FFFCD7"/>
<path d="M97.288 3.45016L96.759 5.47416H101.336L101.888 3.45016H97.288ZM104.901 4.34716C104.51 5.81916 103.406 8.18817 100.14 8.16516H96.023L95.862 8.80917H99.956C103.222 8.80917 103.452 10.3732 102.992 12.1442L101.819 16.4682H98.392L99.726 11.4312H95.149L93.815 16.4682H90.25L94.551 0.368164H101.129C104.326 0.368164 105.614 1.70216 104.901 4.34716Z" fill="#FFFCD7"/>
<path d="M78.0762 16.4682L82.4002 0.368164H92.8652L91.9682 3.77216H85.0452L84.2862 6.62416H89.4612L88.5642 10.0282H83.3662L82.5612 13.0642H89.4612L88.5642 16.4682H78.0762Z" fill="#FFFCD7"/>
<path d="M76.2505 3.77216H71.0295L68.5225 13.0642H73.7665L76.2505 3.77216ZM68.3615 0.368164H74.8706C78.9876 0.368164 80.1376 2.57617 78.8726 7.29117L78.2746 9.54517C77.0096 14.2602 74.6635 16.4682 70.5695 16.4682H64.0605L68.3615 0.368164Z" fill="#FFFCD7"/>
<path d="M59.7188 3.358H58.7988L56.4528 7.912H59.5808L59.7188 3.358ZM52.1058 16.468H48.4258L55.5098 2.967C56.4988 1.127 58.2238 0 60.1328 0C62.0878 0 63.2378 1.127 63.1918 2.967L63.0078 16.468H59.3278L59.4888 10.718H55.0268L52.1058 16.468Z" fill="#FFFCD7"/>
<path d="M48.0845 3.77216H42.8635L40.3565 13.0642H45.6005L48.0845 3.77216ZM40.1955 0.368164H46.7045C50.8215 0.368164 51.9715 2.57617 50.7065 7.29117L50.1085 9.54517C48.8435 14.2602 46.4975 16.4682 42.4035 16.4682H35.8945L40.1955 0.368164Z" fill="#FFFCD7"/>
<path d="M29.8153 3.45016L29.2863 5.47416H33.8633L34.4153 3.45016H29.8153ZM37.4283 4.34716C37.0373 5.81916 35.9333 8.18817 32.6673 8.16516H28.5503L28.3893 8.80917H32.4833C35.7493 8.80917 35.9793 10.3732 35.5193 12.1442L34.3463 16.4682H30.9193L32.2533 11.4312H27.6763L26.3423 16.4682H22.7773L27.0783 0.368164H33.6563C36.8533 0.368164 38.1413 1.70216 37.4283 4.34716Z" fill="#FFFCD7"/>
<path d="M10.6035 16.4682L14.9275 0.368164H25.3925L24.4955 3.77216H17.5725L16.8135 6.62416H21.9885L21.0915 10.0282H15.8935L15.0885 13.0642H21.9885L21.0915 16.4682H10.6035Z" fill="#FFFCD7"/>
<path d="M0.0015361 13.9612L0.415536 0.368164H3.98054L3.45154 13.4552H3.81954L10.3055 0.368164H13.8935L6.99354 13.9612C5.95854 16.0312 4.48654 16.8362 2.71554 16.8362C0.944536 16.8362 -0.0444636 16.0312 0.0015361 13.9612Z" fill="#FFFCD7"/>
</svg>
