<svg width="102" height="16" viewBox="0 0 102 16" fill="none" xmlns="http://www.w3.org/2000/svg">
<path d="M0.359593 0.357422H3.43566L2.97813 12.778H3.29785L8.89879 0.357422H11.9969L6.03768 13.2566C5.14462 15.2197 3.87118 15.9831 2.34416 15.9831C0.817135 15.9831 -0.0373362 15.2197 0.0012528 13.2566L0.359593 0.357422Z" fill="#FFFCD7"/>
<path d="M12.89 0.357422H21.9253L21.148 3.58678H15.1723L14.5162 6.29504H18.987L18.2098 9.5244H13.7224L13.0278 12.4084H18.987L18.2098 15.6378H9.15234L12.8845 0.357422H12.89Z" fill="#FFFCD7"/>
<path d="M28.2044 7.7552H24.6487L24.5109 8.36714H28.0445C30.867 8.36714 31.0655 9.85153 30.6631 11.5298L29.6487 15.6316H26.6884L27.8406 10.8512H23.8879L22.7358 15.6316H19.6597L23.3753 0.351318H29.0534C31.8152 0.351318 32.9288 1.61763 32.3114 4.12598C31.9751 5.52556 31.0214 7.77337 28.1989 7.74913L28.2044 7.7552ZM25.2826 5.20443H29.2353L29.7149 3.2838H25.7402L25.2826 5.20443Z" fill="#FFFCD7"/>
<path d="M40.3158 0.357383C43.8715 0.357383 44.8638 2.45375 43.7723 6.92515L43.2541 9.06388C42.1626 13.5353 40.1339 15.6316 36.6003 15.6316H30.9773L34.6929 0.351318H40.3158V0.357383ZM36.9972 3.58674L34.8307 12.4023H39.3566L41.5011 3.58674H36.9917H36.9972Z" fill="#FFFCD7"/>
<path d="M41.8042 15.6378L47.9233 2.82343C48.7778 1.07849 50.2662 0.00610352 51.9145 0.00610352C53.5628 0.00610352 54.5937 1.07849 54.5551 2.82343L54.3952 15.6378H51.2199L51.3577 10.1788H47.5043L44.9795 15.6378H41.8042ZM50.7624 3.193L48.7392 7.51294H51.4404L51.5617 3.193H50.7679H50.7624Z" fill="#FFFCD7"/>
<path d="M64.6435 0.357383C68.1992 0.357383 69.1915 2.45375 68.1 6.92515L67.5818 9.06388C66.4902 13.5353 64.4616 15.6316 60.9279 15.6316H55.3049L59.0205 0.351318H64.6435V0.357383ZM61.3303 3.58674L59.1638 12.4023H63.6898L65.8342 3.58674H61.3248H61.3303Z" fill="#FFFCD7"/>
<path d="M71.1373 0.357422H80.1726L79.3953 3.58678H73.4195L72.7635 6.29504H77.2343L76.457 9.5244H71.9697L71.2751 12.4084H77.2343L76.457 15.6378H67.3997L71.1318 0.357422H71.1373Z" fill="#FFFCD7"/>
<path d="M86.4517 7.7552H82.896L82.7582 8.36714H86.2918C89.1143 8.36714 89.3128 9.85153 88.9104 11.5298L87.896 15.6316H84.9357L86.0878 10.8512H82.1352L80.9831 15.6316H77.907L81.6225 0.351318H87.3006C90.0625 0.351318 91.1761 1.61763 90.5587 4.12598C90.2224 5.52556 89.2687 7.77337 86.4462 7.74913L86.4517 7.7552ZM83.53 5.20443H87.4826L87.9622 3.2838H83.9875L83.53 5.20443Z" fill="#FFFCD7"/>
<path d="M90.3217 9.54262L91.077 6.44051C92.1519 2.07211 94.3956 0 97.8466 0C101.298 0 102.554 2.07211 101.479 6.44051L100.724 9.54262C99.6492 13.911 97.4055 15.9831 93.9491 15.9831C90.4926 15.9831 89.2412 13.911 90.3162 9.54262H90.3217ZM92.6095 12.7538H96.8818L99.2027 3.23538H94.9303L92.604 12.7538H92.6095Z" fill="#FFFCD7"/>
</svg>
