<svg width="82" height="17" viewBox="0 0 82 17" fill="none" xmlns="http://www.w3.org/2000/svg">
<path d="M73.9395 3.404L71.2485 13.432H76.1935L78.8845 3.404H73.9395ZM72.8125 16.836C68.8105 16.836 67.3615 14.651 68.6035 10.051L69.4775 6.785C70.7195 2.185 73.3185 0 77.3205 0C81.3225 0 82.7715 2.185 81.5295 6.785L80.6555 10.051C79.4135 14.651 76.8145 16.836 72.8125 16.836Z" fill="#FFF600"/>
<path d="M57.2183 5.26668L57.3333 4.82968C58.1613 1.77068 59.9553 0.367676 62.3473 0.367676H69.5003L68.6033 3.77168H61.1743L60.4613 6.46268H64.5553C67.1083 6.46268 68.2583 7.54368 67.4533 10.6027L67.0623 11.9827C66.0503 15.8467 63.5433 16.9277 59.9323 16.9277C58.0463 16.9277 56.1603 16.5597 54.7803 15.6167L55.7923 11.8447C57.2413 12.9027 59.0123 13.3627 60.8753 13.3627C61.6343 13.3627 62.4163 13.2707 63.1983 13.1327L64.0953 9.84368H59.7943C57.4253 9.84368 56.3903 8.34868 57.2183 5.26668Z" fill="#FFF600"/>
<path d="M48.2442 3.404L45.5532 13.432H50.4982L53.1892 3.404H48.2442ZM47.1172 16.836C43.1152 16.836 41.6662 14.651 42.9082 10.051L43.7822 6.785C45.0242 2.185 47.6232 0 51.6252 0C55.6272 0 57.0762 2.185 55.8342 6.785L54.9602 10.051C53.7182 14.651 51.1192 16.836 47.1172 16.836Z" fill="#FFF600"/>
<path d="M39.6822 3.77168H34.4612L31.9542 13.0637H37.1982L39.6822 3.77168ZM31.7932 0.367676H38.3022C42.4192 0.367676 43.5692 2.57568 42.3042 7.29068L41.7062 9.54468C40.4412 14.2597 38.0952 16.4677 34.0012 16.4677H27.4922L31.7932 0.367676Z" fill="#FFF600"/>
<path d="M18.4513 0.367676H22.0163L18.4973 13.4777H22.6143L26.1333 0.367676H29.6983L26.8693 10.8787C25.8113 14.8117 23.6953 16.8357 19.7393 16.8357C15.7833 16.8357 14.5873 14.8117 15.6223 10.8787L18.4513 0.367676Z" fill="#FFF600"/>
<path d="M12.19 3.77168H6.969L4.462 13.0637H9.706L12.19 3.77168ZM4.301 0.367676H10.81C14.927 0.367676 16.077 2.57568 14.812 7.29068L14.214 9.54468C12.949 14.2597 10.603 16.4677 6.509 16.4677H0L4.301 0.367676Z" fill="#FFF600"/>
</svg>
