<svg width="55" height="17" viewBox="0 0 55 17" fill="none" xmlns="http://www.w3.org/2000/svg">
<path d="M8.62189 5.82254L9.31649 2.98699H6.19629L5.22055 7.00398H9.84572L9.11252 9.97281H4.48736L3.0761 15.7772H0L2.50277 5.5196C3.33519 2.09032 5.44106 0 8.56125 0C11.6815 0 12.5911 2.18117 11.698 5.82857H8.62189V5.82254Z" fill="#FFF600"/>
<path d="M8.36279 15.7772L14.4819 2.96283C15.3364 1.21789 16.8248 0.145508 18.4731 0.145508C20.1214 0.145508 21.1523 1.21789 21.1137 2.96283L20.9538 15.7772H17.7785L17.9163 10.3182H14.0629L11.5381 15.7772H8.36279ZM17.3154 3.33241L15.2923 7.65234H17.9935L18.1148 3.33241H17.321H17.3154Z" fill="#FFF600"/>
<path d="M28.3409 0.515137L25.4026 12.5661H30.6066L29.8293 15.7773H24.5481C22.6242 15.7773 21.8083 14.6867 22.3265 12.5661L25.2648 0.515137H28.3409Z" fill="#FFF600"/>
<path d="M33.2031 4.73193C33.9197 1.82976 35.4688 0.496826 37.5305 0.496826H43.7048L42.9275 3.72618H36.5107L35.8933 6.27695H39.4269C41.632 6.27695 42.6243 7.30088 41.9297 10.2091L41.5934 11.5178C40.7224 15.1834 38.5559 16.2134 35.4357 16.2134C33.8095 16.2134 32.1777 15.862 30.9869 14.9713L31.8579 11.3906C33.1093 12.3963 34.6364 12.8325 36.2461 12.8325C36.9021 12.8325 37.5746 12.7477 38.2527 12.6144L39.03 9.49418H35.3144C33.2692 9.49418 32.3761 8.07639 33.0873 5.14998L33.1865 4.73799L33.2031 4.73193Z" fill="#FFF600"/>
<path d="M42.9385 9.68202L43.6938 6.57992C44.7688 2.21152 47.0124 0.139404 50.4634 0.139404C53.9144 0.139404 55.1713 2.21152 54.0963 6.57992L53.341 9.68202C52.2661 14.0504 50.0224 16.1225 46.5659 16.1225C43.1094 16.1225 41.858 14.0504 42.933 9.68202H42.9385ZM45.2208 12.8932H49.4932L51.814 3.37479H47.5416L45.2153 12.8932H45.2208Z" fill="#FFF600"/>
</svg>
