<svg width="168" height="58" viewBox="0 0 168 58" fill="none" xmlns="http://www.w3.org/2000/svg">
<path d="M54.9765 44.7321C45.5931 44.7321 38.7656 38.0441 38.7656 28.8477C38.7656 19.6513 45.5486 13.0078 55.024 13.0078C62.5965 13.0078 68.6789 17.5585 70.1661 24.481H64.2203C62.8726 20.625 59.2511 18.3036 54.9765 18.3036C49.1701 18.3036 44.664 22.6227 44.664 28.8477C44.664 35.0726 49.1701 39.4392 54.9765 39.4392C59.3876 39.4392 63.0121 36.9784 64.3123 32.7512H70.3027C68.8155 40.0448 62.7331 44.735 54.9735 44.735L54.9765 44.7321Z" fill="white"/>
<path d="M95.1083 32.9827C95.1083 33.6327 95.0608 34.1908 94.9688 34.7489H78.1079C78.2949 37.9549 80.9398 40.0892 84.2407 40.0892C86.5176 40.0892 88.3283 39.1601 89.3495 37.3018H94.7847C93.2975 41.9 89.1179 44.7349 83.8697 44.7349C76.6236 44.7349 72.7676 39.2551 72.7676 33.4012C72.7676 27.5473 76.7156 22.02 84.0092 22.02C90.6051 22.02 95.1113 26.5262 95.1113 32.9827H95.1083ZM89.8155 31.2164C89.489 28.15 86.7046 26.4787 83.9617 26.4787C81.4058 26.4787 78.7134 27.9659 78.2029 31.2164H89.8155Z" fill="white"/>
<path d="M101.52 12.126C103.331 12.126 104.679 13.4737 104.679 15.2844C104.679 17.0952 103.331 18.4904 101.52 18.4904C99.7096 18.4904 98.3145 17.1427 98.3145 15.2844C98.3145 13.4262 99.6621 12.126 101.52 12.126ZM98.825 22.483H104.165V44.2688H98.825V22.483Z" fill="white"/>
<path d="M114.943 12.3098V25.2227C116.475 23.317 118.751 22.0168 122.376 22.0168C128.461 22.0168 133.059 26.6625 133.059 33.303C133.059 39.9435 128.414 44.7287 122.189 44.7287C118.567 44.7287 116.243 43.381 114.756 41.4782L114.198 44.2656H109.6V12.3098H114.94H114.943ZM114.943 33.3059C114.943 36.975 117.638 40.0414 121.447 40.0414C125.255 40.0414 127.856 36.975 127.856 33.3059C127.856 29.6369 125.3 26.71 121.447 26.71C117.594 26.71 114.943 29.5894 114.943 33.3059Z" fill="white"/>
<path d="M144.114 44.6873C139.979 44.6873 136.031 42.645 136.031 38.2308C136.031 33.0746 140.398 31.2638 145.088 31.2638H151.126V30.2871C151.126 27.7313 148.989 26.4786 146.62 26.4786C144.67 26.4786 142.58 27.3157 142.206 29.3105H137.097C137.7 24.2017 142.206 21.9724 146.851 21.9724C152.287 21.9724 156.419 24.7598 156.419 30.5187V38.3674C156.419 39.5756 156.977 40.2732 158.137 40.2732C158.277 40.2732 158.369 40.2731 158.509 40.2257V44.4528C157.858 44.5448 157.208 44.5923 156.558 44.5923C154.237 44.5923 152.008 43.8502 151.494 41.1073C149.867 43.6632 147.083 44.6843 144.108 44.6843L144.114 44.6873ZM145.646 34.7458C143.509 34.7458 141.559 35.4434 141.559 37.6728C141.559 39.7151 143.325 40.5047 145.32 40.5047C148.71 40.5047 151.034 38.4149 151.126 35.3959V34.7458H145.646Z" fill="white"/>
<path d="M167.245 12.3098V44.2656H161.904V12.3098H167.245Z" fill="white"/>
<path d="M24.7007 28.9305C24.7007 14.3434 33.425 8.15407 33.425 4.53252C33.4221 -0.261592 28.0907 0.00260378 28.0907 0.00260378C11.9481 0.00260378 0 13.3044 0 28.9365C0 44.5685 11.9422 57.8852 28.8476 57.8852C31.6053 57.8852 33.4221 55.8488 33.4221 53.3374C33.4221 49.5586 24.6977 43.2743 24.6977 28.9335L24.7007 28.9305Z" fill="white"/>
</svg>
