<svg width="898" height="77" viewBox="0 0 898 77" fill="none" xmlns="http://www.w3.org/2000/svg">
<g clip-path="url(#clip0_1_71)">
<path d="M863.83 18.75V15.76C863.83 14.93 863.95 14.2 864.17 13.59C864.4 12.98 864.77 12.46 865.29 12.02C865.8 11.58 866.48 11.21 867.33 10.89L870.61 9.66999C871.2 9.43999 871.63 9.16999 871.9 8.84999C872.17 8.53999 872.3 8.15999 872.3 7.70999C872.3 7.29999 872.14 6.93999 871.82 6.61999C871.5 6.29999 871.02 6.13999 870.39 6.13999C869.81 6.13999 869.31 6.31999 868.88 6.66999C868.45 7.01999 868.22 7.51999 868.16 8.17999H864.09C864.09 6.96999 864.36 5.97999 864.94 5.20999C865.51 4.43999 866.27 3.86999 867.22 3.50999C868.17 3.14999 869.21 2.95999 870.32 2.95999C871.43 2.95999 872.4 3.15999 873.29 3.55999C874.18 3.95999 874.9 4.51999 875.43 5.23999C875.96 5.95999 876.23 6.81999 876.23 7.81999C876.23 8.60999 876.09 9.30999 875.8 9.91999C875.51 10.53 875.06 11.08 874.43 11.56C873.8 12.04 872.97 12.47 871.92 12.86L868.67 14.09C868.23 14.26 867.92 14.42 867.76 14.58C867.6 14.74 867.51 14.94 867.51 15.2V15.37H876.18V18.73H863.83V18.75Z" fill="#FFFCD7"/>
<path d="M877.48 16.61C877.48 15.93 877.71 15.36 878.16 14.91C878.61 14.46 879.21 14.23 879.94 14.23C880.67 14.23 881.27 14.46 881.75 14.91C882.23 15.36 882.46 15.93 882.46 16.61C882.46 17.29 882.22 17.85 881.75 18.29C881.27 18.73 880.67 18.95 879.94 18.95C879.21 18.95 878.62 18.73 878.16 18.28C877.7 17.83 877.48 17.28 877.48 16.6V16.61Z" fill="#FFFCD7"/>
<path d="M890.68 19.12C889.36 19.12 888.19 18.83 887.17 18.25C886.15 17.67 885.34 16.78 884.77 15.59C884.2 14.4 883.9 12.89 883.9 11.06C883.9 9.23 884.19 7.69 884.77 6.5C885.35 5.31 886.15 4.42 887.17 3.84C888.19 3.26 889.36 2.97 890.68 2.97C892 2.97 893.14 3.26 894.15 3.84C895.16 4.42 895.96 5.3 896.54 6.5C897.12 7.69 897.41 9.21 897.41 11.06C897.41 12.91 897.12 14.39 896.54 15.59C895.96 16.78 895.16 17.67 894.15 18.25C893.14 18.83 891.98 19.12 890.68 19.12ZM890.68 15.77C891.57 15.77 892.28 15.37 892.82 14.58C893.36 13.79 893.63 12.61 893.63 11.06C893.63 9.51 893.36 8.32 892.82 7.51C892.28 6.7 891.57 6.3 890.68 6.3C889.79 6.3 889.02 6.7 888.49 7.51C887.96 8.32 887.69 9.5 887.69 11.06C887.69 12.62 887.96 13.79 888.49 14.58C889.02 15.37 889.75 15.77 890.68 15.77Z" fill="#FFFCD7"/>
<path d="M34.15 37.12H15.89V39.99H34.14C48.7 39.99 51.57 46.96 51.57 54.86V74.14H36.29V51.68H15.89V74.14H0V2.35999H29.22C43.47 2.35999 50.86 8.30999 50.86 20.1C50.86 26.66 48.81 37.12 34.15 37.12ZM36.3 25.12V16.1H15.89V25.12H36.3Z" fill="#FFFCD7"/>
<path d="M58.34 2.35999H105.1V17.54H74.24V30.26H97.41V45.44H74.24V58.98H105.1V74.16H58.34V2.35999Z" fill="#FFFCD7"/>
<path d="M242 2.35999H282.09V17.54H270.09V58.97H282.09V74.15H242V58.97H254.2V17.53H242V2.35999Z" fill="#434106"/>
<path d="M289.58 74.14V17.13C289.58 7.29 296.04 0.720001 304.14 0.720001C310.4 0.720001 317.98 4.72 319.52 14.56L327.83 59.58H330.6L328.75 2.36H344.64V59.68C344.64 70.86 338.28 75.78 330.8 75.78C323.72 75.78 317.06 71.37 315.83 62.55L308.04 15.79H305.27L305.48 74.14H289.59H289.58Z" fill="#434106"/>
<path d="M385.86 27.38V14.05H369.76V32.92H393.65V46.87H369.76V74.15H353.87V25.94C353.87 9.84 362.07 0 378.17 0C394.27 0 401.75 10.25 401.75 27.38H385.86Z" fill="#434106"/>
<path d="M406.67 45.53V30.97C406.67 10.46 415.69 0.720001 433.54 0.720001C451.39 0.720001 460.41 10.46 460.41 30.97V45.53C460.41 66.04 451.49 75.78 433.54 75.78C415.59 75.78 406.67 66.04 406.67 45.53ZM444.51 60.6V15.89H422.57V60.6H444.51Z" fill="#434106"/>
<path d="M501.93 37.12H483.68V39.99H501.93C516.49 39.99 519.36 46.96 519.36 54.86V74.14H504.08V51.68H483.67V74.14H467.78V2.35999H497C511.25 2.35999 518.64 8.30999 518.64 20.1C518.64 26.66 516.59 37.12 501.93 37.12ZM504.08 25.12V16.1H483.67V25.12H504.08Z" fill="#434106"/>
<path d="M546.12 20.82H542.02V74.14H526.23V2.35999H557.2L564.07 56.3H567.56L574.84 2.35999H605.4V74.14H589.51V20.82H585.61L578.95 61.63C577.31 71.58 574.95 75.78 566.13 75.78C557.31 75.78 554.34 71.58 552.7 61.63L546.14 20.82H546.12Z" fill="#434106"/>
<path d="M625.58 13.95C627.73 5.75 634.09 0.720001 642.6 0.720001C651.11 0.720001 657.78 5.74 659.83 13.95L675.11 74.14H658.7L652.55 48.5H632.66L626.51 74.14H610.1L625.58 13.95ZM635.73 35.99H649.68L644.76 15.69H640.66L635.74 35.99H635.73Z" fill="#434106"/>
<path d="M734.88 33.22V43.27C734.88 64.29 727.09 74.13 708.83 74.13H679.81V2.35999H708.83C727.08 2.35999 734.88 12.2 734.88 33.23V33.22ZM695.71 58.96H718.99V17.53H695.71V58.96Z" fill="#434106"/>
<path d="M740.82 45.53V30.97C740.82 10.46 749.84 0.720001 767.69 0.720001C785.54 0.720001 794.56 10.46 794.56 30.97V45.53C794.56 66.04 785.64 75.78 767.69 75.78C749.74 75.78 740.82 66.04 740.82 45.53ZM778.66 60.6V15.89H756.72V60.6H778.66Z" fill="#434106"/>
<path d="M798.96 22.25C798.96 8.60998 805.32 2.35999 815.88 2.35999H847.87V17.54H814.75V29.54H833C844.48 29.54 850.84 34.36 850.84 48V54.15C850.84 72.09 840.07 76.2 824.9 76.2C816.39 76.2 807.67 74.56 800.39 70.35V53.53C808.08 58.25 816.59 60.3 824.79 60.3C828.28 60.3 831.66 59.89 834.94 59.27V44.61H815.87C805.31 44.61 798.95 37.95 798.95 24.2V22.25H798.96Z" fill="#434106"/>
<path d="M194.91 2.35999H152.64C132.41 2.35999 116.01 18.7598 116.01 38.99C116.01 59.2202 132.41 75.62 152.64 75.62H194.91C215.14 75.62 231.54 59.2202 231.54 38.99C231.54 18.7598 215.14 2.35999 194.91 2.35999Z" fill="#FFF600"/>
<path d="M151.73 61.08C142.17 61.08 134.39 53.3 134.39 43.74C134.39 34.18 142.17 26.4 151.73 26.4C161.29 26.4 169.07 34.18 169.07 43.74C169.07 53.3 161.29 61.08 151.73 61.08Z" fill="#FFFCD7"/>
<path d="M151.73 27.4C160.74 27.4 168.07 34.73 168.07 43.74C168.07 52.75 160.74 60.08 151.73 60.08C142.72 60.08 135.39 52.75 135.39 43.74C135.39 34.73 142.72 27.4 151.73 27.4ZM151.73 25.4C141.6 25.4 133.39 33.61 133.39 43.74C133.39 53.87 141.6 62.08 151.73 62.08C161.86 62.08 170.07 53.87 170.07 43.74C170.07 33.61 161.86 25.4 151.73 25.4Z" fill="black"/>
<path d="M195.81 61.08C186.25 61.08 178.47 53.3 178.47 43.74C178.47 34.18 186.25 26.4 195.81 26.4C205.37 26.4 213.15 34.18 213.15 43.74C213.15 53.3 205.37 61.08 195.81 61.08Z" fill="#FFFCD7"/>
<path d="M195.81 27.4C204.82 27.4 212.15 34.73 212.15 43.74C212.15 52.75 204.82 60.08 195.81 60.08C186.8 60.08 179.47 52.75 179.47 43.74C179.47 34.73 186.8 27.4 195.81 27.4ZM195.81 25.4C185.68 25.4 177.47 33.61 177.47 43.74C177.47 53.87 185.68 62.08 195.81 62.08C205.94 62.08 214.15 53.87 214.15 43.74C214.15 33.61 205.94 25.4 195.81 25.4Z" fill="black"/>
<path d="M161.94 20.99C159.6 17.9 155.9 15.89 151.73 15.89C147.56 15.89 143.86 17.9 141.52 20.99" stroke="black" stroke-width="2" stroke-linecap="round" stroke-linejoin="round"/>
<path d="M206.02 20.99C203.68 17.9 199.98 15.89 195.81 15.89C191.64 15.89 187.94 17.9 185.6 20.99" stroke="black" stroke-width="2" stroke-linecap="round" stroke-linejoin="round"/>
</g>
<defs>
<clipPath id="clip0_1_71">
<rect width="897.42" height="76.19" fill="white"/>
</clipPath>
</defs>
</svg>
