<svg width="280" height="36" viewBox="0 0 280 36" fill="none" xmlns="http://www.w3.org/2000/svg">
<g clip-path="url(#clip0_292_798)">
<path d="M241.712 25.22H235.274C233.411 25.0584 233.658 21.7191 235.274 21.7191H241.076C241.78 21.7191 243.398 21.9564 243.398 18.8721C243.398 15.4217 241.808 14.71 240.811 14.71H235.271C234.181 14.6418 233.926 11.8629 235.258 11.7543H241.19C246.273 11.7543 246.417 9.36914 246.455 6.47157C246.498 2.6704 245.839 0.0630921 240.531 0.0630921C236.011 0.0630921 232.984 0.0555201 225.834 0.00503978C222.669 -0.0176764 219.069 2.42557 219.069 7.14043L219.039 14.3061V17.759C219.039 20.8761 219.044 29.1953 219.044 33.3826C219.044 34.2887 219.774 35.417 221.2 35.417H241.195C244.572 35.417 246.503 33.9884 246.503 30.2251C246.493 26.5678 244.968 25.2225 241.715 25.2225" fill="white"/>
<path d="M279.431 23.751C279.431 17.6454 275.905 14.4399 270.834 14.4399H268.979C268.345 14.4399 267.52 14.1472 267.505 13.1426C267.482 11.9336 268.535 11.7392 268.989 11.7544H273.568C277.811 11.7544 279.431 9.72004 279.388 6.64831C279.388 2.24895 276.665 0.0984903 271.654 0.0984903H265.148C256.51 0.055582 251.977 4.00567 251.995 12.5722C251.995 17.2618 254.385 21.8934 261.803 21.8934H264.731C264.731 21.8934 266.283 22.0044 266.235 23.804C266.2 25.0257 264.782 25.2225 264.782 25.2225L258.053 25.2402C253.85 25.2402 251.977 26.588 251.977 30.2579C251.977 32.262 251.957 32.9309 251.957 33.5265C251.957 34.7456 252.813 35.4372 253.895 35.4372C258.928 35.4372 266.329 35.3539 268.144 35.3539C277.286 35.3539 279.431 30.1948 279.431 24.3846V23.7485V23.751Z" fill="white"/>
<path d="M117.748 17.6933C116.259 17.6933 115.113 17.2819 115.115 15.462L115.11 14.4398C115.143 13.5211 115.716 12.1758 117.632 12.1758H120.267C121.685 12.2086 122.602 12.9835 122.662 14.4499L122.685 15.4747C122.685 16.6786 122.243 17.6478 120.499 17.6907H117.748V17.6933ZM122.647 35.427H135.719V12.5241C135.628 4.49267 130.095 0.421435 123.25 0.322998H114.065C105.89 0.418911 101.773 5.98689 101.773 12.9027V17.7564C101.773 24.6747 101.784 32.5446 101.773 35.4295H115.363C115.363 35.4295 115.219 34.2483 115.216 33.0973C115.206 30.7576 115.186 29.0741 115.168 25.6868C115.166 25.0912 115.343 24.4602 115.746 24.127C116.128 23.8191 116.668 23.708 117.425 23.708H120.232C120.232 23.708 121.499 23.6121 122.064 24.1245C122.539 24.551 122.682 24.8918 122.69 25.7651C122.715 29.2129 122.71 30.8712 122.7 33.168C122.7 34.2811 122.645 35.432 122.645 35.432" fill="white"/>
<path d="M208.408 0.371015C203.466 0.371015 191.553 0.466927 186.098 0.466927C183.607 0.466927 181.24 1.35033 181.27 5.22722C181.305 10.0784 181.303 11.7543 181.351 12.5746C181.416 13.7786 182.012 14.4424 183.557 14.4676C183.635 14.4702 188.213 14.4727 188.642 14.4727C190.51 14.4727 190.258 14.4752 191.025 14.4752L191.156 31.1388C191.156 32.6759 191.149 34.4578 191.018 35.4271H204.241C204.241 35.4271 204.077 33.6552 204.077 30.9015L204.047 14.4298C205.172 14.4298 211.788 14.4676 211.788 14.4676C213.514 14.4676 213.496 12.7387 213.496 12.7387C213.496 12.7387 213.514 8.19041 213.514 5.78503C213.514 3.80115 213.143 0.365967 208.411 0.365967" fill="white"/>
<path d="M154.644 35.412C154.644 35.412 154.523 34.5917 154.513 33.0596C154.495 30.6365 154.475 27.4134 154.475 22.012L164.836 35.4246C166.83 35.4069 173.731 35.3993 175.985 35.4246C175.965 32.8905 175.952 5.78002 175.952 5.78002C175.929 1.63054 173.638 0.371052 169.602 0.320571H169.168C165.674 0.371052 163.438 1.48667 163.448 5.95165L163.438 12.2112L157.287 4.7275C154.362 1.11564 152.186 0.368528 149.511 0.318047L149.21 0.290283C144.985 0.368528 142.176 3.18533 142.206 7.93048L142.176 14.3087V17.7615C142.176 24.6092 142.186 32.5623 142.176 35.4195L154.649 35.412H154.644Z" fill="white"/>
<path d="M55.7272 35.4271L55.6944 22.9913C55.6717 18.8418 53.3799 17.5823 49.344 17.5293H45.7119C42.2187 17.5823 39.9824 18.6954 39.9925 23.1629L39.9824 35.4271" fill="white"/>
<path d="M47.8537 0.335693C51.8139 0.335693 55.022 3.59167 55.022 7.61243C55.022 11.6332 51.8114 14.8917 47.8537 14.8917C43.8961 14.8917 40.6855 11.6332 40.6855 7.61243C40.6855 3.59167 43.8936 0.335693 47.8537 0.335693Z" fill="white"/>
<path d="M35.1823 19.4702C35.1823 19.4702 35.2655 18.5641 34.7784 18.082C34.3821 17.6883 33.6906 17.6883 33.6906 17.6883L21.9009 17.6681C21.9009 17.6681 21.3607 17.6075 21.0604 17.8776C20.7247 18.1804 20.7701 18.7383 20.7701 18.7383V20.4117C20.7701 20.4117 20.7348 20.967 21.0982 21.2168C21.4264 21.439 21.9059 21.391 21.9059 21.391H22.5041C22.5041 21.391 23.7081 21.2976 24.2205 22.1987C24.3164 22.3501 24.4198 22.6252 24.435 23.0669C24.44 23.3421 24.435 23.077 24.435 23.2588C24.4224 23.7964 24.0513 25.1997 21.2093 25.1997H19.7706C19.7706 25.1997 15.4268 25.3158 15.4268 21.7368V15.3788C15.5353 14.1824 16.9563 12.1556 19.9498 12.1556H20.861C20.861 12.1556 23.5238 12.095 24.2558 13.6498C24.3567 13.8694 24.4123 13.983 24.6293 14.1774C24.8944 14.4146 25.5027 14.4197 25.5027 14.4197H33.8622C33.8622 14.4197 34.5613 14.455 34.897 14.1496C35.1469 13.9174 35.1595 13.5085 35.1595 13.3444C35.1595 12.9204 35.1545 12.9557 35.1419 12.5039C34.9753 5.9945 27.4815 0.0681152 20.7853 0.0681152H14.3869C6.47662 0.0681152 0 7.0975 0 15.1314V20.7676C0 28.804 6.47662 35.3766 14.3869 35.3766H20.7853C34.521 35.3766 35.1747 24.6672 35.1747 23.2689V21.6838L35.1797 19.4727L35.1823 19.4702Z" fill="white"/>
<path d="M95.8042 19.4701C95.8042 19.4701 95.8874 18.564 95.4003 18.0819C95.004 17.6882 94.3125 17.6882 94.3125 17.6882L82.5228 17.668C82.5228 17.668 81.9826 17.6074 81.6823 17.8775C81.3466 18.1804 81.392 18.7382 81.392 18.7382V20.4116C81.392 20.4116 81.3567 20.9669 81.7201 21.2168C82.0483 21.4389 82.5278 21.3909 82.5278 21.3909H83.126C83.126 21.3909 84.33 21.2975 84.8424 22.1986C85.0039 22.4611 85.0317 22.5999 85.0569 22.7993C85.0619 23.077 85.0569 23.077 85.0569 23.2587C85.0443 23.7963 84.6732 25.1997 81.8312 25.1997H80.3925C80.3925 25.1997 76.0487 25.3158 76.0487 21.7367V15.3787C76.1572 14.1823 77.5782 12.1555 80.5717 12.1555H81.4829C81.4829 12.1555 84.1457 12.095 84.8777 13.6498C84.9787 13.8694 85.0342 13.9829 85.2512 14.1773C85.5163 14.4145 86.1246 14.4196 86.1246 14.4196H94.4841C94.4841 14.4196 95.1832 14.4549 95.5189 14.1495C95.7688 13.9173 95.7814 13.5084 95.7814 13.3444C95.7814 12.9203 95.7764 12.9557 95.7638 12.5039C95.6022 5.98938 88.1084 0.0629883 81.4122 0.0629883H75.0138C67.1011 0.0629883 60.627 7.09489 60.627 15.1288V20.765C60.627 28.8014 67.1036 35.374 75.0138 35.374H81.4122C95.1479 35.374 95.8016 24.6646 95.8016 23.2663V21.6812L95.8067 19.4701H95.8042Z" fill="white"/>
</g>
<defs>
<clipPath id="clip0_292_798">
<rect width="279.431" height="35.4372" fill="white"/>
</clipPath>
</defs>
</svg>
