<svg width="360" height="29" viewBox="0 0 360 29" fill="none" xmlns="http://www.w3.org/2000/svg">
<g clip-path="url(#clip0_2_1430)">
<path d="M346.525 7.13682V5.99874C346.525 5.68282 346.574 5.40496 346.662 5.17278C346.754 4.9406 346.902 4.74267 347.111 4.57519C347.316 4.40772 347.588 4.26688 347.929 4.14508L349.245 3.68072C349.482 3.59317 349.654 3.49041 349.763 3.3686C349.871 3.25061 349.923 3.10597 349.923 2.93469C349.923 2.77863 349.859 2.64161 349.731 2.51981C349.602 2.398 349.41 2.3371 349.157 2.3371C348.924 2.3371 348.724 2.40562 348.551 2.53884C348.379 2.67206 348.286 2.86237 348.262 3.11358H346.63C346.63 2.65302 346.738 2.2762 346.971 1.98312C347.199 1.69004 347.504 1.47308 347.885 1.33605C348.266 1.19903 348.684 1.12671 349.129 1.12671C349.574 1.12671 349.963 1.20283 350.32 1.35509C350.677 1.50734 350.966 1.72049 351.179 1.99454C351.391 2.26859 351.5 2.59593 351.5 2.97656C351.5 3.27725 351.443 3.54369 351.327 3.77588C351.211 4.00806 351.03 4.2174 350.778 4.4001C350.525 4.58281 350.192 4.74647 349.771 4.89492L348.467 5.36309C348.29 5.4278 348.166 5.4887 348.102 5.5496C348.038 5.6105 348.002 5.68662 348.002 5.78559V5.85029H351.48V7.1292H346.525V7.13682Z" fill="#FFFCD7"/>
<path d="M352.001 6.32215C352.001 6.06333 352.093 5.84637 352.274 5.67509C352.454 5.5038 352.695 5.41626 352.988 5.41626C353.281 5.41626 353.521 5.5038 353.714 5.67509C353.906 5.84637 353.999 6.06333 353.999 6.32215C353.999 6.58098 353.902 6.79413 353.714 6.96161C353.521 7.12908 353.281 7.21282 352.988 7.21282C352.695 7.21282 352.458 7.12908 352.274 6.9578C352.089 6.78652 352.001 6.57717 352.001 6.31835V6.32215Z" fill="#FFFCD7"/>
<path d="M357.296 7.27775C356.767 7.27775 356.297 7.16737 355.888 6.9466C355.479 6.72584 355.154 6.38708 354.925 5.93413C354.697 5.48119 354.576 4.90644 354.576 4.20989C354.576 3.51334 354.693 2.92718 354.925 2.47423C355.158 2.02128 355.479 1.68252 355.888 1.46176C356.297 1.241 356.767 1.13062 357.296 1.13062C357.826 1.13062 358.283 1.241 358.688 1.46176C359.093 1.68252 359.414 2.01748 359.647 2.47423C359.88 2.92718 359.996 3.50573 359.996 4.20989C359.996 4.91405 359.88 5.47738 359.647 5.93413C359.414 6.38708 359.093 6.72584 358.688 6.9466C358.283 7.16737 357.818 7.27775 357.296 7.27775ZM357.296 6.00265C357.653 6.00265 357.938 5.85039 358.155 5.5497C358.371 5.249 358.48 4.79986 358.48 4.20989C358.48 3.61992 358.371 3.16697 358.155 2.85866C357.938 2.55036 357.653 2.3981 357.296 2.3981C356.939 2.3981 356.63 2.55036 356.418 2.85866C356.205 3.16697 356.097 3.61611 356.097 4.20989C356.097 4.80367 356.205 5.249 356.418 5.5497C356.63 5.85039 356.923 6.00265 357.296 6.00265Z" fill="#FFFCD7"/>
<path d="M13.6993 14.1288H6.37427V15.2212H13.6953C19.536 15.2212 20.6873 17.8742 20.6873 20.8811V28.2196H14.5577V19.6707H6.37427V28.2196H0V0.898193H11.7216C17.438 0.898193 20.4025 3.16293 20.4025 7.65052C20.4025 10.1474 19.5801 14.1288 13.6993 14.1288ZM14.5617 9.56127V6.12801H6.37427V9.56127H14.5617Z" fill="#FFFCD7"/>
<path d="M23.4031 0.898193H42.1608V6.67612H29.7814V11.5177H39.076V17.2956H29.7814V22.4493H42.1608V28.2272H23.4031V0.898193Z" fill="#FFFCD7"/>
<path d="M97.0782 0.898193H113.16V6.67612H108.347V22.4455H113.16V28.2234H97.0782V22.4455H101.972V6.67231H97.0782V0.898193Z" fill="#FFF600"/>
<path d="M116.165 28.2198V6.52026C116.165 2.77489 118.756 0.27417 122.006 0.27417C124.517 0.27417 127.558 1.79668 128.175 5.54205L131.509 22.6779H132.62L131.878 0.898399H138.252V22.716C138.252 26.9714 135.701 28.8441 132.7 28.8441C129.86 28.8441 127.189 27.1655 126.695 23.8084L123.57 6.01022H122.459L122.543 28.2198H116.169H116.165Z" fill="#FFF600"/>
<path d="M154.788 10.4216V5.34781H148.329V12.5303H157.913V17.84H148.329V28.2235H141.955V9.87347C141.955 3.74537 145.244 0 151.703 0C158.161 0 161.162 3.90143 161.162 10.4216H154.788Z" fill="#FFF600"/>
<path d="M163.136 17.3301V11.7881C163.136 3.98148 166.754 0.27417 173.915 0.27417C181.075 0.27417 184.694 3.98148 184.694 11.7881V17.3301C184.694 25.1367 181.115 28.8441 173.915 28.8441C166.714 28.8441 163.136 25.1367 163.136 17.3301ZM178.315 23.0661V6.04829H169.514V23.0661H178.315Z" fill="#FFF600"/>
<path d="M201.349 14.1288H194.028V15.2212H201.349C207.19 15.2212 208.341 17.8742 208.341 20.8811V28.2196H202.212V19.6707H194.024V28.2196H187.65V0.898193H199.372C205.088 0.898193 208.052 3.16293 208.052 7.65052C208.052 10.1474 207.23 14.1288 201.349 14.1288ZM202.212 9.56127V6.12801H194.024V9.56127H202.212Z" fill="#FFF600"/>
<path d="M219.076 7.92457H217.431V28.2196H211.097V0.898193H223.521L226.277 21.4292H227.677L230.597 0.898193H242.856V28.2196H236.482V7.92457H234.917L232.246 23.458C231.588 27.2452 230.641 28.8439 227.103 28.8439C223.565 28.8439 222.374 27.2452 221.716 23.458L219.084 7.92457H219.076Z" fill="#FFF600"/>
<path d="M250.952 5.30987C251.814 2.18873 254.365 0.27417 257.779 0.27417C261.193 0.27417 263.869 2.18492 264.691 5.30987L270.82 28.2198H264.238L261.771 18.4605H253.792L251.325 28.2198H244.742L250.952 5.30987ZM255.023 13.6989H260.619L258.646 5.97216H257.001L255.027 13.6989H255.023Z" fill="#FFF600"/>
<path d="M294.797 12.6444V16.4697C294.797 24.4704 291.672 28.2158 284.347 28.2158H272.706V0.898193H284.347C291.668 0.898193 294.797 4.64357 294.797 12.6482V12.6444ZM279.084 22.4417H288.423V6.67231H279.084V22.4417Z" fill="#FFF600"/>
<path d="M297.18 17.3301V11.7881C297.18 3.98148 300.798 0.27417 307.959 0.27417C315.119 0.27417 318.738 3.98148 318.738 11.7881V17.3301C318.738 25.1367 315.159 28.8441 307.959 28.8441C300.758 28.8441 297.18 25.1367 297.18 17.3301ZM312.359 23.0661V6.04829H303.558V23.0661H312.359Z" fill="#FFF600"/>
<path d="M320.503 8.46887C320.503 3.27711 323.054 0.898193 327.29 0.898193H340.123V6.67612H326.837V11.2436H334.158C338.763 11.2436 341.314 13.0783 341.314 18.27V20.6109C341.314 27.4393 336.994 29.0037 330.909 29.0037C327.495 29.0037 323.997 28.3795 321.076 26.777V20.3749C324.161 22.1715 327.575 22.9517 330.864 22.9517C332.264 22.9517 333.62 22.7957 334.936 22.5597V16.9797H327.286C323.05 16.9797 320.499 14.4447 320.499 9.21109V8.46887H320.503Z" fill="#FFF600"/>
<path d="M78.1881 0.898193H61.2315C53.1161 0.898193 46.5374 7.14041 46.5374 14.8406C46.5374 22.5407 53.1161 28.783 61.2315 28.783H78.1881C86.3034 28.783 92.8822 22.5407 92.8822 14.8406C92.8822 7.14041 86.3034 0.898193 78.1881 0.898193Z" fill="#FFF600"/>
<path d="M60.8665 23.2487C57.0315 23.2487 53.9105 20.2875 53.9105 16.6487C53.9105 13.0099 57.0315 10.0486 60.8665 10.0486C64.7015 10.0486 67.8224 13.0099 67.8224 16.6487C67.8224 20.2875 64.7015 23.2487 60.8665 23.2487Z" fill="#FFFCD7"/>
<path d="M60.8665 10.4292C64.4809 10.4292 67.4213 13.2192 67.4213 16.6487C67.4213 20.0781 64.4809 22.8681 60.8665 22.8681C57.2521 22.8681 54.3117 20.0781 54.3117 16.6487C54.3117 13.2192 57.2521 10.4292 60.8665 10.4292ZM60.8665 9.66797C56.8028 9.66797 53.5094 12.7929 53.5094 16.6487C53.5094 20.5044 56.8028 23.6294 60.8665 23.6294C64.9301 23.6294 68.2236 20.5044 68.2236 16.6487C68.2236 12.7929 64.9301 9.66797 60.8665 9.66797Z" fill="black"/>
<path d="M78.5492 23.2487C74.7142 23.2487 71.5933 20.2875 71.5933 16.6487C71.5933 13.0099 74.7142 10.0486 78.5492 10.0486C82.3842 10.0486 85.5051 13.0099 85.5051 16.6487C85.5051 20.2875 82.3842 23.2487 78.5492 23.2487Z" fill="#FFFCD7"/>
<path d="M78.5492 10.4292C82.1636 10.4292 85.104 13.2192 85.104 16.6487C85.104 20.0781 82.1636 22.8681 78.5492 22.8681C74.9349 22.8681 71.9944 20.0781 71.9944 16.6487C71.9944 13.2192 74.9349 10.4292 78.5492 10.4292ZM78.5492 9.66797C74.4856 9.66797 71.1921 12.7929 71.1921 16.6487C71.1921 20.5044 74.4856 23.6294 78.5492 23.6294C82.6129 23.6294 85.9063 20.5044 85.9063 16.6487C85.9063 12.7929 82.6129 9.66797 78.5492 9.66797Z" fill="black"/>
<path d="M68.027 16.6143C68.027 14.7371 66.424 13.2153 64.4467 13.2153C62.4694 13.2153 60.8665 14.7371 60.8665 16.6143V16.8161C60.8665 18.6933 62.4694 20.2151 64.4467 20.2151C66.424 20.2151 68.027 18.6933 68.027 16.8161V16.6143Z" fill="black"/>
<path d="M85.429 16.6143C85.429 14.7371 83.826 13.2153 81.8487 13.2153C79.8714 13.2153 78.2684 14.7371 78.2684 16.6143V16.8161C78.2684 18.6933 79.8714 20.2151 81.8487 20.2151C83.826 20.2151 85.429 18.6933 85.429 16.8161V16.6143Z" fill="black"/>
<path d="M64.9622 7.9893C64.0235 6.81316 62.5393 6.0481 60.8665 6.0481C59.1937 6.0481 57.7094 6.81316 56.7708 7.9893" stroke="black" stroke-linecap="round" stroke-linejoin="round"/>
<path d="M82.645 7.9893C81.7063 6.81316 80.222 6.0481 78.5492 6.0481C76.8764 6.0481 75.3922 6.81316 74.4535 7.9893" stroke="black" stroke-linecap="round" stroke-linejoin="round"/>
</g>
<defs>
<clipPath id="clip0_2_1430">
<rect width="360" height="29" fill="white"/>
</clipPath>
</defs>
</svg>
