<svg width="167" height="89" viewBox="0 0 167 89" fill="none" xmlns="http://www.w3.org/2000/svg">
<path d="M63.3011 55.6438C56.685 55.6438 51.8711 50.922 51.8711 44.4303C51.8711 37.9726 56.652 33.2515 63.334 33.2515C68.6726 33.2515 72.9623 36.4647 74.0111 41.3495H69.8196C68.8696 38.6274 66.3139 36.9923 63.3017 36.9923C59.2072 36.9923 56.0303 40.0412 56.0303 44.4332C56.0303 48.86 59.2066 51.9113 63.3017 51.9113C64.7669 51.9683 66.2094 51.5351 67.4014 50.6802C68.5934 49.8253 69.467 48.5973 69.8843 47.1901H74.1093C73.0617 52.3382 68.7708 55.6491 63.3017 55.6491" fill="#FFFCD7"/>
<path d="M91.599 47.3491C91.6013 47.7669 91.568 48.1841 91.4996 48.5963H79.6114C79.742 50.8585 81.6113 52.3647 83.9341 52.3647C84.6588 52.4092 85.3813 52.2481 86.0187 51.9001C86.6561 51.552 87.1825 51.031 87.5374 50.3969H91.369C90.3214 53.6431 87.3733 55.6433 83.6729 55.6433C78.5638 55.6433 75.8457 51.7747 75.8457 47.643C75.8457 43.4794 78.6285 39.6108 83.7706 39.6108C88.4221 39.6108 91.599 42.7905 91.599 47.348M87.8651 46.105C87.6351 43.9405 85.6711 42.761 83.7388 42.761C82.7687 42.7175 81.8168 43.0351 81.0668 43.6526C80.3168 44.27 79.8218 45.1437 79.6773 46.105H87.8651Z" fill="#FFFCD7"/>
<path d="M96.1175 32.6289C96.5613 32.632 96.9941 32.7669 97.3613 33.0163C97.7285 33.2657 98.0135 33.6186 98.1804 34.0302C98.3472 34.4418 98.3884 34.8937 98.2986 35.3288C98.2089 35.7638 97.9923 36.1624 97.6762 36.4742C97.3602 36.786 96.9588 36.997 96.523 37.0804C96.0871 37.1638 95.6363 37.116 95.2276 36.9429C94.8189 36.7699 94.4707 36.4794 94.2269 36.1082C93.9832 35.737 93.8549 35.3018 93.8582 34.8576C93.8501 34.5599 93.9032 34.2637 94.0143 33.9874C94.1253 33.7111 94.292 33.4606 94.5039 33.2516C94.7158 33.0425 94.9684 32.8794 95.246 32.7723C95.5236 32.6651 95.8203 32.6163 96.1175 32.6289ZM94.2182 39.9403H97.9827V55.3168H94.2182V39.9403Z" fill="#FFFCD7"/>
<path d="M105.583 32.7603V41.8741C106.663 40.5304 108.268 39.6118 110.823 39.6118C115.116 39.6118 118.356 42.8904 118.356 47.5786C118.356 52.2344 115.081 55.6454 110.691 55.6454C108.137 55.6454 106.499 54.6945 105.452 53.349L105.058 55.3163H101.818V32.7603H105.583ZM105.583 47.5786C105.562 48.1949 105.665 48.8092 105.887 49.3848C106.108 49.9604 106.442 50.4856 106.87 50.9292C107.298 51.3728 107.811 51.7257 108.378 51.9669C108.945 52.2081 109.555 52.3327 110.171 52.3333C112.889 52.3333 114.689 50.1688 114.689 47.5786C114.689 44.956 112.889 42.9233 110.171 42.9233C109.559 42.91 108.952 43.0217 108.385 43.2517C107.818 43.4818 107.304 43.8252 106.875 44.2611C106.445 44.6969 106.109 45.216 105.887 45.7864C105.665 46.3569 105.561 46.9667 105.583 47.5786Z" fill="#FFFCD7"/>
<path d="M126.151 55.6121C123.236 55.6121 120.452 54.1683 120.452 51.0546C120.452 47.4151 123.531 46.1361 126.838 46.1361H131.096V45.4484C131.096 43.6454 129.589 42.7592 127.92 42.7592C126.544 42.7592 125.07 43.3481 124.808 44.7612H121.205C121.631 41.1541 124.808 39.5796 128.084 39.5796C131.915 39.5796 134.83 41.5468 134.83 45.6115V51.1529C134.83 52.0055 135.223 52.4972 136.041 52.4972C136.13 52.5025 136.219 52.4913 136.304 52.4642V55.4472C135.848 55.5129 135.388 55.546 134.928 55.5461C133.29 55.5461 131.719 55.0215 131.358 53.0872C130.213 54.8902 128.247 55.6121 126.151 55.6121ZM127.232 48.5956C125.725 48.5956 124.35 49.0873 124.35 50.6606C124.35 52.1033 125.594 52.6626 127.002 52.6626C129.393 52.6626 131.03 51.1906 131.096 49.0561V48.5956H127.232Z" fill="#FFFCD7"/>
<path d="M142.461 32.7598H138.694V55.3158H142.461V32.7598Z" fill="#FFFCD7"/>
<path d="M41.954 44.4917C41.954 34.1961 48.1043 29.8264 48.1043 27.2715C48.1043 23.8864 44.3463 24.0736 44.3463 24.0736C32.9621 24.0736 24.5391 33.4612 24.5391 44.494C24.5391 55.7794 32.9598 64.9262 44.8798 64.9262C45.3058 64.941 45.7303 64.8682 46.1271 64.7124C46.5238 64.5565 46.8845 64.3208 47.1867 64.0199C47.4889 63.7189 47.7263 63.3592 47.8841 62.9628C48.0419 62.5664 48.1169 62.1418 48.1043 61.7153C48.1043 59.0474 41.954 54.6118 41.954 44.4893" fill="#FFFCD7"/>
</svg>
