<svg width="144" height="37" viewBox="0 0 144 37" fill="none" xmlns="http://www.w3.org/2000/svg">
<g clip-path="url(#clip0_292_817)">
<path d="M50.9907 22.3385C50.9907 16.3252 50.6898 14.964 48.1345 14.964C45.9852 14.964 45.7177 16.373 45.7177 22.3385C45.7177 28.304 45.9852 29.3978 48.1345 29.3978C50.6563 29.3978 50.9907 28.3996 50.9907 22.3385ZM40.6883 34.2122C38.5199 31.9149 38.1855 28.624 38.1855 22.0901C38.1855 15.5562 38.4769 11.7543 40.8555 9.52383C41.9253 8.54948 43.4251 7.78528 45.9135 7.78528C48.4019 7.78528 49.7727 8.05752 50.9907 8.8074V0H58.4368V35.9795L52.1752 36.0511L51.9602 34.7185C50.3745 35.8744 48.4736 36.1896 45.6126 36.1896C43.4776 36.1896 41.8107 35.4015 40.6883 34.217" fill="white"/>
<path d="M7.45094 0H0V35.8935H7.45094V0Z" fill="white"/>
<path d="M22.3474 23.074L22.3856 26.1881C22.3856 28.6144 22.0131 29.8228 19.7348 29.8228C18.1777 29.8228 17.8434 28.9535 17.8434 26.2836C17.8434 23.8716 18.1252 23.074 22.3474 23.074ZM29.6837 16.4159C29.6837 13.5071 29.2061 11.2289 28.0455 9.97271C26.7845 8.55894 24.3582 7.69922 21.1581 7.69922C17.958 7.69922 13.5209 8.70701 11.9209 9.33747L13.6451 15.1788C15.4123 14.5388 18.4165 13.9083 20.6709 14.214C21.5545 14.3286 22.314 15.1549 22.3617 17.2899H21.9271C13.9173 17.2899 10.6934 19.1049 10.6934 26.8663C10.6934 34.6277 13.3394 36.1895 17.9055 36.1895C20.7665 36.1895 22.2375 35.7406 23.36 34.7328L23.6561 36.0367L29.6551 35.8886L29.6933 16.4111L29.6837 16.4159Z" fill="white"/>
<path d="M136.232 23.074L136.27 26.1881C136.27 28.6144 135.898 29.8228 133.62 29.8228C132.063 29.8228 131.728 28.9535 131.728 26.2836C131.728 23.8716 132.01 23.074 136.232 23.074ZM143.568 16.4159C143.568 13.5071 143.091 11.2289 141.93 9.97271C140.669 8.55894 138.243 7.69922 135.043 7.69922C131.843 7.69922 127.41 8.70701 125.806 9.33747L127.53 15.1788C129.297 14.5388 132.301 13.9083 134.556 14.214C135.439 14.3286 136.199 15.1549 136.247 17.2899H135.812C127.797 17.2899 124.578 19.1049 124.578 26.8663C124.578 34.6277 127.224 36.1895 131.79 36.1895C134.651 36.1895 136.127 35.7406 137.245 34.7328L137.541 36.0367L143.54 35.8886L143.578 16.4111L143.568 16.4159Z" fill="white"/>
<path d="M113.217 35.9651H120.668V8.11962H113.217V35.9651ZM113.217 5.93687H120.668V0H113.217V5.93687Z" fill="white"/>
<path d="M97.1055 8.43483L103.94 8.05273L104.294 9.58113C105.77 8.49692 107.68 8.1005 110.78 8.05273V15.3699C107.145 15.4702 105.325 16.4207 105.325 20.2035V35.9365H97.1055V8.43483Z" fill="white"/>
<path d="M85.8572 23.074L85.8954 26.1881C85.8954 28.6144 85.5228 29.8228 83.2446 29.8228C81.6875 29.8228 81.3484 28.9535 81.3484 26.2836C81.3484 23.8716 81.635 23.074 85.8572 23.074ZM93.1935 16.4159C93.1935 13.5071 92.7159 11.2289 91.5552 9.97271C90.2943 8.55894 87.868 7.69922 84.6679 7.69922C81.4678 7.69922 77.0354 8.70701 75.4306 9.33747L77.1548 15.1788C78.9221 14.5388 81.9263 13.9083 84.1807 14.214C85.0643 14.3286 85.8237 15.1549 85.8715 17.2899H85.4369C77.4271 17.2899 74.2031 19.1049 74.2031 26.8663C74.2031 34.6277 76.8492 36.1895 81.4153 36.1895C84.2762 36.1895 85.7473 35.7406 86.8697 34.7328L87.1659 36.0367L93.1648 35.8886L93.203 16.4111L93.1935 16.4159Z" fill="white"/>
<path d="M62.8418 35.9651H70.2927V8.11962H62.8418V35.9651ZM62.8418 5.93687H70.2927V0H62.8418V5.93687Z" fill="white"/>
</g>
<defs>
<clipPath id="clip0_292_817">
<rect width="143.569" height="36.1944" fill="white"/>
</clipPath>
</defs>
</svg>
