<svg width="198" height="93" viewBox="0 0 198 93" fill="none" xmlns="http://www.w3.org/2000/svg">
<path d="M174.1 2H23.76C11.7423 2 2 11.7423 2 23.76V68.44C2 80.4577 11.7423 90.2 23.76 90.2H174.1C186.118 90.2 195.86 80.4577 195.86 68.44V23.76C195.86 11.7423 186.118 2 174.1 2Z" stroke="#FF6100" stroke-width="4" stroke-miterlimit="10"/>
<path d="M28.4291 43.52H23.4591C16.8391 43.52 15.1791 40.24 16.9691 33.62L17.8591 30.24C19.6491 23.62 23.0291 20.34 29.6491 20.34H34.6191L33.3291 25.24H24.3191L20.7391 38.62H29.7091L28.4191 43.52H28.4291Z" fill="#FF6100"/>
<path d="M32.4696 34.28L33.7296 29.58C35.5196 22.96 39.2596 19.81 45.0196 19.81C50.7796 19.81 52.8696 22.96 51.0796 29.58L49.8196 34.28C48.0296 40.9 44.2896 44.05 38.5296 44.05C32.7696 44.05 30.6796 40.9 32.4696 34.28ZM36.2796 39.14H43.3996L47.2696 24.7H40.1496L36.2796 39.14Z" fill="#FF6100"/>
<path d="M49.6895 43.52L54.6195 25.11C55.4795 21.93 58.1295 19.81 60.7495 19.81C62.7695 19.81 64.8595 21.1 64.4895 24.28L63.2995 38.82H64.1895L68.5295 20.34H73.6995L68.7295 38.85C67.7695 42.46 65.2495 44.05 62.8395 44.05C60.5595 44.05 58.7995 42.63 59.1995 39.78L60.6895 24.68H59.8295L54.8295 43.52H49.6995H49.6895Z" fill="#FF6100"/>
<path d="M75.7898 20.34H93.7698L92.4498 25.24H86.0598L81.1598 43.52H76.0298L80.9298 25.24H74.5098L75.7998 20.34H75.7898Z" fill="#FF6100"/>
<path d="M95.72 20.34H110.79L109.5 25.24H99.53L98.44 29.35H105.89L104.6 34.25H97.12L95.96 38.62H105.89L104.6 43.52H89.5L95.72 20.34Z" fill="#FF6100"/>
<path d="M106.979 43.52L111.909 25.11C112.769 21.93 115.419 19.81 118.039 19.81C120.059 19.81 122.149 21.1 121.779 24.28L120.589 38.82H121.479L125.819 20.34H130.989L126.019 38.85C125.059 42.46 122.539 44.05 120.129 44.05C117.849 44.05 116.089 42.63 116.489 39.78L117.979 24.68H117.119L112.119 43.52H106.989H106.979Z" fill="#FF6100"/>
<path d="M133.608 20.34H146.558L145.238 25.24H141.368L137.758 38.62H141.668L140.348 43.52H127.398L128.718 38.62H132.658L136.238 25.24H132.298L133.618 20.34H133.608Z" fill="#FF6100"/>
<path d="M158.57 20.34C164.5 20.34 166.15 23.52 164.33 30.31L163.47 33.56C161.65 40.35 158.27 43.53 152.38 43.53H143.01L149.2 20.35H158.57V20.34ZM153.05 25.24L149.44 38.62H156.99L160.57 25.24H153.05Z" fill="#FF6100"/>
<path d="M165.198 34.28L166.458 29.58C168.248 22.96 171.988 19.81 177.748 19.81C183.508 19.81 185.598 22.96 183.808 29.58L182.548 34.28C180.758 40.9 177.018 44.05 171.258 44.05C165.498 44.05 163.408 40.9 165.198 34.28ZM169.008 39.14H176.128L179.998 24.7H172.878L169.008 39.14Z" fill="#FF6100"/>
<path d="M68.6395 56.57L69.7995 52.27H64.5995L62.9795 58.36H70.6995L69.4695 62.86H61.7495L59.3995 71.67H54.2695L58.4395 56.11C59.8295 50.91 63.3395 47.73 68.5395 47.73C73.7395 47.73 75.2595 51.04 73.7695 56.57H68.6395Z" fill="#FF6100"/>
<path d="M68.2092 71.66L78.4092 52.22C79.8292 49.57 82.3192 47.95 85.0692 47.95C87.8192 47.95 89.5392 49.57 89.4692 52.22L89.1992 71.66H83.8992L84.1292 63.38H77.7092L73.4992 71.66H68.1992H68.2092ZM83.1392 52.79L79.7592 59.35H84.2592L84.4592 52.79H83.1392Z" fill="#FF6100"/>
<path d="M101.519 48.52L96.619 66.8H105.299L104.009 71.67H95.199C91.989 71.67 90.6289 70.01 91.4889 66.8L96.389 48.52H101.519Z" fill="#FF6100"/>
<path d="M109.629 54.91C110.819 50.51 113.399 48.49 116.849 48.49H127.149L125.859 53.39H115.159L114.129 57.26H120.019C123.699 57.26 125.349 58.82 124.189 63.22L123.629 65.21C122.169 70.77 118.559 72.33 113.369 72.33C110.659 72.33 107.939 71.8 105.949 70.44L107.409 65.01C109.499 66.53 112.049 67.2 114.729 67.2C115.819 67.2 116.949 67.07 118.069 66.87L119.359 62.13H113.169C109.759 62.13 108.269 59.98 109.459 55.54L109.629 54.91Z" fill="#FF6100"/>
<path d="M125.858 62.43L127.118 57.73C128.908 51.11 132.648 47.96 138.408 47.96C144.168 47.96 146.258 51.11 144.468 57.73L143.208 62.43C141.418 69.05 137.678 72.2 131.918 72.2C126.158 72.2 124.068 69.05 125.858 62.43ZM129.668 67.29H136.788L140.658 52.85H133.538L129.668 67.29Z" fill="#FF6100"/>
</svg>
