<svg width="196" height="90" viewBox="0 0 196 90" fill="none" xmlns="http://www.w3.org/2000/svg">
<path d="M103.929 0.0078125L104.116 0.0136719C104.307 0.0200129 104.492 0.0631498 104.668 0.136719L105.043 0.292969C105.099 0.316401 105.144 0.321618 105.182 0.318359L105.557 0.285156C105.713 0.271454 105.871 0.273537 106.027 0.290039L106.402 0.329102C106.486 0.337897 106.569 0.336339 106.653 0.324219L106.841 0.296875L107.028 0.270508C107.207 0.244696 107.386 0.247411 107.563 0.279297L107.751 0.313477L107.938 0.34668C108.036 0.364292 108.134 0.373815 108.23 0.375L108.418 0.376953L108.605 0.379883C108.678 0.38074 108.753 0.37012 108.832 0.34668L109.02 0.291016L109.207 0.234375C109.351 0.191472 109.496 0.157453 109.642 0.132812L109.829 0.101562L110.017 0.0693359C110.186 0.040756 110.356 0.0350744 110.526 0.0527344L110.901 0.0917969C111.006 0.102742 111.112 0.108106 111.217 0.106445L111.404 0.102539L111.592 0.0996094C111.736 0.0972985 111.881 0.103854 112.024 0.118164L112.399 0.155273C112.565 0.171749 112.728 0.208578 112.888 0.263672L113.075 0.328125L113.263 0.393555C113.298 0.405752 113.325 0.405427 113.353 0.398438L113.54 0.351562L113.728 0.303711C113.915 0.25639 114.107 0.2461 114.298 0.274414L114.485 0.302734L114.673 0.330078C114.815 0.351226 114.958 0.379775 115.1 0.416016L115.287 0.464844L115.474 0.512695C115.548 0.531841 115.621 0.538 115.69 0.533203L115.878 0.520508L116.065 0.506836C116.182 0.498768 116.299 0.488515 116.416 0.474609L116.791 0.429688C116.87 0.420191 116.954 0.398756 117.041 0.364258L117.229 0.291016L117.416 0.216797C117.587 0.149357 117.765 0.108146 117.946 0.0976562L118.321 0.0761719C118.51 0.0653542 118.696 0.0902441 118.876 0.147461L119.063 0.207031L119.252 0.266602C119.367 0.303326 119.483 0.337073 119.598 0.366211L119.785 0.413086L119.973 0.460938C120.049 0.480329 120.123 0.486689 120.195 0.482422L120.383 0.47168L120.57 0.459961C120.648 0.455264 120.73 0.439709 120.814 0.411133L121.189 0.28418C121.389 0.216756 121.598 0.198312 121.808 0.233398L122.183 0.295898C122.329 0.32039 122.474 0.355184 122.618 0.398438L122.806 0.454102L122.993 0.510742C123.028 0.521244 123.058 0.520917 123.091 0.511719L123.466 0.408203C123.621 0.365092 123.778 0.336329 123.937 0.324219L124.124 0.310547L124.312 0.295898C124.493 0.28207 124.674 0.298866 124.851 0.344727L125.226 0.442383C125.307 0.46346 125.385 0.472642 125.462 0.470703L125.837 0.460938C125.962 0.457703 126.088 0.454101 126.213 0.451172L126.4 0.447266L126.588 0.442383C126.683 0.440161 126.779 0.429619 126.876 0.410156L127.063 0.37207L127.251 0.334961C127.455 0.293845 127.661 0.302187 127.86 0.358398L128.048 0.411133L128.235 0.464844C128.294 0.481404 128.348 0.484396 128.401 0.476562L128.776 0.419922C128.927 0.397491 129.079 0.387021 129.23 0.388672L129.418 0.390625L129.605 0.393555C129.742 0.395065 129.879 0.400906 130.016 0.412109L130.391 0.443359C130.433 0.446823 130.481 0.441096 130.539 0.417969L130.914 0.267578C131.158 0.170327 131.415 0.169964 131.659 0.266602L131.847 0.34082L132.034 0.416016C132.038 0.417639 132.041 0.418555 132.043 0.418945C132.044 0.418752 132.047 0.417471 132.051 0.416016L132.426 0.277344C132.646 0.195321 132.879 0.182679 133.108 0.246094L133.483 0.349609C133.598 0.381447 133.714 0.409326 133.828 0.433594L134.203 0.513672C134.27 0.52777 134.335 0.529373 134.399 0.519531L134.587 0.490234L134.774 0.461914C134.948 0.435385 135.123 0.434668 135.297 0.459961L135.672 0.514648C135.761 0.527649 135.85 0.530858 135.938 0.524414L136.313 0.49707C136.403 0.490501 136.495 0.473831 136.588 0.447266L136.775 0.394531L136.963 0.34082C137.204 0.272132 137.447 0.292128 137.672 0.388672L137.859 0.469727L138.009 0.53418L138.17 0.445312L138.357 0.34082C138.545 0.237205 138.751 0.174727 138.971 0.172852L139.158 0.171875L139.346 0.169922C139.507 0.168604 139.667 0.184957 139.826 0.217773L140.014 0.256836L140.201 0.294922C140.235 0.301957 140.269 0.300832 140.312 0.286133L140.5 0.222656L140.688 0.158203C140.908 0.0826014 141.139 0.076217 141.364 0.141602L141.552 0.195312L141.739 0.25C141.778 0.261307 141.812 0.261508 141.849 0.251953L142.224 0.154297C142.449 0.0954343 142.678 0.108313 142.895 0.186523L143.27 0.321289C143.382 0.361809 143.494 0.39763 143.605 0.427734L143.98 0.529297H143.983C143.984 0.529285 143.986 0.5292 143.989 0.52832C143.993 0.527297 143.998 0.525097 144.006 0.521484L144.193 0.430664L144.381 0.338867C144.543 0.259869 144.713 0.202761 144.888 0.171875L145.075 0.139648L145.263 0.106445C145.416 0.0794156 145.57 0.0656182 145.725 0.0654297L145.912 0.0644531H146.1C146.234 0.0643148 146.369 0.0686196 146.503 0.0761719L146.69 0.0859375L146.878 0.0966797C147.022 0.104767 147.166 0.121291 147.309 0.145508L147.496 0.177734L147.684 0.208984C147.779 0.225064 147.873 0.232821 147.967 0.231445L148.342 0.225586C148.454 0.223876 148.567 0.21728 148.68 0.207031L148.867 0.19043L149.055 0.172852C149.187 0.160746 149.32 0.152213 149.453 0.146484L149.641 0.137695L149.828 0.129883C150.002 0.122392 150.175 0.140757 150.345 0.182617L150.532 0.228516L150.72 0.275391C150.745 0.281647 150.77 0.281126 150.805 0.268555L150.992 0.201172L151.18 0.132812C151.393 0.0556905 151.617 0.0401489 151.84 0.0927734L152.027 0.136719L152.215 0.181641C152.354 0.214542 152.494 0.253282 152.632 0.298828L152.819 0.361328L153.007 0.422852C153.026 0.429152 153.038 0.429174 153.06 0.421875L153.435 0.291016C153.6 0.2331 153.771 0.197073 153.944 0.186523L154.132 0.175781L154.319 0.164062C154.514 0.152309 154.705 0.180618 154.889 0.244141L155.076 0.30957L155.264 0.374023C155.329 0.396753 155.388 0.404718 155.443 0.401367L155.631 0.388672L155.818 0.376953C155.904 0.371606 155.992 0.356907 156.082 0.330078L156.27 0.273438L156.457 0.217773L156.554 0.193359C156.78 0.149699 157.003 0.189212 157.204 0.292969L157.392 0.390625L157.579 0.487305C157.643 0.520217 157.692 0.52898 157.729 0.529297L157.916 0.530273L158.104 0.532227C158.153 0.53255 158.21 0.521856 158.277 0.493164L158.465 0.413086L158.652 0.332031C158.815 0.262346 158.983 0.213946 159.154 0.189453L159.342 0.163086L159.529 0.135742C159.72 0.108587 159.911 0.119701 160.098 0.166992L160.473 0.262695C160.533 0.278097 160.591 0.280291 160.647 0.271484L161.022 0.212891C161.134 0.195407 161.247 0.173082 161.359 0.146484L161.547 0.102539L161.734 0.0576172C161.904 0.0175555 162.076 0.00147776 162.249 0.00976562L162.624 0.0273438C162.803 0.0359783 162.979 0.0740563 163.148 0.136719L163.523 0.275391C163.636 0.317003 163.749 0.353254 163.86 0.384766L164.048 0.4375L164.235 0.491211C164.27 0.501056 164.301 0.500288 164.336 0.490234L164.523 0.436523L164.711 0.381836C164.935 0.317252 165.165 0.324434 165.385 0.398438L165.572 0.460938L165.76 0.524414C165.769 0.527486 165.774 0.528251 165.776 0.52832C165.778 0.528286 165.785 0.527223 165.798 0.522461L165.985 0.451172L166.173 0.380859C166.339 0.317723 166.511 0.277162 166.687 0.263672L166.874 0.25L167.062 0.235352C167.278 0.218787 167.487 0.260964 167.681 0.348633L168.056 0.518555C168.125 0.549898 168.184 0.561318 168.235 0.5625L168.423 0.567383L168.61 0.571289C168.686 0.572907 168.763 0.562816 168.844 0.541016L169.219 0.439453C169.348 0.404274 169.478 0.371048 169.607 0.339844L169.795 0.294922L169.982 0.249023C170.204 0.195578 170.429 0.210093 170.642 0.285156L170.829 0.350586L171.014 0.416992C171.015 0.416483 171.017 0.415151 171.02 0.414062L171.395 0.246094C171.669 0.122877 171.959 0.142186 172.215 0.282227L172.402 0.384766L172.563 0.472656L172.716 0.407227L172.903 0.325195C173.097 0.241444 173.305 0.202335 173.519 0.219727L173.894 0.250977C173.999 0.259617 174.106 0.262169 174.214 0.258789L174.593 0.24707C174.826 0.23975 175.044 0.304678 175.236 0.422852L175.59 0.639648C175.619 0.657359 175.631 0.656124 175.638 0.655273L176.021 0.610352C176.19 0.590527 176.36 0.592614 176.527 0.617188L176.898 0.671875C177.05 0.69409 177.199 0.729069 177.345 0.776367L177.524 0.833984L177.703 0.892578C177.75 0.907636 177.803 0.913742 177.869 0.90625L178.068 0.882812L178.268 0.860352C178.443 0.840135 178.618 0.842681 178.791 0.870117L179.168 0.930664C179.315 0.95406 179.46 0.987105 179.603 1.0293L179.785 1.08301L179.967 1.13672C180.172 1.19748 180.351 1.30779 180.503 1.4541L180.651 1.59766L180.797 1.7373L180.999 1.7334L181.204 1.72754C181.493 1.71981 181.733 1.84597 181.898 2.04883L181.966 2.14062L182.087 2.33008L182.209 2.51953C182.248 2.58061 182.277 2.59525 182.284 2.59863L182.453 2.67383L182.623 2.75C182.656 2.76448 182.707 2.77743 182.787 2.77441L183.004 2.76562L183.22 2.75781L183.339 2.76074C183.458 2.77201 183.58 2.80907 183.693 2.88086C183.806 2.95197 183.89 3.04456 183.951 3.14355L184.006 3.24316L184.103 3.4502L184.2 3.6582C184.215 3.689 184.227 3.70459 184.232 3.71094C184.234 3.71282 184.236 3.71417 184.236 3.71484L184.402 3.79785L184.568 3.88184C184.685 3.94036 184.801 4.00147 184.915 4.06445L185.241 4.24414C185.336 4.29647 185.436 4.34579 185.539 4.39062L185.714 4.4668L185.89 4.54297C186.067 4.62018 186.224 4.73019 186.357 4.87012L186.488 5.00684L186.618 5.14355C186.68 5.20807 186.747 5.26496 186.82 5.31348L186.977 5.41699L187.134 5.52148C187.251 5.59951 187.365 5.68271 187.475 5.77148L187.766 6.00781C187.924 6.13644 188.047 6.29667 188.134 6.47949L188.22 6.66016L188.283 6.79395L188.482 6.83496L188.703 6.87988C188.851 6.90981 189.004 6.97621 189.131 7.10059C189.227 7.19473 189.29 7.30486 189.328 7.41797L189.359 7.53125L189.445 7.96094C189.451 7.98688 189.456 7.99896 189.458 8.00195L189.459 8.00293L189.606 8.12109L189.754 8.24023C189.854 8.32082 189.955 8.40245 190.056 8.48535L190.351 8.72949C190.511 8.86243 190.634 9.02792 190.715 9.21973L190.865 9.5752C190.869 9.58376 190.875 9.59713 190.908 9.61621L191.09 9.71973L191.271 9.82227C191.405 9.89869 191.523 10.0112 191.602 10.1621C191.678 10.3101 191.701 10.4658 191.695 10.6094L191.686 10.8389L191.677 11.04L191.79 11.1299L191.946 11.2539C192.071 11.3526 192.187 11.4603 192.293 11.5762L192.424 11.7188L192.555 11.8623C192.72 12.0435 192.811 12.2642 192.831 12.5039L192.864 12.9082C192.871 12.9853 192.888 13.0467 192.913 13.0967L193.079 13.4307C193.121 13.5157 193.172 13.5993 193.231 13.6807L193.458 13.9912C193.576 14.1529 193.657 14.3345 193.696 14.5312L193.733 14.7178L193.771 14.9053C193.79 15.0021 193.816 15.0951 193.851 15.1846L193.918 15.3604L193.985 15.5352C194.049 15.7007 194.085 15.8733 194.096 16.0508L194.107 16.2422L194.118 16.4336C194.119 16.4454 194.121 16.462 194.146 16.4922L194.28 16.6504L194.413 16.8096C194.561 16.986 194.656 17.1962 194.678 17.4326L194.713 17.8115C194.724 17.9329 194.737 18.0534 194.752 18.1729L194.774 18.3604L194.797 18.5469C194.808 18.6356 194.828 18.7239 194.858 18.8115L194.983 19.1729C195.05 19.3667 195.071 19.5684 195.045 19.7715L194.996 20.1562C194.983 20.2627 194.976 20.3667 194.978 20.4678L194.979 20.6553L194.982 20.8418C194.983 20.9323 194.993 21.0233 195.013 21.1143L195.053 21.2998L195.094 21.4844C195.129 21.6455 195.145 21.8092 195.142 21.9736L195.138 22.1621L195.134 22.3496C195.132 22.4249 195.142 22.502 195.164 22.582L195.216 22.7695L195.269 22.957C195.33 23.1781 195.323 23.404 195.252 23.6211L195.191 23.8086L195.13 23.9961C195.122 24.0211 195.122 24.0389 195.13 24.0635L195.189 24.251L195.25 24.4385C195.302 24.6001 195.334 24.7654 195.345 24.9326L195.37 25.3076C195.381 25.4743 195.372 25.6407 195.342 25.8057L195.307 25.9932L195.272 26.1807C195.247 26.3174 195.218 26.4546 195.183 26.5908L195.134 26.7783L195.086 26.9658C195.054 27.0898 195.022 27.2139 194.99 27.3379L194.943 27.5254L194.901 27.6895C194.902 27.6908 194.903 27.6927 194.904 27.6943L195.026 27.8818L195.147 28.0693C195.307 28.316 195.355 28.6134 195.233 28.9072L195.155 29.0947L195.078 29.2822C195.035 29.3874 194.999 29.4915 194.972 29.5938L194.922 29.7812L194.883 29.9287L195.014 30.1133L195.147 30.3008C195.238 30.4278 195.306 30.5886 195.307 30.7754C195.307 30.9626 195.24 31.1248 195.15 31.2529L195.02 31.4404L194.945 31.5449L195.004 31.6396L195.12 31.8271C195.267 32.0643 195.317 32.3465 195.218 32.6309L195.087 33.0059C195.061 33.0809 195.049 33.1503 195.049 33.2158V33.5908C195.049 33.6752 195.059 33.761 195.08 33.8486L195.17 34.2236C195.213 34.4031 195.226 34.5862 195.206 34.7695L195.187 34.957L195.166 35.1445C195.149 35.3029 195.116 35.4597 195.067 35.6143L194.95 35.9893C194.949 35.9922 194.949 35.9944 194.949 35.9951C194.949 35.9955 194.949 35.9966 194.949 35.998C194.95 36.0006 194.952 36.0056 194.955 36.0127L195.121 36.3877C195.239 36.6533 195.228 36.9352 195.1 37.1904L195.006 37.3779L194.911 37.5654C194.89 37.6066 194.892 37.6263 194.894 37.6367L194.924 37.8242L194.953 38.0117C194.97 38.1146 194.993 38.2185 195.024 38.3232L195.136 38.6982C195.211 38.9512 195.182 39.2054 195.07 39.4346L194.889 39.8096C194.86 39.8684 194.853 39.9118 194.854 39.9453L194.87 40.3203C194.875 40.4438 194.881 40.5679 194.887 40.6914L194.896 40.8789L194.905 41.0664C194.913 41.2139 194.91 41.3615 194.897 41.5088L194.864 41.8838C194.857 41.9677 194.861 42.0518 194.874 42.1367L194.903 42.3242L194.934 42.5117C194.947 42.5944 194.972 42.6818 195.01 42.7725L195.088 42.96L195.167 43.1475C195.25 43.3462 195.284 43.5585 195.258 43.7764L195.235 43.9639L195.212 44.1514C195.192 44.3129 195.155 44.4724 195.101 44.6289L195.035 44.8164L194.971 45.0039C194.952 45.0584 194.948 45.105 194.954 45.1484L195.005 45.5234C195.03 45.7106 195.02 45.8983 194.977 46.082L194.932 46.2695L194.896 46.416L195.178 46.791C195.347 47.0165 195.434 47.3061 195.337 47.6152L195.277 47.8027L195.219 47.9902C195.18 48.1122 195.143 48.2345 195.107 48.3564L195.052 48.5439L195.003 48.709L195.116 48.8965L195.229 49.084C195.367 49.316 195.417 49.588 195.33 49.8652L195.271 50.0527L195.212 50.2402C195.186 50.3217 195.174 50.3998 195.173 50.4746L195.17 50.6621L195.166 50.8496C195.165 50.9253 195.174 51.0032 195.196 51.084L195.3 51.459C195.37 51.7166 195.332 51.9713 195.214 52.1973L195.019 52.5723C195.009 52.5899 195.008 52.5985 195.008 52.5986V52.5996L195.098 52.9746C195.138 53.145 195.155 53.3181 195.146 53.4922L195.135 53.6797L195.125 53.8672C195.117 54.0261 195.092 54.1839 195.052 54.3398L195.004 54.5273L194.961 54.6885C194.962 54.6897 194.963 54.691 194.964 54.6924L195.087 54.8799L195.209 55.0674C195.365 55.3055 195.422 55.5941 195.315 55.8867L195.247 56.0742L195.18 56.2617C195.141 56.3685 195.108 56.4743 195.084 56.5791L195.041 56.7666L194.997 56.9541C194.991 56.982 194.991 57.0094 195.004 57.0469L195.139 57.4219C195.219 57.6459 195.226 57.881 195.156 58.1104L195.1 58.2979L195.047 58.4697C195.047 58.4707 195.048 58.4716 195.049 58.4727L195.258 58.8477C195.378 59.0643 195.428 59.3115 195.374 59.5684L195.296 59.9434C195.266 60.0859 195.228 60.228 195.183 60.3691L195.062 60.7441C195.03 60.8412 195.008 60.9368 194.996 61.0303L194.947 61.4053C194.937 61.4826 194.938 61.5598 194.95 61.6377L195.009 62.0127C195.025 62.119 195.049 62.2264 195.078 62.334L195.18 62.709C195.217 62.8445 195.25 62.9802 195.277 63.1162L195.314 63.3037L195.353 63.4912C195.409 63.7699 195.334 64.0288 195.19 64.2432L195.065 64.4307L194.939 64.6182C194.896 64.6834 194.889 64.724 194.888 64.7432L194.877 64.9307L194.867 65.1182C194.865 65.1623 194.871 65.2131 194.896 65.2744L195.053 65.6494C195.133 65.8422 195.168 66.0471 195.15 66.2578L195.134 66.4453L195.118 66.6328C195.105 66.784 195.08 66.9349 195.044 67.084L194.998 67.2715L194.953 67.458C194.949 67.4759 194.947 67.4959 194.961 67.5312L195.111 67.9102C195.176 68.0743 195.221 68.2431 195.241 68.416L195.264 68.6074L195.286 68.7979C195.317 69.0606 195.243 69.3044 195.101 69.5098L194.979 69.6855L194.89 69.8115L194.953 69.9609L195.038 70.1621C195.161 70.4519 195.132 70.7634 194.939 71.0244L194.689 71.3643C194.623 71.4538 194.571 71.5403 194.532 71.623L194.37 71.9688C194.366 71.978 194.36 71.9923 194.368 72.0293L194.41 72.2305L194.452 72.4326C194.499 72.6593 194.482 72.8912 194.387 73.1104L194.234 73.458C194.183 73.5753 194.131 73.6927 194.079 73.8086L194.002 73.9795L193.925 74.1514C193.903 74.2006 193.89 74.2569 193.889 74.3242L193.886 74.5215L193.882 74.7197C193.878 74.9607 193.798 75.1849 193.647 75.374L193.525 75.5273L193.402 75.6807V75.7002L193.417 75.9121L193.431 76.124C193.447 76.367 193.39 76.6064 193.242 76.8145L193.131 76.9707L193.021 77.1279C192.934 77.2499 192.839 77.3667 192.737 77.4775L192.605 77.6201L192.474 77.7637C192.413 77.8294 192.365 77.8983 192.326 77.9697L192.237 78.1348L192.149 78.2998C192.121 78.3522 192.099 78.4174 192.088 78.5L192.06 78.7041L192.032 78.9082C191.994 79.187 191.847 79.4214 191.611 79.5762L191.439 79.6885L191.269 79.8018C191.228 79.8283 191.211 79.852 191.2 79.875L191.044 80.2246C190.992 80.3418 190.938 80.4606 190.885 80.5791L190.804 80.7559L190.724 80.9336C190.603 81.1999 190.382 81.3669 190.128 81.4482L189.914 81.5166L189.75 81.5684L189.715 81.709L189.662 81.9121C189.58 82.2294 189.352 82.447 189.048 82.5312L188.837 82.5898L188.722 82.6211L188.699 82.7627L188.661 82.9912C188.637 83.1341 188.583 83.2846 188.475 83.415C188.364 83.5479 188.222 83.6321 188.072 83.6768L187.871 83.7363L187.67 83.7969C187.61 83.8148 187.579 83.8373 187.56 83.8574L187.302 84.1309C187.199 84.2392 187.089 84.3403 186.973 84.4326L186.825 84.5488L186.679 84.665C186.63 84.7033 186.584 84.7541 186.541 84.8232L186.436 84.9961L186.329 85.1689C186.177 85.4166 185.937 85.564 185.657 85.6035L185.448 85.6338L185.239 85.6631C185.164 85.6737 185.115 85.6944 185.081 85.7168L184.926 85.8203L184.77 85.9229C184.681 85.9814 184.595 86.0461 184.512 86.1152L184.365 86.2354L184.22 86.3564C184.072 86.4788 183.904 86.5693 183.721 86.626L183.538 86.6826L183.355 86.7383C183.296 86.7568 183.242 86.7854 183.193 86.8252L183.046 86.9463L182.897 87.0674C182.718 87.2137 182.508 87.2969 182.28 87.3174L182.083 87.335L181.943 87.3467L181.838 87.5283L181.72 87.7305C181.646 87.8561 181.539 87.9778 181.388 88.0605C181.233 88.145 181.067 88.1701 180.91 88.1543L180.699 88.1328L180.489 88.1123H180.46C180.459 88.1126 180.458 88.1134 180.457 88.1143L180.297 88.2266L180.138 88.3389C180.017 88.4239 179.891 88.5023 179.763 88.5732L179.593 88.667L179.424 88.7598C179.214 88.8756 178.982 88.9156 178.749 88.8867L178.547 88.8613L178.345 88.8369C178.284 88.8294 178.238 88.8358 178.201 88.8496L178.024 88.916L177.847 88.9824C177.682 89.0438 177.511 89.0802 177.336 89.0908L177.146 89.1025L176.957 89.1133C176.819 89.1216 176.68 89.1252 176.541 89.123L176.162 89.1172C176.125 89.1167 176.085 89.1243 176.038 89.1494L175.86 89.2441L175.684 89.3389C175.479 89.4476 175.253 89.4928 175.02 89.4639L174.828 89.4404L174.638 89.416C174.54 89.4039 174.443 89.401 174.35 89.4062L174.163 89.417L173.976 89.4268C173.896 89.4312 173.814 89.4468 173.729 89.4746L173.542 89.5352L173.354 89.5967C173.2 89.647 173.042 89.6815 172.883 89.7002L172.695 89.7227L172.507 89.7441C172.318 89.7661 172.13 89.7523 171.946 89.7041L171.759 89.6553L171.571 89.6055C171.455 89.575 171.339 89.5481 171.224 89.5244L171.036 89.4863L170.849 89.4473C170.753 89.4278 170.658 89.4177 170.564 89.416L170.377 89.4121L170.189 89.4092C170.031 89.4063 169.873 89.3876 169.717 89.3535L169.529 89.3125L169.365 89.2764C169.363 89.278 169.359 89.2807 169.355 89.2832L168.98 89.5391C168.851 89.6274 168.689 89.6916 168.503 89.6885C168.318 89.6852 168.158 89.6165 168.032 89.5264L167.845 89.3916L167.657 89.2578C167.63 89.2382 167.612 89.2308 167.605 89.2285L167.604 89.2275L167.417 89.2383L167.229 89.25C167.192 89.2524 167.14 89.2648 167.072 89.3037L166.697 89.5186C166.442 89.6644 166.148 89.6893 165.869 89.5645L165.494 89.3965C165.418 89.3625 165.349 89.3461 165.288 89.3418L165.101 89.3291L164.913 89.3154C164.867 89.3123 164.816 89.3191 164.755 89.3428L164.38 89.4893C164.166 89.5727 163.938 89.5922 163.71 89.5391L163.522 89.4961L163.335 89.4521C163.23 89.4277 163.125 89.4102 163.021 89.3994L162.646 89.3604C162.635 89.3592 162.611 89.3589 162.563 89.3848L162.376 89.4863L162.188 89.5889C161.965 89.7106 161.711 89.7556 161.45 89.6895L161.263 89.6416L161.075 89.5947C160.969 89.5678 160.863 89.5471 160.758 89.5332L160.57 89.5078L160.383 89.4834C160.229 89.4631 160.076 89.4292 159.926 89.3828L159.551 89.2676C159.493 89.2499 159.442 89.2461 159.392 89.2529L159.017 89.3037C158.873 89.3233 158.729 89.3355 158.585 89.3389L158.397 89.3428L158.21 89.3477C158.054 89.3513 157.898 89.3405 157.743 89.3154L157.556 89.2842L157.368 89.2539C157.311 89.2448 157.255 89.2467 157.194 89.2617L156.257 89.4961L156.069 89.542C155.901 89.5838 155.73 89.6033 155.558 89.5977L155.37 89.5908L155.183 89.585C154.979 89.5782 154.785 89.5246 154.604 89.4355L154.416 89.3438L154.309 89.291L154.178 89.3857L153.99 89.5205C153.797 89.6596 153.565 89.7515 153.306 89.7422L153.118 89.7354L152.931 89.7295C152.805 89.725 152.678 89.7193 152.552 89.7139L152.177 89.6982C151.959 89.6888 151.756 89.6205 151.572 89.5137L151.385 89.4053L151.257 89.3301L151.132 89.4014L150.944 89.5068C150.719 89.6337 150.459 89.6808 150.193 89.6094L150.006 89.5586L149.818 89.5088C149.799 89.5036 149.781 89.5024 149.751 89.5137L149.376 89.6562C149.196 89.7247 149.007 89.7597 148.813 89.7559L148.438 89.748C148.276 89.7448 148.115 89.7241 147.956 89.6855L147.581 89.5938C147.534 89.5825 147.49 89.5832 147.443 89.5947L147.068 89.6865C146.782 89.7568 146.514 89.6837 146.294 89.5352L146.106 89.4082L145.986 89.3271L145.881 89.3877L145.693 89.4932C145.506 89.5985 145.298 89.6625 145.077 89.6641L144.89 89.665L144.702 89.667C144.507 89.6683 144.318 89.629 144.138 89.5566L143.763 89.4062C143.674 89.3708 143.589 89.3485 143.509 89.3379L143.134 89.2891C143.036 89.2763 142.938 89.2718 142.842 89.2754L142.467 89.2891C142.419 89.291 142.361 89.3033 142.292 89.3369L142.104 89.4287L141.917 89.5195C141.715 89.6176 141.494 89.6625 141.264 89.6348L140.889 89.5898C140.792 89.5782 140.695 89.5752 140.599 89.5801L140.411 89.5889L140.224 89.5986C140.014 89.6091 139.812 89.5669 139.622 89.4834L139.435 89.4014L139.295 89.3389L139.142 89.4307L138.954 89.543C138.827 89.6185 138.676 89.6684 138.51 89.668C138.343 89.6674 138.193 89.6161 138.066 89.54L137.879 89.4277L137.712 89.3271L137.563 89.3838L137.376 89.4551C137.119 89.5526 136.851 89.5365 136.608 89.4209L136.421 89.332L136.256 89.2529L136.094 89.3281L135.906 89.4131C135.761 89.4791 135.614 89.535 135.466 89.5791L135.091 89.6904C134.918 89.7416 134.741 89.7667 134.562 89.7627L134.375 89.7578L134.188 89.7539C134.04 89.7506 133.893 89.737 133.746 89.7139L133.371 89.6553C133.183 89.6255 133.002 89.5604 132.833 89.4678L132.646 89.3643L132.462 89.2637L132.294 89.3203L132.106 89.3828C131.9 89.4516 131.684 89.4659 131.469 89.4199L131.094 89.3398C131.071 89.3351 131.047 89.3345 131.009 89.3496L130.634 89.5C130.365 89.607 130.087 89.5835 129.84 89.4531L129.465 89.2559C129.456 89.2512 129.449 89.2484 129.445 89.2471C129.442 89.2459 129.44 89.2451 129.439 89.2451L129.253 89.29L129.065 89.335C128.909 89.3723 128.751 89.3947 128.592 89.4004L128.217 89.4141C128.071 89.4192 127.925 89.415 127.78 89.4023L127.593 89.3857L127.405 89.3701C127.279 89.3591 127.152 89.3472 127.025 89.335L126.838 89.3164L126.65 89.2988C126.521 89.2863 126.392 89.2717 126.263 89.2559L126.075 89.2324L125.888 89.21C125.8 89.1993 125.713 89.1988 125.626 89.208L125.251 89.2471C125.202 89.2523 125.141 89.2695 125.067 89.3105L124.88 89.416L124.692 89.5205C124.506 89.6242 124.301 89.6874 124.083 89.6914L123.896 89.6943L123.708 89.6982C123.593 89.7003 123.477 89.7059 123.362 89.7148L122.987 89.7441C122.856 89.7544 122.724 89.7619 122.592 89.7666L122.217 89.7803C122.058 89.7859 121.899 89.775 121.742 89.749L121.555 89.7178L121.367 89.6875C121.242 89.6667 121.116 89.6451 120.99 89.624L120.803 89.5928L120.615 89.5605C120.529 89.5461 120.444 89.5427 120.359 89.5488L119.984 89.5762C119.791 89.5901 119.599 89.5634 119.415 89.502L119.04 89.377C118.95 89.347 118.863 89.3291 118.778 89.3213L118.591 89.3037L118.403 89.2871C118.319 89.2794 118.233 89.2812 118.147 89.2939L117.96 89.3223L117.772 89.3496C117.63 89.3708 117.487 89.3849 117.344 89.3906L117.156 89.3975L116.969 89.4053C116.92 89.4073 116.862 89.4202 116.792 89.4541L116.604 89.5449L116.417 89.6367C116.274 89.7061 116.111 89.7387 115.939 89.7139C115.772 89.6895 115.63 89.6157 115.517 89.5273L115.142 89.2363C115.113 89.2137 115.094 89.2056 115.088 89.2031C115.083 89.2015 115.086 89.2024 115.093 89.2021L114.905 89.21L114.718 89.2168C114.713 89.217 114.682 89.2191 114.62 89.2646L114.245 89.542C114.124 89.6313 113.971 89.7027 113.792 89.7139C113.61 89.725 113.447 89.6714 113.312 89.5889L113.125 89.4736L112.938 89.3594C112.913 89.3442 112.896 89.3386 112.89 89.3369C112.884 89.3356 112.881 89.3358 112.88 89.3359L112.505 89.3789C112.367 89.3946 112.227 89.4049 112.089 89.4092L111.714 89.4209C111.563 89.4255 111.413 89.4179 111.263 89.3994L111.075 89.376L110.888 89.3535C110.849 89.3488 110.805 89.3527 110.751 89.373L110.376 89.5156C110.199 89.5828 110.015 89.6192 109.826 89.6201L109.451 89.6221C109.316 89.6227 109.181 89.6198 109.046 89.6123L108.671 89.5908C108.53 89.5829 108.389 89.5684 108.248 89.5469L108.061 89.5176L107.873 89.4893C107.816 89.4806 107.758 89.4835 107.697 89.499L107.51 89.5469L107.322 89.5938C107.161 89.6349 106.995 89.6579 106.83 89.6602L106.643 89.6621L106.455 89.665C106.347 89.6665 106.238 89.6734 106.129 89.6855L105.941 89.7061L105.754 89.7275C105.51 89.7547 105.28 89.6951 105.077 89.5801L104.89 89.4736L104.702 89.3682C104.65 89.3384 104.62 89.337 104.606 89.3379L104.419 89.3496L104.231 89.3623C104.164 89.3668 104.09 89.383 104.011 89.415L103.823 89.4912L103.636 89.5664C103.398 89.6626 103.144 89.6691 102.901 89.5801L102.714 89.5107L102.526 89.4424C102.439 89.4102 102.354 89.3909 102.273 89.3828L101.898 89.3457C101.78 89.3339 101.661 89.3238 101.543 89.3164L101.168 89.293C101.066 89.2866 100.963 89.2872 100.861 89.2949L100.674 89.3096L100.486 89.3232C100.362 89.3326 100.238 89.3425 100.114 89.3525L99.9268 89.3672L99.7393 89.3828C99.5688 89.3966 99.3979 89.3867 99.2295 89.3545L99.042 89.3193L98.8545 89.2832C98.8509 89.2824 98.8384 89.2789 98.8037 89.2969L98.6162 89.3945L98.4287 89.4912C98.2649 89.5761 98.0931 89.6379 97.915 89.6709L97.7275 89.7061L97.54 89.7402C97.2621 89.7916 97.0048 89.7138 96.793 89.5703L96.6055 89.4434L96.459 89.3438L96.3369 89.3984L96.1494 89.4805C95.9032 89.5884 95.6382 89.5944 95.3867 89.4932L95.0117 89.3428C94.9222 89.3068 94.8367 89.2838 94.7549 89.2725L94.5674 89.2461L94.3799 89.2207C94.3148 89.2117 94.2493 89.2136 94.1816 89.2285L93.9941 89.2705L93.8066 89.3115C93.7084 89.3333 93.6077 89.3644 93.5059 89.4043L93.1309 89.5508C92.9558 89.6194 92.7732 89.6584 92.5859 89.6631L92.2109 89.6729C92.0491 89.6768 91.8874 89.663 91.7275 89.6318L91.54 89.5947L91.3525 89.5586C91.259 89.5404 91.166 89.5311 91.0742 89.5312L90.8867 89.5322H90.6992C90.6137 89.5324 90.5261 89.5427 90.4375 89.5635L90.0625 89.6514C89.8997 89.6895 89.7344 89.7078 89.5684 89.7061L89.1934 89.7021C89.0695 89.7008 88.9451 89.6998 88.8213 89.6992L88.4463 89.6973C88.3244 89.6967 88.202 89.6976 88.0801 89.6992L87.8926 89.7012L87.7051 89.7041C87.5964 89.7055 87.4869 89.7127 87.3779 89.7246L87.0029 89.7656C86.8003 89.7877 86.6004 89.7619 86.4092 89.6953L86.2217 89.6309L86.0342 89.5654C85.929 89.5288 85.8247 89.4991 85.7217 89.4775L85.3467 89.3994C85.3241 89.3948 85.299 89.3948 85.2607 89.4102L85.0732 89.4863L84.8857 89.5615C84.635 89.6625 84.3702 89.6569 84.124 89.5498L83.9365 89.4688L83.749 89.3867C83.7194 89.3739 83.7068 89.3761 83.6953 89.3789L83.3203 89.4727C83.0917 89.5298 82.8613 89.5129 82.6445 89.4297L82.2695 89.2852C82.2255 89.2683 82.1929 89.2671 82.1631 89.2725L81.7881 89.3408C81.6735 89.3616 81.5583 89.3867 81.4434 89.415L81.0684 89.5068C80.9488 89.5363 80.8286 89.568 80.709 89.6016L80.334 89.707C80.0389 89.7898 79.7607 89.7132 79.5371 89.5566L79.3496 89.4248L79.1621 89.2939C79.1459 89.2826 79.1344 89.2767 79.1289 89.2744L78.9521 89.2988L78.7646 89.3232C78.7038 89.3315 78.6339 89.3532 78.5547 89.3945L78.1797 89.5898C77.9762 89.6959 77.7498 89.7469 77.5127 89.7178L77.1377 89.6709C76.9422 89.6467 76.7562 89.5822 76.583 89.4873L76.3955 89.3848L76.21 89.2832L76.041 89.3379L75.8535 89.3994C75.6538 89.4646 75.4457 89.4818 75.2373 89.4453L75.0498 89.4121L74.8623 89.3799C74.7518 89.3606 74.6412 89.3462 74.5312 89.3369L74.3438 89.3213L74.1562 89.3047C74.0674 89.2972 73.978 89.2998 73.8887 89.3115L73.5137 89.3604C73.4049 89.3747 73.2951 89.3947 73.1855 89.4199L72.998 89.4629L72.8105 89.5068C72.6722 89.5387 72.5326 89.5642 72.3936 89.584L72.2061 89.6104L72.0186 89.6377C71.8621 89.6599 71.7041 89.6665 71.5469 89.6582L71.1719 89.6387C71.0826 89.634 70.9927 89.639 70.9023 89.6533L70.7148 89.6826L70.5273 89.7129C70.3211 89.7456 70.1151 89.7275 69.918 89.6631L69.543 89.54C69.4755 89.5181 69.4138 89.511 69.3555 89.5146L69.168 89.5264L68.9805 89.5391C68.8589 89.5468 68.7368 89.5553 68.6152 89.5654L68.2402 89.5967C68.0643 89.6113 67.8887 89.5988 67.7158 89.5605L67.5283 89.5195L67.3408 89.4775C67.2778 89.4636 67.2164 89.4625 67.1553 89.4727L66.7803 89.5352C66.5471 89.5738 66.3201 89.5354 66.1123 89.4385L65.9248 89.3516L65.7373 89.2637C65.7085 89.2503 65.6994 89.2534 65.6934 89.2549L65.3184 89.3467C65.22 89.3709 65.1188 89.4045 65.0166 89.4473L64.8291 89.5254L64.6416 89.6045C64.4056 89.7032 64.1526 89.7136 63.9082 89.6279L63.7207 89.5615L63.5332 89.4961C63.4446 89.465 63.3586 89.4462 63.2764 89.4385L62.9014 89.4033C62.8381 89.3975 62.7729 89.4023 62.7041 89.4209L62.3291 89.5225C62.0852 89.5884 61.841 89.5623 61.6172 89.4609L61.4297 89.376L61.2422 89.292C61.1744 89.2613 61.1172 89.2495 61.0684 89.249L60.8809 89.2471L60.6934 89.2461C60.684 89.2461 60.6543 89.2482 60.5977 89.2852L60.4102 89.4072L60.2227 89.5303C59.9854 89.6853 59.6974 89.7423 59.4053 89.6377L59.2178 89.5703L59.0303 89.5039C59.0118 89.4973 59.0024 89.4971 58.9854 89.5029L58.6104 89.6318C58.4337 89.6923 58.2506 89.7232 58.0645 89.7197L57.6895 89.7119C57.4682 89.7077 57.2609 89.6415 57.0742 89.5342L56.8867 89.4268L56.7002 89.3193L56.5352 89.3721L56.3477 89.4307C56.1674 89.487 55.9813 89.5115 55.793 89.5L55.6055 89.4883L55.418 89.4775C55.3724 89.4748 55.321 89.4814 55.2598 89.5059L54.8848 89.6562C54.6312 89.7576 54.3643 89.7486 54.1182 89.6377L53.7432 89.4697C53.6445 89.4253 53.5482 89.3918 53.4551 89.3691L53.2676 89.3232L53.0898 89.2803C53.0867 89.2818 53.0825 89.285 53.0771 89.2881L52.8896 89.3975L52.7021 89.5078C52.4768 89.64 52.2138 89.6919 51.9434 89.6191L51.7559 89.5684L51.5684 89.5186C51.4508 89.4869 51.3331 89.4575 51.2158 89.4316L51.0283 89.3906L50.8408 89.3486C50.823 89.3448 50.8029 89.3446 50.7676 89.3594L50.5801 89.4375L50.3926 89.5166C50.2221 89.5882 50.0441 89.6337 49.8613 89.6475L49.6738 89.6611L49.4863 89.6758C49.3482 89.6862 49.2095 89.691 49.0713 89.6904L48.6963 89.6885C48.5412 89.6877 48.3861 89.673 48.2324 89.6445L48.0449 89.6094L47.8574 89.5752C47.7927 89.5633 47.7288 89.5632 47.6641 89.5752L47.4766 89.6094L47.2891 89.6445C47.1379 89.6724 46.9855 89.6876 46.833 89.6904L46.458 89.6982C46.2513 89.702 46.0522 89.6552 45.8662 89.5703L45.6787 89.4854L45.4912 89.3994C45.4297 89.3714 45.381 89.3638 45.3408 89.3652L45.1533 89.3721L44.9658 89.3779C44.8982 89.3803 44.8258 89.3948 44.748 89.4238L44.5605 89.4932L44.373 89.5635C44.1416 89.6496 43.8982 89.654 43.6631 89.5742L43.2881 89.4473C43.2547 89.436 43.2296 89.436 43.2021 89.4434L42.8271 89.543C42.615 89.5995 42.3985 89.5979 42.1875 89.5381L42 89.4854L41.8125 89.4316C41.7632 89.4177 41.7188 89.4167 41.6738 89.4258L41.2988 89.502C41.1918 89.5238 41.0831 89.5525 40.9746 89.5869L40.5996 89.7061C40.4241 89.7617 40.243 89.7884 40.0596 89.7832L39.8721 89.7773L39.6846 89.7725C39.4826 89.7667 39.2885 89.7155 39.1074 89.6289L38.9199 89.5391L38.7402 89.4521L38.5674 89.5205L38.3799 89.5928C38.2137 89.6573 38.0417 89.699 37.8662 89.7139L37.6787 89.7295L37.4912 89.7461C37.2926 89.7629 37.0966 89.7352 36.9092 89.6699L36.7217 89.6045L36.5342 89.54C36.4649 89.5159 36.4016 89.5065 36.3428 89.5088L36.1553 89.5166L35.9678 89.5234C35.8 89.5299 35.6327 89.5153 35.4678 89.4795L35.0928 89.3975C35.0025 89.3779 34.913 89.3689 34.8252 89.3691H34.6377L34.4502 89.3701C34.2931 89.3706 34.1359 89.3556 33.9805 89.3262L33.6055 89.2559C33.5559 89.2466 33.5066 89.2474 33.4531 89.2617L33.0781 89.3633C32.9437 89.3994 32.8087 89.4315 32.6738 89.459L32.2988 89.5352C32.1424 89.567 31.9836 89.5833 31.8252 89.584L31.4502 89.5859C31.3232 89.5864 31.1954 89.5852 31.0684 89.584L30.8809 89.583L30.6934 89.5811C30.5883 89.5801 30.4824 89.5853 30.377 89.5967L30.1895 89.6162L30.002 89.6367C29.8522 89.6528 29.7018 89.6579 29.5518 89.6514L29.3643 89.6436L29.1768 89.6348C29.0483 89.6291 28.9195 89.6217 28.791 89.6133L28.6035 89.6016L28.416 89.5889C28.3052 89.5816 28.1938 89.5791 28.083 89.5811L27.8955 89.585L27.708 89.5879C27.6123 89.5896 27.5152 89.5995 27.418 89.6182L27.043 89.6904C26.7683 89.743 26.512 89.6703 26.2988 89.5303L26.1113 89.4072L25.9512 89.3018L25.8174 89.3545L25.6299 89.4277C25.4844 89.4844 25.3369 89.5305 25.1885 89.5654L25.001 89.6094L24.8135 89.6543C24.5927 89.7061 24.37 89.6916 24.1582 89.6172L23.9707 89.5508L23.7832 89.4854C23.7813 89.4847 23.7792 89.4846 23.7783 89.4844L23.7773 89.4834C23.7755 89.484 23.7722 89.4857 23.7686 89.4873L23.5811 89.5674L23.3936 89.6465C23.1262 89.7597 22.8452 89.7432 22.5938 89.6133L22.2188 89.4199C22.1258 89.3719 22.0396 89.3395 21.96 89.3203L21.7754 89.2764L21.5908 89.2314C21.5177 89.2139 21.4454 89.2085 21.373 89.2139L21.1855 89.2275L20.999 89.2412C20.9376 89.2458 20.8635 89.263 20.7764 89.3008L20.5791 89.3867L20.3818 89.4717C20.0901 89.5979 19.7797 89.5664 19.5205 89.3789L19.3477 89.2529L19.1748 89.1279C19.1042 89.0769 19.0435 89.0506 18.9932 89.0381L18.8115 88.9932L18.6309 88.9482C18.6036 88.9415 18.5634 88.9389 18.501 88.9561L18.2979 89.0117L18.0957 89.0674C17.8114 89.1457 17.5247 89.0923 17.2891 88.9072L17.127 88.7803L16.998 88.6797L16.8184 88.7275L16.6074 88.7832C16.3889 88.8411 16.1597 88.8462 15.9355 88.7744L15.7549 88.7158L15.5742 88.6582C15.4523 88.6191 15.3296 88.5793 15.208 88.5391L15.0283 88.4795L14.8477 88.4199C14.7224 88.3785 14.5975 88.3348 14.4736 88.2891L14.2949 88.2227L14.1162 88.1572C13.9231 88.0858 13.7542 87.9722 13.6113 87.8262L13.4688 87.6807L13.3262 87.5342C13.2621 87.4688 13.1982 87.42 13.1348 87.3848L12.8066 87.2031C12.7521 87.1729 12.6888 87.1504 12.6133 87.1387L12.2207 87.0781C12.0181 87.0468 11.8283 86.9727 11.6592 86.8545L11.5029 86.7451L11.3477 86.6367C11.2409 86.562 11.1349 86.486 11.0303 86.4092L10.8779 86.2979L10.7256 86.1855C10.6517 86.1313 10.5722 86.0849 10.4873 86.0459L10.3145 85.9658L10.1406 85.8867C9.89497 85.7738 9.72783 85.5764 9.62988 85.3457L9.54395 85.1436L9.46973 84.9697L9.31934 84.9326L9.12109 84.8848C8.85245 84.8192 8.63688 84.6533 8.50586 84.4082L8.41016 84.2305L8.31543 84.0518C8.29528 84.0141 8.27516 83.9983 8.25488 83.9873L8.08789 83.8965L7.91992 83.8057C7.80526 83.7436 7.69071 83.6794 7.57617 83.6143L7.4082 83.5195L7.24023 83.4238C7.06108 83.3219 6.91186 83.1828 6.79785 83.0107L6.69141 82.8516L6.58594 82.6924C6.54661 82.633 6.50017 82.5823 6.44434 82.54L6.29199 82.4248L6.14062 82.3105C6.0164 82.2165 5.90126 82.1118 5.7959 81.998L5.54004 81.7227C5.47314 81.6504 5.39885 81.5817 5.31738 81.5176L5.0127 81.2773C4.85869 81.1561 4.73242 81.0083 4.63867 80.8359L4.54785 80.668L4.45605 80.5C4.40457 80.4053 4.34831 80.3145 4.28711 80.2285L4.17773 80.0752L4.06836 79.9209C3.94642 79.7495 3.87255 79.5559 3.84082 79.3506L3.80957 79.1475L3.7832 78.9834L3.61914 78.8926L3.42969 78.7881C3.17785 78.6488 3.0008 78.4174 2.95801 78.1162L2.90137 77.7158C2.88659 77.6116 2.86375 77.5159 2.83398 77.4287L2.77344 77.251L2.71289 77.0723C2.69392 77.0167 2.66407 76.9644 2.62012 76.9141L2.36426 76.6211C2.267 76.5097 2.17665 76.3932 2.09277 76.2725L1.87207 75.9561C1.74935 75.7793 1.67694 75.5796 1.65625 75.3662L1.61914 74.9756C1.61621 74.9458 1.60686 74.9211 1.58301 74.8916L1.45703 74.7354L1.33105 74.5801C1.20773 74.4277 1.11568 74.2559 1.06055 74.0674L1.00684 73.8857L0.953125 73.7031C0.91716 73.5802 0.882443 73.4564 0.847656 73.333L0.744141 72.9678C0.691559 72.7813 0.677522 72.5891 0.698242 72.3965L0.719727 72.1982L0.741211 71.999C0.750617 71.9114 0.746682 71.8321 0.733398 71.7598L0.700195 71.5752L0.666016 71.3916C0.642432 71.2633 0.620912 71.134 0.601562 71.0049L0.574219 70.8193L0.545898 70.6338C0.534698 70.5593 0.511856 70.4832 0.475586 70.4043L0.393555 70.2246L0.310547 70.0449C0.191056 69.7849 0.200835 69.5106 0.308594 69.2617L0.394531 69.0654L0.479492 68.8691C0.501622 68.8181 0.498231 68.7934 0.496094 68.7822L0.460938 68.5977L0.424805 68.4131C0.404625 68.3087 0.37807 68.2021 0.344727 68.0947L0.229492 67.7217C0.186433 67.583 0.149841 67.4433 0.120117 67.3027L0.0800781 67.1152L0.0400391 66.9268C-0.0200784 66.642 0.0601273 66.3781 0.208984 66.1631L0.46875 65.7881C0.511389 65.7264 0.51345 65.694 0.513672 65.6855L0.523438 65.3105C0.526412 65.1905 0.52778 65.0703 0.527344 64.9502L0.525391 64.5752C0.525272 64.5428 0.518065 64.4972 0.484375 64.4346L0.382812 64.2471L0.282227 64.0596C0.180578 63.8704 0.121478 63.6627 0.124023 63.4424L0.12793 63.0674C0.130153 62.8774 0.169578 62.6918 0.239258 62.5146L0.3125 62.3271L0.383789 62.1484L0.300781 61.9668L0.21582 61.7793C0.123967 61.5763 0.0859844 61.3563 0.117188 61.1299L0.142578 60.9424L0.168945 60.7549C0.181553 60.6635 0.184829 60.5721 0.178711 60.4814L0.15332 60.1064C0.139086 59.8947 0.178969 59.6897 0.262695 59.498L0.344727 59.3105L0.412109 59.1582L0.325195 58.998L0.223633 58.8105C0.116034 58.6113 0.0603918 58.3892 0.0810547 58.1543L0.0966797 57.9668L0.113281 57.7793C0.127468 57.6183 0.159165 57.4586 0.207031 57.3018L0.322266 56.9268C0.355474 56.818 0.38222 56.7091 0.40332 56.6016L0.44043 56.4141L0.476562 56.2266C0.491826 56.1486 0.495635 56.072 0.488281 55.9961L0.470703 55.8086L0.452148 55.6211C0.440027 55.4961 0.427949 55.3711 0.416016 55.2461L0.398438 55.0586L0.379883 54.8711C0.364316 54.7081 0.367855 54.5444 0.389648 54.3818L0.44043 54.0068C0.451504 53.9243 0.451633 53.8421 0.441406 53.7598L0.394531 53.3848C0.379565 53.2644 0.362976 53.1439 0.344727 53.0234L0.288086 52.6484C0.258957 52.4562 0.268673 52.2634 0.316406 52.0752L0.412109 51.7002C0.436224 51.6052 0.450693 51.5112 0.456055 51.4189L0.477539 51.0439C0.484825 50.9184 0.492103 50.7926 0.5 50.667L0.511719 50.4795L0.524414 50.292C0.52724 50.2471 0.519763 50.1959 0.495117 50.1348L0.344727 49.7598C0.246727 49.5165 0.245443 49.259 0.341797 49.0146L0.415039 48.8271L0.488281 48.6416L0.410156 48.4541L0.331055 48.2666C0.243497 48.0576 0.215004 47.833 0.257812 47.6055L0.292969 47.418L0.329102 47.2305C0.33722 47.1872 0.335517 47.1436 0.320312 47.0938L0.205078 46.7188C0.121897 46.4457 0.169192 46.1771 0.303711 45.9463L0.413086 45.7588L0.489258 45.6309L0.417969 45.5059L0.3125 45.3184C0.193994 45.1073 0.139527 44.8667 0.182617 44.6143L0.214844 44.4268L0.246094 44.2393C0.257991 44.1698 0.258805 44.1007 0.24707 44.0312L0.214844 43.8438L0.183594 43.6562C0.1628 43.5333 0.140483 43.41 0.118164 43.2871L0.0849609 43.0996L0.0507812 42.9121C0.000649926 42.6355 0.0782134 42.3803 0.220703 42.1689L0.34668 41.9814L0.473633 41.7939C0.482622 41.7806 0.486185 41.7706 0.488281 41.7656L0.459961 41.5908L0.428711 41.4033C0.400515 41.2302 0.397707 41.0556 0.420898 40.8818L0.47168 40.5068C0.476498 40.4705 0.47301 40.4304 0.453125 40.3789L0.308594 40.0039C0.255127 39.8657 0.207356 39.7263 0.166992 39.5869L0.113281 39.3994L0.0585938 39.2119C0.00429183 39.0242 -0.0123303 38.831 0.0117188 38.6367L0.0585938 38.2617C0.0703211 38.167 0.0730149 38.0727 0.0673828 37.9785L0.0556641 37.791L0.0449219 37.6035C0.0354931 37.4466 0.0410362 37.289 0.0615234 37.1328L0.110352 36.7578C0.122625 36.6641 0.126615 36.5706 0.121094 36.4775L0.109375 36.29L0.0986328 36.1025C0.0847591 35.868 0.146872 35.6482 0.257812 35.4521L0.363281 35.2646L0.469727 35.0771C0.499731 35.0241 0.500874 34.9943 0.5 34.9795L0.476562 34.6045C0.467625 34.4608 0.467379 34.3165 0.474609 34.1729L0.483398 33.9854L0.493164 33.7979C0.49335 33.7954 0.494724 33.7727 0.460938 33.7207L0.338867 33.5332L0.217773 33.3457C0.0780951 33.1307 0.00734847 32.8727 0.0634766 32.5977L0.139648 32.2227C0.168266 32.0826 0.204209 31.9427 0.246094 31.8037L0.302734 31.6162L0.358398 31.4287C0.392399 31.3159 0.421753 31.2029 0.446289 31.0908L0.487305 30.9033L0.522461 30.7451C0.521199 30.7433 0.519168 30.7415 0.517578 30.7393L0.383789 30.5518L0.249023 30.3643C0.0836162 30.1328 0.0090376 29.841 0.112305 29.5371L0.175781 29.3496L0.240234 29.1621C0.278424 29.0498 0.310879 28.9375 0.338867 28.8262L0.386719 28.6387L0.433594 28.4512C0.45963 28.3475 0.478746 28.2446 0.490234 28.1426L0.510742 27.9551L0.532227 27.7676C0.542034 27.6803 0.541338 27.5931 0.53125 27.5059L0.488281 27.1309C0.472078 26.9909 0.462348 26.8502 0.458984 26.71L0.454102 26.5225L0.450195 26.335C0.449596 26.3114 0.44241 26.2707 0.404297 26.208L0.175781 25.833C0.0948147 25.6998 0.0428703 25.5388 0.0517578 25.3604C0.0606647 25.184 0.1272 25.0317 0.213867 24.9092L0.34668 24.7217L0.428711 24.6064L0.37207 24.5088L0.264648 24.3213C0.139923 24.1032 0.0862035 23.8522 0.143555 23.5908L0.185547 23.4033L0.226562 23.2158C0.248225 23.1171 0.261565 23.0189 0.266602 22.9219L0.286133 22.5469C0.292581 22.4224 0.298625 22.2979 0.304688 22.1738L0.313477 21.9863L0.323242 21.7988C0.330533 21.6499 0.348127 21.5013 0.376953 21.3545L0.413086 21.1699L0.450195 20.9844C0.466951 20.8989 0.472864 20.8131 0.469727 20.7266L0.462891 20.5381L0.456055 20.3506C0.451132 20.216 0.450518 20.0803 0.453125 19.9453L0.457031 19.7568L0.459961 19.5684C0.462391 19.4427 0.465226 19.3163 0.467773 19.1895L0.475586 18.8086C0.478757 18.6514 0.496513 18.4952 0.52832 18.3418L0.604492 17.9727C0.638926 17.8067 0.694617 17.6467 0.770508 17.4941L0.942383 17.1484C0.991924 17.0489 1.03519 16.9487 1.07227 16.8486L1.1377 16.6729L1.20312 16.4961C1.25808 16.3478 1.32775 16.2052 1.41113 16.0693L1.51172 15.9053L1.5957 15.7676C1.59517 15.7655 1.59446 15.7632 1.59375 15.7607L1.5293 15.54L1.46387 15.3193C1.39799 15.0956 1.38612 14.8557 1.46387 14.6201L1.58301 14.2588C1.64364 14.0753 1.73854 13.9082 1.86328 13.7607L1.99121 13.6104L2.11816 13.459C2.14782 13.4239 2.16422 13.3896 2.17188 13.3486L2.20801 13.1572L2.24316 12.9648C2.28186 12.7564 2.36945 12.5657 2.50293 12.4004L2.74512 12.0996C2.82441 12.0015 2.90289 11.9034 2.97949 11.8057L3.21387 11.5068C3.26429 11.4425 3.30558 11.3729 3.33691 11.2979L3.40918 11.1221L3.48242 10.9473C3.53569 10.8196 3.59403 10.6938 3.65625 10.5703L3.74121 10.4014L3.82715 10.2314C3.8897 10.1073 3.9565 9.98517 4.02832 9.86621L4.12695 9.7041L4.22461 9.54199C4.31331 9.39509 4.42113 9.26186 4.5459 9.14355L4.82324 8.87988C4.90131 8.80589 4.97424 8.72814 5.04102 8.64746L5.16113 8.50195L5.28125 8.35742C5.40148 8.21208 5.54603 8.09191 5.70996 7.99805L5.88184 7.90039L6.02539 7.81738L6.06543 7.60742L6.10547 7.38965C6.15648 7.11697 6.30808 6.8726 6.57422 6.72852L6.92188 6.54102C7.01836 6.48881 7.10788 6.43144 7.19043 6.37109L7.34277 6.25977L7.49609 6.14844C7.63144 6.04948 7.77879 5.96787 7.93555 5.90332L8.11719 5.82812L8.2666 5.76562L8.33398 5.5625L8.40234 5.35156C8.47376 5.1323 8.59859 4.93181 8.79102 4.7832L8.94141 4.66797L9.09082 4.55176C9.18713 4.4775 9.28326 4.40131 9.37793 4.32422L9.52539 4.20508L9.67285 4.08496C9.84045 3.94848 10.0348 3.86252 10.2441 3.82324L10.4453 3.78613L10.6455 3.74805C10.7568 3.72721 10.8605 3.69977 10.9561 3.66699L11.1367 3.60547L11.3174 3.54297C11.3539 3.5304 11.3863 3.50996 11.4189 3.47363L11.5508 3.32715L11.6826 3.17969C11.7909 3.05876 11.9094 2.94931 12.0371 2.85254L12.3418 2.62207C12.5373 2.47405 12.7651 2.40482 13.002 2.4043H13.417C13.4707 2.40414 13.5001 2.39196 13.5195 2.37988L13.6787 2.28027L13.8389 2.17969C13.99 2.08514 14.1532 2.01546 14.3262 1.97266L14.6914 1.88281C14.8097 1.85359 14.9276 1.8233 15.0439 1.79199L15.2236 1.74316L15.4033 1.69531C15.526 1.66231 15.6495 1.63027 15.7725 1.59961L15.9521 1.55469L16.1328 1.50977C16.2169 1.48876 16.2998 1.4582 16.3809 1.41797L16.5498 1.33398L16.7197 1.25C16.8236 1.19841 16.9278 1.14176 17.0322 1.08203L17.2012 0.985352L17.3711 0.888672C17.5809 0.768748 17.814 0.724718 18.0518 0.756836L18.248 0.78418L18.4443 0.810547C18.446 0.809758 18.4509 0.807941 18.457 0.803711L18.627 0.68457L18.7969 0.564453L18.8975 0.503906C19.135 0.378435 19.4004 0.374087 19.6484 0.478516L19.8486 0.5625L20.0479 0.646484C20.0648 0.65361 20.0757 0.656522 20.0801 0.657227L20.2607 0.598633L20.4424 0.540039C20.6187 0.482652 20.8011 0.457045 20.9863 0.464844L21.3613 0.480469C21.4671 0.484953 21.5724 0.483209 21.6768 0.475586L22.0479 0.448242C22.0887 0.445254 22.1173 0.442314 22.1348 0.439453L22.167 0.421875L22.2334 0.385742C22.3071 0.346103 22.4184 0.299377 22.541 0.250977L22.916 0.102539L23.0332 0.0654297C23.2659 0.0089169 23.4904 0.0577026 23.6807 0.169922L23.7725 0.231445L23.96 0.371094L24.1143 0.485352L24.2334 0.439453L24.4209 0.368164C24.5515 0.318093 24.6827 0.270275 24.8135 0.225586L25.001 0.161133L25.1885 0.0976562L25.2881 0.0693359C25.5216 0.0162276 25.7533 0.0556666 25.9609 0.166992L26.1484 0.267578L26.3301 0.366211L26.499 0.306641L26.6865 0.242188C26.869 0.179211 27.059 0.150585 27.252 0.161133L27.627 0.182617C27.7009 0.186702 27.7774 0.17939 27.8555 0.160156L28.043 0.113281L28.2305 0.0673828C28.4395 0.0158556 28.6524 0.0195271 28.8594 0.0771484L29.0469 0.129883L29.2344 0.181641C29.3831 0.223088 29.5305 0.276109 29.6758 0.339844L29.8633 0.421875L30.0107 0.487305L30.1699 0.399414L30.3574 0.295898C30.562 0.182758 30.7935 0.126891 31.0371 0.157227L31.4121 0.204102C31.5812 0.225243 31.747 0.268417 31.9082 0.332031L32.2832 0.480469C32.3649 0.512748 32.4421 0.52961 32.5137 0.535156L32.8887 0.564453C32.966 0.570361 33.0442 0.56521 33.124 0.548828L33.3115 0.510742L33.499 0.47168C33.6559 0.439395 33.8147 0.423314 33.9736 0.422852L34.1611 0.421875H34.3486C34.4209 0.421659 34.4961 0.409472 34.5752 0.384766L34.9502 0.267578C35.1346 0.209881 35.3258 0.187336 35.5186 0.204102L35.8936 0.237305C36.0165 0.24803 36.1398 0.258211 36.2627 0.267578L36.4502 0.282227L36.6377 0.295898C36.744 0.304001 36.8508 0.306438 36.957 0.302734L37.332 0.289062C37.4493 0.284946 37.5673 0.278962 37.6846 0.269531L37.8721 0.253906L38.0596 0.239258C38.2407 0.224679 38.4211 0.240386 38.5977 0.285156L38.9727 0.380859H38.9746C38.9753 0.380708 38.9771 0.380314 38.9785 0.379883C38.9821 0.378752 38.9888 0.37625 38.9971 0.37207L39.1846 0.275391L39.3721 0.179688L39.4746 0.134766C39.6808 0.0577217 39.8981 0.059374 40.1035 0.137695L40.2051 0.182617L40.3926 0.280273L40.5801 0.376953C40.6249 0.400142 40.6479 0.399018 40.6602 0.397461L41.0352 0.348633C41.2168 0.324956 41.3988 0.333249 41.5781 0.371094L41.7656 0.410156L41.9531 0.450195C42.0533 0.471361 42.1533 0.483929 42.252 0.489258L42.4395 0.5L42.627 0.509766C42.6521 0.511084 42.6896 0.507232 42.7451 0.478516L42.9326 0.380859L43.1201 0.28418C43.3218 0.179667 43.5458 0.128432 43.7803 0.154297L44.1553 0.195312C44.3185 0.213406 44.4798 0.251362 44.6377 0.305664L45.0127 0.43457C45.0628 0.451781 45.1049 0.453679 45.1445 0.447266L45.5195 0.386719C45.6242 0.369647 45.7298 0.345017 45.8359 0.314453L46.2109 0.207031C46.4063 0.150739 46.6085 0.138448 46.8096 0.172852L46.9971 0.204102L47.1846 0.236328C47.2382 0.245495 47.2921 0.24337 47.3496 0.228516L47.5371 0.180664L47.7246 0.131836C47.9287 0.0789422 48.1377 0.0773838 48.3428 0.126953L48.7178 0.216797C48.8235 0.242365 48.9287 0.262082 49.0332 0.274414L49.2207 0.295898L49.4082 0.318359C49.5195 0.331473 49.6312 0.339894 49.7422 0.34375L49.9297 0.350586L50.1172 0.356445C50.1709 0.358301 50.23 0.349674 50.2969 0.324219L50.6719 0.181641L50.7773 0.147461C50.9879 0.0942647 51.1974 0.121059 51.3867 0.208984L51.4805 0.257812L51.668 0.369141L51.8154 0.457031L51.9512 0.393555L52.1387 0.305664C52.328 0.217297 52.532 0.171472 52.7441 0.179688L52.9316 0.186523L53.1191 0.194336C53.2694 0.200237 53.4203 0.217582 53.5693 0.246094L53.7568 0.28125L53.9443 0.317383C53.9838 0.324879 54.0239 0.323826 54.0713 0.308594L54.4463 0.1875C54.6234 0.130283 54.8066 0.10314 54.9922 0.109375L55.1797 0.115234L55.3672 0.12207C55.5075 0.126834 55.6481 0.137364 55.7881 0.155273L56.1631 0.204102C56.2683 0.217577 56.3738 0.224774 56.4785 0.225586L56.666 0.226562L56.8535 0.228516C56.9446 0.229205 57.037 0.220122 57.1299 0.202148L57.5049 0.129883C57.7328 0.0857424 57.9583 0.113659 58.168 0.201172L58.543 0.357422C58.5668 0.367335 58.5755 0.365334 58.5859 0.362305L58.7734 0.308594L58.9609 0.253906C59.1277 0.205597 59.2985 0.179349 59.4707 0.177734L59.6582 0.176758L59.8457 0.174805C60.0569 0.172944 60.2586 0.22483 60.4453 0.316406L60.8203 0.5L60.8223 0.501953L61.0029 0.441406L61.1904 0.37793C61.3956 0.309028 61.6103 0.293571 61.8242 0.336914L62.1992 0.413086C62.3183 0.437258 62.4377 0.459671 62.5566 0.479492L62.9316 0.541992C63.0128 0.555517 63.0938 0.558005 63.1738 0.549805L63.3613 0.530273L63.5488 0.511719C63.6966 0.496524 63.8451 0.490735 63.9932 0.496094L64.3682 0.509766C64.3703 0.509912 64.3941 0.511016 64.4473 0.475586L64.8223 0.225586L64.9141 0.170898C65.1014 0.0713674 65.3152 0.0312678 65.5352 0.0810547L65.6455 0.114258L65.833 0.181641L66.0205 0.25C66.0425 0.257952 66.0545 0.257619 66.0723 0.251953L66.4473 0.130859L66.543 0.105469C66.7661 0.0571821 66.9894 0.0896942 67.1934 0.188477L67.5684 0.370117C67.662 0.41546 67.7516 0.447079 67.8369 0.466797L68.0244 0.509766L68.1885 0.547852C68.1908 0.546454 68.1942 0.544971 68.1973 0.542969L68.3848 0.416992L68.5723 0.291992L68.668 0.235352C68.8638 0.133246 69.0863 0.100448 69.3105 0.164062L69.4229 0.204102L69.6104 0.28418L69.7734 0.354492L69.9414 0.272461L70.1289 0.179688L70.2266 0.138672C70.455 0.0545887 70.6984 0.0611691 70.9287 0.164062L71.1162 0.248047L71.2812 0.322266L71.4492 0.242188L71.6367 0.154297L71.7461 0.110352C71.9661 0.0388653 72.1902 0.0598907 72.3916 0.15625L72.4902 0.210938L72.8652 0.445312C72.8758 0.451925 72.8835 0.456741 72.8887 0.458984C72.8901 0.459573 72.8916 0.460507 72.8926 0.460938L73.0752 0.427734L73.2627 0.394531C73.3927 0.371389 73.5232 0.349855 73.6533 0.331055L73.8408 0.304688L74.0283 0.277344C74.123 0.263669 74.2201 0.240433 74.3184 0.208008L74.5059 0.146484L74.6934 0.0839844L74.8018 0.0556641C75.053 0.00526476 75.2943 0.0681888 75.498 0.201172L75.6855 0.323242L75.873 0.446289C75.9369 0.488014 75.9767 0.495179 75.9961 0.496094L76.3711 0.511719C76.4285 0.514175 76.4903 0.505463 76.5586 0.481445L76.7461 0.415039L76.9336 0.349609C77.1439 0.275476 77.3651 0.260114 77.585 0.30957L77.96 0.393555C77.9902 0.400343 78.0202 0.400358 78.0596 0.386719L78.2471 0.320312L78.4346 0.254883L78.5342 0.226562C78.7655 0.171906 78.9965 0.207135 79.2051 0.31543L79.3926 0.413086L79.5596 0.499023L79.7178 0.431641L79.9053 0.352539C80.0498 0.291366 80.1963 0.240315 80.3438 0.200195L80.7188 0.0986328C80.8968 0.050224 81.0791 0.0318999 81.2627 0.0458984L81.4502 0.0595703L81.6377 0.0742188C81.8487 0.0904042 82.0465 0.159661 82.2266 0.264648L82.4141 0.374023L82.5967 0.480469L82.7598 0.428711L82.9473 0.369141C83.1556 0.302609 83.3725 0.291561 83.5869 0.34082L83.7744 0.383789L83.9619 0.427734C84.0265 0.442589 84.0886 0.444755 84.1504 0.435547L84.5254 0.378906C84.646 0.360797 84.7671 0.340673 84.8877 0.319336L85.2627 0.25293C85.4922 0.212322 85.7175 0.245665 85.9258 0.336914L86.3008 0.500977C86.3154 0.507366 86.3236 0.508539 86.3262 0.508789C86.3277 0.50891 86.3314 0.508902 86.3389 0.506836L86.7139 0.401367C86.8839 0.353391 87.0579 0.330024 87.2334 0.333008L87.4209 0.335938L87.6084 0.339844C87.6669 0.340854 87.7305 0.330624 87.8008 0.304688L87.9883 0.234375L88.1758 0.165039C88.3947 0.0839124 88.6264 0.0708168 88.8545 0.131836L89.042 0.181641L89.2295 0.232422C89.3679 0.269506 89.5062 0.312932 89.6436 0.362305L90.0186 0.49707C90.0413 0.505242 90.0546 0.504912 90.0732 0.499023L90.2607 0.439453L90.4482 0.378906C90.6776 0.305832 90.9144 0.31037 91.1406 0.389648L91.3281 0.455078L91.5156 0.521484C91.5398 0.529919 91.5546 0.528813 91.5752 0.522461L91.9502 0.405273C92.1372 0.346804 92.331 0.326443 92.5264 0.34668L92.9014 0.385742C93.0171 0.397778 93.1334 0.406437 93.249 0.412109L93.4365 0.420898L93.624 0.430664C93.6958 0.434176 93.7699 0.426579 93.8467 0.40625L94.2217 0.306641C94.4053 0.257908 94.5935 0.242785 94.7822 0.264648L94.9697 0.287109L95.1572 0.308594C95.2218 0.316108 95.288 0.312572 95.3564 0.295898L95.7314 0.204102C95.9676 0.146499 96.2035 0.171355 96.4219 0.264648L96.7969 0.424805C96.8604 0.451905 96.9132 0.460357 96.959 0.458984L97.334 0.447266C97.4552 0.443442 97.577 0.43806 97.6982 0.431641L98.0732 0.412109C98.1698 0.406996 98.2678 0.393975 98.3662 0.37207L98.7412 0.288086C98.9045 0.251709 99.0701 0.234523 99.2363 0.238281L99.4238 0.243164L99.6113 0.24707C99.7712 0.250722 99.9306 0.271238 100.088 0.307617L100.275 0.351562L100.463 0.394531C100.527 0.409377 100.589 0.411567 100.65 0.402344L101.025 0.345703C101.204 0.318852 101.383 0.320802 101.561 0.351562L101.748 0.384766L101.936 0.416992C101.997 0.427561 102.058 0.426485 102.12 0.413086L102.308 0.373047L102.495 0.332031C102.594 0.310807 102.695 0.281103 102.797 0.242188L102.984 0.170898L103.172 0.0986328C103.354 0.0290575 103.546 -0.00544939 103.741 0.000976562L103.929 0.0078125ZM115.627 47.2803C112.177 47.2803 109.597 49.3002 108.407 53.7002L108.236 54.3301C107.046 58.7699 108.537 60.9199 111.947 60.9199H118.137L116.847 65.6602C115.727 65.8601 114.597 65.9902 113.507 65.9902C110.827 65.9902 108.277 65.3198 106.187 63.7998L104.727 69.2295C106.716 70.5894 109.437 71.1201 112.146 71.1201C117.336 71.1201 120.947 69.56 122.407 64L122.967 62.0098C124.127 57.6099 122.477 56.0498 118.797 56.0498H112.907L113.937 52.1797H124.637L125.927 47.2803H115.627ZM137.187 46.75C131.427 46.7501 127.686 49.8999 125.896 56.5195L124.637 61.2197C122.847 67.8397 124.937 70.9902 130.697 70.9902C136.457 70.9901 140.196 67.8396 141.986 61.2197L143.247 56.5195C145.037 49.8998 142.946 46.75 137.187 46.75ZM67.3164 46.5195C62.1166 46.5197 58.6068 49.7005 57.2168 54.9004L53.0469 70.46H58.1768L60.5264 61.6504H68.2471L69.4766 57.1504H61.7568L63.377 51.0596H68.5771L67.417 55.3604H72.5469C74.0369 49.8304 72.5164 46.5195 67.3164 46.5195ZM90.2666 65.5898C89.4066 68.7998 90.7667 70.4599 93.9766 70.46H102.787L104.077 65.5898H95.3965L100.297 47.3096H95.167L90.2666 65.5898ZM83.8467 46.7402C81.0967 46.7403 78.6065 48.3598 77.1865 51.0098L66.9863 70.4502H72.2764L76.4863 62.1699H82.9072L82.6768 70.4502H87.9766L88.2471 51.0098C88.317 48.3599 86.5966 46.7402 83.8467 46.7402ZM139.437 51.6396L135.566 66.0801H128.447L132.316 51.6396H139.437ZM83.0371 58.1396H78.5371L81.917 51.5801H83.2363L83.0371 58.1396ZM43.7969 18.5996C38.0369 18.5996 34.2968 21.7501 32.5068 28.3701L31.2471 33.0703C29.4572 39.6901 31.5468 42.8398 37.3066 42.8398C43.0665 42.8398 46.8066 39.6901 48.5967 33.0703L49.8564 28.3701C51.6464 21.7501 49.5568 18.5996 43.7969 18.5996ZM59.5264 18.5996C56.9065 18.5998 54.2564 20.7206 53.3965 23.9004L48.4668 42.3096H53.6064L58.6064 23.4697H59.4668L57.9766 38.5703C57.5768 41.4201 59.3373 42.8398 61.6172 42.8398C64.0271 42.8397 66.5469 41.2495 67.5068 37.6396L72.4766 19.1299H67.3066L62.9668 37.6104H62.0771L63.2666 23.0703C63.6366 19.8903 61.5464 18.5996 59.5264 18.5996ZM116.816 18.5996C114.197 18.5998 111.546 20.7206 110.687 23.9004L105.757 42.3096H110.896L115.896 23.4697H116.757L115.267 38.5703C114.867 41.4201 116.627 42.8398 118.907 42.8398C121.317 42.8397 123.837 41.2494 124.797 37.6396L129.767 19.1299H124.597L120.257 37.6104H119.367L120.557 23.0703C120.927 19.8903 118.836 18.5996 116.816 18.5996ZM176.526 18.5996C170.767 18.5998 167.026 21.7503 165.236 28.3701L163.977 33.0703C162.187 39.69 164.277 42.8398 170.037 42.8398C175.797 42.8397 179.537 39.69 181.327 33.0703L182.587 28.3701C184.377 21.7501 182.286 18.5996 176.526 18.5996ZM157.347 19.1396H147.977L141.787 42.3203H151.157C157.047 42.3202 160.427 39.1395 162.247 32.3496L163.106 29.0996C164.926 22.3098 163.277 19.1299 157.347 19.1299V19.1396ZM28.4268 19.1299C21.8068 19.1299 18.4267 22.4103 16.6367 29.0303L15.7471 32.4102C13.9572 39.0299 15.6168 42.3094 22.2363 42.3096H27.1973L28.4863 37.4102H19.5166L23.0967 24.0303H32.1064L33.3965 19.1299H28.4268ZM73.2871 24.0303H79.707L74.8066 42.3096H79.9365L84.8369 24.0303H91.2266L92.5469 19.1299H74.5771L73.2871 24.0303ZM88.2764 42.3096H103.377L104.667 37.4102H94.7363L95.8965 33.04H103.377L104.667 28.1396H97.2168L98.3066 24.0303H108.276L109.566 19.1299H94.4971L88.2764 42.3096ZM131.077 24.0303H135.017L131.437 37.4102H127.497L126.177 42.3096H139.127L140.447 37.4102H136.537L140.146 24.0303H144.017L145.337 19.1299H132.396L131.077 24.0303ZM42.1768 37.9297H35.0566L38.9268 23.4902H46.0469L42.1768 37.9297ZM174.907 37.9297H167.787L171.657 23.4902H178.776L174.907 37.9297ZM155.767 37.4102H148.217L151.827 24.0303H159.347L155.767 37.4102Z" fill="#FF6100"/>
</svg>
