<svg width="322" height="236" viewBox="0 0 322 236" fill="none" xmlns="http://www.w3.org/2000/svg">
<path d="M135.517 33.8686C146.303 31.733 154.852 29.5073 163.441 28.6166C172.12 27.7154 180.961 26.3563 189.399 26.1468C199.604 25.8998 209.351 26.2919 218.507 27.5076C226.817 28.6105 234.597 30.1329 242.049 31.967C243.474 32.3161 244.77 32.7768 246.106 33.1874C248.118 33.8118 250.129 34.4362 252.124 35.0748C252.92 35.3225 253.747 35.5732 254.435 35.8868C256.972 37.0571 259.529 38.2228 261.939 39.4635C265.329 41.2173 268.428 43.1306 271.946 44.8139C279.472 48.396 283.55 53.4494 288.365 58.1794C290.366 60.1402 292.034 62.2598 293.401 64.449C294.816 66.7192 295.695 69.154 296.777 71.532C297.047 72.1264 296.946 72.8474 297.403 73.358C299.527 75.7214 299.967 78.5653 301.099 81.2086C301.829 82.9081 301.962 84.776 302.265 86.584C302.582 88.4917 302.701 90.4345 303.037 92.3377C303.782 96.5991 304.438 100.871 303.489 105.44C303.167 106.982 303.463 108.443 303.33 109.962C302.927 114.539 301.28 119.238 298.909 124.002C296.886 128.05 295.304 132.098 292.281 136.171C289.714 139.635 287.417 143.12 284.481 146.546C280.616 151.059 276.309 155.53 271.267 159.924C266.873 163.748 261.698 167.341 256.722 171.001C254.87 172.362 252.572 173.609 250.423 174.884C241.942 179.896 233.571 184.944 223.586 189.173C219.397 190.949 215.293 192.777 210.618 193.997C209.882 194.187 209.119 194.394 208.466 194.678C202.167 197.36 195.228 198.866 188.476 200.739C176.265 204.127 164.066 206.054 151.733 207.664C138.142 209.43 125.42 209.753 112.971 209.255C106.094 208.982 99.0312 208.926 92.9492 207.782C84.6458 206.216 75.7591 205.102 68.788 202.46C65.0326 201.036 61.5816 199.42 57.944 197.928C52.9342 195.87 49.0535 193.234 45.109 190.633C42.8085 189.111 40.4541 187.621 38.1904 186.08C37.534 185.636 36.9952 185.124 36.6102 184.566C33.5283 180.186 30.3903 175.829 27.4817 171.399C25.1558 167.851 23.7715 164.024 22.5798 160.142C21.7773 157.505 20.8406 154.909 20.6619 152.128C20.5598 150.571 19.7202 149.154 19.2066 147.681C19.0846 147.33 18.8358 147.007 18.794 146.647C18.4152 143.533 17.99 140.439 17.738 137.296C17.591 135.544 17.6899 133.746 17.7693 131.952C17.8253 130.636 18.0176 129.289 18.1733 127.96C18.256 127.294 18.5922 126.57 18.4606 125.954C17.4318 121.399 19.3233 116.469 20.8865 111.583C22.9496 105.125 26.0882 98.6144 30.5401 92.0577C31.7423 90.2826 33.4272 88.5091 34.9592 86.7401C37.4136 83.8966 39.643 81.0126 42.499 78.2202C45.3499 75.4496 48.1063 72.6699 52.0634 70.0241C56.9614 66.7409 61.8767 63.4434 66.7845 60.1579C75.4454 54.366 85.6866 49.5544 97.0683 45.5062C103.386 43.2609 109.701 40.9646 116.202 39.026C123.249 36.9203 130.505 35.1873 135.517 33.8686Z" fill="#FF6100"/>
<path d="M71.5081 183.085C71.1978 182.94 70.7392 182.687 70.4919 182.549C70.1847 182.373 69.5978 182.098 69.3505 181.96C69.101 181.812 69.2876 181.821 69.0478 181.671C68.808 181.521 69.0793 181.54 68.8396 181.39C68.5998 181.24 68.2686 181.05 68.0386 180.897C67.8085 180.745 66.6694 180.3 66.4296 180.15C66.1898 180 66.1022 179.886 65.8722 179.734C65.6421 179.582 66.1045 179.629 65.8722 179.467C65.6422 179.315 65.4436 179.166 65.2113 179.004C64.9812 178.852 63.9621 178.481 63.7201 178.321C63.478 178.161 64.25 178.261 64.0057 178.091C63.7636 177.931 62.686 177.574 62.4439 177.414C62.2019 177.255 62.4913 177.219 62.259 177.057C62.0169 176.897 62.1736 176.82 61.9316 176.66C61.7015 176.508 60.2851 176.106 60.055 175.953C59.825 175.801 60.4335 175.815 60.2012 175.653C59.9712 175.501 59.1177 175.225 58.8974 175.071C58.6674 174.918 59.204 174.887 58.9867 174.701C58.7694 174.515 58.262 174.273 58.0837 174.078C57.9032 173.873 57.3599 173.609 57.2041 173.378C57.0483 173.147 57.1053 172.949 56.9517 172.728C56.7959 172.497 56.536 172.259 56.3704 172.03C56.2146 171.799 56.5235 171.626 56.3579 171.397C56.2021 171.166 55.3201 170.856 55.1665 170.635C55.0107 170.404 55.2881 170.227 55.1323 169.996C54.9764 169.765 54.8836 169.541 54.73 169.319C54.5742 169.088 54.0526 168.829 53.8991 168.608C53.7433 168.377 54.4014 168.205 54.2456 167.974C54.0898 167.743 53.6941 167.495 53.5383 167.264C53.3825 167.034 52.6353 166.775 52.4795 166.544C52.3237 166.313 52.5412 166.099 52.3756 165.87C52.2198 165.639 52.1052 165.409 51.9494 165.178C51.7936 164.947 51.7929 164.721 51.6371 164.49C51.4813 164.26 51.5001 164.029 51.3443 163.798C51.1885 163.568 50.2711 163.327 50.1176 163.106C49.9618 162.875 49.5294 162.646 49.3714 162.406C49.2133 162.165 49.9337 161.907 49.7853 161.664C49.637 161.421 49.7728 161.164 49.644 160.917C49.5054 160.671 48.532 160.454 48.4009 160.197C48.2721 159.95 48.7818 159.668 48.6627 159.419C48.5437 159.169 48.2305 158.923 48.1114 158.673C48.002 158.422 47.3366 158.205 47.2348 157.942C47.1254 157.69 46.8241 157.451 46.7126 157.19C46.613 156.935 47.3859 156.593 47.2961 156.337C47.1942 156.073 46.2079 155.89 46.1181 155.633C46.0282 155.377 47.1489 154.985 47.0666 154.717C46.9843 154.449 46.8727 154.187 46.7904 153.919C46.708 153.65 46.0665 153.449 45.9864 153.19C45.9041 152.922 45.6516 152.672 45.5693 152.404C45.4869 152.136 45.215 151.89 45.1349 151.632C45.0525 151.363 45.3569 151.037 45.2843 150.766C45.202 150.498 44.6234 150.303 44.553 150.042C44.4804 149.771 44.5076 149.488 44.4448 149.215C44.3819 148.942 45.088 148.533 45.0349 148.258C44.9721 147.985 44.7706 147.734 44.7272 147.457C44.6838 147.179 44.8354 146.857 44.8115 146.575C44.7899 146.303 44.7586 146.033 44.71 145.778C44.6591 145.512 43.9553 145.398 43.8775 145.149C43.7996 144.9 44.4991 144.462 44.3995 144.207C44.2999 143.953 43.881 143.783 43.7717 143.531C43.6624 143.279 43.7381 142.985 43.6483 142.728C43.5487 142.474 42.4814 142.474 42.3743 142.232C42.2672 141.989 42.526 141.643 42.4871 141.385C42.4557 141.115 43.0608 140.668 43.0294 140.398C42.998 140.128 42.0424 140.122 42.011 139.852C41.9796 139.583 42.5824 139.126 42.5511 138.856C42.5197 138.586 42.5273 138.307 42.4959 138.037C42.4646 137.767 42.3747 137.511 42.3434 137.241C42.312 136.971 42.2611 136.706 42.2297 136.436C42.1983 136.166 42.0425 135.935 42.0111 135.666C41.9798 135.396 41.9971 135.115 41.9755 134.843C41.9539 134.571 41.6077 134.404 41.5861 134.132C41.5644 133.86 41.5158 133.604 41.5039 133.33C41.492 133.056 41.3114 132.851 41.3116 132.584C41.3094 132.307 41.7226 131.874 41.7302 131.595C41.7378 131.316 42.0288 130.931 42.0364 130.652C42.044 130.373 42.0906 130.085 42.0982 129.807C42.1058 129.528 41.3383 129.581 41.3579 129.31C41.3775 129.039 42.0306 128.488 42.0502 128.217C42.0795 127.943 41.6246 127.884 41.6539 127.61C41.6832 127.337 42.5027 126.707 42.5321 126.433C42.5614 126.159 42.1454 126.091 42.1965 125.823C42.2475 125.555 42.3841 125.256 42.4352 124.988C42.4863 124.72 42.6183 124.402 42.5599 124.149C42.5015 123.895 42.0144 123.874 41.9875 123.624C41.9509 123.375 42.5095 122.816 42.4924 122.563C42.4752 122.311 41.8628 122.37 41.8652 122.113C41.8675 121.855 42.1001 121.484 42.1122 121.224C42.1243 120.965 42.3125 120.624 42.3441 120.36C42.3756 120.096 41.9364 120.105 41.98 119.849C42.0236 119.593 42.4645 119.101 42.5156 118.833C42.5689 118.574 43.0466 118.064 43.1074 117.793C43.1705 117.533 42.5198 117.693 42.5926 117.43C42.6654 117.167 43.1064 116.675 43.1792 116.412C43.252 116.149 43.6756 115.672 43.7461 115.399C43.8287 115.134 44.017 114.793 44.0996 114.527C44.1821 114.262 43.3365 114.601 43.4288 114.333C43.5114 114.068 44.1982 113.396 44.2807 113.131C44.3633 112.866 44.7653 112.383 44.8478 112.118C44.9304 111.853 44.3269 112.084 44.4065 111.85C44.4838 111.607 44.711 111.257 44.7905 111.023C44.8678 110.779 45.2547 110.321 45.3418 110.075C45.4288 109.829 45.3413 109.716 45.4283 109.47C45.5154 109.224 45.2207 109.282 45.31 109.046C45.3993 108.81 45.9835 108.183 46.0802 107.935C46.177 107.686 46.1801 107.522 46.2791 107.283C46.3781 107.045 46.3122 106.937 46.4113 106.699C46.5103 106.46 47.1342 105.783 47.2333 105.545C47.3323 105.306 47.1748 105.291 47.2836 105.051C47.3924 104.81 47.4247 104.639 47.5432 104.396C47.652 104.155 47.985 103.73 48.0937 103.489C48.2123 103.246 48.2123 103.113 48.3308 102.87C48.4494 102.627 48.7823 102.202 48.9008 101.959C49.0194 101.716 48.829 101.78 48.9573 101.535C49.0878 101.3 49.0084 101.267 49.1366 101.022C49.2671 100.787 49.5731 100.378 49.7036 100.142C49.8439 99.9048 50.3306 99.3001 50.4708 99.0626C50.6111 98.825 50.5241 98.804 50.6741 98.5642C50.8518 98.2667 50.6337 98.3888 50.8309 98.0868C51.1857 97.5331 51.6792 96.9576 51.8629 96.7306C51.9919 96.5777 51.8741 96.7793 51.9633 96.6767C52.1785 96.4526 52.3637 96.2766 52.5887 96.0503C52.8039 95.8263 53.5441 94.763 53.7571 94.5292C53.97 94.2955 53.7547 94.7863 53.9699 94.5623C54.1851 94.3383 54.5534 93.843 54.7566 93.6114C54.9621 93.3897 55.3805 92.8007 55.5837 92.5692C55.7966 92.3354 56.0899 91.96 56.3028 91.7263C56.5158 91.4925 56.5074 91.6791 56.7182 91.4356C56.9409 91.1996 57.0256 91.2109 57.2483 90.9749C57.471 90.7389 57.6584 90.5725 57.8811 90.3365C58.1038 90.1005 58.4271 89.6771 58.6618 89.4486C58.8943 89.2104 58.9774 89.3041 59.2121 89.0756C59.4566 88.8448 60.0625 87.8227 60.3144 87.58C60.5589 87.3492 60.48 87.8086 60.6944 87.6258C60.9111 87.4528 61.1887 87.1426 61.4204 86.9455C61.6325 86.753 62.0173 86.1513 62.2295 85.9587C62.4492 85.7542 62.6178 85.6846 62.8278 85.4823C63.0377 85.28 63.0481 85.6368 63.2626 85.454C63.4942 85.2569 64.0507 84.2873 64.2749 84.1022C64.5088 83.9149 64.5979 84.0791 64.8416 83.8896C65.0853 83.7001 65.326 83.542 65.5772 83.3404C65.8898 83.094 66.3668 82.3581 66.7065 82.0952C67.0364 81.8345 67.3573 81.6682 67.7089 81.4128C68.0605 81.1573 68.1997 81.6281 68.5753 81.3876C68.897 81.1801 69.401 80.2944 69.6979 80.1131C69.985 79.9341 69.987 80.6109 70.2861 80.4394C70.5733 80.2604 70.9091 79.9367 71.1963 79.7577C71.4834 79.5787 71.8427 79.1778 72.1298 78.9988C72.417 78.8198 72.7558 78.4646 73.0527 78.2834C73.3399 78.1043 73.7607 77.3917 74.0479 77.2127C74.335 77.0337 74.6146 76.8666 74.8995 76.6779C75.1844 76.4891 75.4483 76.3872 75.731 76.1887C76.0159 76 76.2429 76.0503 76.5376 75.8593C76.8225 75.6705 77.1494 75.3079 77.4343 75.1191C77.5131 75.0599 77.3996 75.6812 77.4828 75.6415C77.6762 75.5457 77.3583 75.6805 77.3267 76.0777C77.3086 76.2666 78.0838 75.9341 78.0267 76.2654C77.9696 76.5966 77.0879 77.4462 77.021 77.7798C76.9542 78.1133 77.1669 78.2798 77.1001 78.6133C77.0362 78.9153 77.6591 78.8129 77.6073 79.1224C77.5554 79.432 76.508 80.3197 76.4539 80.6195C76.3999 80.9193 76.4485 81.1749 76.3944 81.4747C76.3425 81.7842 76.5434 81.9432 76.5013 82.2505C76.4592 82.5578 76.9246 82.5737 76.8826 82.881C76.8405 83.1883 75.9722 83.963 75.9301 84.2703C75.8978 84.5753 76.7942 84.3688 76.7641 84.6836C76.7318 84.9886 76.665 85.3222 76.6326 85.6272C76.6003 85.9322 76.2418 86.4253 76.2094 86.7303C76.1771 87.0354 75.946 87.458 75.9137 87.7631C75.8813 88.0681 76.1624 88.2189 76.142 88.5314C76.1119 88.8462 75.7879 89.3108 75.7556 89.6159C75.7352 89.9284 76.3468 89.9107 76.3264 90.2232C76.306 90.5358 76.0361 90.9674 76.0157 91.2799C75.9954 91.5925 76.0582 91.8653 76.0378 92.1779C76.0175 92.4904 76.1268 92.7423 76.1162 93.0526C76.0958 93.3652 75.52 93.9391 75.5093 94.2494C75.4987 94.5597 76.1583 94.5719 76.1327 94.9062C76.1198 95.2068 75.987 95.5657 75.9621 95.8588C75.9395 96.1616 75.3937 96.6875 75.3613 96.9926C75.329 97.2976 75.2209 97.6304 75.1983 97.9332C75.1644 98.3207 75.3532 98.6056 75.3193 98.9931C75.2854 99.3806 75.0072 99.8654 74.971 100.243C74.9469 100.628 75.3531 100.832 75.3387 101.215C75.3175 101.703 75.2198 102.259 75.1844 102.729C75.1611 103.073 75.3918 103.317 75.3782 103.659C75.3743 103.998 75.4461 104.31 75.452 104.648C75.4578 104.985 74.9142 105.521 74.9298 105.856C74.9454 106.191 74.9438 106.54 74.9789 106.871C75.014 107.201 75.6376 107.324 75.6922 107.65C75.737 107.979 74.9219 108.628 74.9787 108.964C75.043 109.288 75.7251 109.398 75.8112 109.727C75.8972 110.056 76.1985 110.294 76.2141 110.629C76.2193 110.874 75.1869 111.471 75.1628 111.723C75.1093 112.382 75.8466 113.043 75.6449 113.192C75.453 113.339 75.049 113.412 74.8488 113.478C74.4973 113.6 74.1302 112.854 73.7764 112.966C73.4248 113.088 73.0816 113.157 72.718 113.271C72.3544 113.386 72.0085 114.245 71.6449 114.36C71.2814 114.475 70.9282 114.946 70.5646 115.06C70.201 115.175 69.8347 114.787 69.4831 114.909C69.1195 115.024 68.7685 115.638 68.4049 115.753C68.0414 115.867 67.6773 115.356 67.3137 115.471C66.9232 115.602 66.5236 115.56 66.133 115.691C65.7425 115.822 65.3452 116.057 64.9569 116.198C64.5686 116.339 64.1204 116.309 63.7148 116.464C63.3093 116.619 62.921 116.626 62.5252 116.779C62.1294 116.932 61.7545 117.131 61.3781 117.279C60.9531 117.439 60.5324 118.018 60.1246 118.163C59.7168 118.308 59.2812 118.778 58.8831 118.921C58.4828 119.054 58.1502 118.546 57.7641 118.696C57.4245 118.826 57.0625 118.858 56.7297 119.017C56.3946 119.166 56.0374 120.11 55.7023 120.259C55.5898 120.306 55.6385 120.428 55.5276 120.525C55.1729 120.812 54.9286 120.643 54.8325 121.116C54.7821 121.343 55.1726 121.479 55.1477 121.906C55.1356 122.165 54.1939 122.844 54.187 123.215C54.1817 123.503 55.1074 123.423 55.1118 123.71C55.1162 123.996 54.5561 124.505 54.5627 124.801C54.5671 125.087 55.016 125.21 55.0226 125.506C55.0293 125.802 55.1851 126.033 55.1894 126.319C55.2058 126.613 54.2649 127.25 54.2812 127.544C54.3118 127.989 55.0358 128.058 55.1084 128.328C55.2319 128.864 55.1597 129.353 55.4535 129.337C55.6889 129.334 55.9559 129.067 56.183 128.984C56.5518 128.848 56.9857 129.127 57.3545 128.991C57.7234 128.855 58.0839 128.638 58.4625 128.5C58.841 128.361 59.0753 127.374 59.4539 127.235C59.8422 127.094 60.3442 127.625 60.7325 127.484C61.1208 127.344 61.5099 127.162 61.92 127.026C62.33 126.891 62.7101 126.536 63.1322 126.408C63.552 126.271 63.9792 126.121 64.411 125.991C64.8428 125.86 65.2642 125.507 65.6809 125.4C66.0955 125.284 66.5086 125.117 66.9329 124.999C67.3572 124.881 67.7979 124.923 68.2124 124.807C68.6952 124.675 69.1412 124.296 69.6217 124.154C70.1022 124.013 70.7631 124.876 71.2555 124.742C71.7503 124.618 72.195 124.054 72.4714 124.452C72.637 124.681 72.5333 125.166 72.6792 125.666C72.7728 125.983 72.514 126.464 72.5955 126.907C72.6741 127.248 72.9836 127.567 73.0629 128C73.1242 128.355 73.3878 128.654 73.4492 129.009C73.5105 129.364 72.9114 129.882 72.9727 130.237C73.034 130.592 74.1531 130.684 74.2144 131.039C74.2757 131.394 74.571 131.696 74.6323 132.051C74.6936 132.406 74.3651 132.851 74.4361 133.204C74.4974 133.56 73.9524 134.044 74.0894 134.372C74.2264 134.7 74.5022 135.005 74.622 135.347C74.7418 135.689 75.3682 135.914 75.488 136.256C75.6078 136.598 75.2673 137.036 75.3751 137.37C75.4851 137.714 75.9753 137.97 76.0561 138.321C76.1369 138.672 76.3834 138.985 76.423 139.335C76.4648 139.695 75.9369 140.165 75.9982 140.52C76.0498 140.878 76.279 141.205 76.3403 141.56C76.3971 141.896 76.3056 142.256 76.3722 142.589C76.4485 142.921 76.4858 143.261 76.5621 143.592C76.6384 143.924 77.2088 144.172 77.2948 144.501C77.3809 144.83 76.5374 145.312 76.6235 145.641C76.7193 145.968 77.4186 146.196 77.5144 146.523C77.6102 146.85 77.251 147.251 77.337 147.58C77.4598 148.024 77.2947 148.421 77.3688 148.743C77.4833 149.24 77.5462 149.512 77.5581 149.787C77.5766 150.357 78.2194 151.01 77.7546 151.086C77.4166 151.133 76.8914 150.546 76.5511 150.583C76.2108 150.62 76.0142 151.281 75.6641 151.321C75.2631 151.362 74.7267 150.86 74.3257 150.901C73.9149 150.944 73.5521 151.151 73.1391 151.184C72.738 151.225 72.3945 151.561 71.9935 151.602C71.5925 151.643 71.0695 151.199 70.6513 151.255C70.3035 151.304 69.8546 151.182 69.5157 151.27C69.1844 151.346 69.0964 152.167 68.7606 152.224C68.3154 152.295 67.7405 151.894 67.3005 151.944C66.8583 151.985 66.4678 152.249 66.0398 152.307C65.6117 152.364 65.1276 152.178 64.7093 152.233C64.2911 152.289 63.8302 152.159 63.4119 152.214C63.0056 152.277 62.681 152.649 62.2822 152.7C61.8759 152.763 61.4091 152.563 61.0103 152.613C60.604 152.676 60.5109 152.985 60.48 153.341C60.462 153.53 59.9979 153.832 60.0952 154.209C60.1491 154.443 60.4353 154.706 60.5409 155.03C60.6187 155.279 60.5646 155.579 60.6656 155.884C60.7667 156.189 61.2883 156.449 61.4013 156.761C61.5122 157.064 61.5743 157.378 61.6851 157.681C61.7959 157.984 62.4996 158.232 62.6224 158.543C62.7452 158.853 62.3628 159.198 62.4931 159.496C62.6234 159.794 62.4621 160.119 62.6021 160.415C62.7422 160.711 62.8215 161.011 62.9713 161.305C63.1211 161.599 63.3413 161.887 63.5008 162.178C63.6604 162.47 64.3836 162.714 64.5409 162.996C64.6982 163.278 64.4012 163.592 64.5585 163.874C64.7158 164.156 65.553 164.405 65.7103 164.686C65.8676 164.968 65.9131 165.255 66.0704 165.537C66.2277 165.819 65.6812 166.12 65.8385 166.401C65.9958 166.683 65.8157 166.971 65.973 167.253C66.1281 167.525 67.358 167.786 67.513 168.058C67.6681 168.33 66.9425 168.61 67.0878 168.884C67.2428 169.157 68.0746 169.427 68.2296 169.699C68.3847 169.971 68.6124 170.247 68.7675 170.519C68.9225 170.791 68.891 171.055 69.0363 171.329C69.1816 171.604 69.201 171.866 69.3463 172.14C69.5013 172.413 69.5836 172.681 69.7386 172.953C69.8937 173.225 69.8404 173.484 69.9857 173.758C70.131 174.033 70.4 174.309 70.5453 174.584C70.7003 174.856 71.3493 175.178 71.4878 175.424C71.6286 175.678 71.2268 175.894 71.4141 176.128C71.6014 176.362 72.0286 176.613 72.2526 176.828C72.4766 177.043 72.5072 177.221 72.7193 177.428C72.9313 177.636 73.0347 177.817 73.2445 178.015C73.464 178.211 73.5066 178.396 73.7284 178.602C73.9479 178.797 74.4433 179.032 74.6628 179.228C74.8824 179.424 75.1357 179.632 75.3552 179.828C75.5747 180.024 76.1667 180.277 76.3885 180.483C76.6103 180.688 76.9362 180.9 77.146 181.098C77.3678 181.304 77.1205 181.433 77.3303 181.631C77.5498 181.826 77.8149 182.042 78.0225 182.23C78.2323 182.428 78.9548 182.713 79.1646 182.911C79.3744 183.109 78.6533 183.142 78.8608 183.33C79.0706 183.528 79.3433 183.732 79.5531 183.93C79.7629 184.128 80.4126 184.41 80.6322 184.605C80.842 184.803 80.878 184.959 81.0952 185.145C81.3028 185.333 81.5755 185.537 81.795 185.733C82.0145 185.929 82.5242 186.181 82.7534 186.374C82.8059 186.424 82.6822 186.421 82.7346 186.471C82.9519 186.657 83.2614 186.842 83.4143 186.971C83.6578 187.182 83.938 187.374 84.0429 187.473C84.2572 187.69 83.5857 187.404 83.2792 187.32C82.9846 187.245 82.8625 187.293 82.5537 187.2C82.2449 187.107 81.6065 186.741 81.3075 186.646C80.941 186.525 80.5648 186.406 80.1623 186.263C79.7936 186.132 79.571 186.102 79.2023 185.971C78.8433 185.838 78.8028 185.93 78.4438 185.797C78.0848 185.664 77.9994 185.694 77.6502 185.559C77.3564 185.442 76.8828 185.212 76.5913 185.105C76.2976 184.988 76.1739 184.986 75.8801 184.869C75.5863 184.752 74.983 184.449 74.6915 184.342C74.3977 184.225 74.3438 184.258 74.05 184.141C73.7563 184.024 72.8 183.526 72.4987 183.421C72.0505 183.257 71.9014 183.322 71.4398 183.1L71.5081 183.085Z" fill="#FFF600"/>
<path d="M152.887 187.685C152.97 187.953 153.237 188.22 153.226 188.397C153.184 188.838 153.041 188.932 152.832 188.96C152.504 189.005 151.989 188.549 151.658 188.584C151.33 188.629 151.009 188.795 150.659 188.834C150.309 188.874 149.989 188.999 149.638 189.039C149.288 189.078 149.105 189.531 148.755 189.57C148.405 189.61 147.898 189.234 147.558 189.272C147.047 189.328 146.548 189.432 146.05 189.496C145.712 189.543 145.653 190.223 145.312 190.261C144.972 190.298 144.515 190.096 144.175 190.133C143.834 190.17 143.576 190.384 143.236 190.421C142.895 190.458 142.228 189.791 141.888 189.828C141.538 189.868 141.293 190.14 140.94 190.17C140.588 190.2 140.133 190.007 139.781 190.037C139.429 190.067 139.156 190.263 138.804 190.293C138.682 190.3 138.576 190.242 138.453 190.24C138.172 190.223 137.472 190.302 137.012 189.597C136.839 189.339 137.312 188.943 137.14 188.685C136.968 188.427 136.333 188.255 136.171 187.995C136.008 187.735 135.892 187.454 135.729 187.194C135.567 186.934 135.217 186.706 135.052 186.436C134.89 186.176 134.506 185.936 134.341 185.666C134.172 185.377 135.003 184.888 134.832 184.589C134.663 184.299 134.598 183.975 134.429 183.686C134.257 183.387 133.255 183.269 133.074 182.972C132.893 182.675 133.663 182.19 133.472 181.895C133.291 181.598 132.326 181.461 132.135 181.167C131.944 180.872 131.517 180.622 131.316 180.329C131.115 180.037 131.061 179.711 130.86 179.418C130.669 179.124 130.449 178.836 130.258 178.541C130.067 178.247 129.837 177.961 129.646 177.666C129.445 177.374 129.497 177.023 129.306 176.728C129.115 176.434 128.778 176.173 128.587 175.878C128.396 175.583 127.794 175.373 127.603 175.079C127.412 174.784 127.304 174.45 127.118 174.133C126.876 173.707 126.792 173.254 126.601 172.826C126.461 172.53 126.356 172.297 126.215 172.084C125.96 171.691 126.303 171.797 126.103 171.863C125.646 172.02 124.937 172.06 124.428 172.034C123.929 172.005 123.414 171.508 122.979 171.711C122.599 171.89 122.052 171.473 121.615 171.491C121.178 171.51 120.821 171.921 120.4 171.966C120.079 171.999 119.888 172.371 119.569 172.414C119.251 172.457 118.652 171.64 118.344 171.68C117.954 171.729 117.752 172.32 117.37 172.356C116.989 172.393 116.492 172.107 116.113 172.153C115.731 172.19 115.609 173.039 115.227 173.076C114.846 173.112 114.421 173.005 114.039 173.041C113.658 173.078 113.265 173.066 112.883 173.102C112.502 173.139 111.87 172.443 111.498 172.477C111.116 172.514 110.777 172.644 110.395 172.68C110.014 172.717 109.743 173.056 109.371 173.09C109.342 173.097 109.476 173.456 109.456 173.461C108.984 173.549 107.961 172.892 107.804 173.103C107.694 173.251 108.529 173.89 108.581 174.381C108.607 174.631 108.176 174.895 108.259 175.255C108.319 175.518 108.746 175.81 108.868 176.121C108.968 176.375 109.431 176.648 109.559 176.936C109.687 177.225 109.093 177.495 109.221 177.784C109.349 178.073 109.373 178.354 109.51 178.641C109.648 178.927 110.819 179.242 110.957 179.529C111.095 179.815 110.333 180.073 110.471 180.359C110.609 180.645 110.984 180.939 111.122 181.225C111.259 181.511 111.553 181.803 111.69 182.089C111.828 182.376 111.612 182.641 111.75 182.927C111.888 183.214 112.253 183.509 112.379 183.788C112.505 184.067 112.684 184.354 112.81 184.633C112.936 184.912 113.197 185.201 113.323 185.48C113.449 185.758 112.857 185.997 112.973 186.278C113.099 186.557 113.756 186.868 113.881 187.147C114.005 187.416 114.308 187.705 114.441 187.972C114.565 188.241 113.75 188.449 113.884 188.716C114.017 188.983 114.569 189.287 114.703 189.554C114.817 189.784 115.559 190.065 115.683 190.292C115.81 190.53 115.521 190.699 115.566 190.853C115.655 191.151 115.478 191.181 115.26 191.17C114.855 191.15 114.497 191.202 114.105 191.19C113.712 191.178 113.094 190.858 112.704 190.856C112.313 190.853 111.994 190.937 111.603 190.935C111.242 190.926 110.808 190.82 110.446 190.811C110.085 190.802 109.679 190.731 109.318 190.722C108.956 190.713 108.709 190.842 108.355 190.821C108.001 190.8 107.51 190.626 107.156 190.605C106.802 190.583 107.039 191.299 106.683 191.268C106.339 191.244 105.411 190.514 105.065 190.481C104.636 190.446 104.239 190.415 103.815 190.358C103.392 190.302 103.464 190.88 103.045 190.802C102.908 190.783 102.203 190.442 102.059 190.352C101.865 190.222 102.474 189.969 102.315 189.77C102.142 189.553 101.434 189.285 101.294 189.081C101.143 188.87 101.166 188.701 101.026 188.497C100.897 188.291 100.757 188.087 100.63 187.89C100.468 187.63 100.718 187.47 100.546 187.212C100.388 186.971 100.271 186.731 100.123 186.488C99.9742 186.245 98.7203 185.836 98.572 185.594C98.4237 185.351 98.9214 185.195 98.7829 184.95C98.6443 184.705 98.1986 184.417 98.06 184.172C97.9214 183.927 98.3757 183.761 98.2371 183.516C98.0963 183.261 97.1422 182.906 96.9939 182.663C96.8554 182.418 97.0653 182.216 96.9245 181.961C96.7859 181.716 97.1196 181.516 96.9811 181.27C96.8425 181.025 96.3142 180.736 96.1734 180.482C96.0348 180.236 96.5333 180.039 96.4045 179.792C96.2637 179.537 95.2774 179.22 95.1366 178.966C94.9958 178.711 95.4725 178.508 95.3317 178.254C95.1909 177.999 95.0306 177.748 94.8756 177.476C94.7108 177.206 94.7087 176.93 94.5904 176.639C94.472 176.348 93.3314 175.985 93.2499 175.675C93.178 175.363 93.7148 175.065 93.619 174.738C93.5329 174.409 93.3959 174.082 93.3001 173.755C93.214 173.426 92.7352 173.085 92.6491 172.755C92.563 172.426 92.8817 172.117 92.7956 171.788C92.7096 171.459 92.2308 171.118 92.1448 170.788C92.0587 170.459 92.489 170.145 92.403 169.816C92.3267 169.484 91.5278 169.135 91.4418 168.806C91.3557 168.477 92.3317 168.17 92.2457 167.841C92.1693 167.509 91.3606 167.162 91.2746 166.833C91.1983 166.502 90.6588 166.164 90.5727 165.835C90.4964 165.504 91.1913 165.179 91.1053 164.85C91.0289 164.519 91.4765 164.19 91.3905 163.861C91.3142 163.53 90.8158 163.193 90.7297 162.864C90.6579 162.552 90.8942 162.241 90.8201 161.919C90.7483 161.608 90.2859 161.293 90.2044 160.984C90.1228 160.674 89.1627 160.382 89.0692 160.065C88.9756 159.748 90.1541 159.384 90.068 159.055C89.9819 158.726 89.5316 158.419 89.4455 158.09C89.3692 157.759 89.2126 157.436 89.146 157.102C89.0795 156.769 88.8091 156.441 88.7523 156.105C88.6857 155.772 88.6581 155.429 88.6012 155.093C88.5444 154.758 88.0821 154.443 88.035 154.105C87.979 153.728 88.2774 153.331 88.2213 152.954C88.1652 152.577 88.5537 152.169 88.4976 151.792C88.4513 151.413 88.456 151.032 88.4097 150.653C88.3634 150.274 87.3066 149.963 87.2603 149.584C87.214 149.204 88.2267 148.745 88.1804 148.366C88.1341 147.987 88.2287 147.596 88.1899 147.204C88.1503 146.854 87.2337 146.573 87.1919 146.213C87.1523 145.863 87.4336 145.48 87.394 145.13C87.3544 144.78 86.659 144.478 86.6194 144.128C86.5798 143.778 87.1308 143.364 87.0913 143.014C87.0517 142.664 87.4813 142.257 87.4514 141.905C87.4194 141.543 86.9863 141.222 86.9564 140.87C86.9243 140.508 86.4912 140.187 86.4711 139.832C86.4488 139.468 86.5577 139.094 86.5451 138.727C86.5325 138.361 86.379 138.006 86.3784 137.647C86.3755 137.278 87.0338 136.839 87.0212 136.473C87.0108 136.116 86.3589 135.825 86.3171 135.465C86.2752 135.105 86.6149 134.709 86.5536 134.354C86.4945 134.008 85.7496 133.759 85.6905 133.413C85.6217 133.07 86.9171 132.546 86.8483 132.203C86.7892 131.857 85.5263 131.676 85.45 131.345C85.3714 131.004 85.9299 130.577 85.9076 130.213C85.8875 129.859 85.4394 129.562 85.4193 129.207C85.3992 128.852 85.5374 128.472 85.5173 128.117C85.4972 127.763 86.1412 127.306 86.1211 126.952C86.104 126.566 85.0263 126.342 85.0092 125.956C84.9921 125.57 85.9164 125.039 85.8993 124.653C85.8822 124.267 85.1329 123.998 85.1158 123.612C85.0987 123.226 85.0426 122.849 85.0255 122.463C84.9987 122.08 84.9134 121.709 84.8865 121.325C84.8597 120.942 85.1298 120.51 85.103 120.126C85.0761 119.743 85.0223 119.375 85.0247 118.985C85.0271 118.594 85.1389 118.189 85.1436 117.808C85.1557 117.415 85.5037 116.966 85.5061 116.575C85.5182 116.182 85.187 115.859 85.1992 115.466C85.2113 115.073 84.6539 114.791 84.666 114.398C84.6759 113.996 85.0508 113.53 85.0705 113.125C85.0924 112.73 85.9006 112.185 85.9225 111.79C85.9444 111.395 85.7496 111.039 85.7813 110.642C85.8129 110.245 85.3334 109.945 85.3553 109.55C85.3772 109.155 86.0541 108.619 86.0955 108.22C86.1294 107.832 85.1304 107.683 85.1448 107.3C85.1494 106.919 85.5438 106.448 85.4878 106.071C85.422 105.696 85.8532 105.207 85.8189 104.835C85.7823 104.454 84.8979 104.268 84.883 103.891C84.8682 103.515 84.8706 103.125 84.8655 102.746C84.8604 102.368 84.9625 101.964 84.9671 101.584C84.9665 101.225 85.6286 100.713 85.64 100.361C85.6492 100 85.2512 99.7428 85.2724 99.3891C85.2935 99.0353 85.9653 98.5214 85.9961 98.1654C86.027 97.8094 85.234 97.6636 85.2649 97.3076C85.2958 96.9516 85.4242 96.5731 85.4648 96.2149C85.5054 95.8566 86.07 95.3674 86.1107 95.0091C86.1513 94.6509 85.6604 94.4356 85.7107 94.0751C85.7513 93.7168 86.2574 93.2411 86.3078 92.8805C86.3484 92.5223 85.9355 92.289 85.9882 91.9383C86.0385 91.5778 86.157 91.2015 86.1999 90.853C86.2428 90.5045 87.0173 89.9464 87.0579 89.5882C87.0985 89.2299 86.858 88.9877 86.8912 88.6414C86.9265 88.3049 86.9716 87.9661 87.007 87.6296C87.0423 87.2931 86.5192 87.116 86.5643 86.7772C86.6094 86.4384 86.4912 86.1476 86.5363 85.8088C86.5814 85.47 86.8484 85.0699 86.8935 84.7311C86.9386 84.3923 87.7791 83.8088 87.8242 83.47C87.8693 83.1313 87.9047 82.7947 87.9498 82.456C87.9949 82.1172 87.4275 81.9708 87.4726 81.632C87.5177 81.2933 87.841 80.8699 87.8861 80.5311C87.9312 80.1924 87.8346 79.9068 87.8797 79.568C87.9248 79.2292 88.2967 78.7947 88.3418 78.4559C88.3869 78.1171 88.1194 77.8914 88.1548 77.5549C88.1999 77.2161 88.0178 76.9604 88.0554 76.6337C88.1028 76.3046 88.8803 75.7151 88.9277 75.386C88.9847 75.0548 88.5292 74.9032 88.5863 74.5719C88.6434 74.2406 88.9104 73.8405 88.9675 73.5092C89.0246 73.1779 89.0351 72.8676 89.0922 72.5364C89.1591 72.2029 88.9598 71.9614 89.0191 71.6399C89.086 71.3064 88.9354 71.0537 89.012 70.718C89.0788 70.3845 89.9395 69.7552 90.0064 69.4217C90.0702 69.1196 89.5149 68.9808 89.6049 68.7035C89.8158 68.0597 90.2768 67.9227 90.5264 67.8037C90.8323 67.6614 91.1683 67.3377 91.4742 67.1954C91.78 67.0531 92.0317 67.344 92.3398 67.2115C92.6479 67.079 92.9492 67.0506 93.2648 66.9061C93.5902 66.7593 93.9668 65.944 94.2921 65.7972C94.6175 65.6504 94.903 65.9541 95.2283 65.8073C95.5537 65.6605 95.8647 65.7633 96.202 65.624C96.5274 65.4773 96.8618 65.3694 97.1969 65.2204C97.5342 65.0811 97.9183 64.1204 98.2534 63.9714C98.5908 63.8321 98.8708 64.6912 99.2179 64.5497C99.5552 64.4104 99.9144 63.8761 100.264 63.7443C100.611 63.6028 100.953 63.3496 101.3 63.2081C101.647 63.0666 101.986 63.2451 102.333 63.1036C102.672 62.974 102.983 62.3176 103.321 62.1371C103.649 61.9588 103.862 61.6328 104.196 61.3916C104.548 61.1362 104.94 61.682 105.114 62.2577C105.201 62.5455 104.816 63.1473 104.882 63.6143C104.932 63.9621 105.243 64.1983 105.285 64.5581C105.336 64.9156 106.048 64.9774 106.1 65.3349C106.147 65.673 106.299 65.9766 106.356 66.3124C106.412 66.6482 105.615 67.3757 105.672 67.7115C105.739 68.0451 106.28 68.1667 106.356 68.4981C106.435 68.8391 105.843 69.4782 105.932 69.8171C106.01 70.1581 106.277 70.4251 106.365 70.7639C106.453 71.1027 106.71 71.3719 106.806 71.6987C106.904 72.0353 107.198 72.2858 107.304 72.6104C107.411 72.9447 107.287 73.3839 107.387 73.7302C107.485 74.0668 107.343 74.5202 107.444 74.8665C107.542 75.2031 107.762 75.491 107.852 75.8396C107.953 76.1859 108.312 76.4109 108.413 76.7572C108.513 77.1035 108.577 77.4686 108.677 77.8149C108.767 78.1635 109.222 78.3563 109.315 78.7146C109.408 79.0729 108.772 79.7428 108.863 80.0913C108.943 80.4421 109.528 80.5743 109.616 80.9131C109.707 81.2617 109.944 81.5353 110.037 81.8937C110.12 82.2542 109.58 82.8918 109.672 83.2502C109.755 83.6107 110.437 83.7204 110.53 84.0787C110.613 84.4393 111.061 84.6441 111.153 85.0024C111.236 85.363 111.432 85.6771 111.525 86.0354C111.618 86.3937 110.945 87.0823 111.038 87.4406C111.14 87.7967 111.505 88.0412 111.607 88.3972C111.71 88.7533 111.991 89.0375 112.105 89.401C112.217 89.7549 112.603 90.0046 112.725 90.3562C112.831 90.6808 112.388 91.2547 112.506 91.5868C112.624 91.9189 112.311 92.4322 112.428 92.7643C112.556 93.0942 113.179 93.2173 113.309 93.5569C113.436 93.8868 113.331 94.3215 113.47 94.6588C113.607 94.9864 113.944 95.2474 114.091 95.5727C114.24 95.9078 114.707 96.1082 114.864 96.4313C115.022 96.7641 115.357 97.0154 115.526 97.346C115.685 97.6788 116.068 97.9188 116.176 98.2531C116.284 98.5875 115.209 99.3995 115.297 99.7384C115.385 100.077 116.136 100.171 116.236 100.517C116.336 100.864 116.739 101.099 116.84 101.446C116.94 101.792 116.94 102.192 117.042 102.548C117.145 102.904 116.832 103.418 116.935 103.774C117.037 104.13 117.035 104.52 117.137 104.876C117.256 105.259 117.065 105.765 117.186 106.158C117.305 106.541 117.351 106.962 117.48 107.343C117.599 107.726 118.067 107.977 118.198 108.367C118.327 108.748 118.541 109.099 118.65 109.484C118.76 109.87 119.247 110.116 119.393 110.483C119.539 110.85 120.003 111.123 120.17 111.494C120.338 111.866 120.066 112.422 120.224 112.796C120.384 113.179 120.561 113.549 120.712 113.935C120.862 114.321 120.681 114.825 120.831 115.211C120.982 115.597 120.754 116.122 120.895 116.51C121.035 116.898 121.411 117.191 121.551 117.58C121.692 117.968 121.709 118.395 121.849 118.784C121.99 119.172 122.517 119.41 122.658 119.798C122.808 120.184 122.38 120.775 122.53 121.161C122.681 121.547 123.388 121.723 123.568 122.102C123.748 122.482 124.079 122.806 124.257 123.175C124.427 123.557 125.031 123.777 125.211 124.156C125.391 124.535 124.974 125.134 125.144 125.516C125.314 125.897 124.984 126.466 125.142 126.84C125.302 127.224 126.351 127.28 126.492 127.668C126.633 128.056 126.867 128.403 126.99 128.805C127.111 129.198 126.676 129.801 126.797 130.194C126.926 130.575 126.588 131.115 126.717 131.495C126.846 131.876 127.446 132.077 127.585 132.455C127.723 132.834 127.556 133.313 127.702 133.68C127.848 134.046 128.983 134.072 129.139 134.437C129.295 134.801 128.571 135.491 128.717 135.858C128.873 136.222 128.755 136.69 128.901 137.057C129.057 137.421 129.422 137.717 129.568 138.083C129.724 138.448 130.337 138.656 130.492 139.02C130.638 139.386 130.889 139.719 131.045 140.083C131.191 140.45 131.225 140.863 131.361 141.231C131.507 141.598 131.558 141.997 131.713 142.361C131.859 142.728 132.252 143.007 132.41 143.381C132.556 143.747 132.78 144.096 132.926 144.462C133.072 144.829 133.142 145.223 133.288 145.59C133.455 146.003 134.203 146.221 134.363 146.646C134.53 147.059 134.565 147.523 134.722 147.938C134.879 148.353 134.695 148.888 134.852 149.304C135.009 149.719 134.986 150.196 135.162 150.607C135.339 151.018 134.83 151.659 135.024 152.055C135.22 152.462 135.731 152.765 135.935 153.159C136.139 153.553 136.171 154.008 136.363 154.394C136.557 154.791 136.998 155.1 137.189 155.487C137.381 155.874 138.556 155.942 138.748 156.328C138.94 156.715 138.482 157.313 138.664 157.702C138.842 158.072 138.712 158.533 138.88 158.905C139.048 159.276 139.837 159.454 140.005 159.825C140.173 160.197 139.518 160.83 139.686 161.202C139.854 161.574 139.829 162.001 139.987 162.375C140.145 162.749 141.269 162.818 141.427 163.192C141.585 163.566 140.794 164.231 140.952 164.605C141.11 164.979 142.291 165.025 142.449 165.399C142.607 165.773 142.677 166.168 142.825 166.544C142.967 166.891 142.947 167.296 143.091 167.653C143.232 168 143.291 168.386 143.432 168.734C143.574 169.081 143 169.664 143.132 170.014C143.264 170.363 143.759 170.598 143.898 170.935C144.038 171.272 144.807 171.403 144.973 171.724C145.139 172.045 144.691 172.548 144.872 172.845C145.053 173.142 145.839 173.259 146.013 173.568C146.185 173.867 145.483 174.429 145.666 174.735C145.848 175.032 147.01 175.042 147.191 175.338C147.372 175.635 147.687 175.891 147.861 176.2C148.033 176.499 147.631 176.982 147.802 177.281C147.974 177.58 148.587 177.746 148.761 178.055C148.946 178.372 148.22 178.96 148.396 179.278C148.572 179.597 149.17 179.788 149.346 180.106C149.522 180.425 149.657 180.743 149.823 181.064C149.987 181.375 150.095 181.709 150.249 182.022C150.413 182.334 150.404 182.695 150.561 183.018C150.715 183.331 150.852 183.659 151.006 183.972C151.16 184.286 151.449 184.558 151.603 184.871C151.757 185.185 152.065 185.452 152.224 185.785C152.378 186.099 152.603 186.406 152.76 186.729C152.916 187.052 152.81 187.436 152.896 187.724L152.887 187.685ZM105.394 134.796L105.362 134.526C105.484 134.611 106.349 134.268 106.842 134.134C107.188 134.034 107.71 134.56 108.056 134.46C108.4 134.35 108.728 134.079 109.067 133.95C109.331 133.848 109.661 132.961 109.632 132.301C109.614 131.956 108.996 131.637 108.877 131.161C108.754 130.718 109.146 130.104 108.972 129.703C108.835 129.375 108.668 129.054 108.522 128.729C108.375 128.404 107.381 128.366 107.234 128.04C107.087 127.715 107.275 127.282 107.121 126.969C106.96 126.626 106.554 126.381 106.374 126.043C106.195 125.714 107.019 125.012 106.889 124.672C106.757 124.323 106.306 124.098 106.186 123.756C106.056 123.417 106.237 122.955 106.105 122.605C105.983 122.254 105.627 121.997 105.507 121.655C105.387 121.313 105.343 120.944 105.211 120.595C105.089 120.243 104.105 120.203 103.993 119.849C103.864 119.468 104.483 118.813 104.344 118.434C104.215 118.053 103.537 117.871 103.399 117.492C103.26 117.114 103.188 116.71 103.049 116.331C102.901 115.955 102.555 115.655 102.399 115.29C102.251 114.914 101.86 114.645 101.753 114.269C101.646 113.894 102.668 113.073 102.561 112.698C102.454 112.322 102.457 111.891 102.348 111.505C102.239 111.12 101.22 111.108 101.113 110.733C101.006 110.357 101.928 109.55 101.831 109.172C101.724 108.796 100.771 108.759 100.676 108.391C100.569 108.016 100.212 107.759 100.115 107.381C100.02 107.013 100.055 106.584 99.9597 106.216C99.8782 105.907 99.7748 105.592 99.688 105.304C99.5113 104.76 99.7092 104.684 99.5698 104.746C99.4378 104.797 99.3262 104.803 99.269 105.401C99.2411 105.725 99.3662 106.045 99.345 106.399C99.3292 106.731 99.751 107.003 99.7471 107.343C99.7349 107.736 99.621 108.131 99.6186 108.522C99.6162 108.912 99.463 109.317 99.4704 109.705C99.468 110.096 99.4558 110.489 99.4632 110.877C99.4608 111.267 99.6068 111.634 99.6141 112.022C99.6215 112.41 99.6895 112.795 99.6968 113.183C99.7041 113.571 99.1546 114.037 99.1522 114.427C99.1498 114.818 98.6197 115.278 98.6465 115.662C98.6756 116.056 99.2248 116.391 99.2756 116.79C99.3167 117.191 99.7348 117.536 99.7781 117.947C99.8192 118.348 98.8559 118.888 98.8872 119.291C98.9185 119.694 99.5869 120.012 99.6182 120.415C99.6496 120.819 99.2918 121.271 99.3231 121.674C99.3544 122.077 100.312 122.359 100.344 122.763C100.375 123.166 100.226 123.59 100.248 123.995C100.279 124.399 100.24 124.808 100.271 125.211C100.303 125.614 99.4661 126.125 99.5071 126.526C99.5385 126.93 99.6695 127.32 99.757 127.7C99.8468 128.09 100.284 128.43 100.355 128.825C100.425 129.219 100.945 129.561 101.015 129.955C101.086 130.35 100.135 130.856 100.205 131.25C100.276 131.644 101.267 131.939 101.308 132.34C101.351 132.751 100.924 133.168 100.955 133.479C101.002 133.95 101.355 134.238 101.435 134.497C101.584 135.007 101.642 134.726 102.029 134.668C102.394 134.604 102.846 135.229 103.218 135.153C103.579 135.07 103.976 135.102 104.337 135.019C104.697 134.936 105.36 134.783 105.42 134.821L105.394 134.796Z" fill="#FFF600"/>
<path d="M126.26 54.7597C126.319 54.6128 127.08 54.8889 127.224 54.8455C127.629 54.7317 128.003 54.4403 128.408 54.3265C128.813 54.2128 129.132 53.5031 129.529 53.4013C129.926 53.2995 130.419 54.0583 130.819 53.9662C131.218 53.8742 131.518 52.9944 131.898 52.9068C132.23 52.8305 132.634 53.3838 132.968 53.3173C133.299 53.2409 133.556 52.484 133.88 52.4197C134.201 52.3456 134.587 52.8622 134.901 52.8001C135.223 52.726 135.488 52.2749 135.8 52.2031C136.112 52.1312 136.406 51.9814 136.708 51.9119C137.01 51.8423 137.362 52.2127 137.654 52.1453C138.064 52.0511 138.269 51.2034 138.643 51.0454C139.017 50.8874 139.82 51.1231 140.005 51.4807C140.129 51.7086 139.729 52.3755 139.83 52.814C139.9 53.1161 139.53 53.5605 139.612 53.9622C139.677 54.2861 139.999 54.571 140.076 54.9533C140.153 55.2846 140.015 55.6653 140.081 55.9989C140.158 56.3302 141.138 56.4431 141.214 56.7744C141.291 57.1057 140.882 57.559 140.958 57.8904C141.035 58.2217 141.208 58.5305 141.294 58.8596C141.38 59.1887 141.51 59.5283 141.608 59.8649C141.706 60.2014 142.223 60.4415 142.321 60.7781C142.419 61.1147 142.5 61.4655 142.598 61.802C142.687 62.1409 142.097 62.6563 142.188 63.0049C142.278 63.3534 142.756 63.6025 142.835 63.9435C142.916 64.2944 143.033 64.6265 143.124 64.975C143.205 65.3258 143.285 65.6767 143.366 66.0275C143.447 66.3783 143.226 66.7987 143.316 67.1472C143.397 67.498 143.12 67.9417 143.201 68.2925C143.281 68.6433 143.433 68.9881 143.513 69.339C143.596 69.6995 143.94 69.9897 144.021 70.3405C144.104 70.7011 143.807 71.1492 143.88 71.512C143.964 71.8726 143.996 72.2346 144.071 72.6071C144.147 72.9797 144.824 73.2033 144.9 73.5759C144.975 73.9484 144.963 74.3412 145.039 74.7137C145.114 75.0863 145.326 75.4274 145.402 75.7999C145.477 76.1725 145.97 76.4387 146.048 76.821C146.133 77.1913 145.324 77.7779 145.399 78.1505C145.485 78.5208 146.143 78.7489 146.22 79.1312C146.306 79.5015 146.15 79.9377 146.235 80.308C146.32 80.6783 146.406 81.0486 146.491 81.4189C146.576 81.7892 147.11 82.0562 147.217 82.4317C147.324 82.8073 146.89 83.3281 146.997 83.7036C147.106 84.0889 147.554 84.3859 147.671 84.7592C147.79 85.1423 147.665 85.5815 147.784 85.9645C147.903 86.3476 148.478 86.6154 148.597 86.9985C148.726 87.3793 148.475 87.8476 148.606 88.2382C148.734 88.619 148.427 89.1106 148.556 89.4914C148.694 89.87 149.415 90.1041 149.485 90.4984C149.556 90.8927 149.499 91.3161 149.579 91.7082C149.669 92.098 149.985 92.4459 150.068 92.8477C150.15 93.2494 149.764 93.759 149.847 94.1607C149.919 94.5648 150.691 94.7974 150.764 95.2015C150.836 95.6055 149.734 96.3006 149.816 96.7024C149.899 97.1042 150.11 97.4865 150.182 97.8905C150.265 98.2923 150.515 98.6657 150.597 99.0675C150.68 99.4693 150.803 99.8718 150.885 100.274C150.968 100.675 151.683 100.931 151.746 101.338C151.809 101.744 151.104 102.337 151.186 102.739C151.269 103.141 152.311 103.301 152.454 103.699C152.585 104.089 151.783 104.705 151.907 105.108C152.028 105.501 152.229 105.885 152.341 106.28C152.452 106.675 152.693 107.051 152.795 107.448C152.893 107.877 153.662 108.141 153.761 108.57C153.86 108.999 154.034 109.4 154.123 109.831C154.212 110.262 153.578 110.849 153.677 111.278C153.775 111.707 153.706 112.164 153.805 112.593C153.904 113.021 153.844 113.476 153.943 113.905C154.042 114.334 154.404 114.702 154.522 115.126C154.64 115.551 155.714 115.755 155.822 116.181C155.94 116.606 155.854 117.077 155.972 117.501C156.088 117.916 156.302 118.308 156.406 118.715C156.512 119.132 156.343 119.602 156.44 120.021C156.536 120.44 156.728 120.827 156.805 121.25C156.882 121.674 156.236 122.254 156.303 122.679C156.37 123.105 156.808 123.445 156.875 123.871C156.942 124.297 157.594 124.588 157.671 125.012C157.749 125.435 157.192 126.005 157.279 126.426C157.366 126.847 157.716 127.208 157.812 127.627C157.909 128.046 157.516 128.567 157.612 128.986C157.709 129.405 158.624 129.636 158.718 130.045C158.814 130.464 158.266 131.022 158.362 131.441C158.459 131.86 158.719 132.231 158.815 132.65C158.912 133.069 158.341 133.621 158.438 134.04C158.532 134.449 158.901 134.805 158.998 135.224C159.092 135.634 159.608 135.956 159.704 136.375C159.798 136.785 160.09 137.159 160.174 137.57C160.287 138.057 160.609 138.476 160.719 138.953C160.831 139.441 160.641 139.997 160.741 140.477C160.845 140.925 160.454 141.457 160.572 141.748C160.774 142.266 161.106 142.774 161.33 142.856C161.557 142.947 161.836 142.288 162.062 142.246C162.493 142.157 163.035 142.771 163.466 142.682C163.897 142.593 164.248 142.112 164.669 142.025C165.088 141.928 165.536 141.959 165.957 141.872C166.377 141.775 166.772 141.53 167.193 141.444C167.612 141.347 168.032 141.302 168.452 141.205C168.871 141.109 169.281 140.973 169.69 140.879C170.099 140.784 170.508 140.598 170.917 140.504C171.326 140.409 171.7 140.026 172.107 139.922C172.516 139.828 172.893 139.505 173.302 139.41C173.712 139.316 174.321 140.448 174.719 140.346C175.126 140.242 175.435 139.627 175.833 139.525C176.191 139.433 176.61 138.977 176.992 139.033C177.309 139.072 177.801 139.205 178.138 139.466C178.524 139.757 178.641 139.689 179.003 139.657C179.533 139.596 180.089 139.828 180.594 139.66C180.804 139.591 180.424 138.919 180.587 138.605C180.844 138.114 181.807 138.375 182.128 138.209C182.51 137.997 182.826 137.319 183.248 137.325C183.527 137.332 183.916 137.817 184.072 138.407C184.137 138.69 184.198 139.086 184.284 139.549C184.347 139.955 183.562 140.557 183.654 140.956C183.746 141.356 185.127 141.428 185.229 141.825C185.34 142.22 184.645 142.811 184.754 143.196C184.854 143.584 184.993 143.962 185.085 144.362C185.174 144.752 185.106 145.168 185.194 145.548C185.281 145.928 186.314 146.09 186.382 146.475C186.45 146.859 185.444 147.481 185.502 147.868C185.565 148.274 185.737 148.665 185.812 149.079C185.875 149.485 185.686 149.96 185.749 150.366C185.812 150.772 186.284 151.084 186.347 151.491C186.41 151.897 186.996 152.172 187.059 152.578C187.122 152.985 186.836 153.481 186.889 153.89C186.939 154.238 186.583 154.699 186.633 155.047C186.682 155.395 187.294 155.603 187.336 155.963C187.376 156.313 187.408 156.675 187.447 157.025C187.487 157.375 187.49 157.744 187.52 158.096C187.549 158.448 187.445 158.842 187.465 159.196C187.482 159.582 186.983 160.087 187 160.473C187.017 160.859 187.034 161.245 187.059 161.619C187.083 161.993 187.213 162.333 187.262 162.681C187.312 163.028 187.402 163.377 187.461 163.723C187.518 164.058 188.159 164.26 188.216 164.595C188.273 164.931 187.681 165.437 187.75 165.78C187.817 166.114 188.746 166.228 188.815 166.571C188.882 166.905 188.814 167.28 188.881 167.613C188.947 167.947 188.59 168.399 188.656 168.732C188.713 169.068 188.499 169.476 188.556 169.812C188.613 170.148 189.086 170.378 189.143 170.713C189.2 171.049 189.093 171.433 189.143 171.781C189.19 172.119 189.344 172.432 189.391 172.77C189.438 173.108 189.01 173.566 189.048 173.906C189.085 174.247 190.205 174.297 190.232 174.639C190.27 174.979 190.297 175.322 190.323 175.655C190.35 175.997 189.91 176.448 189.945 176.778C189.98 177.109 190.14 177.4 190.185 177.729C190.229 178.057 190.07 178.432 190.105 178.763C190.155 179.162 190.641 179.399 190.672 179.71C190.712 180.152 189.747 180.641 189.718 180.915C189.668 181.367 189.957 181.506 189.539 181.654C189.246 181.762 188.949 181.677 188.655 181.734C188.362 181.802 188.084 182.153 187.796 182.24C187.413 182.359 186.939 182.037 186.556 182.156C186.173 182.275 185.904 182.891 185.521 183.01C185.138 183.129 184.636 182.732 184.265 182.858C183.882 182.977 183.54 183.231 183.157 183.35C182.774 183.469 182.529 184.233 182.144 184.342C181.788 184.445 181.306 184.002 180.95 184.104C180.594 184.207 180.224 184.251 179.868 184.353C179.512 184.456 179.152 184.498 178.792 184.581C178.431 184.664 178.091 184.701 177.724 184.755C177.359 184.819 177.03 184.997 176.668 185.029C176.345 185.052 175.981 184.941 175.665 184.993C175.348 185.046 175.133 185.67 174.819 185.732C174.505 185.794 174.138 185.581 173.821 185.633C173.505 185.686 173.183 185.401 172.86 185.424C172.546 185.445 172.094 185.487 171.799 185.586C171.513 185.683 171.423 186.268 171.133 186.345C170.899 186.399 170.624 186.319 170.39 186.373C169.92 186.471 169.63 187.174 169.162 187.281C168.763 187.373 168.184 186.911 167.78 186.984C167.444 187.041 167.163 187.29 166.83 187.357C166.494 187.414 166.054 187.063 165.718 187.12C165.382 187.177 165.038 187.195 164.7 187.242C164.364 187.299 164.251 188.146 163.913 188.193C163.575 188.24 163.073 187.709 162.735 187.756C162.377 187.808 161.908 187.464 161.561 187.514C161.203 187.565 160.843 187.607 160.486 187.659C160.128 187.71 159.782 187.81 159.422 187.852C159.062 187.894 158.785 188.204 158.425 188.246C158.306 188.263 158.235 188.536 158.093 188.497C157.873 188.435 157.349 188.299 157.148 187.914C157.04 187.713 157.029 187.398 156.911 187.066C156.812 186.812 156.579 186.557 156.489 186.301C156.397 186.035 156.127 185.8 156.045 185.531C155.941 185.216 156.244 184.839 156.141 184.524C156.047 184.207 155.628 183.944 155.532 183.617C155.446 183.288 155.598 182.925 155.503 182.598C155.407 182.271 155.053 181.983 154.957 181.656C154.861 181.33 155.379 180.903 155.283 180.576C155.187 180.249 154.824 179.963 154.718 179.639C154.613 179.314 154.395 178.995 154.29 178.67C154.182 178.336 153.77 178.061 153.652 177.729C153.535 177.397 153.794 177.009 153.677 176.677C153.559 176.345 152.989 176.096 152.871 175.764C152.754 175.432 153.782 174.908 153.667 174.586C153.55 174.253 152.505 174.084 152.389 173.761C152.274 173.439 153.133 172.933 153.015 172.601C152.897 172.269 152.573 171.974 152.458 171.652C152.34 171.32 151.424 171.131 151.302 170.779C151.192 170.435 152.146 169.897 152.073 169.535C151.999 169.172 151.717 168.837 151.639 168.454C151.569 168.06 151.576 167.648 151.496 167.256C151.416 166.864 150.961 166.537 150.881 166.145C150.792 165.756 151.006 165.306 150.926 164.914C150.836 164.524 150.175 164.235 150.085 163.846C149.995 163.456 150.623 162.931 150.534 162.542C150.444 162.152 149.361 161.95 149.271 161.56C149.181 161.17 150.124 160.584 150.032 160.184C149.942 159.794 148.623 159.636 148.523 159.249C148.433 158.859 149.658 158.207 149.549 157.822C149.45 157.435 149.299 157.048 149.19 156.663C149.09 156.276 148.214 156.036 148.103 155.641C147.993 155.256 148.284 154.779 148.174 154.393C148.065 154.008 148.08 153.584 147.971 153.198C147.859 152.803 147.395 152.479 147.271 152.077C147.146 151.664 147.293 151.189 147.157 150.779C147.029 150.357 146.015 150.098 145.887 149.676C145.769 149.252 146.133 148.737 146.034 148.308C145.935 147.88 146.16 147.387 146.071 146.956C145.977 146.546 145.688 146.182 145.596 145.782C145.501 145.373 145.429 144.969 145.344 144.557C145.25 144.148 144.678 143.849 144.584 143.44C144.49 143.03 144.249 142.655 144.157 142.255C144.065 141.856 144.127 141.41 144.033 141.001C143.938 140.592 143.895 140.181 143.791 139.774C143.697 139.365 144.17 138.835 144.078 138.436C143.984 138.026 143.234 137.758 143.14 137.348C143.046 136.939 142.766 136.572 142.672 136.163C142.58 135.764 143.467 135.159 143.373 134.75C143.28 134.35 142.081 134.175 141.989 133.776C141.897 133.376 143.124 132.693 143.032 132.293C142.94 131.894 141.624 131.746 141.532 131.346C141.437 130.937 142.166 130.359 142.084 129.957C141.989 129.547 141.427 129.246 141.355 128.842C141.27 128.43 141.081 128.053 141.006 127.64C140.931 127.226 141.504 126.683 141.439 126.267C141.374 125.851 140.812 125.55 140.749 125.143C140.686 124.737 141.425 124.157 141.331 123.747C141.239 123.348 140.472 123.093 140.368 122.686C140.266 122.289 139.831 121.958 139.719 121.563C139.608 121.168 140.627 120.513 140.515 120.118C140.404 119.723 139.167 119.566 139.026 119.178C138.895 118.787 138.579 118.44 138.485 118.03C138.39 117.621 139.529 116.948 139.437 116.549C139.344 116.149 138.695 115.868 138.603 115.468C138.511 115.069 138.419 114.669 138.336 114.268C138.244 113.868 137.597 113.596 137.512 113.185C137.42 112.785 137.494 112.348 137.402 111.948C137.312 111.558 138.009 110.977 137.92 110.587C137.83 110.197 137.777 109.789 137.677 109.401C137.578 109.014 137.641 108.578 137.532 108.193C137.423 107.808 136.378 107.638 136.247 107.247C136.128 106.864 136.467 106.376 136.399 105.991C136.331 105.607 135.859 105.295 135.798 104.898C135.738 104.502 136.057 104.018 135.975 103.616C135.905 103.221 136.027 102.773 135.957 102.378C135.886 101.984 135.95 101.549 135.88 101.154C135.81 100.76 135.416 100.43 135.355 100.034C135.285 99.6392 135.741 99.1237 135.67 98.7295C135.61 98.3329 134.957 98.0831 134.897 97.6866C134.829 97.2608 134.862 96.8223 134.794 96.3966C134.727 95.9708 133.961 95.7164 133.895 95.3004C133.83 94.8844 134.167 94.386 134.114 93.9775C134.051 93.5713 133.852 93.1964 133.721 92.8059C133.588 92.4056 133.135 92.0891 133.014 91.6963C132.893 91.3035 133.666 90.6944 133.544 90.3016C133.433 89.9066 132.727 89.6484 132.615 89.2534C132.514 88.8561 133.316 88.2403 133.214 87.843C133.112 87.4457 133.011 87.0484 132.909 86.6511C132.817 86.2516 132.335 85.9419 132.247 85.5618C132.16 85.1818 131.539 84.9349 131.449 84.5451C131.368 84.1943 131.984 83.6624 131.911 83.2996C131.84 82.9465 130.723 82.8651 130.662 82.5098C130.601 82.1545 131.653 81.5119 131.592 81.1566C131.53 80.8012 130.326 80.7401 130.265 80.3847C130.213 80.0272 130.549 79.5701 130.488 79.2148C130.436 78.8573 130.918 78.3665 130.867 78.009C130.815 77.6514 129.784 77.5401 129.732 77.1825C129.681 76.825 130.879 76.1487 130.828 75.7911C130.767 75.4358 130.615 75.1322 130.546 74.7889C130.487 74.4433 129.635 74.311 129.576 73.9655C129.517 73.6199 129.933 73.1546 129.867 72.8211C129.805 72.4658 129.964 72.0394 129.902 71.684C129.841 71.3287 129.478 71.043 129.416 70.6877C129.355 70.3324 128.789 70.1036 128.718 69.7505C128.657 69.3952 129.437 68.8154 129.375 68.4601C129.304 68.107 128.429 67.9598 128.367 67.6045C128.306 67.2492 129.076 66.6716 129.005 66.3185C128.934 65.9655 128.195 65.7868 128.126 65.4435C128.045 65.0927 127.986 64.7471 127.915 64.394C127.835 64.0432 127.736 63.7067 127.656 63.3558C127.579 63.0245 127.271 62.7568 127.209 62.4427C127.145 62.1189 127.141 61.7914 127.087 61.4653C127.032 61.1392 127.616 60.6455 127.562 60.3195C127.507 59.9934 127.435 59.6815 127.381 59.3555C127.326 59.0294 127.418 58.6697 127.365 58.3534C127.32 58.025 127.142 57.7379 127.099 57.4193C127.063 57.13 126.43 57.0091 126.401 56.7077C126.377 56.4259 126.497 56.1007 126.477 55.7874C126.453 55.5055 126.126 54.9342 126.185 54.7874L126.26 54.7597Z" fill="#FFF600"/>
<path d="M192.832 81.9911C193.041 82.4972 194.184 82.4699 194.436 82.7608C194.69 83.0615 194.723 83.5157 194.972 83.7969C195.236 84.0953 195.399 84.4476 195.659 84.7266C195.932 85.0227 195.945 85.5227 196.211 85.7896C196.502 86.0715 197.127 85.9789 197.407 86.2121C197.724 86.4775 197.486 87.4458 197.795 87.6311C198.177 87.8613 198.902 87.5813 199.286 87.8213C199.67 88.0613 199.709 88.8116 200.083 89.0539C200.469 89.3036 201.304 88.8752 201.695 89.1032C202.014 89.2862 202.154 89.757 202.471 89.9303C202.788 90.1036 203.225 90.085 203.52 90.253C203.817 90.4307 204.279 90.386 204.567 90.566C204.627 90.6035 204.455 90.9714 204.522 91.0382C204.874 91.4086 205.554 91.2005 205.919 91.4038C206.364 91.64 206.735 91.8725 207.198 92.0534C207.638 92.2289 207.529 93.27 207.973 93.5475C208.345 93.78 209.483 93.1074 209.847 93.3519C210.211 93.5964 209.792 94.719 210.137 94.9679C210.482 95.2169 211.638 94.581 211.973 94.8323C212.318 95.0813 212.4 95.6164 212.735 95.8677C213.07 96.1189 213.497 96.2772 213.82 96.5209C214.03 96.6777 213.644 97.6287 213.852 97.7757C214.183 98.0074 214.445 98.2549 214.783 98.5668C215.082 98.8368 215.316 99.1419 215.618 99.4726C215.901 99.7665 216.121 100.096 216.403 100.431C216.671 100.749 217.794 100.5 218.067 100.838C218.328 101.168 217.793 102.009 218.036 102.353C218.278 102.688 218.528 103.02 218.762 103.366C219.015 103.749 219.449 104.029 219.691 104.414C219.934 104.8 220.331 105.098 220.572 105.474C220.814 105.859 221.708 105.818 221.938 106.195C222.136 106.519 221.426 107.401 221.606 107.781C221.769 108.133 222.495 108.212 222.648 108.608C222.792 108.965 222.842 109.405 222.985 109.803C223.116 110.193 222.433 110.925 222.583 111.311C222.724 111.7 223.613 111.772 223.761 112.148C223.909 112.525 224.216 112.833 224.367 113.22C224.515 113.596 224.954 113.854 225.103 114.23C225.241 114.609 225.353 115.004 225.482 115.385C225.62 115.763 225.013 116.467 225.144 116.858C225.272 117.239 225.154 117.707 225.274 118.09C225.393 118.473 225.602 118.805 225.702 119.192C225.801 119.58 226.314 119.8 226.406 120.2C226.496 120.59 226.056 121.173 226.136 121.565C226.225 121.955 226.826 122.156 226.896 122.55C226.966 122.944 226.477 123.539 226.528 123.938C226.589 124.334 226.857 124.652 226.91 125.061C226.951 125.462 226.87 125.912 226.901 126.315C226.933 126.718 226.793 127.181 226.827 127.594C226.859 127.956 227.969 127.967 228.021 128.325C228.063 128.685 227.514 129.242 227.585 129.595C227.658 129.958 227.407 130.426 227.471 130.791C227.534 131.156 228.225 131.305 228.279 131.672C228.333 132.04 228.182 132.454 228.212 132.806C228.242 133.159 227.918 133.623 227.938 133.978C227.958 134.332 228.927 134.396 228.937 134.753C228.948 135.11 227.914 135.789 227.914 136.148C227.915 136.507 228.089 136.816 228.089 137.175C228.08 137.537 227.898 137.948 227.879 138.311C227.86 138.675 228.707 138.788 228.688 139.151C228.66 139.517 227.88 140.097 227.851 140.463C227.823 140.828 227.957 141.146 227.917 141.504C227.878 141.872 227.723 142.267 227.682 142.626C227.634 142.996 227.662 143.339 227.614 143.709C227.566 144.079 228.269 144.235 228.209 144.598C228.149 144.961 226.94 145.639 226.882 146.012C226.812 146.418 227.811 146.526 227.729 146.925C227.648 147.334 227.044 147.873 226.959 148.262C226.867 148.663 226.648 149.093 226.568 149.46C226.491 149.837 226.791 150.117 226.731 150.48C226.664 150.854 226.545 151.231 226.465 151.598C226.388 151.975 225.704 152.481 225.622 152.839C225.545 153.216 226.308 153.409 226.226 153.767C226.139 154.146 225.658 154.596 225.568 154.965C225.481 155.344 225.521 155.694 225.419 156.056C225.323 156.438 225.52 156.762 225.412 157.136C225.303 157.51 224.729 157.96 224.611 158.336C224.485 158.724 224.198 159.129 224.072 159.517C223.936 159.908 223.769 160.295 223.621 160.678C223.476 161.071 223.962 161.4 223.814 161.783C223.659 162.178 222.704 162.623 222.545 162.999C222.379 163.396 222.627 163.76 222.448 164.14C222.261 164.532 221.9 164.923 221.728 165.291C221.539 165.673 221.738 166.048 221.557 166.418C221.375 166.788 220.494 167.104 220.317 167.453C220.124 167.815 220.103 168.169 219.914 168.51C219.711 168.875 219.736 169.249 219.538 169.592C219.325 169.959 219.16 170.315 218.95 170.651C218.716 171.013 218.417 171.318 218.185 171.648C217.928 172.005 217.972 172.549 217.723 172.853C217.473 173.146 217.137 173.47 216.894 173.752C216.49 174.224 215.719 174.31 215.307 174.702C215.005 174.997 214.846 175.465 214.538 175.731C214.222 176.009 214.027 176.454 213.71 176.722C213.574 176.846 213.392 177.124 213.266 177.204C212.977 177.373 212.609 177.068 212.32 177.237C212.03 177.407 211.783 177.936 211.484 178.066C211.01 178.278 210.541 178.294 210.069 178.515C209.763 178.658 209.528 178.127 209.221 178.177C208.925 178.225 208.618 178.408 208.32 178.405C208.021 178.402 207.608 178.744 207.305 178.721C207.002 178.698 206.668 178.806 206.36 178.805C205.926 178.792 205.843 178.032 205.405 177.825C205.152 177.708 204.394 178.335 204.139 178.209C203.886 178.092 203.565 178.033 203.308 177.897C203.053 177.771 203.124 177.19 202.863 177.035C202.623 176.885 202.168 176.959 201.931 176.778C201.683 176.589 201.894 175.904 201.641 175.695C201.4 175.494 201.014 175.47 200.778 175.247C200.566 175.04 199.827 175.395 199.621 175.165C199.428 174.953 199.927 174.048 199.748 173.802C199.572 173.575 199.648 173.147 199.481 172.868C199.328 172.605 198.501 172.888 198.344 172.606C198.188 172.334 198.703 171.539 198.543 171.247C198.388 170.975 197.338 171.36 197.179 171.069C197.021 170.787 196.808 170.528 196.646 170.227C196.487 169.935 196.725 169.367 196.561 169.056C196.399 168.755 195.727 168.776 195.563 168.465C195.401 168.164 195.91 167.431 195.755 167.117C195.603 166.814 195.285 166.59 195.128 166.266C194.974 165.953 194.374 165.886 194.227 165.561C194.073 165.247 194.72 164.493 194.573 164.167C194.428 163.852 194.328 163.506 194.181 163.18C194.044 162.853 194.122 162.434 193.993 162.095C193.866 161.765 193.756 161.421 193.634 161.069C193.512 160.718 192.797 160.646 192.7 160.268C192.615 159.898 192.442 159.548 192.352 159.158C192.264 158.778 192.884 158.081 192.794 157.692C192.704 157.302 191.744 157.277 191.662 156.875C191.572 156.485 191.802 155.97 191.72 155.568C191.637 155.208 191.187 154.993 191.114 154.631C191.031 154.27 191.119 153.85 191.036 153.489C190.953 153.128 191.107 152.683 191.024 152.322C190.94 151.961 190.157 151.855 190.071 151.484C189.988 151.124 190.808 150.453 190.723 150.082C190.64 149.722 190.184 149.478 190.101 149.117C190.018 148.757 190.42 148.233 190.337 147.872C190.254 147.512 189.757 147.267 189.681 146.895C189.598 146.534 189.31 146.221 189.225 145.851C189.14 145.48 188.949 145.144 188.872 144.762C188.786 144.392 188.974 143.959 188.896 143.576C188.818 143.194 188.124 142.943 188.034 142.554C187.938 142.135 189.183 141.478 189.108 141.157C189.007 140.718 188.304 140.47 188.251 140.154C188.169 139.619 187.604 139.215 187.638 138.961C187.711 138.431 188.544 138.527 189.022 138.468C189.402 138.421 189.737 137.739 190.124 137.68C190.511 137.622 190.926 138.132 191.31 138.064C191.697 138.005 192.033 137.282 192.418 137.213C192.802 137.145 193.261 138.066 193.635 138C194.02 137.932 194.375 137.604 194.748 137.528C195.13 137.451 195.456 136.729 195.829 136.653C196.243 136.579 196.712 136.922 197.154 136.882C197.596 136.842 198.008 136.757 198.449 136.666C198.86 136.581 199.407 137.04 199.805 136.897C200.196 136.766 200.648 136.816 201.027 136.677C201.237 136.608 201.069 135.703 201.269 135.544C201.65 135.241 201.684 136.054 202.076 136.6C202.285 136.88 203.179 136.797 203.409 137.309C203.575 137.671 203.668 138.121 203.832 138.607C203.97 138.985 203.361 139.68 203.49 140.02C203.626 140.388 204.898 140.208 205.026 140.538C205.169 140.895 204.275 141.778 204.422 142.104C204.585 142.456 205.791 142.168 205.953 142.469C206.133 142.807 206.123 143.21 206.3 143.487C206.508 143.809 206.505 144.241 206.714 144.48C206.965 144.771 207.547 144.534 207.794 144.713C208.148 144.96 208.434 145.089 208.783 145.224C209.193 145.397 209.14 146.774 209.524 146.747C209.959 146.719 210.428 145.769 210.848 145.457C211.04 145.31 211.115 144.79 211.312 144.662C211.616 144.469 212.673 144.646 212.914 144.088C213.074 143.713 213.087 143.145 213.21 142.655C213.31 142.242 212.546 141.823 212.62 141.344C212.681 140.981 212.765 140.633 212.793 140.268C212.812 139.904 213.001 139.522 212.989 139.155C212.968 138.801 213.092 138.403 213.043 138.055C212.994 137.707 212.886 137.373 212.805 137.022C212.722 136.662 213.177 136.054 213.048 135.714C212.916 135.365 212.366 135.204 212.202 134.893C212.038 134.582 211.182 134.697 211.024 134.415C210.839 134.099 211.028 133.583 210.855 133.326C210.64 133.016 210.277 132.997 210.062 132.821C209.692 132.506 209.505 132.097 209.151 131.984C208.787 131.873 208.371 131.804 208.002 131.674C207.631 131.534 207.279 131.389 206.911 131.258C206.532 131.13 206.17 131.029 205.791 130.942C205.388 130.839 205.104 130.453 204.701 130.443C204.318 130.429 203.667 131.031 203.271 130.916C202.909 130.815 202.871 129.89 202.5 129.709C202.166 129.55 201.586 129.704 201.246 129.474C200.932 129.27 201.138 128.381 200.812 128.127C200.511 127.889 199.725 128.173 199.414 127.895C199.102 127.608 198.746 127.577 198.439 127.402C198.122 127.228 197.739 127.08 197.406 126.839C197.133 126.635 197.464 125.707 197.186 125.484C196.911 125.27 195.998 125.758 195.723 125.544C195.445 125.32 195.512 124.72 195.245 124.494C195.108 124.392 194.709 124.484 194.579 124.319C194.316 123.98 194.072 123.636 193.814 123.315C193.543 122.988 193.541 122.444 193.273 122.126C193.005 121.809 193.096 121.182 192.826 120.854C192.558 120.536 191.331 121.004 191.068 120.664C190.81 120.344 191.618 119.173 191.372 118.819C191.131 118.484 190.204 118.647 189.963 118.271C189.753 117.94 190.106 117.243 189.906 116.909C189.708 116.585 188.705 116.775 188.515 116.439C188.325 116.104 188.53 115.523 188.345 115.165C188.164 114.827 187.537 114.735 187.355 114.387C187.174 114.049 187.839 113.239 187.654 112.882C187.474 112.544 187.32 112.189 187.133 111.822C186.96 111.472 185.906 111.53 185.727 111.15C185.568 110.817 185.986 110.228 185.815 109.929C185.639 109.611 185.494 109.295 185.311 108.989C185.129 108.692 184.892 108.418 184.723 108.087C184.538 107.73 184.718 107.216 184.531 106.849C184.355 106.489 183.825 106.283 183.648 105.913C183.482 105.551 183.195 105.238 183.037 104.864C182.881 104.499 182.083 104.375 181.925 104.001C181.779 103.635 182.576 102.907 182.428 102.531C182.281 102.164 181.877 101.878 181.729 101.501C181.583 101.135 181.244 100.823 181.096 100.447C180.94 100.082 181.087 99.6072 180.931 99.2428C180.776 98.8785 180.8 98.452 180.623 98.0824C180.457 97.7204 179.749 97.4937 179.573 97.1339C179.41 96.7815 179.649 96.3056 179.56 95.9159C179.472 95.5358 178.848 95.2792 178.741 94.9037C178.634 94.5281 179.473 93.8936 179.364 93.5083C179.255 93.123 178.736 92.832 178.632 92.4249C178.535 92.0471 178.396 91.6686 178.299 91.2908C178.212 90.9107 177.518 90.6601 177.43 90.28C177.343 89.9 177.781 89.3987 177.684 89.0209C177.596 88.6409 177.285 88.3124 177.187 87.9346C177.1 87.5546 176.856 87.2105 176.759 86.8327C176.672 86.4526 176.594 86.0703 176.499 85.7023C176.404 85.3342 176.447 84.9445 176.362 84.5742C176.277 84.2039 176.853 83.7222 176.721 83.3728C176.59 83.0235 176.249 82.7018 176.115 82.3427C175.976 81.9641 175.071 81.7314 174.935 81.3626C174.798 80.9938 174.699 80.6062 174.572 80.2352C174.446 79.8641 174.565 79.4467 174.441 79.0853C174.324 78.712 174.944 78.2408 174.83 77.8772C174.713 77.5039 174.299 77.1785 174.194 76.8127C174.078 76.4393 173.064 76.1804 172.973 75.8318C172.89 75.4712 172.666 75.1226 172.583 74.762C172.5 74.4015 172.687 74.0095 172.616 73.6565C172.542 73.2937 172.246 72.9413 172.184 72.586C172.123 72.2307 172.606 71.8321 172.557 71.4843C172.496 71.0878 172.234 70.7069 172.176 70.3202C172.115 69.9236 172.615 69.5108 172.557 69.1241C172.496 68.7275 172.368 68.3467 172.309 67.9599C172.249 67.5634 171.598 67.1899 171.53 66.8053C171.472 66.4186 171.899 66.0432 171.842 65.6662C171.79 65.3498 171.852 65.0381 171.811 64.7293C171.769 64.4107 171.04 64.0963 171.009 63.7853C170.966 63.4667 171.813 63.1792 171.785 62.8779C171.752 62.5571 170.767 62.1992 170.741 61.9076C170.715 61.5748 171.584 61.2926 171.559 60.9598C171.533 60.627 171.687 60.3144 171.662 59.9816C171.636 59.6488 170.528 59.2474 170.503 58.9146C170.477 58.5818 170.682 58.2678 170.649 57.947C170.624 57.6142 171.523 57.3762 171.491 57.0554C171.467 56.7324 170.931 56.3634 170.91 56.05C170.877 55.7292 171.256 55.4573 171.237 55.1538C171.204 54.8329 170.542 54.4519 170.511 54.1409C170.49 53.8275 170.692 53.545 170.698 53.2565C170.689 52.9507 171.108 52.7207 171.113 52.4322C171.12 51.9277 170.137 51.3127 170.217 50.9042C170.274 50.6142 171.517 50.6664 171.578 50.3959C171.641 50.1351 170.869 49.6356 170.913 49.338C170.968 48.997 170.869 48.6095 170.942 48.3052C171.019 47.9694 170.949 47.5751 171.046 47.2858C171.157 46.9628 172.22 47.0359 172.349 46.7497C172.486 46.4514 171.879 45.8216 172.03 45.5406C172.18 45.2596 172.624 45.1368 172.784 44.8948C172.971 44.6363 173.5 44.617 173.696 44.3975C173.908 44.1637 173.485 43.4814 173.721 43.3039C173.962 43.1046 174.924 43.5397 175.187 43.3869C175.469 43.2297 175.741 43.1668 176.054 43.0537C176.367 42.9407 176.317 42.3673 176.65 42.3007C176.982 42.2244 177.005 41.7469 177.32 41.6436C177.635 41.5403 178.498 42.3472 178.852 42.3271C179.187 42.3115 179.278 41.6339 179.629 41.6453C179.971 41.6589 180.418 41.9972 180.776 42.0378C181.123 42.0709 181.419 41.664 181.782 41.7241C182.135 41.7865 182.555 42.1412 182.927 42.2403C183.287 42.3318 183.643 42.7217 184.015 42.8208C184.387 42.9199 184.762 42.4538 185.126 42.5649C185.476 42.6587 185.912 43.0817 186.326 43.2737C186.684 43.4478 187.058 43.69 187.435 43.9008C187.79 44.1063 188.058 44.4242 188.425 44.6372C188.771 44.8449 189.323 44.8819 189.683 45.1069C190.03 45.3244 190.476 45.4782 190.824 45.6957C191.174 45.923 191.073 46.5518 191.43 46.7671C191.692 46.9223 192.139 46.8603 192.419 47.0935C192.722 47.3417 192.546 47.8236 192.847 48.0621C193.15 48.3103 194.181 48.196 194.494 48.442C194.795 48.6805 195.248 48.8635 195.561 49.1095C195.862 49.348 196.083 49.6359 196.396 49.8819C196.697 50.1203 196.367 50.6479 196.704 50.9089C197.017 51.1548 197.876 51.1829 198.203 51.4461C198.533 51.7191 198.422 52.1755 198.747 52.4702C199.057 52.7476 199.96 52.8372 200.277 53.1439C200.58 53.4333 200.836 53.7437 201.133 54.0549C201.417 54.3488 201.156 54.8194 201.441 55.1231C201.715 55.4193 202.532 55.58 202.807 55.8859C203.073 56.1941 203.339 56.5023 203.607 56.8202C203.864 57.1306 203.432 57.6199 203.689 57.9303C203.919 58.2159 204.565 58.3953 204.795 58.681C205.016 58.9689 205.102 59.298 205.322 59.5859C205.554 59.8813 206.467 59.9686 206.695 60.2445C206.923 60.5204 206.923 60.8795 207.143 61.1674C207.361 61.4455 206.953 61.8988 207.165 62.1987C207.366 62.4911 208.383 62.5852 208.584 62.8776C208.775 63.1723 207.855 63.7228 208.048 64.0272C208.239 64.3218 209.475 64.386 209.659 64.6927C209.84 64.9896 208.982 65.4951 209.165 65.8018C209.337 66.1009 210.616 66.1756 210.8 66.4823C210.971 66.7814 210.622 67.18 210.796 67.4889C210.967 67.788 210.547 68.1926 210.719 68.4917C210.89 68.7908 212.206 68.8881 212.377 69.1872C212.549 69.4863 212.521 69.8109 212.707 70.1273C212.892 70.4436 212.577 70.855 212.762 71.1714C212.936 71.4803 212.786 71.8534 212.96 72.1623C213.136 72.4809 213.152 72.816 213.316 73.1271C213.482 73.448 213.972 73.7045 214.138 74.0254C214.304 74.3463 214.974 74.5819 215.129 74.8952C215.285 75.2183 214.807 75.6364 214.954 75.9617C215.1 76.2871 215.345 76.59 215.47 76.9101C215.597 77.24 215.355 77.6139 215.463 77.9482C215.598 78.3583 216.197 78.7333 216.328 79.1651C216.433 79.5309 217.342 79.7831 217.365 80.014C217.429 80.4712 216.79 80.9469 216.565 81.0397C216.32 81.1371 215.97 81.1766 215.703 81.2178C215.318 81.2858 214.916 81.2759 214.531 81.344C214.146 81.412 213.614 80.9703 213.219 81.0406C212.825 81.1109 212.553 81.5328 212.156 81.5934C211.772 81.6614 211.407 81.8172 211.011 81.8777C210.614 81.9383 210.303 82.1023 209.979 82.2079C209.93 82.2191 210.036 82.2768 209.987 82.2881C209.633 82.4003 208.886 81.8746 208.46 81.9419C208.037 82.019 207.758 82.6372 207.325 82.7165C206.892 82.7957 206.504 83.0287 206.071 83.108C205.638 83.1873 204.952 82.3498 204.509 82.4313C204.076 82.5106 203.637 82.5194 203.213 82.5964C202.79 82.6734 202.508 83.231 202.167 82.5091C202.027 82.2129 201.638 81.8612 201.432 81.3237C201.309 81.0134 201.165 80.6978 201.054 80.3949C200.933 80.0943 201.829 79.5288 201.699 79.2304C201.569 78.932 201.516 78.6157 201.364 78.3121C201.173 77.9253 200.611 77.6237 200.416 77.2684C200.202 76.8763 199.237 76.7395 199.023 76.3886C198.79 76.001 199.665 75.2556 199.433 74.9189C199.171 74.5381 197.953 74.593 197.684 74.2751C197.383 73.9032 197.797 73.1614 197.497 72.8817C197.13 72.5352 196.298 72.6241 195.958 72.3946C195.632 72.1824 195.484 71.8061 195.179 71.6403C194.85 71.4595 194.252 71.8026 193.934 71.6705C193.58 71.516 193.434 71.016 193.106 70.9274C192.647 70.8073 192.112 70.6227 191.784 70.801C191.512 70.956 191.506 71.4192 191.322 71.7797C191.188 72.0464 190.682 72.2554 190.603 72.6226C190.539 72.9246 191.376 73.4399 191.361 73.8229C191.346 74.1549 191.148 74.4569 191.153 74.8354C191.161 75.2237 190.451 75.572 190.523 75.976C190.594 76.3703 191.103 76.7557 191.217 77.1605C191.328 77.5556 191.934 77.8676 192.087 78.2634C192.239 78.6592 191.898 79.138 192.08 79.5271C192.262 79.9162 192.617 80.2551 192.799 80.6442C192.981 81.0333 192.675 81.5758 192.836 81.9597L192.832 81.9911Z" fill="#FFF600"/>
<path d="M228.633 104.92C228.575 104.533 228.512 104.127 228.444 103.742C228.374 103.348 228.937 102.808 228.859 102.426C228.788 102.031 228.679 101.646 228.601 101.264C228.512 100.874 227.964 100.59 227.876 100.21C227.787 99.8198 227.533 99.4779 227.426 99.1024C227.317 98.7171 227.288 98.3236 227.181 97.948C227.072 97.5627 226.731 97.241 226.626 96.8752C226.519 96.4996 227.081 96.0007 226.984 95.6229C226.896 95.2428 226.346 94.9488 226.261 94.5785C226.173 94.1984 225.889 93.8535 225.804 93.4832C225.716 93.1032 226.424 92.6118 226.329 92.2437C226.243 91.8734 225.533 91.5958 225.438 91.2277C225.343 90.8597 225.766 90.4236 225.651 90.0601C225.537 89.6965 224.396 89.4667 224.262 89.1076C224.128 88.7485 223.953 88.3887 223.831 88.0371C223.699 87.6878 224.472 87.2121 224.435 86.8306C224.399 86.449 224.586 86.0571 224.498 85.6771C224.41 85.297 224.274 84.9282 224.189 84.5579C224.101 84.1779 224.006 83.8098 223.928 83.4275C223.841 83.0475 222.497 82.7823 222.431 82.4076C222.354 82.0253 223.357 81.5684 223.281 81.1959C223.205 80.8233 222.693 80.4694 222.62 80.1065C222.544 79.734 223.211 79.334 223.148 78.969C223.072 78.5964 222.111 78.2535 222.035 77.881C221.95 77.5107 222.508 77.1256 222.437 76.7726C222.366 76.4195 222.396 76.0635 222.308 75.7247C222.218 75.3761 221.758 75.0304 221.658 74.6841C221.558 74.3377 221.816 73.9908 221.718 73.6542C221.618 73.3079 221.551 72.9743 221.441 72.6303C221.341 72.2839 220.377 71.9313 220.27 71.5969C220.171 71.2603 220.796 70.942 220.69 70.6174C220.592 70.2809 220.278 69.9427 220.18 69.6061C220.073 69.2718 219.666 68.9344 219.585 68.6248C219.511 68.3032 219.815 68.0177 219.745 67.7156C219.673 67.4038 219.027 67.0498 218.957 66.7477C218.888 66.4456 219.804 66.2346 219.746 65.94C219.677 65.6379 218.99 65.2831 218.932 64.9885C218.872 64.6842 218.572 64.3633 218.515 64.0687C218.457 63.7741 218.746 63.5126 218.688 63.218C218.631 62.9234 218.225 62.586 218.177 62.2892C218.119 61.9946 218.2 61.7195 218.144 61.4347C218.087 61.1401 217.988 60.8447 217.935 60.5696C217.879 60.2848 218.4 60.0931 218.346 59.818C218.281 59.5354 217.396 59.1236 217.343 58.8485C217.28 58.5756 216.906 58.2412 216.855 57.9758C216.799 57.7322 217.332 57.599 217.293 57.3824C217.261 57.1538 217.801 57.0498 217.759 56.8234C217.717 56.597 216.856 56.2002 216.817 55.9835C216.765 55.7594 216.498 55.4925 216.449 55.2781C216.4 55.0637 216.304 54.8291 216.255 54.6147C216.197 54.3613 217.298 54.3745 217.272 54.1751C217.246 53.9248 217.228 53.6722 217.192 53.4241C217.155 53.1759 216.064 52.6269 216.02 52.3907C215.973 52.1449 215.872 51.881 215.839 51.6524C215.795 51.4163 217.032 51.5726 217.012 51.3515C216.992 51.1304 215.958 50.6091 215.95 50.3955C215.944 50.1916 216.587 50.1768 216.57 49.9655C216.554 49.7638 216.657 49.5862 216.627 49.3674C216.597 49.1485 215.409 48.5806 215.415 48.3842C215.419 48.1781 216.004 48.1769 216.034 47.9955C216.071 47.8021 216.848 47.9209 216.902 47.7545C216.963 47.5761 216.403 47.1509 216.493 47.007C216.579 46.8437 216.448 46.5865 216.56 46.4479C216.669 46.2996 216.978 46.2592 217.08 46.1228C217.192 45.9842 217.421 45.9108 217.511 45.767C217.636 45.5946 218.036 45.5948 218.203 45.4742C218.387 45.3393 218.827 45.4227 219.057 45.3493C219.276 45.2782 219.308 45.1478 219.573 45.1382C219.857 45.124 219.947 44.9802 220.221 44.9683C220.352 44.9586 220.384 44.9204 220.451 44.8537C220.604 44.7159 220.726 44.575 221.016 44.5901C221.348 44.606 221.503 44.5191 221.821 44.5177C222.201 44.5224 223.092 44.9125 223.594 45.0431C224.127 45.1767 224.597 45.2534 225.12 45.3892C225.536 45.4988 226.355 46.0696 226.794 46.1942C227.214 46.3233 227.508 46.3991 227.99 46.5754C228.416 46.7337 228.822 46.5787 229.315 46.8038C229.864 47.0469 230.245 47.4105 230.775 47.6169C231.136 47.7594 231.464 47.848 231.856 48.0348C232.212 48.1991 232.585 48.3491 232.958 48.5404C233.306 48.7167 233.841 48.8091 234.213 49.0004C234.562 49.1767 234.841 49.4099 235.204 49.6034C235.552 49.7797 235.691 50.0248 236.061 50.2064C236.433 50.3977 236.991 50.5463 237.361 50.7278C237.731 50.9093 237.87 51.1545 238.24 51.336C238.601 51.5198 239.076 51.6669 239.446 51.8484C239.804 52.0225 240.143 52.201 240.523 52.3803C240.871 52.5566 241.269 52.7216 241.639 52.9031C241.997 53.0772 242.406 53.2498 242.764 53.4238C243.122 53.5978 243.486 53.7501 243.878 53.9369C244.268 54.114 244.798 54.2791 245.188 54.4561C245.568 54.6354 246.04 54.814 246.422 55.003C246.792 55.1846 246.689 55.4034 247.051 55.5969C247.436 55.7957 248.306 55.9647 248.693 56.1732C249.067 56.3742 249.454 56.5827 249.819 56.786C250.184 56.9893 250.388 57.209 250.746 57.4242C251.091 57.632 251.509 57.8435 251.847 58.0633C252.173 58.2755 252.543 58.4983 252.871 58.7203C253.199 58.9423 252.968 59.1393 253.276 59.3658C253.583 59.5825 253.942 59.8075 254.261 60.0318C254.57 60.2582 255.54 60.5067 255.849 60.7332C256.146 60.9522 255.863 61.1507 256.162 61.3794C256.449 61.6007 257.007 61.8415 257.304 62.0605C257.591 62.2817 257.497 62.4983 257.774 62.7218C258.052 62.9452 258.608 63.1763 258.885 63.3998C259.162 63.6232 259.316 63.8444 259.593 64.0679C259.87 64.2913 260.077 64.5208 260.352 64.7345C260.605 64.943 260.65 65.1379 260.918 65.3636C261.171 65.5721 262.054 65.7995 262.308 66.008C262.561 66.2165 262.754 66.4287 263.007 66.6371C263.248 66.8381 263.817 67.0355 264.056 67.2267C264.297 67.4277 264.065 67.6247 264.331 67.8407C264.596 68.0567 264.536 68.286 264.791 68.5042C265.047 68.7224 265.992 68.9049 266.238 69.1254C266.484 69.3458 266.608 69.5738 266.844 69.7965C267.08 70.0192 267.255 70.2456 267.482 70.4705C267.708 70.6955 267.963 70.9137 268.18 71.1409C268.396 71.3681 267.957 71.6437 268.174 71.8709C268.38 72.1004 268.988 72.2888 269.185 72.5204C269.38 72.7424 269.475 72.977 269.674 73.2185C269.864 73.4621 270.595 73.6528 270.775 73.8987C270.955 74.1446 270.855 74.4242 271.018 74.6843C271.178 74.9347 270.658 75.2598 270.81 75.5222C270.961 75.7749 271.182 76.0216 271.325 76.2862C271.476 76.5388 271.536 76.8019 271.689 77.0643C271.83 77.3192 272.258 77.5285 272.401 77.7932C272.541 78.0481 272.811 78.2835 272.952 78.5384C273.083 78.7956 273.625 79.0094 273.732 79.2515C273.839 79.4937 273.401 79.8203 273.472 80.0812C273.53 80.3345 273.681 80.5872 273.89 80.7852C274.126 81.0079 274.649 81.185 274.847 81.4166C275.044 81.6483 274.795 81.9518 274.956 82.2022C275.114 82.4429 275.469 82.6484 275.598 82.8958C275.727 83.1432 275.41 83.4623 275.531 83.7217C275.641 83.9736 275.692 84.239 275.791 84.4931C275.891 84.7472 276.268 84.958 276.367 85.2121C276.467 85.4663 276.381 85.7631 276.481 86.0172C276.58 86.2713 277.712 86.3287 277.812 86.5829C277.921 86.8348 277.872 87.1128 277.982 87.3647C278.093 87.6263 277.501 88.0398 277.586 88.3179C277.668 88.5863 277.614 88.8861 277.669 89.1709C277.734 89.4535 278.733 89.5109 278.778 89.798C278.821 90.0753 278.419 90.4657 278.462 90.743C278.506 91.0204 278.58 91.3007 278.614 91.5803C278.657 91.8576 278.362 92.2233 278.398 92.5126C278.434 92.802 279.02 92.9439 279.054 93.2235C279.078 93.5053 278.678 93.9054 278.701 94.1872C278.725 94.469 278.81 94.7472 278.834 95.029C278.858 95.3108 279.271 95.5029 279.305 95.7825C279.329 96.0643 278.999 96.4584 279.033 96.738C279.066 97.0176 278.559 97.4424 278.594 97.7317C278.628 98.0113 279.288 98.1157 279.31 98.3878C279.334 98.6697 279.433 98.9238 279.457 99.2056C279.481 99.4875 279.551 99.7484 279.566 100.032C279.58 100.317 279.747 100.555 279.752 100.841C279.764 101.116 279.231 101.567 279.234 101.843C279.236 102.12 279.545 102.305 279.538 102.584C279.53 102.863 279.505 103.156 279.488 103.437C279.47 103.718 278.882 104.192 278.847 104.487C278.822 104.78 278.881 105.034 278.844 105.319C278.797 105.607 279.039 105.808 278.982 106.098C278.928 106.398 278.606 106.78 278.532 107.084C278.468 107.386 278.886 107.506 278.8 107.803C278.715 108.099 278.544 108.426 278.478 108.718C278.412 109.011 278.157 109.377 278.123 109.672C278.088 109.968 278.061 110.251 278.036 110.544C278.011 110.837 277.881 111.165 277.847 111.46C277.812 111.755 277.805 112.034 277.748 112.324C277.684 112.626 277.331 113.005 277.26 113.278C277.192 113.561 277.395 113.729 277.317 114.014C277.239 114.299 277.42 114.462 277.342 114.747C277.254 115.034 276.79 115.469 276.692 115.759C276.59 116.07 276.242 116.478 276.13 116.791C276.017 117.105 276.597 117.125 276.474 117.441C276.352 117.756 275.743 118.276 275.621 118.591C275.489 118.909 275.217 119.29 275.073 119.6C274.932 119.92 274.949 120.173 274.805 120.483C274.653 120.805 274.959 120.93 274.795 121.244C274.634 121.569 274.651 121.822 274.478 122.139C274.299 122.477 273.522 123.067 273.341 123.396C273.168 123.713 273.462 123.83 273.279 124.149C273.096 124.468 272.311 125.07 272.118 125.391C271.935 125.711 272.327 125.764 272.159 126.059C271.981 126.357 271.482 126.82 271.317 127.125C271.141 127.433 270.973 127.728 270.798 128.035C270.622 128.342 270.574 128.579 270.408 128.884C270.233 129.191 270.04 129.513 269.865 129.82C269.691 130.137 269.579 130.409 269.404 130.716C269.221 131.036 268.566 131.577 268.383 131.896C268.192 132.227 268.597 132.247 268.412 132.556C268.234 132.854 268.044 133.144 267.857 133.443C267.669 133.743 267.592 133.987 267.402 134.277C267.214 134.576 266.756 134.99 266.558 135.292C266.369 135.582 265.912 136.005 265.715 136.307C265.518 136.609 265.852 136.635 265.645 136.939C265.393 137.315 264.624 137.944 264.378 138.298C264.116 138.677 264.192 138.874 263.926 139.233C263.645 139.616 263.398 139.971 263.132 140.33C262.856 140.691 262.413 141.131 262.147 141.49C261.871 141.851 261.287 142.345 261.011 142.706C260.77 143.039 260.509 143.376 260.267 143.709C260.026 144.042 260.056 144.26 259.814 144.593C259.573 144.926 259.426 145.226 259.185 145.559C258.973 145.844 258.667 146.12 258.496 146.313C258.231 146.631 257.987 146.995 257.721 147.312C257.456 147.63 257.121 147.871 256.846 148.191C256.571 148.511 256.367 148.917 256.092 149.237C255.816 149.557 255.506 149.813 255.231 150.133C254.955 150.453 254.788 150.974 254.523 151.292C254.183 151.688 253.758 151.714 253.461 152.029C253.149 152.368 252.92 152.533 252.617 152.819C252.306 153.116 251.802 154.094 251.504 154.358C251.205 154.621 251.033 154.497 250.74 154.739C250.447 154.981 250.141 155.257 249.876 155.4C249.585 155.559 249.238 155.793 248.88 156.111C248.794 156.183 248.608 156.574 248.536 156.622C248.222 156.817 247.734 157.371 247.41 157.569C247.094 157.754 246.929 157.618 246.618 157.782C246.27 157.965 246.326 157.408 245.99 157.506C245.748 157.572 245.062 158.335 244.834 158.367C244.714 158.385 244.629 158.548 244.487 158.642C244.177 158.857 243.777 158.949 243.522 158.998C243.307 159.047 243.631 158.224 243.437 158.186C243.254 158.146 243.114 158.076 242.943 158.002C242.775 157.939 242.353 158.2 242.182 158.126C242.023 158.06 241.512 158.424 241.363 158.315C241.217 158.215 241.186 157.945 241.043 157.814C240.902 157.693 241.437 156.81 241.312 156.664C241.186 156.519 240.77 156.676 240.64 156.511C240.522 156.354 240.636 155.958 240.523 155.779C240.412 155.61 239.368 156.291 239.26 156.09C239.164 155.897 239.928 154.89 239.825 154.667C239.746 154.501 238.954 154.94 238.888 154.739C238.823 154.549 239.479 153.741 239.412 153.541C239.345 153.341 238.614 153.684 238.537 153.486C238.447 153.23 239.2 152.266 239.101 152.012C238.994 151.77 237.829 152.418 237.72 152.166C237.62 151.912 238.226 151.064 238.122 150.791C238.022 150.536 237.782 150.386 237.686 150.101C237.596 149.844 237.56 149.555 237.47 149.299C237.38 149.042 236.67 149.257 236.588 148.989C236.508 148.73 236.986 148.045 236.904 147.777C236.834 147.516 236.928 147.125 236.861 146.833C236.798 146.56 236.654 146.336 236.597 146.042C236.537 145.737 236.3 145.556 236.25 145.249C236.2 144.943 236.138 144.629 236.113 144.296C236.077 143.965 236.408 143.397 236.373 143.066C236.336 142.726 236.264 142.414 236.227 142.074C236.18 141.735 236.189 141.374 236.142 141.036C236.094 140.698 236.344 140.179 236.287 139.843C236.231 139.507 234.994 139.884 234.927 139.551C234.863 139.227 235.601 138.421 235.544 138.085C235.48 137.761 234.624 137.876 234.557 137.543C234.49 137.209 235.581 136.24 235.512 135.896C235.445 135.563 235.178 135.337 235.111 135.003C235.045 134.67 234.491 134.582 234.42 134.229C234.341 133.888 234.835 133.271 234.764 132.918C234.686 132.577 234.433 132.327 234.364 131.984C234.286 131.643 233.659 131.551 233.578 131.201C233.5 130.859 234.273 130.117 234.188 129.747C234.105 129.386 233.08 129.437 232.975 129.072C232.873 128.716 233.56 128.003 233.455 127.637C233.36 127.269 232.554 127.198 232.469 126.828C232.383 126.458 232.853 125.867 232.816 125.486C232.77 125.107 232.14 124.954 232.101 124.563C232.059 124.203 231.77 123.931 231.719 123.573C231.667 123.216 232.652 122.455 232.59 122.1C232.539 121.743 232.26 121.468 232.197 121.103C232.135 120.748 232.365 120.274 232.294 119.921C232.223 119.568 231.373 119.487 231.302 119.134C231.219 118.773 231.091 118.443 231.008 118.083C230.925 117.722 231.025 117.309 230.942 116.949C230.859 116.588 230.454 116.343 230.37 115.982C230.287 115.622 230.48 115.167 230.397 114.806C230.314 114.446 230.07 114.143 229.987 113.782C229.904 113.422 230.184 112.947 230.103 112.596C230.02 112.235 229.823 111.911 229.742 111.561C229.659 111.2 229.981 110.726 229.907 110.363C229.822 109.993 229.383 109.735 229.309 109.372C229.234 108.999 229.673 108.498 229.602 108.145C229.536 107.77 228.534 107.652 228.472 107.297C228.407 106.922 228.758 106.441 228.696 106.086C228.628 105.701 228.718 105.29 228.661 104.954L228.633 104.92ZM245.673 73.3595C245.179 73.3503 244.698 73.3996 244.294 73.5643C243.957 73.7036 243.045 73.6673 242.811 74.0292C242.606 74.3432 242.407 74.5942 242.174 74.8736C241.958 75.1389 242.183 75.7131 242.015 76.1006C241.881 76.4086 241.898 76.7946 241.771 77.1318C241.648 77.4473 241.451 77.7493 241.34 78.1135C241.249 78.4321 241.394 78.8399 241.329 79.2244C241.272 79.5556 240.552 79.8139 240.52 80.2112C240.497 80.5552 240.937 80.9976 240.937 81.3978C240.941 81.7254 241.143 82.0687 241.158 82.4038C241.172 82.7291 240.38 83.0346 240.393 83.3599C240.407 83.6852 240.985 84.055 240.959 84.3892C240.943 84.7213 240.415 85.0583 240.497 85.3679C240.586 85.6655 241.762 85.9591 241.848 86.2881C241.941 86.6052 242.004 86.9193 242.09 87.2484C242.164 87.57 241.397 87.9414 241.464 88.275C241.538 88.5966 241.366 88.9645 241.433 89.2981C241.499 89.6317 241.617 89.9638 241.676 90.3093C241.743 90.6429 241.831 90.9817 241.888 91.3175C241.954 91.6511 243.295 91.8143 243.372 92.1456C243.448 92.4769 242.446 92.9847 242.535 93.3235C242.611 93.6549 243.142 93.9122 243.231 94.251C243.317 94.5801 242.667 95.058 242.756 95.3968C242.834 95.7379 243.801 95.9256 243.87 96.269C243.939 96.6123 243.382 97.0895 243.45 97.4328C243.509 97.7784 243.476 98.1659 243.544 98.5092C243.616 98.8622 244.016 99.1292 244.084 99.4726C244.156 99.8256 243.878 100.269 243.949 100.622C244.03 100.973 244.062 101.335 244.133 101.688C244.204 102.041 245.098 102.133 245.166 102.476C245.247 102.827 244.63 103.4 244.718 103.739C244.799 104.09 245.088 104.362 245.176 104.701C245.274 105.038 245.665 105.266 245.773 105.6C245.881 105.934 245.632 106.412 245.749 106.744C245.865 107.067 246.523 107.161 246.638 107.484C246.772 107.843 246.023 108.6 246.155 108.95C246.298 109.307 247.027 109.395 247.166 109.733C247.31 110.089 247.691 110.32 247.84 110.655C247.994 111.009 247.842 111.506 248.008 111.827C248.179 112.167 248.661 112.303 248.833 112.602C249.007 112.911 249.072 113.285 249.244 113.585C249.418 113.893 249.633 114.162 249.815 114.459C249.998 114.765 249.676 115.414 249.852 115.692C250.034 115.989 250.931 115.741 251.105 116.009C251.294 116.293 251.733 116.326 251.922 116.569C252.128 116.84 251.864 117.476 252.069 117.695C252.299 117.94 252.117 118.618 252.369 118.776C252.704 118.986 253.574 118.662 253.93 118.826C254.183 118.943 254.557 118.877 254.815 118.971C255.107 119.079 255.233 119.091 255.526 119.074C255.893 119.062 256.138 119.991 256.477 119.861C256.827 119.729 257.309 119.505 257.648 119.284C257.969 119.076 257.884 118.172 258.2 117.894C258.5 117.64 258.716 117.375 259.016 117.07C259.3 116.789 260.237 116.984 260.506 116.634C260.742 116.323 260.455 115.702 260.707 115.326C260.929 114.998 261.562 114.76 261.782 114.38C261.973 114.049 262.274 113.662 262.453 113.282C262.62 112.936 261.875 112.553 262.015 112.182C262.142 111.845 262.736 111.482 262.865 111.104C262.98 110.759 263.718 110.353 263.819 109.991C263.915 109.651 263.455 109.346 263.537 108.989C263.614 108.653 263.469 108.338 263.529 107.975C263.608 107.515 263.892 107.101 263.959 106.634C264.01 106.232 264.181 105.813 264.22 105.404C264.263 105.014 264.551 104.569 264.561 104.166C264.576 103.834 264.858 103.451 264.864 103.121C264.86 102.794 264.679 102.497 264.675 102.169C264.664 101.854 264.422 101.561 264.409 101.235C264.395 100.91 264.126 100.633 264.111 100.298C264.097 99.973 263.906 99.6784 263.891 99.3433C263.877 99.018 263.618 98.7391 263.603 98.404C263.589 98.0787 263.927 97.6726 263.913 97.3473C263.9 97.022 263.66 96.7386 263.635 96.4058C263.61 96.073 264.526 95.5539 264.494 95.2331C264.459 94.9026 264.39 94.5593 264.345 94.2309C264.308 93.8906 263.255 93.7741 263.207 93.436C263.16 93.0979 263.966 92.584 263.901 92.2602C263.825 91.9289 263.573 91.638 263.489 91.3187C263.396 91.0016 263.183 90.7017 263.06 90.3913C262.937 90.081 262.203 89.9218 262.08 89.6114C261.957 89.3011 262.158 88.9264 262.038 88.6258C261.915 88.3154 262.338 87.8794 262.217 87.5787C262.097 87.2781 261.508 87.0853 261.376 86.7772C261.243 86.4691 261.686 86.0285 261.534 85.7249C261.384 85.431 260.961 85.2 260.8 84.8986C260.63 84.6092 260.481 84.3153 260.282 84.0327C260.093 83.7478 259.788 83.4898 259.572 83.2214C259.344 82.9455 258.999 82.6965 258.766 82.4423C258.531 82.1784 258.364 81.8987 258.226 81.6124C258.084 81.3065 257.69 81.11 257.496 80.8468C257.285 80.5566 256.92 80.3534 256.697 80.0969C256.488 79.8578 256.967 79.3063 256.76 79.0769C256.551 78.8377 255.676 78.916 255.465 78.6671C255.229 78.4032 255.011 78.1662 254.782 77.9315C254.539 77.6796 254.51 77.3273 254.271 77.0949C254.009 76.8474 253.692 76.6741 253.434 76.4462C253.153 76.2032 252.872 76.0112 252.6 75.8072C252.301 75.5785 252.464 74.9048 252.166 74.727C251.83 74.517 251.39 74.3414 251.058 74.1921C250.622 73.9948 249.947 74.448 249.535 74.307C249.089 74.1531 248.793 73.4927 248.36 73.3973C247.906 73.2967 247.444 73.4749 247.014 73.4305C246.561 73.3809 246.111 73.2997 245.679 73.2965L245.673 73.3595Z" fill="#FFF600"/>
</svg>
