<svg width="375" height="210" viewBox="0 0 375 210" fill="none" xmlns="http://www.w3.org/2000/svg">
<path d="M165.5 39.9026C178.637 37.2551 189.102 34.7313 199.492 33.2671C209.975 31.7903 220.708 29.9317 230.832 29.028C243.088 27.9374 254.719 27.3997 265.553 27.5725C275.395 27.7267 284.558 28.2627 293.289 29.0777C294.963 29.2312 296.461 29.4876 298.028 29.6968C300.376 30.019 302.717 30.3428 305.044 30.6777C305.972 30.8059 306.94 30.9332 307.731 31.1238C310.651 31.8363 313.595 32.5438 316.355 33.3237C320.239 34.4274 323.75 35.6854 327.794 36.7217C336.443 38.9241 340.803 42.6047 346.094 45.9592C348.29 47.3502 350.074 48.8963 351.487 50.525C352.952 52.2135 353.75 54.0823 354.796 55.888C355.055 56.3398 354.859 56.9248 355.362 57.2907C357.666 58.9919 357.892 61.2266 358.984 63.2371C359.685 64.5302 359.655 66.0095 359.827 67.4282C360.008 68.9244 359.952 70.4653 360.156 71.9565C360.619 75.2929 360.958 78.6487 359.351 82.3811C358.811 83.6395 359.009 84.7817 358.699 86.0048C357.752 89.6942 355.282 93.5943 351.954 97.6056C349.121 101.013 346.805 104.386 342.762 107.903C339.327 110.895 336.224 113.877 332.343 116.873C327.241 120.816 321.629 124.762 315.135 128.712C309.482 132.149 302.912 135.471 296.58 138.828C294.215 140.078 291.343 141.273 288.634 142.48C277.961 147.223 267.413 151.987 255.022 156.236C249.822 158.02 244.724 159.837 238.99 161.222C238.09 161.438 237.154 161.67 236.342 161.954C228.525 164.645 220.058 166.455 211.773 168.542C196.801 172.314 181.991 174.919 167.048 177.283C150.588 179.88 135.321 181.25 120.46 181.94C112.257 182.321 103.803 182.894 96.6326 182.512C86.8512 181.986 76.3179 181.874 68.2385 180.373C63.8873 179.564 59.9256 178.573 55.7118 177.702C49.9192 176.497 45.5462 174.73 41.0931 172.997C38.4952 171.982 35.8249 170.998 33.2709 169.966C32.5283 169.669 31.9383 169.306 31.5286 168.896C28.2878 165.667 24.9804 162.461 21.9578 159.176C19.5346 156.546 18.2696 153.611 17.2533 150.612C16.5622 148.576 15.7135 146.584 15.7811 144.379C15.8175 143.145 14.9611 142.086 14.4951 140.955C14.3872 140.685 14.1276 140.448 14.1125 140.165C13.9736 137.712 13.7909 135.276 13.8037 132.79C13.8139 131.402 14.1141 129.958 14.3916 128.519C14.5948 127.463 14.9649 126.37 15.2912 125.294C15.4506 124.757 15.9362 124.148 15.8376 123.668C15.0733 120.12 17.8478 116.017 20.2226 111.979C23.3596 106.641 27.788 101.167 33.791 95.5428C35.4189 94.0189 37.6191 92.4554 39.6321 90.9096C42.8692 88.4232 45.8332 85.9258 49.549 83.4445C53.2455 80.9834 56.8307 78.5232 61.8413 76.0647C68.0498 73.0138 74.2718 69.9519 80.4954 66.8976C91.4642 61.5155 104.224 56.7783 118.275 52.5504C126.074 50.2052 133.878 47.8186 141.855 45.7043C150.516 43.4063 159.39 41.3873 165.523 39.8975L165.5 39.9026Z" fill="#00D700"/>
<path d="M43.6561 103.542C43.7589 103.431 43.8542 103.322 43.9048 103.263C44.7309 102.395 45.6102 101.515 46.4978 100.673C46.9986 100.204 49.2039 98.1615 49.3716 98.0207C49.724 97.7434 50.1168 97.4333 50.5754 97.0607C50.8528 96.8399 50.7617 97.0751 50.341 97.8691C48.031 102.164 46.2622 106.457 45.5419 111.314C45.0089 114.864 45.5633 118.363 45.6785 122.358C45.7289 124.018 46.0061 125.804 46.36 127.54C47.1706 131.548 48.8848 135.251 50.2121 139.255C50.5964 140.411 51.1231 141.528 51.6457 142.662C51.7384 142.864 51.8345 143.082 51.9255 143.277C52.3755 144.156 52.6023 144.137 52.4616 143.181C52.0294 140.196 52.4983 136.932 51.7323 134.021C51.0708 131.509 51.3062 128.734 51.4801 125.933C51.573 124.416 51.6692 122.914 51.907 121.404C52.3683 118.499 54.2728 115.354 54.096 112.766C54.0033 111.417 54.1611 110.013 54.5076 108.598C55.4057 104.864 57.4375 100.751 58.9989 97.1718C60.2129 94.3944 61.6234 91.5336 63.1013 88.6897C63.4647 87.996 63.715 87.5821 63.8971 87.47C64.5951 87.0284 65.3192 86.5252 66.0265 86.0894C66.7472 85.6427 67.4553 85.2466 68.2098 84.8083C69.2382 84.2057 70.3198 83.5913 71.473 82.9769C71.6087 82.9069 71.7503 82.8277 71.8734 82.8084C72.0327 82.773 71.9585 83.1556 71.6912 83.7802C71.402 84.4495 71.1112 85.1112 70.8245 85.756C69.9958 87.6517 69.2184 89.528 68.5111 91.3968C67.8551 93.1028 67.2278 94.8662 66.5247 96.7181C65.5416 99.3168 64.6453 101.912 64.1638 104.439C63.3905 108.52 62.8667 112.648 62.1507 117.059C61.7257 119.661 61.7651 122.239 61.7135 124.838C61.5916 131.17 62.4484 137.213 63.3363 143.003C63.7121 145.483 64.2067 147.96 65.0334 150.284C65.4953 151.575 66.1156 152.79 66.6642 153.934C68.2301 157.185 69.8374 160.37 71.4252 163.504C71.5382 163.726 71.6418 163.942 71.7623 164.162C73.3123 167.161 75.841 168.51 77.9954 170.396C78.4303 170.777 78.5946 170.979 78.4252 170.969C78.2575 170.967 78.0973 170.962 77.8723 170.917C76.4958 170.634 75.1294 170.324 73.7874 170.017C73.2345 169.893 72.7018 169.789 72.1581 169.671C71.5824 169.552 71.005 169.425 70.4292 169.306C69.8274 169.177 69.218 169.05 68.6102 168.93C68.5259 168.909 68.4357 168.897 68.3607 168.882C68.2031 168.853 67.8786 168.719 67.3669 168.458C65.6348 167.577 63.879 166.733 62.1426 165.869C59.8609 164.736 57.8228 163.23 55.987 161.417C54.7522 160.195 53.5115 158.981 52.28 157.774C50.0211 155.561 47.6038 153.423 45.752 150.929C44.8763 149.746 44.1473 148.507 43.4722 147.296C42.8241 146.134 42.2619 145.001 41.6618 143.805C41.3879 143.253 41.13 142.665 40.8865 142.107C39.9805 140.071 39.6418 137.973 38.4635 136.109C36.7365 133.388 36.5016 130.144 36.3333 127.236C36.26 126.01 36.277 124.796 36.3985 123.623C36.5486 122.22 37.0511 120.827 36.7334 119.648C36.586 119.091 36.5371 118.513 36.5616 117.943C36.6216 115.955 37.3399 114.386 38.3314 112.327C38.9797 110.981 39.5429 109.789 40.1684 108.663C41.0891 107.002 42.2019 105.345 43.6535 103.566L43.6561 103.542Z" fill="#FFFCD7"/>
<path d="M105.709 172.209C105.104 172.247 104.5 172.286 103.799 172.283C103.416 172.28 102.919 172.159 102.528 172.151C100.62 172.129 98.7191 172.137 96.8132 172.123C96.0158 172.117 95.2074 172.097 94.3991 172.078C94.335 172.076 94.2743 172.09 94.1993 172.074C93.9591 172.032 93.6093 171.784 93.09 171.31C92.9189 171.149 92.7554 170.986 92.5936 170.831C91.6563 169.909 90.7191 168.986 89.7725 168.058C87.1605 165.51 85.1832 161.985 83.12 158.431C80.6008 154.078 77.725 149.662 76.0463 144.685C74.6035 140.412 73.7382 135.692 72.8349 131.411C70.3939 119.813 68.7815 107.465 70.9454 95.8474C71.3822 93.5134 71.98 91.1515 72.5096 88.9481C72.8865 87.3837 73.282 85.831 73.7381 84.2649C73.8747 83.8046 74.0155 83.3275 74.1825 82.8606C74.5619 81.7732 74.873 81.2026 75.1486 81.0458C75.5237 80.8351 75.8744 80.6935 76.2411 80.5165C76.6365 80.3252 77.0242 80.1356 77.4179 79.9367C77.5401 79.8777 77.6666 79.8018 77.7829 79.7521C78.7902 79.3054 79.8069 78.8646 80.8235 78.4239C81.121 78.2941 81.3849 78.2992 81.7061 78.0606C82.3484 77.5836 82.8508 77.6232 83.4594 77.2811C84.0605 76.9406 84.6455 76.7071 85.2254 76.4509C86.3297 75.9747 87.4256 75.5323 88.5358 75.0468C88.8772 74.8993 89.2523 74.617 89.5937 74.4695C90.3853 74.1265 91.1886 73.8366 91.9152 73.5239C92.8366 73.1202 93.7816 72.6794 94.7299 72.2538C94.7872 72.2252 94.8488 72.1797 94.9002 72.1603C95.2677 72.0229 95.2837 72.2741 95.0273 73.9869C94.7802 75.634 94.55 77.2853 94.361 78.9434C93.6474 85.0487 92.2636 91.7567 93.7686 98.2449C94.002 99.2598 94.0457 100.317 93.9967 101.387C93.9469 102.417 93.8626 102.897 93.6282 103.061C93.275 103.298 92.926 103.519 92.5779 103.636C90.8659 104.208 89.1808 104.757 87.4122 105.325C86.3872 105.656 85.3639 105.923 84.3515 106.204C83.6392 106.402 82.9302 106.615 82.2281 106.787C81.7897 106.892 81.3691 106.898 80.9223 107.037C79.9015 107.352 80.0532 108.035 79.9493 110.9C79.9189 111.766 79.955 112.61 80.046 113.45C80.1168 114.126 80.2415 114.473 80.4193 114.521C80.6065 114.575 80.7843 114.551 80.9647 114.503C81.7571 114.272 82.4913 113.957 83.2601 113.763C84.3913 113.479 85.5445 113.295 86.6909 113.008C87.8222 112.725 88.9804 112.349 90.0703 112.059C90.319 111.995 90.5786 111.946 90.8332 111.945C91.0313 111.941 91.226 112.423 91.3768 113.209C91.488 113.782 91.5891 114.38 91.6734 114.975C92.5563 121.171 93.8455 127.261 95.4525 133.313C95.4845 133.457 95.5334 133.605 95.5654 133.75C95.8157 134.769 95.819 135.142 95.5855 135.274C95.5223 135.312 95.4489 135.304 95.3807 135.319C93.4318 135.649 91.4272 136.014 89.4842 136.334C88.4483 136.509 87.4274 136.68 86.4235 136.855C86.0332 136.926 85.6311 137.015 85.2198 137.099C85.1515 137.114 85.0824 137.161 85.0225 137.214C84.8733 137.367 84.8648 137.83 85.0452 138.499C85.4201 139.936 85.8348 141.372 86.2932 142.791C86.4938 143.407 86.739 143.759 86.9135 143.792C87.2136 143.852 87.5145 143.881 87.7851 143.845C89.1052 143.695 90.2474 143.497 91.4916 143.292C93.3814 142.984 95.3312 142.622 97.2312 142.288C98.4172 142.072 99.6167 141.845 100.824 141.617C100.915 141.597 100.995 141.563 101.098 141.596C101.317 141.651 101.524 142.011 101.784 142.821C102.197 144.106 102.591 145.38 103.147 146.626C103.576 147.59 104.064 148.5 104.498 149.415C106.128 152.81 107.729 156.037 109.238 159.356C110.717 162.61 112.331 165.467 114.238 167.957C114.721 168.591 115.249 169.213 115.74 169.845C116.074 170.272 116.428 170.719 116.713 171.141C117.067 171.66 117.182 172 117.029 172.066C116.89 172.121 116.739 172.155 116.574 172.167C115.508 172.205 114.426 172.207 113.393 172.253C112.043 172.306 110.75 172.394 109.448 172.413C108.441 172.43 107.416 172.403 106.418 172.354C106.209 172.344 105.963 172.279 105.732 172.243C105.729 172.228 105.712 172.224 105.701 172.21L105.709 172.209Z" fill="#FFFCD7"/>
<path d="M149.934 168.992C150.137 169.655 149.958 169.6 149.834 169.619C149.249 169.709 148.643 169.773 148.067 169.869C147.161 170.022 146.126 169.981 145.221 170.103C144.572 170.191 143.878 170.186 143.226 170.259C142.541 170.332 141.882 170.446 141.212 170.547C140.973 170.584 140.705 170.557 140.288 170.259C139.633 169.784 138.902 168.927 138.086 167.62C135.823 163.991 133.628 159.558 131.906 154.925C130.917 152.263 129.736 149.636 128.567 146.99C126.897 143.197 125.46 141.638 124.566 141.343C124.548 141.331 124.523 141.328 124.508 141.332C123.61 141.555 122.72 141.776 121.838 141.996C121.731 142.02 121.65 142.118 121.532 142.088C120.325 141.815 119.356 142.293 118.282 142.404C117.83 142.449 117.448 142.701 117.055 142.9C116.804 143.027 116.811 143.416 117.245 144.545C117.466 145.109 117.737 145.686 117.985 146.228C120.14 150.947 122.074 155.462 123.879 160.076C125.211 163.49 127.03 166.015 128.809 168.685C128.916 168.845 129.022 168.996 129.121 169.157C129.838 170.272 130.076 170.912 129.801 171.036C129.606 171.127 129.361 171.134 129.125 171.147C126.933 171.315 124.642 171.466 122.274 171.626C122.172 171.632 122.081 171.653 121.957 171.632C121.675 171.584 121.226 171.174 120.724 170.489C118.764 167.796 116.556 165.524 115.087 162.029C114.567 160.799 114.007 159.57 113.464 158.345C112.656 156.535 111.879 154.614 110.992 152.916C107.712 146.607 104.72 138.403 103.305 131.354C101.747 123.588 99.5492 115.343 98.5872 107.428C98.1533 103.863 98.8423 99.9759 98.014 96.6411C97.5025 94.5894 97.4276 92.568 97.4126 90.4935C97.3993 88.0684 97.5875 85.6543 97.8001 83.2426C97.871 82.4149 97.9183 81.6242 97.9706 80.8563C98.0693 79.2581 98.2212 77.6481 98.3671 76.0474C98.4616 75.0392 98.9551 70.4874 99.2308 69.9007C99.8293 69.6563 101.058 69.3117 101.3 69.2181C101.946 68.9712 102.596 68.7074 103.257 68.4571C104.091 68.1284 104.945 67.7795 105.79 67.4964C106.886 67.1255 107.987 66.8491 109.115 66.4792C109.731 66.2786 110.366 65.9145 110.997 65.671C112.258 65.1838 113.525 64.6875 114.805 64.2838C115.28 64.1304 115.741 64.3066 116.219 64.1288C117.167 63.7748 118.105 63.8373 119.03 64.1332C120.161 64.495 121.277 65.1787 122.328 67.1504C122.491 67.4564 122.663 67.7287 122.816 68.1324C123.246 69.2789 123.722 70.3115 124.132 71.7251C124.752 73.8722 125.22 76.1566 125.666 79.5283C125.733 80.0071 125.805 80.4767 125.895 80.9184C126.839 85.6684 127.992 90.7143 128.264 96.5289C128.419 99.8779 128.749 102.973 128.873 106.042C128.961 108.156 128.988 110.037 128.895 111.801C128.759 114.522 128.794 116.759 128.363 118.224C128.336 118.318 128.317 118.482 128.35 118.665C128.401 118.933 128.486 119.28 128.545 119.545C128.593 119.726 128.692 119.919 128.747 119.954C129.279 120.234 129.753 121.434 130.307 122.282C131.193 123.654 132.247 125.745 133.288 128.244C134.174 130.372 134.915 132.882 135.619 135.408C136.734 139.388 138.282 143.271 139.721 146.884C141.27 150.775 143.021 155.434 144.049 159.13C144.435 160.509 145.183 161.76 145.854 162.917C146.843 164.647 148.052 166.504 149.111 167.901C149.371 168.249 149.633 168.605 149.911 168.997L149.934 168.992ZM112.76 108.587C112.77 108.632 112.782 108.685 112.792 108.731C113.602 108.543 114.423 108.401 115.225 108.143C115.775 107.965 116.328 107.731 116.836 107.331C117.352 106.93 117.289 104.675 117.093 102.29C117.016 101.297 117.01 100.231 116.912 99.2498C116.683 97.0396 116.35 95.6488 115.819 95.5122C115.422 95.4093 115.028 95.5365 114.632 95.6166C114.275 95.6958 113.924 95.8694 113.569 95.9562C112.77 96.1576 111.97 96.0328 111.18 96.5983C110.974 96.7475 110.76 96.7155 110.546 96.7551C109.858 96.884 109.177 96.9716 108.499 97.146C108.294 97.1915 108.083 97.4216 107.881 97.6256C107.732 97.7782 107.646 98.2511 107.639 98.9372C107.633 99.6234 107.635 100.315 107.668 101.001C107.757 102.907 107.883 104.838 108.207 106.724C108.637 109.232 108.755 109.516 109.335 109.403C110.478 109.173 111.614 108.873 112.764 108.602L112.76 108.587Z" fill="#FFFCD7"/>
<path d="M173.562 161.363C173.469 161.734 173.117 163.086 172.967 163.342C172.536 164.091 172.179 164.99 171.578 165.33C171.308 165.478 171.116 165.831 170.856 166.024C170.604 166.215 170.322 166.342 170.039 166.468C169.574 166.667 169.113 166.849 168.641 167.018C168.441 167.086 168.256 167.223 167.992 167.146C167.193 166.917 166.621 167.243 165.96 167.35C165.214 167.468 164.534 167.739 163.797 167.863C163.115 167.982 162.391 167.984 161.691 168.06C161.396 168.094 161.137 168.215 160.842 168.249C160.305 168.304 159.736 168.287 159.211 168.364C158.165 168.525 157.145 168.736 156.116 168.908C155.586 168.994 155.045 169.067 154.511 169.137C154.481 169.144 154.443 169.153 154.409 169.144C153.713 169.164 153.489 168.584 152.694 166.978C151.341 164.221 149.575 161.644 148.811 158.422C148.589 157.493 148.216 156.461 147.903 155.48C147.793 155.13 147.673 154.766 147.582 154.428C147.053 152.301 146.324 150.202 145.533 148.109C145.376 147.69 145.227 147.269 145.078 146.849C144.149 144.173 142.875 141.447 142.158 138.541C140.29 130.955 138.71 122.518 137.086 115.387C136.617 113.31 135.976 110.929 135.542 108.685C135.244 107.167 134.956 105.654 134.666 104.134C134.53 103.416 134.402 102.696 134.267 101.978C134.068 100.94 133.894 99.9433 133.679 98.9402C133.101 96.2267 133.048 93.3725 133.069 90.6372C133.09 88.5467 132.22 86.6382 131.872 84.6775C131.656 83.4519 131.524 82.2153 131.401 80.977C131.352 80.4704 131.313 79.9377 131.247 79.4589C131.022 77.805 130.991 76.1562 130.972 74.4965C130.946 72.6234 130.858 70.828 130.791 69.0595C130.738 67.495 130.71 65.933 130.683 64.3787C130.67 63.4978 130.637 62.6296 130.617 61.7504C130.61 61.2185 130.6 60.6714 130.619 60.1496C130.636 59.5807 130.731 59.1853 130.869 59.0513C130.935 58.9889 130.994 58.9358 131.061 58.9131C131.585 58.7648 132.11 58.6165 132.643 58.474C132.869 58.4159 133.104 58.5069 133.314 58.2693C133.829 57.6851 134.362 57.7897 134.883 57.6979C136.163 57.4771 137.456 57.2378 138.746 56.991C139.266 56.8915 139.791 56.8545 140.291 56.5603C141.015 56.1288 141.772 56.1356 142.513 55.9553C143.177 55.7918 143.84 55.5887 144.51 55.4876C144.819 55.443 145.152 55.6874 145.463 55.6183C146.813 55.3184 148.353 56.5526 149.907 57.2742C150.147 57.3881 150.406 57.7286 150.652 57.9765C150.786 58.1139 150.927 58.3533 151.055 58.4283C151.969 58.9257 152.869 60.6125 153.791 61.7851C154.101 62.1779 154.413 62.9046 154.722 63.5048C155.266 64.5543 155.847 65.5237 156.354 66.7645C157.046 68.4496 157.721 70.1229 158.514 72.1915C159.287 74.2012 160.071 76.2959 160.99 78.4244C161.334 79.2236 161.679 80.166 162.091 81.0536C163.569 84.2679 163.239 88.2979 164.59 91.9463C164.696 92.2413 164.803 92.5439 164.895 92.8499C165.753 95.7084 166.362 98.7017 167.081 101.655C167.195 102.131 167.335 102.617 167.435 103.104C168.145 106.657 169.19 110.071 169.563 113.721C169.766 115.746 170.238 117.727 170.657 119.688C170.802 120.34 170.957 121.038 171.034 121.634C171.289 123.679 171.66 125.778 171.962 127.853C172.197 129.448 172.35 130.998 172.514 132.562C172.949 136.597 173.964 139.914 174.227 143.032C174.259 143.392 174.318 143.8 174.355 144.182C174.546 146.082 174.644 147.884 174.634 149.558C174.62 151.431 174.493 153.299 174.447 154.989C174.428 155.478 174.411 155.904 174.395 156.298C174.371 156.94 174.313 157.502 174.27 158.061C174.195 159.089 173.989 159.843 173.783 160.565C173.7 160.839 173.614 161.096 173.543 161.383L173.562 161.363ZM155.112 133.1C155.883 132.953 156.684 132.831 157.413 132.637C158.156 132.432 158.916 132.271 159.252 130.453C159.279 130.288 159.34 130.203 159.39 130.104C159.826 129.307 160.005 127.786 159.959 125.679C159.942 125.101 159.947 124.551 159.934 123.988C159.904 122.204 159.647 120.151 159.377 117.934C158.992 114.732 158.747 111.371 157.657 108.182C156.631 105.178 156.197 102.074 155.288 99.4898C154.897 98.3746 154.437 97.5215 153.991 96.5537C152.921 94.212 152.131 92.5884 151.288 91.5895C150.478 90.631 149.737 90.1269 149.016 89.9607C148.446 89.8326 147.88 90.1174 147.317 90.2346C146.678 90.3685 146.049 90.6913 145.401 90.6045C144.802 90.5226 144.262 91.1042 143.673 91.1396C143.439 91.1598 143.343 91.8417 143.397 92.801C143.454 93.6642 143.483 94.6209 143.586 95.4419C144.525 103.003 146.95 111.516 148.424 119.372C149.097 122.941 150.029 126.491 150.821 129.985C151.599 133.379 151.737 133.675 152.527 133.579C153.395 133.474 154.248 133.26 155.11 133.093L155.112 133.1Z" fill="#FFFCD7"/>
<path d="M216.848 155.425C216.958 156.276 216.649 156.536 216.452 156.58C215.333 156.844 214.208 157.086 213.089 157.351C212.755 157.425 212.435 157.528 212.105 157.617C211.203 157.857 210.303 158.105 209.408 158.344C208.702 158.532 207.994 158.714 207.286 158.895C207.202 158.913 207.117 158.924 207.03 158.928C206.851 158.944 206.657 158.716 206.43 158.09C206.02 156.923 205.577 155.787 205.154 154.6C203.98 151.326 203.096 147.701 202.11 143.836C202.005 143.437 201.901 143.039 201.786 142.666C201.565 141.919 201.32 141.464 201.121 141.572C200.513 141.882 199.8 141.539 199.207 141.949C198.69 142.311 198.08 142.216 197.511 142.342C197.086 142.436 196.671 142.576 196.239 142.672C194.156 143.151 192.07 143.614 189.965 144.066C189.95 144.069 189.927 144.075 189.912 144.078C189.059 144.363 189.028 143.972 189.3 147.884C189.639 152.704 190.336 156.848 191.073 160.952C191.117 161.189 191.154 161.427 191.199 161.664C191.332 162.407 191.278 162.737 191.07 162.768C190.292 162.885 189.524 163.047 188.754 163.202C187.312 163.483 185.87 163.763 184.422 164.021C183.833 164.128 183.23 164.207 182.623 164.27C182.53 164.282 182.397 164.185 182.266 164.134C181.886 163.104 181.713 162.251 181.522 161.394C181.458 161.105 181.453 160.868 181.38 160.573C180.467 156.931 180.263 153.577 179.841 149.38C179.347 144.506 178.698 139.794 177.819 134.974C177.337 132.303 177.125 129.165 176.874 126.204C176.688 124.008 176.493 121.838 176.242 119.633C175.783 115.596 175.851 111.385 175.18 107.363C174.803 105.09 174.522 102.716 174.248 100.444C173.787 96.5745 172.812 92.8343 172.86 88.9627C172.894 86.4634 172.683 84.0425 172.63 81.4749C172.6 80.0166 172.261 78.7067 172.022 77.4144C171.639 75.2944 171.373 73.1643 171.129 71.0291C170.673 67.1102 170.515 63.2841 170.189 59.6308C169.912 56.5558 169.881 53.442 169.673 50.3913C169.657 50.1401 169.641 49.889 169.624 49.6302C169.738 49.1033 170.002 49.2197 170.224 49.1784C171.026 49.0242 171.831 48.9248 172.615 48.7588C175.011 48.2583 177.313 47.7628 179.54 47.2522C180.011 47.1477 180.467 46.9825 180.885 46.6749C181.206 46.4364 181.564 47.0096 181.987 48.1973C182.2 48.795 182.4 49.4112 182.601 50.0274C183.29 52.1272 183.965 54.1983 184.713 56.0942C185.476 58.0262 186.205 60.1252 186.913 62.3085C187.886 65.2926 189.118 68.291 190.397 71.3265C191.334 73.5385 192.423 75.7883 193.103 78.2405C193.611 80.0621 194.264 81.8517 194.628 83.7054C197.461 90.8697 200.331 98.5196 202.222 105.567C203.404 109.953 205.062 114.585 206.333 119.055C206.839 120.829 207.29 122.68 207.706 124.482C208.115 126.286 208.845 127.962 209.468 129.655C210.405 132.225 211.18 134.601 211.882 137.048C212.886 140.527 213.445 144.152 214.367 147.41C214.93 149.403 215.539 151.107 216.142 152.963C216.395 153.743 216.749 154.691 216.841 155.427L216.848 155.425ZM188.129 108.602C188.129 108.602 188.136 108.632 188.141 108.655C188.482 108.579 188.823 108.535 189.157 108.429C189.627 108.285 190.087 108.135 190.549 107.921C190.824 107.796 190.899 107.023 190.581 105.804C190.476 105.406 190.349 105.012 190.219 104.643C189.903 103.758 189.608 102.86 189.267 102.004C188.401 99.864 187.762 97.7052 187.084 95.4755C185.814 91.2995 184.265 87.4084 183.177 83.4786C183.1 83.2012 183.026 82.907 182.945 82.6466C182.651 81.6847 182.42 81.7201 182.402 82.7831C182.389 83.3352 182.413 83.943 182.451 84.5473C182.591 86.8966 182.839 89.1582 183.172 91.5202C183.881 96.4658 184.347 101.505 185.057 106.562C185.349 108.63 185.363 109.16 185.871 109.08C186.641 108.964 187.393 108.765 188.154 108.604L188.129 108.602Z" fill="#FFFCD7"/>
<path d="M238.795 148.034C238.197 148.892 237.616 149.928 236.946 150.356C236.647 150.55 236.369 150.946 236.07 151.179C235.772 151.413 235.468 151.584 235.16 151.74C234.653 152.004 234.148 152.235 233.633 152.461C233.415 152.557 233.202 152.708 232.979 152.638C232.327 152.425 231.707 152.825 231.127 153.01C230.466 153.22 229.829 153.616 229.156 153.846C228.534 154.056 227.901 154.148 227.269 154.313C226.998 154.381 226.741 154.549 226.469 154.618C225.979 154.742 225.469 154.776 224.977 154.925C223.991 155.216 223.009 155.561 222.017 155.861C221.509 156.014 220.989 156.145 220.48 156.29C220.45 156.297 220.412 156.306 220.381 156.312C219.732 156.401 219.678 155.76 219.373 153.957C218.854 150.872 218.071 147.917 217.962 144.455C217.93 143.451 217.781 142.385 217.672 141.358C217.631 140.993 217.585 140.606 217.562 140.252C217.444 138.002 217.106 135.8 216.668 133.613C216.58 133.178 216.497 132.735 216.415 132.292C215.904 129.491 214.9 126.618 214.579 123.56C213.746 115.546 212.012 107.205 210.511 99.6577C210.071 97.4626 209.477 95.0392 208.916 92.7994C208.539 91.2829 208.185 89.7614 207.808 88.2449C207.633 87.5276 207.45 86.8119 207.252 86.0996C206.968 85.0721 206.667 84.0723 206.281 83.0911C205.252 80.4299 205.179 77.5167 204.794 74.7442C204.499 72.6284 203.536 70.6609 202.911 68.7061C202.521 67.4872 202.168 66.2598 201.809 65.0342C201.658 64.5343 201.519 64.0159 201.348 63.5363C200.773 61.9127 200.364 60.3237 199.986 58.728C199.553 56.9216 199.067 55.1665 198.602 53.4309C198.19 51.8984 197.787 50.3718 197.362 48.8503C197.124 47.9955 196.854 47.1399 196.594 46.2902C196.438 45.7676 196.273 45.2391 196.139 44.7434C195.993 44.1946 195.967 43.8263 196.078 43.7142C196.122 43.6644 196.174 43.613 196.229 43.6088C196.729 43.5296 197.232 43.4656 197.726 43.3957C197.935 43.3653 198.208 43.4876 198.355 43.2878C198.709 42.8032 199.319 42.9701 199.888 42.9474C201.262 42.8969 202.638 42.822 204.011 42.7319C204.561 42.6974 205.139 42.7202 205.615 42.4952C206.306 42.1665 207.135 42.245 207.911 42.1523C208.601 42.0706 209.281 41.9434 209.989 41.9055C210.32 41.8878 210.752 42.15 211.07 42.1113C212.475 41.9504 214.385 43.2377 216.123 44.0378C216.397 44.16 216.735 44.4989 217.045 44.7484C217.212 44.8867 217.415 45.1202 217.56 45.1994C218.594 45.7339 219.894 47.3559 221.072 48.5032C221.467 48.8851 221.939 49.5763 222.377 50.1479C223.148 51.1468 223.921 52.0817 224.694 53.2315C225.742 54.7978 226.758 56.3236 227.998 58.2532C229.195 60.1288 230.341 62.0955 231.515 64.1194C231.953 64.8739 232.397 65.7624 232.876 66.6273C234.605 69.7539 234.493 73.6558 236.427 77.0235C236.582 77.2916 236.731 77.5689 236.859 77.8589C238.094 80.5143 238.749 83.3542 239.599 86.1427C239.74 86.597 239.896 87.048 240.023 87.5133C240.91 90.8986 241.62 94.3075 241.975 97.8428C242.172 99.8052 242.597 101.717 242.954 103.612C243.07 104.239 243.212 104.916 243.269 105.493C243.454 107.474 243.728 109.53 243.856 111.579C243.958 113.149 243.95 114.687 243.899 116.251C243.776 120.283 244.466 123.569 244.244 126.691C244.221 127.054 244.208 127.463 244.189 127.841C244.071 129.747 243.859 131.553 243.545 133.255C243.195 135.156 242.753 137.037 242.327 138.811C242.204 139.332 242.081 139.781 241.962 140.214C241.774 140.908 241.569 141.527 241.387 142.141C241.054 143.258 240.675 144.098 240.29 144.908C240.142 145.212 239.999 145.498 239.857 145.824C239.67 146.24 238.989 147.76 238.783 148.053L238.795 148.034ZM227.309 117.437C228.042 117.258 228.797 117.146 229.553 116.93C230.324 116.711 231.119 116.527 231.608 114.675C231.65 114.506 231.718 114.419 231.775 114.319C232.27 113.5 232.558 111.964 232.592 109.862C232.6 109.287 232.622 108.741 232.631 108.174C232.658 106.393 232.458 104.383 232.218 102.192C231.872 99.0204 231.675 95.6967 230.755 92.4859C229.886 89.4707 229.118 86.5523 228.087 84.0589C227.64 82.9799 227.139 82.1596 226.598 81.229C225.302 78.9774 224.383 77.4221 223.421 76.4257C222.493 75.4697 221.669 74.9521 220.895 74.7657C220.281 74.6156 219.74 74.871 219.172 74.9654C218.534 75.0673 217.942 75.3741 217.273 75.2678C216.655 75.1742 216.173 75.7272 215.581 75.7473C215.344 75.76 215.319 76.4343 215.481 77.3776C215.622 78.2298 215.706 79.2143 215.876 79.9806C217.445 87.0437 220.286 95.8543 221.479 103.733C222.032 107.368 222.953 110.873 223.533 114.414C224.091 117.857 224.137 118.173 224.887 118.038C225.706 117.888 226.497 117.617 227.313 117.42L227.309 117.437Z" fill="#FFFCD7"/>
<path d="M261.581 142.774C260.929 143.102 260.269 143.463 259.615 143.744C259.26 143.902 258.898 143.887 258.542 144.038C256.778 144.772 254.982 145.537 253.147 146.271C252.379 146.577 251.606 146.86 250.819 147.155C250.753 147.177 250.684 147.224 250.621 147.23C250.425 147.242 250.325 146.898 250.278 146.152C250.264 145.909 250.262 145.646 250.261 145.392C250.245 143.923 250.214 142.457 250.167 140.994C250.047 136.977 250.425 132.299 250.204 127.755C249.926 122.204 248.922 116.465 248.257 110.355C247.683 105.117 246.682 99.6791 245.715 94.6079C243.199 81.4183 238.673 67.5685 233.562 54.7006C232.607 52.3016 231.703 49.8435 230.733 47.4874C230.05 45.8082 229.315 44.1484 228.561 42.5088C228.342 42.0241 228.112 41.5259 227.902 41.0471C227.415 39.9293 227.297 39.3983 227.602 39.3385C228.006 39.2567 228.441 39.2475 228.861 39.202C229.313 39.1574 229.763 39.1051 230.215 39.0605C230.355 39.0453 230.484 39.0167 230.625 39.0091C231.838 38.9468 233.035 38.8879 234.235 38.8442C234.59 38.829 235.015 38.9496 235.306 38.8291C235.874 38.5914 236.701 38.8376 237.338 38.7281C237.967 38.6203 238.659 38.6178 239.33 38.5959C240.612 38.5581 241.901 38.5582 243.169 38.5313C243.558 38.5246 243.889 38.4033 244.278 38.3965C245.181 38.3789 246.117 38.4338 246.996 38.4136C248.122 38.3943 249.206 38.3287 250.297 38.2933C250.361 38.295 250.418 38.2664 250.484 38.2757C250.923 38.2816 251.183 38.5185 252.092 39.9962C252.966 41.4183 253.759 42.8741 254.537 44.3333C257.4 49.7317 260.113 55.0677 263.124 61.5957C263.597 62.6132 263.95 63.6652 264.231 64.7172C264.504 65.7312 264.521 66.1654 264.303 66.2935C263.979 66.4848 263.641 66.6475 263.275 66.7208C261.486 67.0544 259.688 67.3822 257.855 67.6939C256.789 67.8751 255.703 68.0048 254.621 68.1497C253.864 68.2542 253.103 68.3755 252.325 68.4606C251.851 68.5102 251.345 68.4554 250.871 68.5447C249.81 68.7486 250.523 69.5217 250.884 72.5065C250.988 73.4068 251.303 74.2523 251.705 75.0944C252.032 75.7781 252.255 76.1346 252.46 76.2004C252.683 76.2704 252.87 76.2527 253.052 76.2123C253.864 76.0319 254.64 75.7639 255.47 75.6274C256.676 75.4311 257.921 75.3377 259.123 75.1582C260.301 74.9762 261.446 74.7218 262.604 74.5204C262.873 74.4766 263.145 74.448 263.436 74.4707C263.655 74.4859 263.98 74.947 264.275 75.7015C264.483 76.2444 264.675 76.8226 264.835 77.4001C266.512 83.3724 267.511 89.9094 268.695 96.1026C268.729 96.2543 268.754 96.4002 268.78 96.5536C268.948 97.5989 268.923 97.9866 268.687 98.1425C268.624 98.1805 268.543 98.1746 268.474 98.1897C266.528 98.638 264.565 99.0821 262.59 99.5447C261.537 99.7865 260.48 100.045 259.415 100.306C259 100.406 258.591 100.536 258.182 100.667C258.106 100.684 258.048 100.745 257.984 100.815C257.825 100.993 257.787 101.503 257.908 102.264C258.163 103.88 258.403 105.498 258.581 107.122C258.657 107.822 258.81 108.226 258.974 108.245C259.252 108.279 259.523 108.282 259.787 108.216C261.076 107.89 262.343 107.537 263.61 107.183C265.521 106.647 267.417 106.115 269.296 105.578C270.472 105.245 271.635 104.891 272.794 104.554C272.877 104.536 272.962 104.485 273.054 104.505C273.239 104.551 273.36 104.914 273.376 105.778C273.401 107.142 273.255 108.528 273.405 109.848C273.521 110.873 273.734 111.868 273.83 112.874C274.197 116.638 274.195 119.894 273.879 123.451C273.572 126.943 272.967 130.349 272.708 133.448C272.644 134.234 272.607 134.999 272.55 135.783C272.51 136.318 272.458 136.871 272.376 137.398C272.275 138.058 272.108 138.525 271.939 138.658C271.783 138.78 271.628 138.87 271.483 138.934C270.562 139.306 269.65 139.644 268.718 140.034C267.503 140.551 266.284 141.116 265.052 141.629C264.097 142.024 263.141 142.379 262.168 142.731C261.97 142.807 261.77 142.803 261.579 142.838C261.576 142.823 261.58 142.806 261.584 142.789L261.581 142.774Z" fill="#FFFCD7"/>
<path d="M301.977 123.682C301.671 124.347 301.574 124.344 301.469 124.408C300.971 124.709 300.475 124.987 299.956 125.301C299.155 125.781 298.368 126.108 297.547 126.569C296.959 126.898 296.4 127.142 295.809 127.456C295.19 127.785 294.548 128.158 293.913 128.522C293.687 128.652 293.479 128.722 293.35 128.496C293.153 128.15 293.168 127.358 293.441 126.04C294.196 122.377 295.344 118.014 296.053 113.789C296.462 111.365 296.553 109.013 296.475 106.658C296.363 103.283 295.375 101.847 294.678 101.683C294.661 101.679 294.644 101.675 294.63 101.686C293.745 102.034 292.849 102.376 291.957 102.733C291.855 102.772 291.743 102.877 291.645 102.866C290.644 102.77 289.574 103.398 288.535 103.669C288.106 103.78 287.685 104.072 287.256 104.327C286.982 104.491 286.838 104.882 286.894 105.992C286.922 106.551 287.007 107.113 287.072 107.656C287.644 112.417 287.165 116.639 286.312 121.183C285.68 124.54 285.073 127.54 284.58 130.516C284.547 130.69 284.521 130.863 284.49 131.045C284.259 132.299 283.961 133.073 283.628 133.33C283.39 133.511 283.163 133.601 282.94 133.706C280.837 134.667 278.579 135.614 276.534 136.514C276.446 136.55 276.356 136.61 276.271 136.621C276.082 136.631 276.022 136.182 276.125 135.355C276.529 132.121 276.874 129.012 277.461 125.346C277.668 124.058 277.805 122.778 277.928 121.501C278.113 119.613 278.309 117.627 278.205 115.867C277.795 108.897 277.438 100.696 276.361 93.8424C275.26 86.8426 273.984 77.2625 270.654 70.909C269.038 67.8288 269.06 63.9867 267.447 60.7387C266.452 58.7308 265.702 57.0027 264.741 55.1861C263.608 53.0576 262.457 51.0682 261.435 49.0821C261.083 48.3959 260.728 47.7266 260.364 47.059C259.619 45.6723 258.882 44.2915 258.086 42.9318C257.583 42.0643 255.075 38.2271 255.007 37.8124C255.65 37.8048 257.079 37.9331 257.334 37.9322C258.02 37.939 258.688 37.934 259.453 37.9392C260.426 37.946 261.369 37.9275 262.35 37.9723C263.612 38.0263 264.912 38.1436 266.142 38.1968C266.816 38.2221 267.403 38.1396 268.048 38.1396C269.337 38.1397 270.612 38.1432 271.915 38.204C272.399 38.2319 273.082 38.478 273.546 38.4865C274.464 38.4975 275.62 38.7901 276.89 39.2404C278.435 39.7808 280.155 40.5371 282.384 42.1119C282.734 42.3605 283.069 42.5806 283.449 42.8942C284.52 43.7709 285.549 44.5693 286.655 45.6053C288.335 47.1826 289.773 48.6385 291.868 50.9753C292.165 51.3074 292.469 51.6378 292.753 51.9489C295.841 55.315 297.901 59.2121 299.364 63.7194C300.21 66.3098 301.236 68.4543 301.633 70.7783C301.909 72.3808 302.094 73.7885 302.168 75.197C302.285 77.3685 301.838 79.3704 301.295 80.6533C301.264 80.7317 301.225 80.8758 301.237 81.0402C301.25 81.2762 301.291 81.5696 301.342 81.7972C301.377 81.9565 301.452 82.115 301.497 82.1369C301.968 82.3586 302.4 83.3373 302.856 84.0243C303.603 85.132 304.419 86.7977 305.096 88.8048C305.665 90.5093 306.029 92.5779 306.065 94.7114C306.12 98.0747 306.178 101.525 306.044 104.508C305.899 107.725 305.155 111.504 304.086 114.791C303.682 116.019 303.311 117.216 303.03 118.281C302.618 119.869 302.288 121.535 302.123 122.726C302.085 123.021 302.026 123.329 301.972 123.659L301.977 123.682ZM286.12 72.5843C286.13 72.6299 286.146 72.6661 286.164 72.7099C286.976 72.5692 287.805 72.4648 288.597 72.2651C289.139 72.1285 289.672 71.9465 290.144 71.6347C290.622 71.3135 290.032 69.518 289.318 67.6627C289.019 66.8931 288.996 65.9987 288.676 65.1701C287.969 63.313 287.267 62.1236 286.674 61.9608C286.232 61.8361 285.84 61.8992 285.441 61.9321C285.081 61.9565 284.749 62.0779 284.392 62.1174C283.586 62.2169 282.682 62.0195 281.979 62.4384C281.797 62.5505 281.546 62.4949 281.327 62.5117C280.611 62.5513 279.881 62.5622 279.182 62.638C278.972 62.6607 278.805 62.8411 278.631 62.9911C278.506 63.1066 278.533 63.5146 278.699 64.1223C278.866 64.7301 279.035 65.3455 279.226 65.9558C279.762 67.6518 280.24 69.2652 281.033 70.8643C282.086 72.9869 282.067 73.2617 282.646 73.1809C283.799 73.0284 284.955 72.7874 286.112 72.586L286.12 72.5843Z" fill="#FFFCD7"/>
<path d="M308.699 80.1549C308.247 76.2908 307.25 73.2722 306.566 70.4787C305.875 67.6548 304.452 65.0491 303.777 62.3331C302.96 59.0515 301.98 56.1804 300.984 53.8462C300.075 51.7236 299.094 49.9593 298.473 48.3855C298.351 48.0862 298.275 47.8165 298.183 47.5425C298.043 47.1278 297.897 46.7223 297.753 46.3244C297.693 46.1626 297.633 46.0007 297.605 45.8718C297.498 45.3938 297.391 44.9083 297.304 44.4817C297.184 43.8714 297.139 43.348 296.941 42.7394C296.511 41.4496 296.911 40.9945 297.057 40.5401C297.119 40.3513 297.269 40.2384 297.504 40.1861C297.739 40.1339 298.134 40.1896 298.465 40.2115C298.546 40.2174 298.745 40.2925 298.763 40.2646C298.858 40.1163 299.43 40.2917 299.798 40.3372C300.035 40.3642 300.448 40.5033 300.806 40.607C301.18 40.715 301.61 40.8583 301.976 40.9679C302.794 41.2082 303.677 41.4898 304.962 42.0083C305.399 42.182 305.672 42.2646 306.054 42.4105C307.212 42.854 308.655 43.4728 310.222 44.1835C311.55 44.788 312.775 45.32 314.243 46.0526C315.487 46.6681 316.665 47.2422 317.932 47.8922C319.593 48.7412 321.28 49.6323 323.084 50.585C324.653 51.4146 326.462 52.3183 328.16 53.3342C328.793 53.711 329.443 54.1638 330.041 54.5962C332.396 56.3101 334.212 58.4302 335.898 60.858C336.61 61.878 337.385 62.6772 338.158 63.6837C338.28 63.8397 338.396 64.0049 338.509 64.155C339.605 65.5754 340.353 67.081 340.829 68.8301C341.7 71.9962 341.547 75.3578 341.527 78.5307C341.501 82.0314 339.961 86.0276 338.742 88.9652C338.075 90.5861 337.144 92.3056 336.043 93.8717C334.552 96.0101 332.694 98.3651 330.972 100.324C330.045 101.382 329.21 102.284 328.395 103.237C327.276 104.544 326.318 105.641 325.357 106.762C324.794 107.42 324.226 108.088 323.656 108.748C323.491 108.936 323.345 109.103 323.216 109.236C322.213 110.278 321.195 111.356 320.183 112.393C319.373 113.226 318.705 113.836 318.049 114.396C317.599 114.774 317.134 115.188 316.762 115.414C316.559 115.539 316.3 115.803 316.058 116.008C315.999 116.061 315.929 116.141 315.879 116.167C315.495 116.412 315.106 116.666 314.74 116.882C314.535 116.999 314.356 117.055 314.178 117.111C314.045 117.156 313.933 117.157 313.809 117.169C313.748 117.182 313.723 117.108 313.635 117.175C312.953 117.653 312.698 117.328 312.34 117.081C311.87 116.756 311.463 116.106 311.189 115.052C311.117 114.765 311.102 114.339 311.073 113.955C311.023 113.337 310.981 112.718 311.043 111.852C311.107 110.994 311.124 110.138 311.248 108.901C311.401 107.37 311.425 105.828 311.307 104.294C311.088 101.588 310.576 98.1358 310.568 93.9818C310.565 91.6738 310.21 89.4282 309.78 87.1354C309.316 84.6512 308.913 81.9782 308.693 80.1642L308.699 80.1549ZM318.716 59.0545C318.138 58.9996 317.623 59.0822 317.313 59.6208C317.07 60.033 316.748 60.3035 316.555 60.8321C316.248 61.6724 315.33 62.7362 315.931 64.1869C316.736 66.1257 317.199 68.6419 318.216 71.9665C318.575 73.1526 318.625 74.4153 318.805 75.657C319.143 78.0021 319.462 80.2957 320.074 82.2294C320.52 83.6271 320.96 84.8907 321.404 85.8508C322.258 87.7231 322.845 89.328 323.558 89.9898C323.738 90.1567 323.895 90.4324 324.068 90.5689C324.336 90.7721 324.577 91.0292 324.874 91.0427C325.639 91.0799 326.597 90.4132 327.594 89.4911C328.924 88.2723 330.361 86.2494 331.011 83.048C331.078 82.7386 331.153 82.4672 331.203 82.1536C331.291 81.6167 331.363 81.0831 331.403 80.5091C331.521 78.604 331.524 76.5018 331.423 74.2949C331.298 71.5444 330.396 69.2052 329.279 67.0413C328.605 65.7263 327.698 64.5107 326.504 63.725C326.067 63.44 325.638 63.193 325.408 62.8777C324.453 61.5534 323.208 60.5721 322.176 60.0452C320.885 59.3927 319.745 59.1363 318.729 59.0435L318.716 59.0545Z" fill="#FFFCD7"/>
</svg>
