<svg width="202" height="93" viewBox="0 0 202 93" fill="none" xmlns="http://www.w3.org/2000/svg">
<path d="M177.52 2H23.76C11.7423 2 2 11.7423 2 23.76V68.44C2 80.4577 11.7423 90.2 23.76 90.2H177.52C189.538 90.2 199.28 80.4577 199.28 68.44V23.76C199.28 11.7423 189.538 2 177.52 2Z" stroke="#00D700" stroke-width="4" stroke-miterlimit="10"/>
<path d="M28.4301 41.78H23.4601C16.8401 41.78 15.1801 38.5 16.9701 31.88L17.8601 28.5C19.6501 21.88 23.0301 18.6 29.6501 18.6H34.6201L33.3301 23.5H24.3201L20.7401 36.88H29.7101L28.4201 41.78H28.4301Z" fill="#00D700"/>
<path d="M32.4803 32.54L33.7404 27.84C35.5304 21.22 39.2703 18.07 45.0303 18.07C50.7903 18.07 52.8804 21.22 51.0904 27.84L49.8303 32.54C48.0403 39.16 44.3004 42.31 38.5404 42.31C32.7804 42.31 30.6903 39.16 32.4803 32.54ZM36.2804 37.41H43.4004L47.2703 22.97H40.1504L36.2804 37.41Z" fill="#00D700"/>
<path d="M49.7002 41.78L54.6302 23.37C55.4902 20.19 58.1402 18.07 60.7602 18.07C62.7802 18.07 64.8702 19.36 64.5002 22.54L63.3102 37.08H64.2002L68.5402 18.6H73.7102L68.7402 37.11C67.7802 40.72 65.2602 42.31 62.8502 42.31C60.5702 42.31 58.8102 40.89 59.2102 38.04L60.7002 22.94H59.8402L54.8402 41.78H49.7102H49.7002Z" fill="#00D700"/>
<path d="M75.7898 18.6H93.7698L92.4498 23.5H86.0598L81.1598 41.78H76.0298L80.9298 23.5H74.5098L75.7998 18.6H75.7898Z" fill="#00D700"/>
<path d="M95.72 18.6H110.79L109.5 23.5H99.53L98.44 27.61H105.89L104.6 32.51H97.12L95.96 36.88H105.89L104.6 41.78H89.5L95.72 18.6Z" fill="#00D700"/>
<path d="M106.98 41.78L111.91 23.37C112.77 20.19 115.42 18.07 118.04 18.07C120.06 18.07 122.15 19.36 121.78 22.54L120.59 37.08H121.48L125.82 18.6H130.99L126.02 37.11C125.06 40.72 122.54 42.31 120.13 42.31C117.85 42.31 116.09 40.89 116.49 38.04L117.98 22.94H117.12L112.12 41.78H106.99H106.98Z" fill="#00D700"/>
<path d="M133.61 18.6H146.56L145.24 23.5H141.37L137.76 36.88H141.67L140.35 41.78H127.4L128.72 36.88H132.66L136.24 23.5H132.3L133.62 18.6H133.61Z" fill="#00D700"/>
<path d="M158.58 18.6C164.51 18.6 166.16 21.78 164.34 28.57L163.48 31.82C161.66 38.61 158.28 41.79 152.39 41.79H143.02L149.21 18.61H158.58V18.6ZM153.05 23.5L149.44 36.88H156.99L160.57 23.5H153.05Z" fill="#00D700"/>
<path d="M165.2 32.54L166.46 27.84C168.25 21.22 171.99 18.07 177.75 18.07C183.51 18.07 185.6 21.22 183.81 27.84L182.55 32.54C180.76 39.16 177.02 42.31 171.26 42.31C165.5 42.31 163.41 39.16 165.2 32.54ZM169.01 37.41H176.13L180 22.97H172.88L169.01 37.41Z" fill="#00D700"/>
<path d="M17.42 46.75H22.55L21.79 65.59H22.32L31.66 46.75H36.83L26.9 66.32C25.41 69.3 23.29 70.46 20.74 70.46C18.19 70.46 16.77 69.3 16.83 66.32L17.43 46.75H17.42Z" fill="#00D700"/>
<path d="M38.3196 46.75H53.3896L52.0996 51.65H42.1296L41.0396 55.76H48.4896L47.1996 60.66H39.7196L38.5596 65.03H48.4896L47.1996 69.93H32.0996L38.3196 46.75Z" fill="#00D700"/>
<path d="M63.8504 57.97H57.9203L57.6904 58.9H63.5804C68.2804 58.9 68.6104 61.15 67.9504 63.7L66.2604 69.92H61.3304L63.2504 62.67H56.6604L54.7404 69.92H49.6104L55.8004 46.74H65.2704C69.8704 46.74 71.7304 48.66 70.7004 52.47C70.1404 54.59 68.5504 58 63.8504 57.97ZM58.9804 54.1H65.5704L66.3604 51.19H59.7404L58.9804 54.1Z" fill="#00D700"/>
<path d="M84.0502 46.75C89.9802 46.75 91.6302 49.93 89.8102 56.72L88.9502 59.97C87.1302 66.76 83.7502 69.94 77.8602 69.94H68.4902L74.6802 46.76H84.0502V46.75ZM78.5202 51.65L74.9102 65.03H82.4602L86.0402 51.65H78.5202Z" fill="#00D700"/>
<path d="M86.5403 69.93L96.7403 50.49C98.1603 47.84 100.65 46.22 103.4 46.22C106.15 46.22 107.87 47.84 107.8 50.49L107.53 69.93H102.23L102.46 61.65H96.0403L91.8303 69.93H86.5303H86.5403ZM101.47 51.05L98.0903 57.61H102.59L102.79 51.05H101.47Z" fill="#00D700"/>
<path d="M124.621 46.75C130.551 46.75 132.201 49.93 130.381 56.72L129.521 59.97C127.701 66.76 124.321 69.94 118.431 69.94H109.061L115.251 46.76H124.621V46.75ZM119.091 51.65L115.481 65.03H123.031L126.611 51.65H119.091Z" fill="#00D700"/>
<path d="M135.45 46.75H150.52L149.23 51.65H139.26L138.17 55.76H145.62L144.33 60.66H136.85L135.69 65.03H145.62L144.33 69.93H129.23L135.45 46.75Z" fill="#00D700"/>
<path d="M160.98 57.97H155.05L154.82 58.9H160.71C165.41 58.9 165.74 61.15 165.08 63.7L163.39 69.92H158.46L160.38 62.67H153.79L151.87 69.92H146.74L152.93 46.74H162.4C167 46.74 168.86 48.66 167.83 52.47C167.27 54.59 165.68 58 160.98 57.97ZM156.11 54.1H162.7L163.49 51.19H156.87L156.11 54.1Z" fill="#00D700"/>
<path d="M167.44 60.69L168.7 55.99C170.49 49.37 174.23 46.22 179.99 46.22C185.75 46.22 187.84 49.37 186.05 55.99L184.79 60.69C183 67.31 179.26 70.46 173.5 70.46C167.74 70.46 165.65 67.31 167.44 60.69ZM171.24 65.55H178.36L182.23 51.11H175.11L171.24 65.55Z" fill="#00D700"/>
</svg>
