<svg width="58" height="35" viewBox="0 0 58 35" fill="none" xmlns="http://www.w3.org/2000/svg">
<g clip-path="url(#clip0_105_3)">
<path d="M-216.22 -47.38C-216.22 -21.08 -194.9 0.239998 -168.6 0.239998H-2.37C5.83 0.239998 13.81 2.88 20.39 7.77L50.94 33.81C54.16 36.75 58.9 32.58 56.38 29.01L47.89 8.24C46.23 4.47 48.99 0.230003 53.11 0.230003H101.38C127.68 0.230003 149 -21.09 149 -47.39C149 -73.68 127.68 -95 101.39 -95H-168.6C-194.9 -95 -216.22 -73.68 -216.22 -47.38Z" fill="#FFF600"/>
</g>
<defs>
<clipPath id="clip0_105_3">
<rect width="58" height="35" fill="white" transform="matrix(-1 0 0 1 58 0)"/>
</clipPath>
</defs>
</svg>
